<?xml version="1.0" standalone="no"?>
<!DOCTYPE svg PUBLIC "-//W3C//DTD SVG 1.1//EN" "http://www.w3.org/Graphics/SVG/1.1/DTD/svg11.dtd" >
<svg xmlns="http://www.w3.org/2000/svg" xmlns:xlink="http://www.w3.org/1999/xlink" version="1.1">
<metadata>
Created by FontForge 20190801 at Sat Aug  8 01:36:11 2015
 By Jimmy Wärting
(c) 2015 Apple Inc. All rights reserved.
</metadata>
<defs>
<font id="SFUIDisplay-Heavy" horiz-adv-x="0" >
  <font-face 
    font-family="SF UI Display"
    font-weight="800"
    font-stretch="normal"
    units-per-em="2048"
    panose-1="0 0 9 0 0 0 0 0 0 0"
    ascent="1638"
    descent="-410"
    x-height="1113"
    cap-height="1443"
    bbox="-623 -867 2682 2206"
    underline-thickness="227"
    underline-position="-377"
    stemh="291"
    stemv="361"
    unicode-range="U+0020-FB02"
  />
<missing-glyph horiz-adv-x="2048" 
d="M100 -494v165h1848v-165h-1848zM100 -38v165h1848v-165h-1848zM100 418v165h1848v-165h-1848zM100 873v165h1848v-165h-1848zM100 1329v165h1848v-165h-1848zM100 1785v165h1848v-165h-1848z" />
    <glyph glyph-name=".notdef" horiz-adv-x="2048" 
d="M100 -494v165h1848v-165h-1848zM100 -38v165h1848v-165h-1848zM100 418v165h1848v-165h-1848zM100 873v165h1848v-165h-1848zM100 1329v165h1848v-165h-1848zM100 1785v165h1848v-165h-1848z" />
    <glyph glyph-name=".null" 
 />
    <glyph glyph-name="nonmarkingreturn" 
 />
    <glyph glyph-name="space" unicode=" " horiz-adv-x="414" 
 />
    <glyph glyph-name="A" unicode="A" horiz-adv-x="1477" 
d="M1058 0l-91 317h-472l-92 -317h-374l485 1443h449l485 -1443h-390zM727 1137l-161 -556h329l-160 556h-8z" />
    <glyph glyph-name="Agrave" unicode="&#xc0;" horiz-adv-x="1477" 
d="M1058 0l-91 317h-472l-92 -317h-374l485 1443h449l485 -1443h-390zM727 1137l-161 -556h329l-160 556h-8zM609 1561l-276 316h313l232 -316h-269z" />
    <glyph glyph-name="Aacute" unicode="&#xc1;" horiz-adv-x="1477" 
d="M1058 0l-91 317h-472l-92 -317h-374l485 1443h449l485 -1443h-390zM727 1137l-161 -556h329l-160 556h-8zM863 1554h-269l232 316h313z" />
    <glyph glyph-name="Adieresis" unicode="&#xc4;" horiz-adv-x="1477" 
d="M1058 0l-91 317h-472l-92 -317h-374l485 1443h449l485 -1443h-390zM727 1137l-161 -556h329l-160 556h-8zM521 1547c-84 0 -147 64 -147 141c0 78 63 141 147 141c85 0 148 -63 148 -141c0 -77 -63 -141 -148 -141zM954 1547c-85 0 -147 64 -147 141c0 78 62 141 147 141
s147 -63 147 -141c0 -77 -62 -141 -147 -141z" />
    <glyph glyph-name="Adieresismacron" unicode="&#x1de;" horiz-adv-x="1477" 
d="M1058 0l-91 317h-472l-92 -317h-374l485 1443h449l485 -1443h-390zM727 1137l-161 -556h329l-160 556h-8zM524 1825c83 0 144 -62 144 -138c0 -75 -61 -138 -144 -138s-144 63 -144 138c0 76 61 138 144 138zM377 2098h722v-163h-722v163zM952 1825
c83 0 144 -62 144 -138c0 -75 -61 -138 -144 -138s-144 63 -144 138c0 76 61 138 144 138z" />
    <glyph glyph-name="Aring" unicode="&#xc5;" horiz-adv-x="1477" 
d="M1058 0l-91 317h-472l-92 -317h-374l485 1443h449l485 -1443h-390zM727 1137l-161 -556h329l-160 556h-8zM738 1517c-117 0 -215 95 -215 209c0 116 98 210 215 210s214 -94 214 -210c0 -114 -97 -209 -214 -209zM738 1640c48 0 88 39 88 86c0 48 -40 87 -88 87
s-88 -39 -88 -87c0 -47 40 -86 88 -86z" />
    <glyph glyph-name="Aringacute" unicode="&#x1fa;" horiz-adv-x="1477" 
d="M1058 0l-91 317h-472l-92 -317h-374l485 1443h449l485 -1443h-390zM727 1137l-161 -556h329l-160 556h-8zM738 1508c-121 0 -210 87 -210 204c0 116 89 203 210 203c120 0 210 -86 210 -203c0 -118 -90 -204 -210 -204zM738 1631c46 0 81 35 81 81s-35 80 -81 80
c-47 0 -82 -34 -82 -80s35 -81 82 -81zM737 2176h288l-166 -198h-238z" />
    <glyph glyph-name="Atilde" unicode="&#xc3;" horiz-adv-x="1477" 
d="M1058 0l-91 317h-472l-92 -317h-374l485 1443h449l485 -1443h-390zM727 1137l-161 -556h329l-160 556h-8zM885 1543c-142 0 -192 127 -263 127c-46 0 -67 -48 -69 -110h-181c0 180 105 283 234 283c144 0 195 -127 265 -127c45 0 65 45 67 114h181
c0 -179 -106 -287 -234 -287z" />
    <glyph glyph-name="Abrevegrave" unicode="&#x1eb0;" horiz-adv-x="1477" 
d="M1058 0l-91 317h-472l-92 -317h-374l485 1443h449l485 -1443h-390zM727 1137l-161 -556h329l-160 556h-8zM1114 1850c-1 -161 -139 -305 -376 -305s-375 144 -376 305h210c3 -73 66 -137 166 -137s163 64 166 137h210zM885 1907h-251l-237 263h290z" />
    <glyph glyph-name="Adotmacron" unicode="&#x1e0;" horiz-adv-x="1477" 
d="M1058 0l-91 317h-472l-92 -317h-374l485 1443h449l485 -1443h-390zM727 1137l-161 -556h329l-160 556h-8zM738 1545c-86 0 -148 64 -148 142s62 142 148 142s148 -64 148 -142s-62 -142 -148 -142zM1099 2098v-163h-722v163h722z" />
    <glyph glyph-name="Aringbelow" unicode="&#x1e00;" horiz-adv-x="1477" 
d="M1058 0l-91 317h-472l-92 -317h-374l485 1443h449l485 -1443h-390zM727 1137l-161 -556h329l-160 556h-8zM738 -592c-127 0 -234 103 -234 227c0 125 107 227 234 227c126 0 232 -102 232 -227c0 -124 -106 -227 -232 -227zM738 -457c51 0 94 42 94 92
c0 51 -43 93 -94 93s-95 -42 -95 -93c0 -50 44 -92 95 -92z" />
    <glyph glyph-name="Acircumflex" unicode="&#xc2;" horiz-adv-x="1477" 
d="M1058 0l-91 317h-472l-92 -317h-374l485 1443h449l485 -1443h-390zM727 1137l-161 -556h329l-160 556h-8zM601 1867h274l263 -328h-250l-147 194h-6l-147 -194h-250z" />
    <glyph glyph-name="Acircumflexdotbelow" unicode="&#x1eac;" horiz-adv-x="1477" 
d="M1058 0l-91 317h-472l-92 -317h-374l485 1443h449l485 -1443h-390zM727 1137l-161 -556h329l-160 556h-8zM738 -492c-92 0 -164 73 -164 163s72 163 164 163s164 -73 164 -163s-72 -163 -164 -163zM601 1867h274l263 -328h-250l-147 194h-6l-147 -194h-250z" />
    <glyph glyph-name="Acircumflexacute" unicode="&#x1ea4;" horiz-adv-x="1477" 
d="M1058 0l-91 317h-472l-92 -317h-374l485 1443h449l485 -1443h-390zM727 1137l-161 -556h329l-160 556h-8zM602 1832h274l257 -287h-257l-132 158h-10l-133 -158h-257zM802 1907l198 263h290l-237 -263h-251z" />
    <glyph glyph-name="Acircumflextilde" unicode="&#x1eaa;" horiz-adv-x="1477" 
d="M1058 0l-91 317h-472l-92 -317h-374l485 1443h449l485 -1443h-390zM727 1137l-161 -556h329l-160 556h-8zM878 1894c-144 0 -188 124 -261 124c-47 0 -67 -44 -71 -105h-179c0 176 103 276 233 276c146 0 192 -124 262 -124c46 0 67 42 70 109h179
c0 -175 -104 -280 -233 -280zM601 1827h274l257 -282h-257l-132 154h-10l-132 -154h-257z" />
    <glyph glyph-name="Acircumflexgrave" unicode="&#x1ea6;" horiz-adv-x="1477" 
d="M1058 0l-91 317h-472l-92 -317h-374l485 1443h449l485 -1443h-390zM727 1137l-161 -556h329l-160 556h-8zM601 1832h274l257 -287h-257l-132 158h-10l-132 -158h-257zM1099 1907h-251l-237 263h290z" />
    <glyph glyph-name="Acircumflexhookabove" unicode="&#x1ea8;" horiz-adv-x="1477" 
d="M1058 0l-91 317h-472l-92 -317h-374l485 1443h449l485 -1443h-390zM727 1137l-161 -556h329l-160 556h-8zM602 1832h273l258 -287h-257l-133 158h-9l-133 -158h-257zM852 1999v148c34 17 94 27 151 27c155 0 251 -80 251 -210c0 -96 -62 -190 -170 -235l-100 118
c54 21 72 59 72 96c0 45 -37 74 -99 74c-32 0 -78 -8 -105 -18z" />
    <glyph glyph-name="Abreve" unicode="&#x102;" horiz-adv-x="1477" 
d="M1058 0l-91 317h-472l-92 -317h-374l485 1443h449l485 -1443h-390zM727 1137l-161 -556h329l-160 556h-8zM363 1865h208c4 -92 65 -159 167 -159s163 67 167 159h208c-5 -179 -139 -326 -375 -326s-370 147 -375 326z" />
    <glyph glyph-name="Abreveacute" unicode="&#x1eae;" horiz-adv-x="1477" 
d="M1058 0l-91 317h-472l-92 -317h-374l485 1443h449l485 -1443h-390zM727 1137l-161 -556h329l-160 556h-8zM362 1850h210c3 -73 66 -137 166 -137s163 64 166 137h210c-1 -161 -139 -305 -376 -305s-375 144 -376 305zM591 1907l198 263h290l-237 -263h-251z" />
    <glyph glyph-name="Abrevetilde" unicode="&#x1eb4;" horiz-adv-x="1477" 
d="M1058 0l-91 317h-472l-92 -317h-374l485 1443h449l485 -1443h-390zM727 1137l-161 -556h329l-160 556h-8zM363 1838h210c6 -67 66 -125 165 -125s159 58 165 125h210c-3 -155 -140 -293 -375 -293s-372 138 -375 293zM878 1895c-144 0 -190 123 -261 123
c-46 0 -67 -46 -71 -97h-183c0 166 105 267 237 267c145 0 194 -122 261 -122c45 0 65 42 69 108h183c0 -173 -105 -279 -235 -279z" />
    <glyph glyph-name="Abrevehookabove" unicode="&#x1eb2;" horiz-adv-x="1477" 
d="M1058 0l-91 317h-472l-92 -317h-374l485 1443h449l485 -1443h-390zM727 1137l-161 -556h329l-160 556h-8zM534 2037v142c29 14 97 27 148 27c145 0 236 -71 236 -184c0 -90 -86 -192 -193 -229l-85 101c57 21 92 59 92 97c0 40 -40 67 -98 67c-36 0 -73 -8 -100 -21z
M363 1838h211c6 -74 73 -125 164 -125s159 51 165 125h211c-4 -171 -160 -293 -376 -293c-215 0 -371 122 -375 293z" />
    <glyph glyph-name="Abrevedotbelow" unicode="&#x1eb6;" horiz-adv-x="1477" 
d="M1058 0l-91 317h-472l-92 -317h-374l485 1443h449l485 -1443h-390zM727 1137l-161 -556h329l-160 556h-8zM738 -492c-92 0 -164 73 -164 163s72 163 164 163s164 -73 164 -163s-72 -163 -164 -163zM363 1865h208c4 -92 65 -159 167 -159s163 67 167 159h208
c-5 -179 -139 -326 -375 -326s-370 147 -375 326z" />
    <glyph glyph-name="Ainvertedbreve" unicode="&#x202;" horiz-adv-x="1477" 
d="M1058 0l-91 317h-472l-92 -317h-374l485 1443h449l485 -1443h-390zM727 1137l-161 -556h329l-160 556h-8zM363 1539c5 179 139 326 375 326s370 -147 375 -326h-208c-4 92 -65 160 -167 160s-163 -68 -167 -160h-208z" />
    <glyph glyph-name="Acaron" unicode="&#x1cd;" horiz-adv-x="1477" 
d="M1058 0l-91 317h-472l-92 -317h-374l485 1443h449l485 -1443h-390zM727 1137l-161 -556h329l-160 556h-8zM601 1539l-263 328h250l147 -195h6l147 195h250l-263 -328h-274z" />
    <glyph glyph-name="Adotaccent" unicode="&#x226;" horiz-adv-x="1477" 
d="M1058 0l-91 317h-472l-92 -317h-374l485 1443h449l485 -1443h-390zM727 1137l-161 -556h329l-160 556h-8zM738 1548c-92 0 -164 73 -164 163s72 163 164 163s164 -73 164 -163s-72 -163 -164 -163z" />
    <glyph glyph-name="Adotbelow" unicode="&#x1ea0;" horiz-adv-x="1477" 
d="M1058 0l-91 317h-472l-92 -317h-374l485 1443h449l485 -1443h-390zM727 1137l-161 -556h329l-160 556h-8zM738 -492c-92 0 -164 73 -164 163s72 163 164 163s164 -73 164 -163s-72 -163 -164 -163z" />
    <glyph glyph-name="Ahookabove" unicode="&#x1ea2;" horiz-adv-x="1477" 
d="M1058 0l-91 317h-472l-92 -317h-374l485 1443h449l485 -1443h-390zM727 1137l-161 -556h329l-160 556h-8zM541 1799v150c35 18 95 28 154 28c158 0 258 -82 258 -215c0 -104 -85 -201 -203 -251l-99 120c59 22 99 67 99 111c0 46 -38 75 -101 75c-32 0 -80 -7 -108 -18z
" />
    <glyph glyph-name="Adblgrave" unicode="&#x200;" horiz-adv-x="1477" 
d="M1058 0l-91 317h-472l-92 -317h-374l485 1443h449l485 -1443h-390zM727 1137l-161 -556h329l-160 556h-8zM830 1554l-276 316h311l231 -316h-266zM390 1554l-275 316h310l232 -316h-267z" />
    <glyph glyph-name="Amacron" unicode="&#x100;" horiz-adv-x="1477" 
d="M1058 0l-91 317h-472l-92 -317h-374l485 1443h449l485 -1443h-390zM727 1137l-161 -556h329l-160 556h-8zM1099 1777v-163h-722v163h722z" />
    <glyph glyph-name="Aogonek" unicode="&#x104;" horiz-adv-x="1477" 
d="M727 1137l-161 -556h329l-160 556h-8zM1351 -456c-37 -15 -90 -23 -156 -23c-171 0 -291 95 -291 232c0 92 54 178 155 241l-92 323h-472l-92 -317h-374l485 1443h449l485 -1443l-69 -5c-116 -15 -220 -101 -220 -185c0 -60 45 -95 121 -95c32 0 61 4 71 8v-179z" />
    <glyph glyph-name="B" unicode="B" horiz-adv-x="1352" 
d="M802 0h-693v1443h675c284 0 456 -137 456 -360c0 -162 -123 -291 -283 -313v-8c195 -9 350 -154 350 -346c0 -253 -196 -416 -505 -416zM476 1183v-328h193c134 0 213 63 213 167c0 101 -72 161 -195 161h-211zM476 260h222c151 0 236 66 236 188c0 118 -86 184 -238 184
h-220v-372z" />
    <glyph glyph-name="Blinebelow" unicode="&#x1e06;" horiz-adv-x="1352" 
d="M802 0h-693v1443h675c284 0 456 -137 456 -360c0 -162 -123 -291 -283 -313v-8c195 -9 350 -154 350 -346c0 -253 -196 -416 -505 -416zM476 1183v-328h193c134 0 213 63 213 167c0 101 -72 161 -195 161h-211zM476 260h222c151 0 236 66 236 188c0 118 -86 184 -238 184
h-220v-372zM1021 -235v-163h-722v163h722z" />
    <glyph glyph-name="Bdotbelow" unicode="&#x1e04;" horiz-adv-x="1352" 
d="M660 -492c-92 0 -164 73 -164 163s72 163 164 163s164 -73 164 -163s-72 -163 -164 -163zM802 0h-693v1443h675c284 0 456 -137 456 -360c0 -162 -123 -291 -283 -313v-8c195 -9 350 -154 350 -346c0 -253 -196 -416 -505 -416zM476 1183v-328h193c134 0 213 63 213 167
c0 101 -72 161 -195 161h-211zM476 260h222c151 0 236 66 236 188c0 118 -86 184 -238 184h-220v-372z" />
    <glyph glyph-name="Bdotaccent" unicode="&#x1e02;" horiz-adv-x="1352" 
d="M660 1548c-92 0 -164 73 -164 163s72 163 164 163s164 -73 164 -163s-72 -163 -164 -163zM802 0h-693v1443h675c284 0 456 -137 456 -360c0 -162 -123 -291 -283 -313v-8c195 -9 350 -154 350 -346c0 -253 -196 -416 -505 -416zM476 1183v-328h193c134 0 213 63 213 167
c0 101 -72 161 -195 161h-211zM476 260h222c151 0 236 66 236 188c0 118 -86 184 -238 184h-220v-372z" />
    <glyph glyph-name="C" unicode="C" horiz-adv-x="1488" 
d="M770 -25c-432 0 -701 275 -701 747c0 471 271 746 701 746c365 0 642 -235 653 -576h-353c-18 170 -139 282 -300 282c-200 0 -327 -171 -327 -451c0 -283 126 -454 328 -454c161 0 278 106 301 275h353c-17 -343 -283 -569 -655 -569z" />
    <glyph glyph-name="Cacute" unicode="&#x106;" horiz-adv-x="1488" 
d="M876 1554h-269l232 316h313zM770 -25c-432 0 -701 275 -701 747c0 471 271 746 701 746c365 0 642 -235 653 -576h-353c-18 170 -139 282 -300 282c-200 0 -327 -171 -327 -451c0 -283 126 -454 328 -454c161 0 278 106 301 275h353c-17 -343 -283 -569 -655 -569z" />
    <glyph glyph-name="Ccaron" unicode="&#x10c;" horiz-adv-x="1488" 
d="M770 -25c-432 0 -701 275 -701 747c0 471 271 746 701 746c365 0 642 -235 653 -576h-353c-18 170 -139 282 -300 282c-200 0 -327 -171 -327 -451c0 -283 126 -454 328 -454c161 0 278 106 301 275h353c-17 -343 -283 -569 -655 -569zM614 1539l-263 328h250l147 -195h6
l147 195h250l-263 -328h-274z" />
    <glyph glyph-name="Ccircumflex" unicode="&#x108;" horiz-adv-x="1488" 
d="M770 -25c-432 0 -701 275 -701 747c0 471 271 746 701 746c365 0 642 -235 653 -576h-353c-18 170 -139 282 -300 282c-200 0 -327 -171 -327 -451c0 -283 126 -454 328 -454c161 0 278 106 301 275h353c-17 -343 -283 -569 -655 -569zM614 1867h274l263 -328h-250
l-147 194h-6l-147 -194h-250z" />
    <glyph glyph-name="Cdotaccent" unicode="&#x10a;" horiz-adv-x="1488" 
d="M751 1548c-92 0 -164 73 -164 163s72 163 164 163s164 -73 164 -163s-72 -163 -164 -163zM770 -25c-432 0 -701 275 -701 747c0 471 271 746 701 746c365 0 642 -235 653 -576h-353c-18 170 -139 282 -300 282c-200 0 -327 -171 -327 -451c0 -283 126 -454 328 -454
c161 0 278 106 301 275h353c-17 -343 -283 -569 -655 -569z" />
    <glyph glyph-name="Ccedilla" unicode="&#xc7;" horiz-adv-x="1488" 
d="M1072 544h353c-16 -319 -247 -537 -579 -566l-38 -80c106 0 173 -62 173 -163c0 -123 -89 -191 -252 -191c-56 0 -106 5 -137 15v131c24 -8 67 -12 105 -12c69 0 100 14 100 45c0 38 -30 51 -112 51h-56v114l46 92c-376 38 -606 306 -606 742c0 471 271 746 701 746
c365 0 642 -235 653 -576h-353c-18 170 -139 282 -300 282c-200 0 -327 -171 -327 -451c0 -283 126 -454 328 -454c161 0 278 106 301 275z" />
    <glyph glyph-name="Ccedillaacute" unicode="&#x1e08;" horiz-adv-x="1488" 
d="M1152 1870l-276 -316h-269l232 316h313zM1072 544h353c-16 -319 -247 -537 -579 -566l-38 -80c106 0 173 -62 173 -163c0 -123 -89 -191 -252 -191c-56 0 -106 5 -137 15v131c24 -8 67 -12 105 -12c69 0 100 14 100 45c0 38 -30 51 -112 51h-56v114l46 92
c-376 38 -606 306 -606 742c0 471 271 746 701 746c365 0 642 -235 653 -576h-353c-18 170 -139 282 -300 282c-200 0 -327 -171 -327 -451c0 -283 126 -454 328 -454c161 0 278 106 301 275z" />
    <glyph glyph-name="D" unicode="D" horiz-adv-x="1459" 
d="M109 1443h589c435 0 691 -253 691 -713c0 -461 -256 -730 -691 -730h-589v1443zM476 1147v-851h173c239 0 367 145 367 433c0 271 -135 418 -367 418h-173z" />
    <glyph glyph-name="Ddotaccent" unicode="&#x1e0a;" horiz-adv-x="1459" 
d="M694 1548c-92 0 -164 73 -164 163s72 163 164 163s164 -73 164 -163s-72 -163 -164 -163zM109 1443h589c435 0 691 -253 691 -713c0 -461 -256 -730 -691 -730h-589v1443zM476 1147v-851h173c239 0 367 145 367 433c0 271 -135 418 -367 418h-173z" />
    <glyph glyph-name="Dcircumflexbelow" unicode="&#x1e12;" horiz-adv-x="1459" 
d="M109 1443h589c435 0 691 -253 691 -713c0 -461 -256 -730 -691 -730h-589v1443zM476 1147v-851h173c239 0 367 145 367 433c0 271 -135 418 -367 418h-173zM557 -156h274l263 -328h-250l-147 194h-6l-147 -194h-250z" />
    <glyph glyph-name="Dcommaaccent" unicode="&#x1e10;" horiz-adv-x="1459" 
d="M668 -477h-265l138 333h310zM109 1443h589c435 0 691 -253 691 -713c0 -461 -256 -730 -691 -730h-589v1443zM476 1147v-851h173c239 0 367 145 367 433c0 271 -135 418 -367 418h-173z" />
    <glyph glyph-name="Dlinebelow" unicode="&#x1e0e;" horiz-adv-x="1459" 
d="M1055 -235v-163h-722v163h722zM109 1443h589c435 0 691 -253 691 -713c0 -461 -256 -730 -691 -730h-589v1443zM476 1147v-851h173c239 0 367 145 367 433c0 271 -135 418 -367 418h-173z" />
    <glyph glyph-name="Dcaron" unicode="&#x10e;" horiz-adv-x="1459" 
d="M557 1539l-263 328h250l147 -195h6l147 195h250l-263 -328h-274zM109 1443h589c435 0 691 -253 691 -713c0 -461 -256 -730 -691 -730h-589v1443zM476 1147v-851h173c239 0 367 145 367 433c0 271 -135 418 -367 418h-173z" />
    <glyph glyph-name="Ddotbelow" unicode="&#x1e0c;" horiz-adv-x="1459" 
d="M694 -492c-92 0 -164 73 -164 163s72 163 164 163s164 -73 164 -163s-72 -163 -164 -163zM109 1443h589c435 0 691 -253 691 -713c0 -461 -256 -730 -691 -730h-589v1443zM476 1147v-851h173c239 0 367 145 367 433c0 271 -135 418 -367 418h-173z" />
    <glyph glyph-name="Dcroat" unicode="&#x110;" horiz-adv-x="1482" 
d="M499 296h173c239 0 367 145 367 433c0 271 -135 418 -367 418h-173v-295h243v-252h-243v-304zM132 1443h589c435 0 691 -253 691 -713c0 -461 -256 -730 -691 -730h-589v600h-80v252h80v591z" />
    <glyph glyph-name="E" unicode="E" horiz-adv-x="1196" 
d="M1098 296v-296h-989v1443h989v-296h-622v-287h585v-270h-585v-294h622z" />
    <glyph glyph-name="Egrave" unicode="&#xc8;" horiz-adv-x="1196" 
d="M474 1561l-276 316h313l232 -316h-269zM1098 296v-296h-989v1443h989v-296h-622v-287h585v-270h-585v-294h622z" />
    <glyph glyph-name="Edblgrave" unicode="&#x204;" horiz-adv-x="1196" 
d="M695 1554l-276 316h311l231 -316h-266zM255 1554l-275 316h310l232 -316h-267zM1098 296v-296h-989v1443h989v-296h-622v-287h585v-270h-585v-294h622z" />
    <glyph glyph-name="Eacute" unicode="&#xc9;" horiz-adv-x="1196" 
d="M728 1554h-269l232 316h313zM1098 296v-296h-989v1443h989v-296h-622v-287h585v-270h-585v-294h622z" />
    <glyph glyph-name="Ecircumflex" unicode="&#xca;" horiz-adv-x="1196" 
d="M466 1867h274l263 -328h-250l-147 194h-6l-147 -194h-250zM1098 296v-296h-989v1443h989v-296h-622v-287h585v-270h-585v-294h622z" />
    <glyph glyph-name="Ecircumflexhookabove" unicode="&#x1ec2;" horiz-adv-x="1196" 
d="M1098 296v-296h-989v1443h989v-296h-622v-287h585v-270h-585v-294h622zM467 1832h273l258 -287h-257l-133 158h-9l-133 -158h-257zM717 1999v148c34 17 94 27 151 27c155 0 251 -80 251 -210c0 -96 -62 -190 -170 -235l-100 118c54 21 72 59 72 96c0 45 -37 74 -99 74
c-32 0 -78 -8 -105 -18z" />
    <glyph glyph-name="Ecircumflexgrave" unicode="&#x1ec0;" horiz-adv-x="1196" 
d="M1098 296v-296h-989v1443h989v-296h-622v-287h585v-270h-585v-294h622zM466 1832h274l257 -287h-257l-132 158h-10l-132 -158h-257zM964 1907h-251l-237 263h290z" />
    <glyph glyph-name="Ecircumflextilde" unicode="&#x1ec4;" horiz-adv-x="1196" 
d="M743 1894c-144 0 -188 124 -261 124c-47 0 -67 -44 -71 -105h-179c0 176 103 276 233 276c146 0 192 -124 262 -124c46 0 67 42 70 109h179c0 -175 -104 -280 -233 -280zM466 1827h274l257 -282h-257l-132 154h-10l-132 -154h-257zM1098 296v-296h-989v1443h989v-296
h-622v-287h585v-270h-585v-294h622z" />
    <glyph glyph-name="Ecircumflexdotbelow" unicode="&#x1ec6;" horiz-adv-x="1196" 
d="M603 -492c-92 0 -164 73 -164 163s72 163 164 163s164 -73 164 -163s-72 -163 -164 -163zM466 1867h274l263 -328h-250l-147 194h-6l-147 -194h-250zM1098 296v-296h-989v1443h989v-296h-622v-287h585v-270h-585v-294h622z" />
    <glyph glyph-name="Ecircumflexacute" unicode="&#x1ebe;" horiz-adv-x="1196" 
d="M1098 296v-296h-989v1443h989v-296h-622v-287h585v-270h-585v-294h622zM467 1832h274l257 -287h-257l-132 158h-10l-133 -158h-257zM667 1907l198 263h290l-237 -263h-251z" />
    <glyph glyph-name="Edieresis" unicode="&#xcb;" horiz-adv-x="1196" 
d="M386 1547c-84 0 -147 64 -147 141c0 78 63 141 147 141c85 0 148 -63 148 -141c0 -77 -63 -141 -148 -141zM819 1547c-85 0 -147 64 -147 141c0 78 62 141 147 141s147 -63 147 -141c0 -77 -62 -141 -147 -141zM1098 296v-296h-989v1443h989v-296h-622v-287h585v-270
h-585v-294h622z" />
    <glyph glyph-name="Edotbelow" unicode="&#x1eb8;" horiz-adv-x="1196" 
d="M603 -492c-92 0 -164 73 -164 163s72 163 164 163s164 -73 164 -163s-72 -163 -164 -163zM1098 296v-296h-989v1443h989v-296h-622v-287h585v-270h-585v-294h622z" />
    <glyph glyph-name="Einvertedbreve" unicode="&#x206;" horiz-adv-x="1196" 
d="M1098 296v-296h-989v1443h989v-296h-622v-287h585v-270h-585v-294h622zM228 1539c5 179 139 326 375 326s370 -147 375 -326h-208c-4 92 -65 160 -167 160s-163 -68 -167 -160h-208z" />
    <glyph glyph-name="Ehookabove" unicode="&#x1eba;" horiz-adv-x="1196" 
d="M1098 296v-296h-989v1443h989v-296h-622v-287h585v-270h-585v-294h622zM406 1799v150c35 18 95 28 154 28c158 0 258 -82 258 -215c0 -104 -85 -201 -203 -251l-99 120c59 22 99 67 99 111c0 46 -38 75 -101 75c-32 0 -80 -7 -108 -18z" />
    <glyph glyph-name="Ecaron" unicode="&#x11a;" horiz-adv-x="1196" 
d="M466 1539l-263 328h250l147 -195h6l147 195h250l-263 -328h-274zM1098 296v-296h-989v1443h989v-296h-622v-287h585v-270h-585v-294h622z" />
    <glyph glyph-name="Emacron" unicode="&#x112;" horiz-adv-x="1196" 
d="M1098 296v-296h-989v1443h989v-296h-622v-287h585v-270h-585v-294h622zM964 1777v-163h-722v163h722z" />
    <glyph glyph-name="Emacrongrave" unicode="&#x1e14;" horiz-adv-x="1196" 
d="M242 1614v163h722v-163h-722zM738 1907h-250l-238 263h290zM1098 296v-296h-989v1443h989v-296h-622v-287h585v-270h-585v-294h622z" />
    <glyph glyph-name="Emacronacute" unicode="&#x1e16;" horiz-adv-x="1196" 
d="M964 1614h-722v163h722v-163zM468 1907l198 263h290l-238 -263h-250zM1098 296v-296h-989v1443h989v-296h-622v-287h585v-270h-585v-294h622z" />
    <glyph glyph-name="Etilde" unicode="&#x1ebc;" horiz-adv-x="1196" 
d="M1098 296v-296h-989v1443h989v-296h-622v-287h585v-270h-585v-294h622zM750 1543c-142 0 -192 127 -263 127c-46 0 -67 -48 -69 -110h-181c0 180 105 283 234 283c144 0 195 -127 265 -127c45 0 65 45 67 114h181c0 -179 -106 -287 -234 -287z" />
    <glyph glyph-name="Ecircumflexbelow" unicode="&#x1e18;" horiz-adv-x="1196" 
d="M1098 296v-296h-989v1443h989v-296h-622v-287h585v-270h-585v-294h622zM466 -156h274l263 -328h-250l-147 194h-6l-147 -194h-250z" />
    <glyph glyph-name="Ebreve" unicode="&#x114;" horiz-adv-x="1196" 
d="M1098 296v-296h-989v1443h989v-296h-622v-287h585v-270h-585v-294h622zM228 1865h208c4 -92 65 -159 167 -159s163 67 167 159h208c-5 -179 -139 -326 -375 -326s-370 147 -375 326z" />
    <glyph glyph-name="Etildebelow" unicode="&#x1e1a;" horiz-adv-x="1196" 
d="M750 -447c-142 0 -192 127 -263 127c-46 0 -67 -48 -69 -110h-181c0 180 105 283 234 283c144 0 195 -127 265 -127c45 0 65 45 67 114h181c0 -179 -106 -287 -234 -287zM1098 296v-296h-989v1443h989v-296h-622v-287h585v-270h-585v-294h622z" />
    <glyph glyph-name="Edotaccent" unicode="&#x116;" horiz-adv-x="1196" 
d="M603 1548c-92 0 -164 73 -164 163s72 163 164 163s164 -73 164 -163s-72 -163 -164 -163zM1098 296v-296h-989v1443h989v-296h-622v-287h585v-270h-585v-294h622z" />
    <glyph glyph-name="Ecedilla" unicode="&#x228;" horiz-adv-x="1196" 
d="M1098 1147h-622v-287h585v-270h-585v-294h622v-296h-390l-48 -102c106 0 173 -62 173 -163c0 -123 -89 -191 -252 -191c-56 0 -106 5 -137 15v131c24 -8 67 -12 105 -12c69 0 100 14 100 45c0 38 -30 51 -112 51h-56v114l56 112h-428v1443h989v-296z" />
    <glyph glyph-name="Ecedillabreve" unicode="&#x1e1c;" horiz-adv-x="1196" 
d="M770 1865h208c-5 -179 -139 -326 -375 -326s-370 147 -375 326h208c4 -92 65 -159 167 -159s163 67 167 159zM1098 1147h-622v-287h585v-270h-585v-294h622v-296h-390l-48 -102c106 0 173 -62 173 -163c0 -123 -89 -191 -252 -191c-56 0 -106 5 -137 15v131
c24 -8 67 -12 105 -12c69 0 100 14 100 45c0 38 -30 51 -112 51h-56v114l56 112h-428v1443h989v-296z" />
    <glyph glyph-name="Eogonek" unicode="&#x118;" horiz-adv-x="1196" 
d="M889 -479c-171 0 -290 94 -290 231c0 98 66 196 163 244v4h-653v1443h989v-296h-622v-287h585v-270h-585v-294h622v-293l-48 -10c-103 -20 -196 -105 -196 -183c0 -60 44 -95 121 -95c30 0 60 4 70 8v-179c-37 -15 -90 -23 -156 -23z" />
    <glyph glyph-name="F" unicode="F" horiz-adv-x="1144" 
d="M476 0h-367v1443h982v-296h-615v-328h559v-281h-559v-538z" />
    <glyph glyph-name="Fdotaccent" unicode="&#x1e1e;" horiz-adv-x="1144" 
d="M581 1548c-92 0 -164 73 -164 163s72 163 164 163s164 -73 164 -163s-72 -163 -164 -163zM476 0h-367v1443h982v-296h-615v-328h559v-281h-559v-538z" />
    <glyph glyph-name="G" unicode="G" horiz-adv-x="1510" 
d="M1437 610c0 -394 -244 -635 -655 -635c-445 0 -713 275 -713 749c0 468 268 744 704 744c350 0 612 -207 649 -501h-363c-36 128 -144 206 -285 206c-208 0 -331 -163 -331 -444c0 -286 136 -459 347 -459c166 0 282 98 292 243l1 22h-264v252h618v-177z" />
    <glyph glyph-name="Gacute" unicode="&#x1f4;" horiz-adv-x="1510" 
d="M878 1554h-269l232 316h313zM1437 610c0 -394 -244 -635 -655 -635c-445 0 -713 275 -713 749c0 468 268 744 704 744c350 0 612 -207 649 -501h-363c-36 128 -144 206 -285 206c-208 0 -331 -163 -331 -444c0 -286 136 -459 347 -459c166 0 282 98 292 243l1 22h-264
v252h618v-177z" />
    <glyph glyph-name="Gcaron" unicode="&#x1e6;" horiz-adv-x="1510" 
d="M616 1539l-263 328h250l147 -195h6l147 195h250l-263 -328h-274zM1437 610c0 -394 -244 -635 -655 -635c-445 0 -713 275 -713 749c0 468 268 744 704 744c350 0 612 -207 649 -501h-363c-36 128 -144 206 -285 206c-208 0 -331 -163 -331 -444c0 -286 136 -459 347 -459
c166 0 282 98 292 243l1 22h-264v252h618v-177z" />
    <glyph glyph-name="Gcircumflex" unicode="&#x11c;" horiz-adv-x="1510" 
d="M616 1867h274l263 -328h-250l-147 194h-6l-147 -194h-250zM1437 610c0 -394 -244 -635 -655 -635c-445 0 -713 275 -713 749c0 468 268 744 704 744c350 0 612 -207 649 -501h-363c-36 128 -144 206 -285 206c-208 0 -331 -163 -331 -444c0 -286 136 -459 347 -459
c166 0 282 98 292 243l1 22h-264v252h618v-177z" />
    <glyph glyph-name="Gbreve" unicode="&#x11e;" horiz-adv-x="1510" 
d="M1437 610c0 -394 -244 -635 -655 -635c-445 0 -713 275 -713 749c0 468 268 744 704 744c350 0 612 -207 649 -501h-363c-36 128 -144 206 -285 206c-208 0 -331 -163 -331 -444c0 -286 136 -459 347 -459c166 0 282 98 292 243l1 22h-264v252h618v-177zM378 1865h208
c4 -92 65 -159 167 -159s163 67 167 159h208c-5 -179 -139 -326 -375 -326s-370 147 -375 326z" />
    <glyph glyph-name="Gmacron" unicode="&#x1e20;" horiz-adv-x="1510" 
d="M1437 610c0 -394 -244 -635 -655 -635c-445 0 -713 275 -713 749c0 468 268 744 704 744c350 0 612 -207 649 -501h-363c-36 128 -144 206 -285 206c-208 0 -331 -163 -331 -444c0 -286 136 -459 347 -459c166 0 282 98 292 243l1 22h-264v252h618v-177zM1114 1777v-163
h-722v163h722z" />
    <glyph glyph-name="Gdotaccent" unicode="&#x120;" horiz-adv-x="1510" 
d="M753 1548c-92 0 -164 73 -164 163s72 163 164 163s164 -73 164 -163s-72 -163 -164 -163zM1437 610c0 -394 -244 -635 -655 -635c-445 0 -713 275 -713 749c0 468 268 744 704 744c350 0 612 -207 649 -501h-363c-36 128 -144 206 -285 206c-208 0 -331 -163 -331 -444
c0 -286 136 -459 347 -459c166 0 282 98 292 243l1 22h-264v252h618v-177z" />
    <glyph glyph-name="Gcommaaccent" unicode="&#x122;" horiz-adv-x="1510" 
d="M727 -477h-265l138 333h310zM1437 610c0 -394 -244 -635 -655 -635c-445 0 -713 275 -713 749c0 468 268 744 704 744c350 0 612 -207 649 -501h-363c-36 128 -144 206 -285 206c-208 0 -331 -163 -331 -444c0 -286 136 -459 347 -459c166 0 282 98 292 243l1 22h-264
v252h618v-177z" />
    <glyph glyph-name="H" unicode="H" horiz-adv-x="1527" 
d="M1417 0h-366v581h-575v-581h-367v1443h367v-566h575v566h366v-1443z" />
    <glyph glyph-name="Hdieresis" unicode="&#x1e26;" horiz-adv-x="1527" 
d="M1417 0h-366v581h-575v-581h-367v1443h367v-566h575v566h366v-1443zM546 1547c-84 0 -147 64 -147 141c0 78 63 141 147 141c85 0 148 -63 148 -141c0 -77 -63 -141 -148 -141zM979 1547c-85 0 -147 64 -147 141c0 78 62 141 147 141s147 -63 147 -141
c0 -77 -62 -141 -147 -141z" />
    <glyph glyph-name="Hcaron" unicode="&#x21e;" horiz-adv-x="1527" 
d="M1417 0h-366v581h-575v-581h-367v1443h367v-566h575v566h366v-1443zM626 1539l-263 328h250l147 -195h6l147 195h250l-263 -328h-274z" />
    <glyph glyph-name="Hcircumflex" unicode="&#x124;" horiz-adv-x="1527" 
d="M1417 0h-366v581h-575v-581h-367v1443h367v-566h575v566h366v-1443zM626 1867h274l263 -328h-250l-147 194h-6l-147 -194h-250z" />
    <glyph glyph-name="Hdotbelow" unicode="&#x1e24;" horiz-adv-x="1527" 
d="M1417 0h-366v581h-575v-581h-367v1443h367v-566h575v566h366v-1443zM763 -492c-92 0 -164 73 -164 163s72 163 164 163s164 -73 164 -163s-72 -163 -164 -163z" />
    <glyph glyph-name="Hdotaccent" unicode="&#x1e22;" horiz-adv-x="1527" 
d="M1417 0h-366v581h-575v-581h-367v1443h367v-566h575v566h366v-1443zM763 1548c-92 0 -164 73 -164 163s72 163 164 163s164 -73 164 -163s-72 -163 -164 -163z" />
    <glyph glyph-name="Hbrevebelow" unicode="&#x1e2a;" horiz-adv-x="1527" 
d="M388 -165h208c4 -92 65 -159 167 -159s163 67 167 159h208c-5 -179 -139 -326 -375 -326s-370 147 -375 326zM1417 0h-366v581h-575v-581h-367v1443h367v-566h575v566h366v-1443z" />
    <glyph glyph-name="Hcedilla" unicode="&#x1e28;" horiz-adv-x="1527" 
d="M1051 1443h366v-1443h-366v581h-575v-581h-156l-48 -102c106 0 173 -62 173 -163c0 -123 -89 -191 -252 -191c-56 0 -106 5 -137 15v131c24 -8 67 -12 105 -12c69 0 100 14 100 45c0 38 -30 51 -112 51h-56v114l56 112h-40v1443h367v-566h575v566z" />
    <glyph glyph-name="Hbar" unicode="&#x126;" horiz-adv-x="1567" 
d="M1071 877v162h-575v-162h575zM1527 1286v-247h-90v-1039h-366v581h-575v-581h-367v1039h-89v247h89v157h367v-157h575v157h366v-157h90z" />
    <glyph glyph-name="I" unicode="I" horiz-adv-x="585" 
d="M476 0h-367v1443h367v-1443z" />
    <glyph glyph-name="Idotaccent" unicode="&#x130;" horiz-adv-x="585" 
d="M476 0h-367v1443h367v-1443zM293 1548c-92 0 -164 73 -164 163s72 163 164 163s164 -73 164 -163s-72 -163 -164 -163z" />
    <glyph glyph-name="Igrave" unicode="&#xcc;" horiz-adv-x="585" 
d="M476 0h-367v1443h367v-1443zM164 1561l-276 316h313l232 -316h-269z" />
    <glyph glyph-name="Idblgrave" unicode="&#x208;" horiz-adv-x="585" 
d="M476 0h-367v1443h367v-1443zM385 1554l-276 316h311l231 -316h-266zM-55 1554l-275 316h310l232 -316h-267z" />
    <glyph glyph-name="Iacute" unicode="&#xcd;" horiz-adv-x="585" 
d="M476 0h-367v1443h367v-1443zM418 1554h-269l232 316h313z" />
    <glyph glyph-name="Icircumflex" unicode="&#xce;" horiz-adv-x="585" 
d="M476 0h-367v1443h367v-1443zM156 1867h274l263 -328h-250l-147 194h-6l-147 -194h-250z" />
    <glyph glyph-name="Icaron" unicode="&#x1cf;" horiz-adv-x="585" 
d="M476 0h-367v1443h367v-1443zM156 1539l-263 328h250l147 -195h6l147 195h250l-263 -328h-274z" />
    <glyph glyph-name="Idieresis" unicode="&#xcf;" horiz-adv-x="585" 
d="M476 0h-367v1443h367v-1443zM76 1547c-84 0 -147 64 -147 141c0 78 63 141 147 141c85 0 148 -63 148 -141c0 -77 -63 -141 -148 -141zM509 1547c-85 0 -147 64 -147 141c0 78 62 141 147 141s147 -63 147 -141c0 -77 -62 -141 -147 -141z" />
    <glyph glyph-name="Idieresisacute" unicode="&#x1e2e;" horiz-adv-x="585" 
d="M476 0h-367v1443h367v-1443zM158 1907l198 263h290l-238 -263h-250zM79 1549c-83 0 -144 63 -144 138c0 76 61 138 144 138s144 -62 144 -138c0 -75 -61 -138 -144 -138zM507 1549c-83 0 -144 63 -144 138c0 76 61 138 144 138s144 -62 144 -138
c0 -75 -61 -138 -144 -138z" />
    <glyph glyph-name="Ibreve" unicode="&#x12c;" horiz-adv-x="585" 
d="M476 0h-367v1443h367v-1443zM-82 1865h208c4 -92 65 -159 167 -159s163 67 167 159h208c-5 -179 -139 -326 -375 -326s-370 147 -375 326z" />
    <glyph glyph-name="Idotbelow" unicode="&#x1eca;" horiz-adv-x="585" 
d="M476 0h-367v1443h367v-1443zM293 -492c-92 0 -164 73 -164 163s72 163 164 163s164 -73 164 -163s-72 -163 -164 -163z" />
    <glyph glyph-name="Iinvertedbreve" unicode="&#x20a;" horiz-adv-x="585" 
d="M476 0h-367v1443h367v-1443zM-82 1539c5 179 139 326 375 326s370 -147 375 -326h-208c-4 92 -65 160 -167 160s-163 -68 -167 -160h-208z" />
    <glyph glyph-name="Imacron" unicode="&#x12a;" horiz-adv-x="585" 
d="M476 0h-367v1443h367v-1443zM654 1777v-163h-722v163h722z" />
    <glyph glyph-name="Itildebelow" unicode="&#x1e2c;" horiz-adv-x="585" 
d="M476 0h-367v1443h367v-1443zM440 -447c-142 0 -192 127 -263 127c-46 0 -67 -48 -69 -110h-181c0 180 105 283 234 283c144 0 195 -127 265 -127c45 0 65 45 67 114h181c0 -179 -106 -287 -234 -287z" />
    <glyph glyph-name="Ihookabove" unicode="&#x1ec8;" horiz-adv-x="585" 
d="M476 0h-367v1443h367v-1443zM96 1799v150c35 18 95 28 154 28c158 0 258 -82 258 -215c0 -104 -85 -201 -203 -251l-99 120c59 22 99 67 99 111c0 46 -38 75 -101 75c-32 0 -80 -7 -108 -18z" />
    <glyph glyph-name="Itilde" unicode="&#x128;" horiz-adv-x="585" 
d="M476 0h-367v1443h367v-1443zM440 1543c-142 0 -192 127 -263 127c-46 0 -67 -48 -69 -110h-181c0 180 105 283 234 283c144 0 195 -127 265 -127c45 0 65 45 67 114h181c0 -179 -106 -287 -234 -287z" />
    <glyph glyph-name="Iogonek" unicode="&#x12e;" horiz-adv-x="585" 
d="M109 -44v1487h367v-1443l-32 -7c-89 -26 -186 -93 -186 -177c0 -62 48 -101 132 -101c23 0 53 4 71 8v-179c-33 -13 -75 -23 -164 -23c-170 0 -287 95 -287 231c0 77 36 150 99 204z" />
    <glyph glyph-name="J" unicode="J" horiz-adv-x="1210" 
d="M25 470h353c1 -115 68 -187 173 -187c108 0 167 69 167 197v963h366v-965c0 -324 -198 -505 -529 -505c-324 0 -530 191 -530 497z" />
    <glyph glyph-name="Jcircumflex" unicode="&#x134;" horiz-adv-x="1210" 
d="M25 470h353c1 -115 68 -187 173 -187c108 0 167 69 167 197v963h366v-965c0 -324 -198 -505 -529 -505c-324 0 -530 191 -530 497zM771 1867h274l263 -328h-250l-147 194h-6l-147 -194h-250z" />
    <glyph glyph-name="K" unicode="K" horiz-adv-x="1401" 
d="M476 0h-367v1443h367v-634h8l491 634h394l-503 -641l532 -802h-431l-368 564l-123 -156v-408z" />
    <glyph glyph-name="Kacute" unicode="&#x1e30;" horiz-adv-x="1401" 
d="M821 1554h-269l232 316h313zM476 0h-367v1443h367v-634h8l491 634h394l-503 -641l532 -802h-431l-368 564l-123 -156v-408z" />
    <glyph glyph-name="Kcaron" unicode="&#x1e8;" horiz-adv-x="1401" 
d="M476 0h-367v1443h367v-634h8l491 634h394l-503 -641l532 -802h-431l-368 564l-123 -156v-408zM559 1539l-263 328h250l147 -195h6l147 195h250l-263 -328h-274z" />
    <glyph glyph-name="Kdotbelow" unicode="&#x1e32;" horiz-adv-x="1401" 
d="M696 -492c-92 0 -164 73 -164 163s72 163 164 163s164 -73 164 -163s-72 -163 -164 -163zM476 0h-367v1443h367v-634h8l491 634h394l-503 -641l532 -802h-431l-368 564l-123 -156v-408z" />
    <glyph glyph-name="Klinebelow" unicode="&#x1e34;" horiz-adv-x="1401" 
d="M476 0h-367v1443h367v-634h8l491 634h394l-503 -641l532 -802h-431l-368 564l-123 -156v-408zM1057 -235v-163h-722v163h722z" />
    <glyph glyph-name="Kcommaaccent" unicode="&#x136;" horiz-adv-x="1401" 
d="M476 0h-367v1443h367v-634h8l491 634h394l-503 -641l532 -802h-431l-368 564l-123 -156v-408zM670 -477h-265l138 333h310z" />
    <glyph glyph-name="L" unicode="L" horiz-adv-x="1132" 
d="M1073 296v-296h-964v1443h367v-1147h597z" />
    <glyph glyph-name="Lacute" unicode="&#x139;" horiz-adv-x="1132" 
d="M417 1554h-269l232 316h313zM1073 296v-296h-964v1443h367v-1147h597z" />
    <glyph glyph-name="Lcircumflexbelow" unicode="&#x1e3c;" horiz-adv-x="1132" 
d="M1073 296v-296h-964v1443h367v-1147h597zM439 -156h274l263 -328h-250l-147 194h-6l-147 -194h-250z" />
    <glyph glyph-name="Ldotbelow" unicode="&#x1e36;" horiz-adv-x="1132" 
d="M576 -492c-92 0 -164 73 -164 163s72 163 164 163s164 -73 164 -163s-72 -163 -164 -163zM1073 296v-296h-964v1443h367v-1147h597z" />
    <glyph glyph-name="Ldotbelowmacron" unicode="&#x1e38;" horiz-adv-x="1132" 
d="M576 -492c-92 0 -164 73 -164 163s72 163 164 163s164 -73 164 -163s-72 -163 -164 -163zM1073 296v-296h-964v1443h367v-1147h597zM653 1777v-163h-722v163h722z" />
    <glyph glyph-name="Llinebelow" unicode="&#x1e3a;" horiz-adv-x="1132" 
d="M937 -235v-163h-722v163h722zM1073 296v-296h-964v1443h367v-1147h597z" />
    <glyph glyph-name="Lcommaaccent" unicode="&#x13b;" horiz-adv-x="1132" 
d="M550 -477h-265l138 333h310zM1073 296v-296h-964v1443h367v-1147h597z" />
    <glyph glyph-name="Lcaron" unicode="&#x13d;" horiz-adv-x="1132" 
d="M720 1443h286l-50 -511h-236v511zM1073 296v-296h-964v1443h367v-1147h597z" />
    <glyph glyph-name="Lslash" unicode="&#x141;" horiz-adv-x="1152" 
d="M496 296h597v-296h-964v604l-83 -44v229l83 44v610h367v-417l270 142v-229l-270 -142v-501z" />
    <glyph glyph-name="M" unicode="M" horiz-adv-x="1802" 
d="M1693 1443v-1443h-323v901h-7l-357 -886h-210l-356 886h-8v-901h-323v1443h424l364 -927h8l364 927h424z" />
    <glyph glyph-name="Macute" unicode="&#x1e3e;" horiz-adv-x="1802" 
d="M1693 1443v-1443h-323v901h-7l-357 -886h-210l-356 886h-8v-901h-323v1443h424l364 -927h8l364 927h424zM1026 1554h-269l232 316h313z" />
    <glyph glyph-name="Mdotaccent" unicode="&#x1e40;" horiz-adv-x="1802" 
d="M1693 1443v-1443h-323v901h-7l-357 -886h-210l-356 886h-8v-901h-323v1443h424l364 -927h8l364 927h424zM901 1548c-92 0 -164 73 -164 163s72 163 164 163s164 -73 164 -163s-72 -163 -164 -163z" />
    <glyph glyph-name="Mdotbelow" unicode="&#x1e42;" horiz-adv-x="1802" 
d="M1693 1443v-1443h-323v901h-7l-357 -886h-210l-356 886h-8v-901h-323v1443h424l364 -927h8l364 927h424zM901 -492c-92 0 -164 73 -164 163s72 163 164 163s164 -73 164 -163s-72 -163 -164 -163z" />
    <glyph glyph-name="N" unicode="N" horiz-adv-x="1479" 
d="M457 0h-348v1443h293l612 -839h8v839h348v-1443h-290l-615 847h-8v-847z" />
    <glyph glyph-name="Ngrave" unicode="&#x1f8;" horiz-adv-x="1479" 
d="M611 1561l-276 316h313l232 -316h-269zM457 0h-348v1443h293l612 -839h8v839h348v-1443h-290l-615 847h-8v-847z" />
    <glyph glyph-name="Nacute" unicode="&#x143;" horiz-adv-x="1479" 
d="M865 1554h-269l232 316h313zM457 0h-348v1443h293l612 -839h8v839h348v-1443h-290l-615 847h-8v-847z" />
    <glyph glyph-name="Ntilde" unicode="&#xd1;" horiz-adv-x="1479" 
d="M887 1543c-142 0 -192 127 -263 127c-46 0 -67 -48 -69 -110h-181c0 180 105 283 234 283c144 0 195 -127 265 -127c45 0 65 45 67 114h181c0 -179 -106 -287 -234 -287zM457 0h-348v1443h293l612 -839h8v839h348v-1443h-290l-615 847h-8v-847z" />
    <glyph glyph-name="Ndotbelow" unicode="&#x1e46;" horiz-adv-x="1479" 
d="M740 -492c-92 0 -164 73 -164 163s72 163 164 163s164 -73 164 -163s-72 -163 -164 -163zM457 0h-348v1443h293l612 -839h8v839h348v-1443h-290l-615 847h-8v-847z" />
    <glyph glyph-name="Ndotaccent" unicode="&#x1e44;" horiz-adv-x="1479" 
d="M740 1548c-92 0 -164 73 -164 163s72 163 164 163s164 -73 164 -163s-72 -163 -164 -163zM457 0h-348v1443h293l612 -839h8v839h348v-1443h-290l-615 847h-8v-847z" />
    <glyph glyph-name="Ncaron" unicode="&#x147;" horiz-adv-x="1479" 
d="M603 1539l-263 328h250l147 -195h6l147 195h250l-263 -328h-274zM457 0h-348v1443h293l612 -839h8v839h348v-1443h-290l-615 847h-8v-847z" />
    <glyph glyph-name="Ncircumflexbelow" unicode="&#x1e4a;" horiz-adv-x="1479" 
d="M457 0h-348v1443h293l612 -839h8v839h348v-1443h-290l-615 847h-8v-847zM603 -156h274l263 -328h-250l-147 194h-6l-147 -194h-250z" />
    <glyph glyph-name="Nlinebelow" unicode="&#x1e48;" horiz-adv-x="1479" 
d="M1101 -235v-163h-722v163h722zM457 0h-348v1443h293l612 -839h8v839h348v-1443h-290l-615 847h-8v-847z" />
    <glyph glyph-name="Ncommaaccent" unicode="&#x145;" horiz-adv-x="1479" 
d="M714 -477h-265l138 333h310zM457 0h-348v1443h293l612 -839h8v839h348v-1443h-290l-615 847h-8v-847z" />
    <glyph glyph-name="O" unicode="O" horiz-adv-x="1564" 
d="M782 1468c437 0 712 -287 712 -747s-275 -746 -712 -746c-438 0 -713 286 -713 746s276 747 713 747zM782 1170c-205 0 -339 -174 -339 -449c0 -274 133 -448 339 -448c205 0 339 174 339 448c0 275 -134 449 -339 449z" />
    <glyph glyph-name="Odieresis" unicode="&#xd6;" horiz-adv-x="1564" 
d="M565 1547c-84 0 -147 64 -147 141c0 78 63 141 147 141c85 0 148 -63 148 -141c0 -77 -63 -141 -148 -141zM998 1547c-85 0 -147 64 -147 141c0 78 62 141 147 141s147 -63 147 -141c0 -77 -62 -141 -147 -141zM782 1468c437 0 712 -287 712 -747s-275 -746 -712 -746
c-438 0 -713 286 -713 746s276 747 713 747zM782 1170c-205 0 -339 -174 -339 -449c0 -274 133 -448 339 -448c205 0 339 174 339 448c0 275 -134 449 -339 449z" />
    <glyph glyph-name="Oslash" unicode="&#xd8;" horiz-adv-x="1564" 
d="M1055 1008l-427 -696c45 -25 96 -39 154 -39c205 0 339 174 339 448c0 115 -24 213 -66 287zM535 394l436 714c-52 40 -116 62 -189 62c-205 0 -339 -174 -339 -449c0 -137 33 -249 92 -327zM1332 1459l-86 -140c158 -129 248 -335 248 -598c0 -460 -275 -746 -712 -746
c-121 0 -229 22 -323 63l-70 -115l-103 62l68 111c-181 126 -285 343 -285 625c0 460 276 747 713 747c137 0 258 -28 359 -81l78 128z" />
    <glyph glyph-name="Otilde" unicode="&#xd5;" horiz-adv-x="1564" 
d="M782 1468c437 0 712 -287 712 -747s-275 -746 -712 -746c-438 0 -713 286 -713 746s276 747 713 747zM782 1170c-205 0 -339 -174 -339 -449c0 -274 133 -448 339 -448c205 0 339 174 339 448c0 275 -134 449 -339 449zM929 1543c-142 0 -192 127 -263 127
c-46 0 -67 -48 -69 -110h-181c0 180 105 283 234 283c144 0 195 -127 265 -127c45 0 65 45 67 114h181c0 -179 -106 -287 -234 -287z" />
    <glyph glyph-name="Oacute" unicode="&#xd3;" horiz-adv-x="1564" 
d="M907 1554h-269l232 316h313zM782 1468c437 0 712 -287 712 -747s-275 -746 -712 -746c-438 0 -713 286 -713 746s276 747 713 747zM782 1170c-205 0 -339 -174 -339 -449c0 -274 133 -448 339 -448c205 0 339 174 339 448c0 275 -134 449 -339 449z" />
    <glyph glyph-name="Ocircumflex" unicode="&#xd4;" horiz-adv-x="1564" 
d="M645 1867h274l263 -328h-250l-147 194h-6l-147 -194h-250zM782 1468c437 0 712 -287 712 -747s-275 -746 -712 -746c-438 0 -713 286 -713 746s276 747 713 747zM782 1170c-205 0 -339 -174 -339 -449c0 -274 133 -448 339 -448c205 0 339 174 339 448
c0 275 -134 449 -339 449z" />
    <glyph glyph-name="Ograve" unicode="&#xd2;" horiz-adv-x="1564" 
d="M653 1561l-276 316h313l232 -316h-269zM782 1468c437 0 712 -287 712 -747s-275 -746 -712 -746c-438 0 -713 286 -713 746s276 747 713 747zM782 1170c-205 0 -339 -174 -339 -449c0 -274 133 -448 339 -448c205 0 339 174 339 448c0 275 -134 449 -339 449z" />
    <glyph glyph-name="Ocircumflexhookabove" unicode="&#x1ed4;" horiz-adv-x="1564" 
d="M646 1832h273l258 -287h-257l-133 158h-9l-133 -158h-257zM896 1999v148c34 17 94 27 151 27c155 0 251 -80 251 -210c0 -96 -62 -190 -170 -235l-100 118c54 21 72 59 72 96c0 45 -37 74 -99 74c-32 0 -78 -8 -105 -18zM782 1468c437 0 712 -287 712 -747
s-275 -746 -712 -746c-438 0 -713 286 -713 746s276 747 713 747zM782 1170c-205 0 -339 -174 -339 -449c0 -274 133 -448 339 -448c205 0 339 174 339 448c0 275 -134 449 -339 449z" />
    <glyph glyph-name="Ocircumflexgrave" unicode="&#x1ed2;" horiz-adv-x="1564" 
d="M645 1832h274l257 -287h-257l-132 158h-10l-132 -158h-257zM1143 1907h-251l-237 263h290zM782 1468c437 0 712 -287 712 -747s-275 -746 -712 -746c-438 0 -713 286 -713 746s276 747 713 747zM782 1170c-205 0 -339 -174 -339 -449c0 -274 133 -448 339 -448
c205 0 339 174 339 448c0 275 -134 449 -339 449z" />
    <glyph glyph-name="Odotbelow" unicode="&#x1ecc;" horiz-adv-x="1564" 
d="M782 -492c-92 0 -164 73 -164 163s72 163 164 163s164 -73 164 -163s-72 -163 -164 -163zM782 1468c437 0 712 -287 712 -747s-275 -746 -712 -746c-438 0 -713 286 -713 746s276 747 713 747zM782 1170c-205 0 -339 -174 -339 -449c0 -274 133 -448 339 -448
c205 0 339 174 339 448c0 275 -134 449 -339 449z" />
    <glyph glyph-name="Odblgrave" unicode="&#x20c;" horiz-adv-x="1564" 
d="M874 1554l-276 316h311l231 -316h-266zM434 1554l-275 316h310l232 -316h-267zM782 1468c437 0 712 -287 712 -747s-275 -746 -712 -746c-438 0 -713 286 -713 746s276 747 713 747zM782 1170c-205 0 -339 -174 -339 -449c0 -274 133 -448 339 -448
c205 0 339 174 339 448c0 275 -134 449 -339 449z" />
    <glyph glyph-name="Otildeacute" unicode="&#x1e4c;" horiz-adv-x="1564" 
d="M782 1468c437 0 712 -287 712 -747s-275 -746 -712 -746c-438 0 -713 286 -713 746s276 747 713 747zM782 1170c-205 0 -339 -174 -339 -449c0 -274 133 -448 339 -448c205 0 339 174 339 448c0 275 -134 449 -339 449zM923 1536c-142 0 -194 128 -266 128
c-45 0 -66 -48 -69 -109h-180c0 180 102 282 232 282c144 0 197 -128 267 -128c45 0 65 45 68 114h180c0 -179 -103 -287 -232 -287zM647 1907l198 263h290l-237 -263h-251z" />
    <glyph glyph-name="Omacronacute" unicode="&#x1e52;" horiz-adv-x="1564" 
d="M1143 1614h-722v163h722v-163zM647 1907l198 263h290l-238 -263h-250zM782 1468c437 0 712 -287 712 -747s-275 -746 -712 -746c-438 0 -713 286 -713 746s276 747 713 747zM782 1170c-205 0 -339 -174 -339 -449c0 -274 133 -448 339 -448c205 0 339 174 339 448
c0 275 -134 449 -339 449z" />
    <glyph glyph-name="Ocircumflextilde" unicode="&#x1ed6;" horiz-adv-x="1564" 
d="M922 1894c-144 0 -188 124 -261 124c-47 0 -67 -44 -71 -105h-179c0 176 103 276 233 276c146 0 192 -124 262 -124c46 0 67 42 70 109h179c0 -175 -104 -280 -233 -280zM645 1827h274l257 -282h-257l-132 154h-10l-132 -154h-257zM782 1468c437 0 712 -287 712 -747
s-275 -746 -712 -746c-438 0 -713 286 -713 746s276 747 713 747zM782 1170c-205 0 -339 -174 -339 -449c0 -274 133 -448 339 -448c205 0 339 174 339 448c0 275 -134 449 -339 449z" />
    <glyph glyph-name="Odotaccentmacron" unicode="&#x230;" horiz-adv-x="1564" 
d="M782 1545c-86 0 -148 64 -148 142s62 142 148 142s148 -64 148 -142s-62 -142 -148 -142zM1143 2098v-163h-722v163h722zM782 1468c437 0 712 -287 712 -747s-275 -746 -712 -746c-438 0 -713 286 -713 746s276 747 713 747zM782 1170c-205 0 -339 -174 -339 -449
c0 -274 133 -448 339 -448c205 0 339 174 339 448c0 275 -134 449 -339 449z" />
    <glyph glyph-name="Omacrongrave" unicode="&#x1e50;" horiz-adv-x="1564" 
d="M421 1614v163h722v-163h-722zM917 1907h-250l-238 263h290zM782 1468c437 0 712 -287 712 -747s-275 -746 -712 -746c-438 0 -713 286 -713 746s276 747 713 747zM782 1170c-205 0 -339 -174 -339 -449c0 -274 133 -448 339 -448c205 0 339 174 339 448
c0 275 -134 449 -339 449z" />
    <glyph glyph-name="Ocaron" unicode="&#x1d1;" horiz-adv-x="1564" 
d="M645 1539l-263 328h250l147 -195h6l147 195h250l-263 -328h-274zM782 1468c437 0 712 -287 712 -747s-275 -746 -712 -746c-438 0 -713 286 -713 746s276 747 713 747zM782 1170c-205 0 -339 -174 -339 -449c0 -274 133 -448 339 -448c205 0 339 174 339 448
c0 275 -134 449 -339 449z" />
    <glyph glyph-name="Oslashacute" unicode="&#x1fe;" horiz-adv-x="1564" 
d="M1208 1870l-276 -316h-269l232 316h313zM1055 1008l-427 -696c45 -25 96 -39 154 -39c205 0 339 174 339 448c0 115 -24 213 -66 287zM535 394l436 714c-52 40 -116 62 -189 62c-205 0 -339 -174 -339 -449c0 -137 33 -249 92 -327zM1332 1459l-86 -140
c158 -129 248 -335 248 -598c0 -460 -275 -746 -712 -746c-121 0 -229 22 -323 63l-70 -115l-103 62l68 111c-181 126 -285 343 -285 625c0 460 276 747 713 747c137 0 258 -28 359 -81l78 128z" />
    <glyph glyph-name="Ohungarumlaut" unicode="&#x150;" horiz-adv-x="1564" 
d="M1130 1554h-267l232 316h310zM690 1554h-266l231 316h311zM782 1468c437 0 712 -287 712 -747s-275 -746 -712 -746c-438 0 -713 286 -713 746s276 747 713 747zM782 1170c-205 0 -339 -174 -339 -449c0 -274 133 -448 339 -448c205 0 339 174 339 448
c0 275 -134 449 -339 449z" />
    <glyph glyph-name="Obreve" unicode="&#x14e;" horiz-adv-x="1564" 
d="M782 1468c437 0 712 -287 712 -747s-275 -746 -712 -746c-438 0 -713 286 -713 746s276 747 713 747zM782 1170c-205 0 -339 -174 -339 -449c0 -274 133 -448 339 -448c205 0 339 174 339 448c0 275 -134 449 -339 449zM407 1865h208c4 -92 65 -159 167 -159
s163 67 167 159h208c-5 -179 -139 -326 -375 -326s-370 147 -375 326z" />
    <glyph glyph-name="Oinvertedbreve" unicode="&#x20e;" horiz-adv-x="1564" 
d="M407 1539c5 179 139 326 375 326s370 -147 375 -326h-208c-4 92 -65 160 -167 160s-163 -68 -167 -160h-208zM782 1468c437 0 712 -287 712 -747s-275 -746 -712 -746c-438 0 -713 286 -713 746s276 747 713 747zM782 1170c-205 0 -339 -174 -339 -449
c0 -274 133 -448 339 -448c205 0 339 174 339 448c0 275 -134 449 -339 449z" />
    <glyph glyph-name="Ohookabove" unicode="&#x1ece;" horiz-adv-x="1564" 
d="M585 1799v150c35 18 95 28 154 28c158 0 258 -82 258 -215c0 -104 -85 -201 -203 -251l-99 120c59 22 99 67 99 111c0 46 -38 75 -101 75c-32 0 -80 -7 -108 -18zM782 1468c437 0 712 -287 712 -747s-275 -746 -712 -746c-438 0 -713 286 -713 746s276 747 713 747z
M782 1170c-205 0 -339 -174 -339 -449c0 -274 133 -448 339 -448c205 0 339 174 339 448c0 275 -134 449 -339 449z" />
    <glyph glyph-name="Odieresismacron" unicode="&#x22a;" horiz-adv-x="1564" 
d="M782 1468c437 0 712 -287 712 -747s-275 -746 -712 -746c-438 0 -713 286 -713 746s276 747 713 747zM782 1170c-205 0 -339 -174 -339 -449c0 -274 133 -448 339 -448c205 0 339 174 339 448c0 275 -134 449 -339 449zM568 1825c83 0 144 -62 144 -138
c0 -75 -61 -138 -144 -138s-144 63 -144 138c0 76 61 138 144 138zM421 2098h722v-163h-722v163zM996 1825c83 0 144 -62 144 -138c0 -75 -61 -138 -144 -138s-144 63 -144 138c0 76 61 138 144 138z" />
    <glyph glyph-name="Otildemacron" unicode="&#x22c;" horiz-adv-x="1564" 
d="M923 1536c-142 0 -195 128 -266 128c-46 0 -67 -48 -69 -109h-180c0 180 101 282 232 282c144 0 197 -128 267 -128c45 0 65 45 67 114h181c0 -179 -103 -287 -232 -287zM1143 2098v-163h-722v163h722zM782 1468c437 0 712 -287 712 -747s-275 -746 -712 -746
c-438 0 -713 286 -713 746s276 747 713 747zM782 1170c-205 0 -339 -174 -339 -449c0 -274 133 -448 339 -448c205 0 339 174 339 448c0 275 -134 449 -339 449z" />
    <glyph glyph-name="Odotaccent" unicode="&#x22e;" horiz-adv-x="1564" 
d="M782 1548c-92 0 -164 73 -164 163s72 163 164 163s164 -73 164 -163s-72 -163 -164 -163zM782 1468c437 0 712 -287 712 -747s-275 -746 -712 -746c-438 0 -713 286 -713 746s276 747 713 747zM782 1170c-205 0 -339 -174 -339 -449c0 -274 133 -448 339 -448
c205 0 339 174 339 448c0 275 -134 449 -339 449z" />
    <glyph glyph-name="Ocircumflexdotbelow" unicode="&#x1ed8;" horiz-adv-x="1564" 
d="M782 -492c-92 0 -164 73 -164 163s72 163 164 163s164 -73 164 -163s-72 -163 -164 -163zM645 1867h274l263 -328h-250l-147 194h-6l-147 -194h-250zM782 1468c437 0 712 -287 712 -747s-275 -746 -712 -746c-438 0 -713 286 -713 746s276 747 713 747zM782 1170
c-205 0 -339 -174 -339 -449c0 -274 133 -448 339 -448c205 0 339 174 339 448c0 275 -134 449 -339 449z" />
    <glyph glyph-name="Ocircumflexacute" unicode="&#x1ed0;" horiz-adv-x="1564" 
d="M646 1832h274l257 -287h-257l-132 158h-10l-133 -158h-257zM846 1907l198 263h290l-237 -263h-251zM782 1468c437 0 712 -287 712 -747s-275 -746 -712 -746c-438 0 -713 286 -713 746s276 747 713 747zM782 1170c-205 0 -339 -174 -339 -449c0 -274 133 -448 339 -448
c205 0 339 174 339 448c0 275 -134 449 -339 449z" />
    <glyph glyph-name="Otildedieresis" unicode="&#x1e4e;" horiz-adv-x="1564" 
d="M924 1536c-142 0 -195 128 -266 128c-46 0 -67 -48 -69 -109h-181c0 180 102 282 233 282c144 0 197 -128 267 -128c45 0 65 45 67 106h181c0 -171 -103 -279 -232 -279zM568 2196c83 0 144 -62 144 -138s-61 -138 -144 -138s-144 62 -144 138s61 138 144 138zM996 2196
c83 0 144 -62 144 -138s-61 -138 -144 -138s-144 62 -144 138s61 138 144 138zM782 1468c437 0 712 -287 712 -747s-275 -746 -712 -746c-438 0 -713 286 -713 746s276 747 713 747zM782 1170c-205 0 -339 -174 -339 -449c0 -274 133 -448 339 -448c205 0 339 174 339 448
c0 275 -134 449 -339 449z" />
    <glyph glyph-name="Omacron" unicode="&#x14c;" horiz-adv-x="1564" 
d="M782 1468c437 0 712 -287 712 -747s-275 -746 -712 -746c-438 0 -713 286 -713 746s276 747 713 747zM782 1170c-205 0 -339 -174 -339 -449c0 -274 133 -448 339 -448c205 0 339 174 339 448c0 275 -134 449 -339 449zM1143 1777v-163h-722v163h722z" />
    <glyph glyph-name="Oogonek" unicode="&#x1ea;" horiz-adv-x="1564" 
d="M1035 -479c-172 0 -291 92 -291 223c0 90 67 188 155 234v7c-23 -5 -79 -10 -117 -10c-439 0 -713 286 -713 746s275 747 713 747s712 -287 712 -747c0 -274 -97 -492 -284 -638c-149 -114 -211 -192 -211 -265c0 -64 45 -103 121 -103c30 0 61 4 71 8v-179
c-37 -15 -90 -23 -156 -23zM782 1170c-207 0 -339 -176 -339 -449s132 -448 339 -448c206 0 339 175 339 448s-133 449 -339 449z" />
    <glyph glyph-name="Oogonekmacron" unicode="&#x1ec;" horiz-adv-x="1563" 
d="M1035 -479c-172 0 -291 92 -291 223c0 90 67 188 155 234v7c-23 -5 -79 -10 -117 -10c-439 0 -713 286 -713 746s275 747 713 747s712 -287 712 -747c0 -274 -97 -492 -284 -638c-149 -114 -211 -192 -211 -265c0 -64 45 -103 121 -103c30 0 61 4 71 8v-179
c-37 -15 -90 -23 -156 -23zM782 1170c-207 0 -339 -176 -339 -449s132 -448 339 -448c206 0 339 175 339 448s-133 449 -339 449zM1143 1777v-163h-722v163h722z" />
    <glyph glyph-name="Ohorn" unicode="&#x1a0;" horiz-adv-x="1652" 
d="M782 -25c-439 0 -713 286 -713 746s275 747 713 747c186 0 274 -56 440 -56c71 0 108 30 108 88v175h269v-252c0 -145 -79 -224 -220 -224h-62v-7c101 -82 177 -290 177 -471c0 -459 -273 -746 -712 -746zM782 273c206 0 339 175 339 448c0 274 -133 449 -339 449
c-207 0 -339 -176 -339 -449s132 -448 339 -448z" />
    <glyph glyph-name="Ohorndotbelow" unicode="&#x1ee2;" horiz-adv-x="1652" 
d="M782 -492c-92 0 -164 73 -164 163s72 163 164 163s164 -73 164 -163s-72 -163 -164 -163zM782 -25c-439 0 -713 286 -713 746s275 747 713 747c186 0 274 -56 440 -56c71 0 108 30 108 88v175h269v-252c0 -145 -79 -224 -220 -224h-62v-7c101 -82 177 -290 177 -471
c0 -459 -273 -746 -712 -746zM782 273c206 0 339 175 339 448c0 274 -133 449 -339 449c-207 0 -339 -176 -339 -449s132 -448 339 -448z" />
    <glyph glyph-name="Ohornhookabove" unicode="&#x1ede;" horiz-adv-x="1652" 
d="M585 1799v150c35 18 95 28 154 28c158 0 258 -82 258 -215c0 -104 -85 -201 -203 -251l-99 120c59 22 99 67 99 111c0 46 -38 75 -101 75c-32 0 -80 -7 -108 -18zM782 -25c-439 0 -713 286 -713 746s275 747 713 747c186 0 274 -56 440 -56c71 0 108 30 108 88v175h269
v-252c0 -145 -79 -224 -220 -224h-62v-7c101 -82 177 -290 177 -471c0 -459 -273 -746 -712 -746zM782 273c206 0 339 175 339 448c0 274 -133 449 -339 449c-207 0 -339 -176 -339 -449s132 -448 339 -448z" />
    <glyph glyph-name="Ohorntilde" unicode="&#x1ee0;" horiz-adv-x="1652" 
d="M782 -25c-439 0 -713 286 -713 746s275 747 713 747c186 0 274 -56 440 -56c71 0 108 30 108 88v175h269v-252c0 -145 -79 -224 -220 -224h-62v-7c101 -82 177 -290 177 -471c0 -459 -273 -746 -712 -746zM782 273c206 0 339 175 339 448c0 274 -133 449 -339 449
c-207 0 -339 -176 -339 -449s132 -448 339 -448zM929 1543c-142 0 -192 127 -263 127c-46 0 -67 -48 -69 -110h-181c0 180 105 283 234 283c144 0 195 -127 265 -127c45 0 65 45 67 114h181c0 -179 -106 -287 -234 -287z" />
    <glyph glyph-name="Ohorngrave" unicode="&#x1edc;" horiz-adv-x="1652" 
d="M653 1561l-276 316h313l232 -316h-269zM782 -25c-439 0 -713 286 -713 746s275 747 713 747c186 0 274 -56 440 -56c71 0 108 30 108 88v175h269v-252c0 -145 -79 -224 -220 -224h-62v-7c101 -82 177 -290 177 -471c0 -459 -273 -746 -712 -746zM782 273
c206 0 339 175 339 448c0 274 -133 449 -339 449c-207 0 -339 -176 -339 -449s132 -448 339 -448z" />
    <glyph glyph-name="Ohornacute" unicode="&#x1eda;" horiz-adv-x="1652" 
d="M907 1554h-269l232 316h313zM782 -25c-439 0 -713 286 -713 746s275 747 713 747c186 0 274 -56 440 -56c71 0 108 30 108 88v175h269v-252c0 -145 -79 -224 -220 -224h-62v-7c101 -82 177 -290 177 -471c0 -459 -273 -746 -712 -746zM782 273c206 0 339 175 339 448
c0 274 -133 449 -339 449c-207 0 -339 -176 -339 -449s132 -448 339 -448z" />
    <glyph glyph-name="P" unicode="P" horiz-adv-x="1315" 
d="M109 1443h633c309 0 519 -201 519 -511c0 -308 -221 -509 -542 -509h-243v-423h-367v1443zM476 1162v-463h166c156 0 248 81 248 232c0 150 -92 231 -246 231h-168z" />
    <glyph glyph-name="Pdotaccent" unicode="&#x1e56;" horiz-adv-x="1315" 
d="M109 1443h633c309 0 519 -201 519 -511c0 -308 -221 -509 -542 -509h-243v-423h-367v1443zM476 1162v-463h166c156 0 248 81 248 232c0 150 -92 231 -246 231h-168zM633 1548c-92 0 -164 73 -164 163s72 163 164 163s164 -73 164 -163s-72 -163 -164 -163z" />
    <glyph glyph-name="Pacute" unicode="&#x1e54;" horiz-adv-x="1315" 
d="M758 1554h-269l232 316h313zM109 1443h633c309 0 519 -201 519 -511c0 -308 -221 -509 -542 -509h-243v-423h-367v1443zM476 1162v-463h166c156 0 248 81 248 232c0 150 -92 231 -246 231h-168z" />
    <glyph glyph-name="Q" unicode="Q" horiz-adv-x="1563" 
d="M1459 -121h-341l-87 133c-77 -25 -160 -37 -249 -37c-438 0 -713 280 -713 746c0 459 276 747 713 747c436 0 711 -288 711 -747c0 -242 -74 -439 -213 -561zM782 268c27 0 53 3 76 10l-146 229h311l32 -43c42 68 65 156 65 257c0 274 -133 454 -338 454
c-206 0 -339 -179 -339 -454s133 -453 339 -453z" />
    <glyph glyph-name="R" unicode="R" horiz-adv-x="1358" 
d="M476 1166v-410h217c135 0 215 79 215 204c0 123 -85 206 -216 206h-216zM476 505v-505h-367v1443h620c360 0 554 -178 554 -476c0 -177 -88 -339 -246 -408l288 -559h-412l-247 505h-190z" />
    <glyph glyph-name="Rcaron" unicode="&#x158;" horiz-adv-x="1358" 
d="M476 1166v-410h217c135 0 215 79 215 204c0 123 -85 206 -216 206h-216zM476 505v-505h-367v1443h620c360 0 554 -178 554 -476c0 -177 -88 -339 -246 -408l288 -559h-412l-247 505h-190zM522 1539l-263 328h250l147 -195h6l147 195h250l-263 -328h-274z" />
    <glyph glyph-name="Rlinebelow" unicode="&#x1e5e;" horiz-adv-x="1358" 
d="M476 1166v-410h217c135 0 215 79 215 204c0 123 -85 206 -216 206h-216zM476 505v-505h-367v1443h620c360 0 554 -178 554 -476c0 -177 -88 -339 -246 -408l288 -559h-412l-247 505h-190zM1020 -235v-163h-722v163h722z" />
    <glyph glyph-name="Rdotbelowmacron" unicode="&#x1e5c;" horiz-adv-x="1358" 
d="M659 -492c-92 0 -164 73 -164 163s72 163 164 163s164 -73 164 -163s-72 -163 -164 -163zM476 1166v-410h217c135 0 215 79 215 204c0 123 -85 206 -216 206h-216zM476 505v-505h-367v1443h620c360 0 554 -178 554 -476c0 -177 -88 -339 -246 -408l288 -559h-412
l-247 505h-190zM1020 1777v-163h-722v163h722z" />
    <glyph glyph-name="Rdblgrave" unicode="&#x210;" horiz-adv-x="1358" 
d="M751 1554l-276 316h311l231 -316h-266zM311 1554l-275 316h310l232 -316h-267zM476 1166v-410h217c135 0 215 79 215 204c0 123 -85 206 -216 206h-216zM476 505v-505h-367v1443h620c360 0 554 -178 554 -476c0 -177 -88 -339 -246 -408l288 -559h-412l-247 505h-190z
" />
    <glyph glyph-name="Rinvertedbreve" unicode="&#x212;" horiz-adv-x="1358" 
d="M476 1166v-410h217c135 0 215 79 215 204c0 123 -85 206 -216 206h-216zM476 505v-505h-367v1443h620c360 0 554 -178 554 -476c0 -177 -88 -339 -246 -408l288 -559h-412l-247 505h-190zM284 1539c5 179 139 326 375 326s370 -147 375 -326h-208c-4 92 -65 160 -167 160
s-163 -68 -167 -160h-208z" />
    <glyph glyph-name="Racute" unicode="&#x154;" horiz-adv-x="1358" 
d="M784 1554h-269l232 316h313zM476 1166v-410h217c135 0 215 79 215 204c0 123 -85 206 -216 206h-216zM476 505v-505h-367v1443h620c360 0 554 -178 554 -476c0 -177 -88 -339 -246 -408l288 -559h-412l-247 505h-190z" />
    <glyph glyph-name="Rdotbelow" unicode="&#x1e5a;" horiz-adv-x="1358" 
d="M659 -492c-92 0 -164 73 -164 163s72 163 164 163s164 -73 164 -163s-72 -163 -164 -163zM476 1166v-410h217c135 0 215 79 215 204c0 123 -85 206 -216 206h-216zM476 505v-505h-367v1443h620c360 0 554 -178 554 -476c0 -177 -88 -339 -246 -408l288 -559h-412
l-247 505h-190z" />
    <glyph glyph-name="Rdotaccent" unicode="&#x1e58;" horiz-adv-x="1358" 
d="M659 1548c-92 0 -164 73 -164 163s72 163 164 163s164 -73 164 -163s-72 -163 -164 -163zM476 1166v-410h217c135 0 215 79 215 204c0 123 -85 206 -216 206h-216zM476 505v-505h-367v1443h620c360 0 554 -178 554 -476c0 -177 -88 -339 -246 -408l288 -559h-412
l-247 505h-190z" />
    <glyph glyph-name="Rcommaaccent" unicode="&#x156;" horiz-adv-x="1358" 
d="M476 1166v-410h217c135 0 215 79 215 204c0 123 -85 206 -216 206h-216zM476 505v-505h-367v1443h620c360 0 554 -178 554 -476c0 -177 -88 -339 -246 -408l288 -559h-412l-247 505h-190zM633 -477h-265l138 333h310z" />
    <glyph glyph-name="S" unicode="S" horiz-adv-x="1334" 
d="M63 418h349c13 -99 124 -165 260 -165c143 0 236 64 236 151c0 80 -61 119 -225 153l-189 37c-266 51 -403 195 -403 414c0 280 240 460 574 460c361 0 574 -175 578 -446h-338c-7 105 -104 168 -236 168c-128 0 -213 -58 -213 -146c0 -78 64 -121 215 -152l187 -35
c285 -55 413 -184 413 -412c0 -287 -237 -470 -609 -470c-368 0 -595 163 -599 443z" />
    <glyph glyph-name="Scaron" unicode="&#x160;" horiz-adv-x="1334" 
d="M63 418h349c13 -99 124 -165 260 -165c143 0 236 64 236 151c0 80 -61 119 -225 153l-189 37c-266 51 -403 195 -403 414c0 280 240 460 574 460c361 0 574 -175 578 -446h-338c-7 105 -104 168 -236 168c-128 0 -213 -58 -213 -146c0 -78 64 -121 215 -152l187 -35
c285 -55 413 -184 413 -412c0 -287 -237 -470 -609 -470c-368 0 -595 163 -599 443zM533 1539l-263 328h250l147 -195h6l147 195h250l-263 -328h-274z" />
    <glyph glyph-name="Scedilla" unicode="&#x15e;" horiz-adv-x="1334" 
d="M671 892l187 -35c285 -55 413 -184 413 -412c0 -261 -195 -435 -510 -465l-38 -82c106 0 173 -62 173 -163c0 -123 -89 -191 -252 -191c-56 0 -106 5 -137 15v131c24 -8 67 -12 105 -12c69 0 100 14 100 45c0 38 -30 51 -112 51h-56v114l45 89c-325 21 -522 180 -526 441
h349c13 -99 124 -165 260 -165c143 0 236 64 236 151c0 80 -61 119 -225 153l-189 37c-266 51 -403 195 -403 414c0 280 240 460 574 460c361 0 574 -175 578 -446h-338c-7 105 -104 168 -236 168c-128 0 -213 -58 -213 -146c0 -78 64 -121 215 -152z" />
    <glyph glyph-name="Sdotaccent" unicode="&#x1e60;" horiz-adv-x="1334" 
d="M670 1548c-92 0 -164 73 -164 163s72 163 164 163s164 -73 164 -163s-72 -163 -164 -163zM63 418h349c13 -99 124 -165 260 -165c143 0 236 64 236 151c0 80 -61 119 -225 153l-189 37c-266 51 -403 195 -403 414c0 280 240 460 574 460c361 0 574 -175 578 -446h-338
c-7 105 -104 168 -236 168c-128 0 -213 -58 -213 -146c0 -78 64 -121 215 -152l187 -35c285 -55 413 -184 413 -412c0 -287 -237 -470 -609 -470c-368 0 -595 163 -599 443z" />
    <glyph glyph-name="Sdotbelow" unicode="&#x1e62;" horiz-adv-x="1334" 
d="M666 -492c-92 0 -164 73 -164 163s72 163 164 163s164 -73 164 -163s-72 -163 -164 -163zM63 418h349c13 -99 124 -165 260 -165c143 0 236 64 236 151c0 80 -61 119 -225 153l-189 37c-266 51 -403 195 -403 414c0 280 240 460 574 460c361 0 574 -175 578 -446h-338
c-7 105 -104 168 -236 168c-128 0 -213 -58 -213 -146c0 -78 64 -121 215 -152l187 -35c285 -55 413 -184 413 -412c0 -287 -237 -470 -609 -470c-368 0 -595 163 -599 443z" />
    <glyph glyph-name="Scommaaccent" unicode="&#x218;" horiz-adv-x="1334" 
d="M63 418h349c13 -99 124 -165 260 -165c143 0 236 64 236 151c0 80 -61 119 -225 153l-189 37c-266 51 -403 195 -403 414c0 280 240 460 574 460c361 0 574 -175 578 -446h-338c-7 105 -104 168 -236 168c-128 0 -213 -58 -213 -146c0 -78 64 -121 215 -152l187 -35
c285 -55 413 -184 413 -412c0 -287 -237 -470 -609 -470c-368 0 -595 163 -599 443zM640 -477h-265l138 333h310z" />
    <glyph glyph-name="Sdotbelowdotaccent" unicode="&#x1e68;" horiz-adv-x="1334" 
d="M666 -492c-92 0 -164 73 -164 163s72 163 164 163s164 -73 164 -163s-72 -163 -164 -163zM63 418h349c13 -99 124 -165 260 -165c143 0 236 64 236 151c0 80 -61 119 -225 153l-189 37c-266 51 -403 195 -403 414c0 280 240 460 574 460c361 0 574 -175 578 -446h-338
c-7 105 -104 168 -236 168c-128 0 -213 -58 -213 -146c0 -78 64 -121 215 -152l187 -35c285 -55 413 -184 413 -412c0 -287 -237 -470 -609 -470c-368 0 -595 163 -599 443zM670 1548c-92 0 -164 73 -164 163s72 163 164 163s164 -73 164 -163s-72 -163 -164 -163z" />
    <glyph glyph-name="Scarondotaccent" unicode="&#x1e66;" horiz-adv-x="1334" 
d="M533 1545l-257 287h257l132 -159h10l132 159h257l-257 -287h-274zM670 1862c-85 0 -146 63 -146 140c0 78 61 140 146 140s146 -62 146 -140c0 -77 -61 -140 -146 -140zM63 418h349c13 -99 124 -165 260 -165c143 0 236 64 236 151c0 80 -61 119 -225 153l-189 37
c-266 51 -403 195 -403 414c0 280 240 460 574 460c361 0 574 -175 578 -446h-338c-7 105 -104 168 -236 168c-128 0 -213 -58 -213 -146c0 -78 64 -121 215 -152l187 -35c285 -55 413 -184 413 -412c0 -287 -237 -470 -609 -470c-368 0 -595 163 -599 443z" />
    <glyph glyph-name="Scircumflex" unicode="&#x15c;" horiz-adv-x="1334" 
d="M63 418h349c13 -99 124 -165 260 -165c143 0 236 64 236 151c0 80 -61 119 -225 153l-189 37c-266 51 -403 195 -403 414c0 280 240 460 574 460c361 0 574 -175 578 -446h-338c-7 105 -104 168 -236 168c-128 0 -213 -58 -213 -146c0 -78 64 -121 215 -152l187 -35
c285 -55 413 -184 413 -412c0 -287 -237 -470 -609 -470c-368 0 -595 163 -599 443zM533 1867h274l263 -328h-250l-147 194h-6l-147 -194h-250z" />
    <glyph glyph-name="Sacutedotaccent" unicode="&#x1e64;" horiz-adv-x="1334" 
d="M922 1554h-269l232 316h313zM417 1552c-92 0 -164 73 -164 163s72 163 164 163s164 -73 164 -163s-72 -163 -164 -163zM63 418h349c13 -99 124 -165 260 -165c143 0 236 64 236 151c0 80 -61 119 -225 153l-189 37c-266 51 -403 195 -403 414c0 280 240 460 574 460
c361 0 574 -175 578 -446h-338c-7 105 -104 168 -236 168c-128 0 -213 -58 -213 -146c0 -78 64 -121 215 -152l187 -35c285 -55 413 -184 413 -412c0 -287 -237 -470 -609 -470c-368 0 -595 163 -599 443z" />
    <glyph glyph-name="Sacute" unicode="&#x15a;" horiz-adv-x="1334" 
d="M795 1554h-269l232 316h313zM63 418h349c13 -99 124 -165 260 -165c143 0 236 64 236 151c0 80 -61 119 -225 153l-189 37c-266 51 -403 195 -403 414c0 280 240 460 574 460c361 0 574 -175 578 -446h-338c-7 105 -104 168 -236 168c-128 0 -213 -58 -213 -146
c0 -78 64 -121 215 -152l187 -35c285 -55 413 -184 413 -412c0 -287 -237 -470 -609 -470c-368 0 -595 163 -599 443z" />
    <glyph glyph-name="T" unicode="T" horiz-adv-x="1259" 
d="M813 0h-367v1147h-400v296h1167v-296h-400v-1147z" />
    <glyph glyph-name="Tcircumflexbelow" unicode="&#x1e70;" horiz-adv-x="1259" 
d="M813 0h-367v1147h-400v296h1167v-296h-400v-1147zM492 -156h274l263 -328h-250l-147 194h-6l-147 -194h-250z" />
    <glyph glyph-name="Tdotbelow" unicode="&#x1e6c;" horiz-adv-x="1259" 
d="M629 -492c-92 0 -164 73 -164 163s72 163 164 163s164 -73 164 -163s-72 -163 -164 -163zM813 0h-367v1147h-400v296h1167v-296h-400v-1147z" />
    <glyph glyph-name="Tcommaaccent" unicode="&#x21a;" horiz-adv-x="1259" 
d="M603 -477h-265l138 333h310zM813 0h-367v1147h-400v296h1167v-296h-400v-1147z" />
    <glyph glyph-name="Tdotaccent" unicode="&#x1e6a;" horiz-adv-x="1259" 
d="M629 1548c-92 0 -164 73 -164 163s72 163 164 163s164 -73 164 -163s-72 -163 -164 -163zM813 0h-367v1147h-400v296h1167v-296h-400v-1147z" />
    <glyph glyph-name="Tcedilla" unicode="&#x162;" horiz-adv-x="1259" 
d="M813 0h-79l-48 -102c106 0 173 -62 173 -163c0 -123 -89 -191 -252 -191c-56 0 -106 5 -137 15v131c24 -8 67 -12 105 -12c69 0 100 14 100 45c0 38 -30 51 -112 51h-56v114l56 112h-117v1147h-400v296h1167v-296h-400v-1147z" />
    <glyph glyph-name="Tlinebelow" unicode="&#x1e6e;" horiz-adv-x="1259" 
d="M990 -235v-163h-722v163h722zM813 0h-367v1147h-400v296h1167v-296h-400v-1147z" />
    <glyph glyph-name="Tcaron" unicode="&#x164;" horiz-adv-x="1259" 
d="M492 1539l-263 328h250l147 -195h6l147 195h250l-263 -328h-274zM813 0h-367v1147h-400v296h1167v-296h-400v-1147z" />
    <glyph glyph-name="Tbar" unicode="&#x166;" horiz-adv-x="1323" 
d="M1228 1147h-400v-343h288v-247h-288v-557h-367v557h-254v247h254v343h-400v296h1167v-296z" />
    <glyph glyph-name="U" unicode="U" horiz-adv-x="1461" 
d="M476 1443v-892c0 -168 91 -268 255 -268c163 0 254 100 254 268v892h367v-931c0 -324 -246 -537 -621 -537c-376 0 -622 213 -622 537v931h367z" />
    <glyph glyph-name="Ugrave" unicode="&#xd9;" horiz-adv-x="1461" 
d="M602 1561l-276 316h313l232 -316h-269zM476 1443v-892c0 -168 91 -268 255 -268c163 0 254 100 254 268v892h367v-931c0 -324 -246 -537 -621 -537c-376 0 -622 213 -622 537v931h367z" />
    <glyph glyph-name="Udblgrave" unicode="&#x214;" horiz-adv-x="1461" 
d="M823 1554l-276 316h311l231 -316h-266zM383 1554l-275 316h310l232 -316h-267zM476 1443v-892c0 -168 91 -268 255 -268c163 0 254 100 254 268v892h367v-931c0 -324 -246 -537 -621 -537c-376 0 -622 213 -622 537v931h367z" />
    <glyph glyph-name="Uacute" unicode="&#xda;" horiz-adv-x="1461" 
d="M856 1554h-269l232 316h313zM476 1443v-892c0 -168 91 -268 255 -268c163 0 254 100 254 268v892h367v-931c0 -324 -246 -537 -621 -537c-376 0 -622 213 -622 537v931h367z" />
    <glyph glyph-name="Uhungarumlaut" unicode="&#x170;" horiz-adv-x="1461" 
d="M476 1443v-892c0 -168 91 -268 255 -268c163 0 254 100 254 268v892h367v-931c0 -324 -246 -537 -621 -537c-376 0 -622 213 -622 537v931h367zM1079 1554h-267l232 316h310zM639 1554h-266l231 316h311z" />
    <glyph glyph-name="Ucircumflex" unicode="&#xdb;" horiz-adv-x="1461" 
d="M594 1867h274l263 -328h-250l-147 194h-6l-147 -194h-250zM476 1443v-892c0 -168 91 -268 255 -268c163 0 254 100 254 268v892h367v-931c0 -324 -246 -537 -621 -537c-376 0 -622 213 -622 537v931h367z" />
    <glyph glyph-name="Ucaron" unicode="&#x1d3;" horiz-adv-x="1461" 
d="M594 1539l-263 328h250l147 -195h6l147 195h250l-263 -328h-274zM476 1443v-892c0 -168 91 -268 255 -268c163 0 254 100 254 268v892h367v-931c0 -324 -246 -537 -621 -537c-376 0 -622 213 -622 537v931h367z" />
    <glyph glyph-name="Ucircumflexbelow" unicode="&#x1e76;" horiz-adv-x="1461" 
d="M476 1443v-892c0 -168 91 -268 255 -268c163 0 254 100 254 268v892h367v-931c0 -324 -246 -537 -621 -537c-376 0 -622 213 -622 537v931h367zM594 -156h274l263 -328h-250l-147 194h-6l-147 -194h-250z" />
    <glyph glyph-name="Udieresis" unicode="&#xdc;" horiz-adv-x="1461" 
d="M514 1547c-84 0 -147 64 -147 141c0 78 63 141 147 141c85 0 148 -63 148 -141c0 -77 -63 -141 -148 -141zM947 1547c-85 0 -147 64 -147 141c0 78 62 141 147 141s147 -63 147 -141c0 -77 -62 -141 -147 -141zM476 1443v-892c0 -168 91 -268 255 -268
c163 0 254 100 254 268v892h367v-931c0 -324 -246 -537 -621 -537c-376 0 -622 213 -622 537v931h367z" />
    <glyph glyph-name="Udieresisgrave" unicode="&#x1db;" horiz-adv-x="1461" 
d="M866 1907h-250l-238 263h290zM517 1549c-83 0 -144 63 -144 138c0 76 61 138 144 138s144 -62 144 -138c0 -75 -61 -138 -144 -138zM945 1549c-83 0 -144 63 -144 138c0 76 61 138 144 138s144 -62 144 -138c0 -75 -61 -138 -144 -138zM476 1443v-892
c0 -168 91 -268 255 -268c163 0 254 100 254 268v892h367v-931c0 -324 -246 -537 -621 -537c-376 0 -622 213 -622 537v931h367z" />
    <glyph glyph-name="Udieresisacute" unicode="&#x1d7;" horiz-adv-x="1461" 
d="M596 1907l198 263h290l-238 -263h-250zM517 1549c-83 0 -144 63 -144 138c0 76 61 138 144 138s144 -62 144 -138c0 -75 -61 -138 -144 -138zM945 1549c-83 0 -144 63 -144 138c0 76 61 138 144 138s144 -62 144 -138c0 -75 -61 -138 -144 -138zM476 1443v-892
c0 -168 91 -268 255 -268c163 0 254 100 254 268v892h367v-931c0 -324 -246 -537 -621 -537c-376 0 -622 213 -622 537v931h367z" />
    <glyph glyph-name="Udieresismacron" unicode="&#x1d5;" horiz-adv-x="1461" 
d="M476 1443v-892c0 -168 91 -268 255 -268c163 0 254 100 254 268v892h367v-931c0 -324 -246 -537 -621 -537c-376 0 -622 213 -622 537v931h367zM517 1825c83 0 144 -62 144 -138c0 -75 -61 -138 -144 -138s-144 63 -144 138c0 76 61 138 144 138zM370 2098h722v-163h-722
v163zM945 1825c83 0 144 -62 144 -138c0 -75 -61 -138 -144 -138s-144 63 -144 138c0 76 61 138 144 138z" />
    <glyph glyph-name="Udieresiscaron" unicode="&#x1d9;" horiz-adv-x="1461" 
d="M604 1908l-251 281h247l121 -145h20l121 145h247l-251 -281h-254zM517 1825c83 0 144 -62 144 -138c0 -75 -61 -138 -144 -138s-144 63 -144 138c0 76 61 138 144 138zM945 1825c83 0 144 -62 144 -138c0 -75 -61 -138 -144 -138s-144 63 -144 138c0 76 61 138 144 138z
M476 1443v-892c0 -168 91 -268 255 -268c163 0 254 100 254 268v892h367v-931c0 -324 -246 -537 -621 -537c-376 0 -622 213 -622 537v931h367z" />
    <glyph glyph-name="Udieresisbelow" unicode="&#x1e72;" horiz-adv-x="1461" 
d="M476 1443v-892c0 -168 91 -268 255 -268c163 0 254 100 254 268v892h367v-931c0 -324 -246 -537 -621 -537c-376 0 -622 213 -622 537v931h367zM514 -454c-84 0 -147 64 -147 141c0 78 63 141 147 141c85 0 148 -63 148 -141c0 -77 -63 -141 -148 -141zM947 -454
c-85 0 -147 64 -147 141c0 78 62 141 147 141s147 -63 147 -141c0 -77 -62 -141 -147 -141z" />
    <glyph glyph-name="Utildebelow" unicode="&#x1e74;" horiz-adv-x="1461" 
d="M878 -447c-142 0 -192 127 -263 127c-46 0 -67 -48 -69 -110h-181c0 180 105 283 234 283c144 0 195 -127 265 -127c45 0 65 45 67 114h181c0 -179 -106 -287 -234 -287zM476 1443v-892c0 -168 91 -268 255 -268c163 0 254 100 254 268v892h367v-931
c0 -324 -246 -537 -621 -537c-376 0 -622 213 -622 537v931h367z" />
    <glyph glyph-name="Uhookabove" unicode="&#x1ee6;" horiz-adv-x="1461" 
d="M476 1443v-892c0 -168 91 -268 255 -268c163 0 254 100 254 268v892h367v-931c0 -324 -246 -537 -621 -537c-376 0 -622 213 -622 537v931h367zM534 1799v150c35 18 95 28 154 28c158 0 258 -82 258 -215c0 -104 -85 -201 -203 -251l-99 120c59 22 99 67 99 111
c0 46 -38 75 -101 75c-32 0 -80 -7 -108 -18z" />
    <glyph glyph-name="Ubreve" unicode="&#x16c;" horiz-adv-x="1461" 
d="M476 1443v-892c0 -168 91 -268 255 -268c163 0 254 100 254 268v892h367v-931c0 -324 -246 -537 -621 -537c-376 0 -622 213 -622 537v931h367zM356 1865h208c4 -92 65 -159 167 -159s163 67 167 159h208c-5 -179 -139 -326 -375 -326s-370 147 -375 326z" />
    <glyph glyph-name="Uinvertedbreve" unicode="&#x216;" horiz-adv-x="1461" 
d="M476 1443v-892c0 -168 91 -268 255 -268c163 0 254 100 254 268v892h367v-931c0 -324 -246 -537 -621 -537c-376 0 -622 213 -622 537v931h367zM356 1539c5 179 139 326 375 326s370 -147 375 -326h-208c-4 92 -65 160 -167 160s-163 -68 -167 -160h-208z" />
    <glyph glyph-name="Utildeacute" unicode="&#x1e78;" horiz-adv-x="1461" 
d="M476 1443v-892c0 -168 91 -268 255 -268c163 0 254 100 254 268v892h367v-931c0 -324 -246 -537 -621 -537c-376 0 -622 213 -622 537v931h367zM872 1536c-142 0 -194 128 -266 128c-45 0 -66 -48 -69 -109h-180c0 180 102 282 232 282c144 0 197 -128 267 -128
c45 0 65 45 68 114h180c0 -179 -103 -287 -232 -287zM596 1907l198 263h290l-237 -263h-251z" />
    <glyph glyph-name="Udotbelow" unicode="&#x1ee4;" horiz-adv-x="1461" 
d="M731 -492c-92 0 -164 73 -164 163s72 163 164 163s164 -73 164 -163s-72 -163 -164 -163zM476 1443v-892c0 -168 91 -268 255 -268c163 0 254 100 254 268v892h367v-931c0 -324 -246 -537 -621 -537c-376 0 -622 213 -622 537v931h367z" />
    <glyph glyph-name="Utilde" unicode="&#x168;" horiz-adv-x="1461" 
d="M476 1443v-892c0 -168 91 -268 255 -268c163 0 254 100 254 268v892h367v-931c0 -324 -246 -537 -621 -537c-376 0 -622 213 -622 537v931h367zM878 1543c-142 0 -192 127 -263 127c-46 0 -67 -48 -69 -110h-181c0 180 105 283 234 283c144 0 195 -127 265 -127
c45 0 65 45 67 114h181c0 -179 -106 -287 -234 -287z" />
    <glyph glyph-name="Umacron" unicode="&#x16a;" horiz-adv-x="1461" 
d="M476 1443v-892c0 -168 91 -268 255 -268c163 0 254 100 254 268v892h367v-931c0 -324 -246 -537 -621 -537c-376 0 -622 213 -622 537v931h367zM1092 1777v-163h-722v163h722z" />
    <glyph glyph-name="Umacrondieresis" unicode="&#x1e7a;" horiz-adv-x="1461" 
d="M1092 1614h-722v163h722v-163zM517 1918c-83 0 -144 63 -144 138c0 77 61 138 144 138s144 -61 144 -138c0 -75 -61 -138 -144 -138zM945 1918c-83 0 -144 63 -144 138c0 77 61 138 144 138s144 -61 144 -138c0 -75 -61 -138 -144 -138zM476 1443v-892
c0 -168 91 -268 255 -268c163 0 254 100 254 268v892h367v-931c0 -324 -246 -537 -621 -537c-376 0 -622 213 -622 537v931h367z" />
    <glyph glyph-name="Uring" unicode="&#x16e;" horiz-adv-x="1461" 
d="M731 1517c-117 0 -215 95 -215 209c0 116 98 210 215 210s214 -94 214 -210c0 -114 -97 -209 -214 -209zM731 1640c48 0 88 39 88 86c0 48 -40 87 -88 87s-88 -39 -88 -87c0 -47 40 -86 88 -86zM476 1443v-892c0 -168 91 -268 255 -268c163 0 254 100 254 268v892h367
v-931c0 -324 -246 -537 -621 -537c-376 0 -622 213 -622 537v931h367z" />
    <glyph glyph-name="Uogonek" unicode="&#x172;" horiz-adv-x="1461" 
d="M965 -479c-172 0 -291 92 -291 223c0 89 65 185 155 234v7c-23 -6 -66 -10 -98 -10c-376 0 -622 213 -622 537v931h367v-892c0 -170 94 -268 255 -268s254 98 254 268v892h367v-931c0 -180 -74 -327 -219 -433c-142 -102 -204 -181 -204 -261c0 -64 45 -103 121 -103
c30 0 60 4 71 8v-179c-37 -15 -90 -23 -156 -23z" />
    <glyph glyph-name="Uhorn" unicode="&#x1af;" horiz-adv-x="1726" 
d="M731 -26c-375 0 -622 213 -622 537v932h367v-893c0 -169 94 -267 255 -267s254 97 254 267v893h382c47 0 74 24 74 71v194h269v-266c0 -144 -91 -227 -240 -227h-118v-704c0 -324 -246 -537 -621 -537z" />
    <glyph glyph-name="Uhorngrave" unicode="&#x1eea;" horiz-adv-x="1726" 
d="M602 1561l-276 316h313l232 -316h-269zM731 -26c-375 0 -622 213 -622 537v932h367v-893c0 -169 94 -267 255 -267s254 97 254 267v893h382c47 0 74 24 74 71v194h269v-266c0 -144 -91 -227 -240 -227h-118v-704c0 -324 -246 -537 -621 -537z" />
    <glyph glyph-name="Uhornacute" unicode="&#x1ee8;" horiz-adv-x="1726" 
d="M856 1554h-269l232 316h313zM731 -26c-375 0 -622 213 -622 537v932h367v-893c0 -169 94 -267 255 -267s254 97 254 267v893h382c47 0 74 24 74 71v194h269v-266c0 -144 -91 -227 -240 -227h-118v-704c0 -324 -246 -537 -621 -537z" />
    <glyph glyph-name="Uhorndotbelow" unicode="&#x1ef0;" horiz-adv-x="1726" 
d="M731 -492c-92 0 -164 73 -164 163s72 163 164 163s164 -73 164 -163s-72 -163 -164 -163zM731 -26c-375 0 -622 213 -622 537v932h367v-893c0 -169 94 -267 255 -267s254 97 254 267v893h382c47 0 74 24 74 71v194h269v-266c0 -144 -91 -227 -240 -227h-118v-704
c0 -324 -246 -537 -621 -537z" />
    <glyph glyph-name="Uhornhookabove" unicode="&#x1eec;" horiz-adv-x="1726" 
d="M534 1799v150c35 18 95 28 154 28c158 0 258 -82 258 -215c0 -104 -85 -201 -203 -251l-99 120c59 22 99 67 99 111c0 46 -38 75 -101 75c-32 0 -80 -7 -108 -18zM731 -26c-375 0 -622 213 -622 537v932h367v-893c0 -169 94 -267 255 -267s254 97 254 267v893h382
c47 0 74 24 74 71v194h269v-266c0 -144 -91 -227 -240 -227h-118v-704c0 -324 -246 -537 -621 -537z" />
    <glyph glyph-name="Uhorntilde" unicode="&#x1eee;" horiz-adv-x="1726" 
d="M878 1543c-142 0 -192 127 -263 127c-46 0 -67 -48 -69 -110h-181c0 180 105 283 234 283c144 0 195 -127 265 -127c45 0 65 45 67 114h181c0 -179 -106 -287 -234 -287zM731 -26c-375 0 -622 213 -622 537v932h367v-893c0 -169 94 -267 255 -267s254 97 254 267v893h382
c47 0 74 24 74 71v194h269v-266c0 -144 -91 -227 -240 -227h-118v-704c0 -324 -246 -537 -621 -537z" />
    <glyph glyph-name="V" unicode="V" horiz-adv-x="1440" 
d="M951 0h-462l-460 1443h417l278 -1084h8l277 1084h402z" />
    <glyph glyph-name="Vtilde" unicode="&#x1e7c;" horiz-adv-x="1440" 
d="M867 1543c-142 0 -192 127 -263 127c-46 0 -67 -48 -69 -110h-181c0 180 105 283 234 283c144 0 195 -127 265 -127c45 0 65 45 67 114h181c0 -179 -106 -287 -234 -287zM951 0h-462l-460 1443h417l278 -1084h8l277 1084h402z" />
    <glyph glyph-name="Vdotbelow" unicode="&#x1e7e;" horiz-adv-x="1440" 
d="M720 -492c-92 0 -164 73 -164 163s72 163 164 163s164 -73 164 -163s-72 -163 -164 -163zM951 0h-462l-460 1443h417l278 -1084h8l277 1084h402z" />
    <glyph glyph-name="W" unicode="W" horiz-adv-x="2022" 
d="M1007 901l-243 -901h-346l-377 1443h379l195 -975h8l241 975h294l241 -975h8l195 975h379l-377 -1443h-346l-243 901h-8z" />
    <glyph glyph-name="Wgrave" unicode="&#x1e80;" horiz-adv-x="2022" 
d="M882 1561l-276 316h313l232 -316h-269zM1007 901l-243 -901h-346l-377 1443h379l195 -975h8l241 975h294l241 -975h8l195 975h379l-377 -1443h-346l-243 901h-8z" />
    <glyph glyph-name="Wacute" unicode="&#x1e82;" horiz-adv-x="2022" 
d="M1136 1554h-269l232 316h313zM1007 901l-243 -901h-346l-377 1443h379l195 -975h8l241 975h294l241 -975h8l195 975h379l-377 -1443h-346l-243 901h-8z" />
    <glyph glyph-name="Wdotaccent" unicode="&#x1e86;" horiz-adv-x="2022" 
d="M1011 1548c-92 0 -164 73 -164 163s72 163 164 163s164 -73 164 -163s-72 -163 -164 -163zM1007 901l-243 -901h-346l-377 1443h379l195 -975h8l241 975h294l241 -975h8l195 975h379l-377 -1443h-346l-243 901h-8z" />
    <glyph glyph-name="Wdotbelow" unicode="&#x1e88;" horiz-adv-x="2022" 
d="M1011 -492c-92 0 -164 73 -164 163s72 163 164 163s164 -73 164 -163s-72 -163 -164 -163zM1007 901l-243 -901h-346l-377 1443h379l195 -975h8l241 975h294l241 -975h8l195 975h379l-377 -1443h-346l-243 901h-8z" />
    <glyph glyph-name="Wdieresis" unicode="&#x1e84;" horiz-adv-x="2022" 
d="M794 1547c-84 0 -147 64 -147 141c0 78 63 141 147 141c85 0 148 -63 148 -141c0 -77 -63 -141 -148 -141zM1227 1547c-85 0 -147 64 -147 141c0 78 62 141 147 141s147 -63 147 -141c0 -77 -62 -141 -147 -141zM1007 901l-243 -901h-346l-377 1443h379l195 -975h8
l241 975h294l241 -975h8l195 975h379l-377 -1443h-346l-243 901h-8z" />
    <glyph glyph-name="Wcircumflex" unicode="&#x174;" horiz-adv-x="2022" 
d="M874 1867h274l263 -328h-250l-147 194h-6l-147 -194h-250zM1007 901l-243 -901h-346l-377 1443h379l195 -975h8l241 975h294l241 -975h8l195 975h379l-377 -1443h-346l-243 901h-8z" />
    <glyph glyph-name="X" unicode="X" horiz-adv-x="1458" 
d="M42 0l441 723v8l-440 712h428l265 -488h7l267 488h407l-459 -716v-7l455 -720h-412l-280 468h-8l-281 -468h-390z" />
    <glyph glyph-name="Xdotaccent" unicode="&#x1e8a;" horiz-adv-x="1458" 
d="M42 0l441 723v8l-440 712h428l265 -488h7l267 488h407l-459 -716v-7l455 -720h-412l-280 468h-8l-281 -468h-390zM729 1548c-92 0 -164 73 -164 163s72 163 164 163s164 -73 164 -163s-72 -163 -164 -163z" />
    <glyph glyph-name="Xdieresis" unicode="&#x1e8c;" horiz-adv-x="1458" 
d="M42 0l441 723v8l-440 712h428l265 -488h7l267 488h407l-459 -716v-7l455 -720h-412l-280 468h-8l-281 -468h-390zM512 1547c-84 0 -147 64 -147 141c0 78 63 141 147 141c85 0 148 -63 148 -141c0 -77 -63 -141 -148 -141zM945 1547c-85 0 -147 64 -147 141
c0 78 62 141 147 141s147 -63 147 -141c0 -77 -62 -141 -147 -141z" />
    <glyph glyph-name="Y" unicode="Y" horiz-adv-x="1419" 
d="M893 0h-367v496l-497 947h394l287 -600h7l286 600h387l-497 -947v-496z" />
    <glyph glyph-name="Ygrave" unicode="&#x1ef2;" horiz-adv-x="1419" 
d="M893 0h-367v496l-497 947h394l287 -600h7l286 600h387l-497 -947v-496zM581 1561l-276 316h313l232 -316h-269z" />
    <glyph glyph-name="Yacute" unicode="&#xdd;" horiz-adv-x="1419" 
d="M893 0h-367v496l-497 947h394l287 -600h7l286 600h387l-497 -947v-496zM835 1554h-269l232 316h313z" />
    <glyph glyph-name="Ydotaccent" unicode="&#x1e8e;" horiz-adv-x="1419" 
d="M893 0h-367v496l-497 947h394l287 -600h7l286 600h387l-497 -947v-496zM710 1548c-92 0 -164 73 -164 163s72 163 164 163s164 -73 164 -163s-72 -163 -164 -163z" />
    <glyph glyph-name="Ydotbelow" unicode="&#x1ef4;" horiz-adv-x="1419" 
d="M893 0h-367v496l-497 947h394l287 -600h7l286 600h387l-497 -947v-496zM710 -492c-92 0 -164 73 -164 163s72 163 164 163s164 -73 164 -163s-72 -163 -164 -163z" />
    <glyph glyph-name="Ydieresis" unicode="&#x178;" horiz-adv-x="1419" 
d="M893 0h-367v496l-497 947h394l287 -600h7l286 600h387l-497 -947v-496zM493 1547c-84 0 -147 64 -147 141c0 78 63 141 147 141c85 0 148 -63 148 -141c0 -77 -63 -141 -148 -141zM926 1547c-85 0 -147 64 -147 141c0 78 62 141 147 141s147 -63 147 -141
c0 -77 -62 -141 -147 -141z" />
    <glyph glyph-name="Ytilde" unicode="&#x1ef8;" horiz-adv-x="1419" 
d="M893 0h-367v496l-497 947h394l287 -600h7l286 600h387l-497 -947v-496zM857 1543c-142 0 -192 127 -263 127c-46 0 -67 -48 -69 -110h-181c0 180 105 283 234 283c144 0 195 -127 265 -127c45 0 65 45 67 114h181c0 -179 -106 -287 -234 -287z" />
    <glyph glyph-name="Ycircumflex" unicode="&#x176;" horiz-adv-x="1419" 
d="M893 0h-367v496l-497 947h394l287 -600h7l286 600h387l-497 -947v-496zM573 1867h274l263 -328h-250l-147 194h-6l-147 -194h-250z" />
    <glyph glyph-name="Ymacron" unicode="&#x232;" horiz-adv-x="1419" 
d="M893 0h-367v496l-497 947h394l287 -600h7l286 600h387l-497 -947v-496zM1071 1777v-163h-722v163h722z" />
    <glyph glyph-name="Yhookabove" unicode="&#x1ef6;" horiz-adv-x="1419" 
d="M893 0h-367v496l-497 947h394l287 -600h7l286 600h387l-497 -947v-496zM513 1799v150c35 18 95 28 154 28c158 0 258 -82 258 -215c0 -104 -85 -201 -203 -251l-99 120c59 22 99 67 99 111c0 46 -38 75 -101 75c-32 0 -80 -7 -108 -18z" />
    <glyph glyph-name="Z" unicode="Z" horiz-adv-x="1307" 
d="M84 0v233l686 907v7h-675v296h1106v-233l-683 -907v-7h705v-296h-1139z" />
    <glyph glyph-name="Zacute" unicode="&#x179;" horiz-adv-x="1307" 
d="M779 1554h-269l232 316h313zM84 0v233l686 907v7h-675v296h1106v-233l-683 -907v-7h705v-296h-1139z" />
    <glyph glyph-name="Zcaron" unicode="&#x17d;" horiz-adv-x="1307" 
d="M84 0v233l686 907v7h-675v296h1106v-233l-683 -907v-7h705v-296h-1139zM517 1539l-263 328h250l147 -195h6l147 195h250l-263 -328h-274z" />
    <glyph glyph-name="Zcircumflex" unicode="&#x1e90;" horiz-adv-x="1307" 
d="M84 0v233l686 907v7h-675v296h1106v-233l-683 -907v-7h705v-296h-1139zM517 1867h274l263 -328h-250l-147 194h-6l-147 -194h-250z" />
    <glyph glyph-name="Zlinebelow" unicode="&#x1e94;" horiz-adv-x="1307" 
d="M84 0v233l686 907v7h-675v296h1106v-233l-683 -907v-7h705v-296h-1139zM1015 -235v-163h-722v163h722z" />
    <glyph glyph-name="Zdotbelow" unicode="&#x1e92;" horiz-adv-x="1307" 
d="M654 -492c-92 0 -164 73 -164 163s72 163 164 163s164 -73 164 -163s-72 -163 -164 -163zM84 0v233l686 907v7h-675v296h1106v-233l-683 -907v-7h705v-296h-1139z" />
    <glyph glyph-name="Zdotaccent" unicode="&#x17b;" horiz-adv-x="1307" 
d="M654 1548c-92 0 -164 73 -164 163s72 163 164 163s164 -73 164 -163s-72 -163 -164 -163zM84 0v233l686 907v7h-675v296h1106v-233l-683 -907v-7h705v-296h-1139z" />
    <glyph glyph-name="AE" unicode="&#xc6;" horiz-adv-x="2073" 
d="M845 1167l-220 -575h343v575h-123zM968 0v327h-439l-127 -327h-363l575 1443h1336v-295h-655v-290h618v-270h-618v-293h655v-295h-982z" />
    <glyph glyph-name="AEmacron" unicode="&#x1e2;" horiz-adv-x="2073" 
d="M845 1167l-220 -575h343v575h-123zM968 0v327h-439l-127 -327h-363l575 1443h1336v-295h-655v-290h618v-270h-618v-293h655v-295h-982zM1835 1777v-163h-722v163h722z" />
    <glyph glyph-name="AEacute" unicode="&#x1fc;" horiz-adv-x="2073" 
d="M1599 1554h-269l232 316h313zM845 1167l-220 -575h343v575h-123zM968 0v327h-439l-127 -327h-363l575 1443h1336v-295h-655v-290h618v-270h-618v-293h655v-295h-982z" />
    <glyph glyph-name="OE" unicode="&#x152;" horiz-adv-x="2216" 
d="M791 1175c-206 0 -340 -179 -340 -454s134 -453 340 -453s340 178 340 453s-135 454 -340 454zM1180 0v240c-56 -162 -250 -276 -462 -276c-371 0 -641 309 -641 757c0 450 271 758 646 758c209 0 382 -104 457 -283v247h938v-296h-617v-287h580v-270h-580v-294h617v-296
h-938z" />
    <glyph glyph-name="Eth" unicode="&#xd0;" horiz-adv-x="1482" 
d="M499 296h173c239 0 367 145 367 433c0 271 -135 418 -367 418h-173v-295h243v-252h-243v-304zM132 1443h589c435 0 691 -253 691 -713c0 -461 -256 -730 -691 -730h-589v600h-80v252h80v591z" />
    <glyph glyph-name="Thorn" unicode="&#xde;" horiz-adv-x="1382" 
d="M146 1443h369v-219h273c299 0 502 -182 502 -480c0 -295 -212 -478 -525 -478h-252v-266h-367v1443zM513 942v-398h174c147 0 232 68 232 200c0 130 -85 198 -229 198h-177z" />
    <glyph glyph-name="Alphagreek" unicode="&#x391;" horiz-adv-x="1477" 
d="M1058 0l-91 317h-472l-92 -317h-374l485 1443h449l485 -1443h-390zM727 1137l-161 -556h329l-160 556h-8z" />
    <glyph glyph-name="Betagreek" unicode="&#x392;" horiz-adv-x="1352" 
d="M802 0h-693v1443h675c284 0 456 -137 456 -360c0 -162 -123 -291 -283 -313v-8c195 -9 350 -154 350 -346c0 -253 -196 -416 -505 -416zM476 1183v-328h193c134 0 213 63 213 167c0 101 -72 161 -195 161h-211zM476 260h222c151 0 236 66 236 188c0 118 -86 184 -238 184
h-220v-372z" />
    <glyph glyph-name="Gammagreek" unicode="&#x393;" horiz-adv-x="1124" 
d="M476 0h-367v1443h962v-296h-595v-1147z" />
    <glyph glyph-name="Deltagreek" unicode="&#x394;" horiz-adv-x="1445" 
d="M1394 0h-1343v196l447 1247h449l447 -1247v-196zM430 303v-8h552v8l-270 843h-7z" />
    <glyph glyph-name="Epsilongreek" unicode="&#x395;" horiz-adv-x="1196" 
d="M1098 296v-296h-989v1443h989v-296h-622v-287h585v-270h-585v-294h622z" />
    <glyph glyph-name="Zetagreek" unicode="&#x396;" horiz-adv-x="1307" 
d="M84 0v233l686 907v7h-675v296h1106v-233l-683 -907v-7h705v-296h-1139z" />
    <glyph glyph-name="Etagreek" unicode="&#x397;" horiz-adv-x="1527" 
d="M1417 0h-366v581h-575v-581h-367v1443h367v-566h575v566h366v-1443z" />
    <glyph glyph-name="Thetagreek" unicode="&#x398;" horiz-adv-x="1626" 
d="M1043 585h-462v262h462v-262zM814 1468c477 0 743 -294 743 -746c0 -454 -277 -747 -743 -747c-468 0 -745 293 -745 747c0 452 267 746 745 746zM814 1170c-239 0 -375 -166 -375 -448c0 -283 136 -449 375 -449c238 0 374 166 374 449c0 282 -136 448 -374 448z" />
    <glyph glyph-name="Iotagreek" unicode="&#x399;" horiz-adv-x="585" 
d="M476 0h-367v1443h367v-1443z" />
    <glyph glyph-name="Kappagreek" unicode="&#x39a;" horiz-adv-x="1401" 
d="M476 0h-367v1443h367v-634h8l491 634h394l-503 -641l532 -802h-431l-368 564l-123 -156v-408z" />
    <glyph glyph-name="Lambdagreek" unicode="&#x39b;" horiz-adv-x="1451" 
d="M1018 0l-294 1119h-8l-297 -1119h-390l473 1443h448l473 -1443h-405z" />
    <glyph glyph-name="Mugreek" unicode="&#x39c;" horiz-adv-x="1802" 
d="M1693 1443v-1443h-323v901h-7l-357 -886h-210l-356 886h-8v-901h-323v1443h424l364 -927h8l364 927h424z" />
    <glyph glyph-name="Nugreek" unicode="&#x39d;" horiz-adv-x="1479" 
d="M457 0h-348v1443h293l612 -839h8v839h348v-1443h-290l-615 847h-8v-847z" />
    <glyph glyph-name="Xigreek" unicode="&#x39e;" horiz-adv-x="1298" 
d="M98 1443h1102v-303h-1102v303zM1113 584h-928v279h928v-279zM98 303h1102v-303h-1102v303z" />
    <glyph glyph-name="Omicrongreek" unicode="&#x39f;" horiz-adv-x="1564" 
d="M782 1468c437 0 712 -287 712 -747s-275 -746 -712 -746c-438 0 -713 286 -713 746s276 747 713 747zM782 1170c-205 0 -339 -174 -339 -449c0 -274 133 -448 339 -448c205 0 339 174 339 448c0 275 -134 449 -339 449z" />
    <glyph glyph-name="Pigreek" unicode="&#x3a0;" horiz-adv-x="1507" 
d="M1397 0h-366v1148h-555v-1148h-367v1443h1288v-1443z" />
    <glyph glyph-name="Rhogreek" unicode="&#x3a1;" horiz-adv-x="1315" 
d="M109 1443h633c309 0 519 -201 519 -511c0 -308 -221 -509 -542 -509h-243v-423h-367v1443zM476 1162v-463h166c156 0 248 81 248 232c0 150 -92 231 -246 231h-168z" />
    <glyph glyph-name="Sigmagreek" unicode="&#x3a3;" horiz-adv-x="1284" 
d="M534 303v-7h666v-296h-1116v213l363 510l-340 469v251h1069v-296h-610v-7l279 -404v-7z" />
    <glyph glyph-name="Taugreek" unicode="&#x3a4;" horiz-adv-x="1259" 
d="M813 0h-367v1147h-400v296h1167v-296h-400v-1147z" />
    <glyph glyph-name="Upsilongreek" unicode="&#x3a5;" horiz-adv-x="1419" 
d="M893 0h-367v496l-497 947h394l287 -600h7l286 600h387l-497 -947v-496z" />
    <glyph glyph-name="Phigreek" unicode="&#x3a6;" horiz-adv-x="1871" 
d="M1460 712c0 237 -132 384 -360 408v-816c228 23 360 171 360 408zM411 712c0 -237 132 -385 360 -408v816c-228 -24 -360 -171 -360 -408zM1100 -131h-329v155c-421 20 -715 295 -715 688s294 668 715 688v155h329v-155c421 -20 715 -295 715 -688s-294 -668 -715 -688
v-155z" />
    <glyph glyph-name="Chigreek" unicode="&#x3a7;" horiz-adv-x="1458" 
d="M42 0l441 723v8l-440 712h428l265 -488h7l267 488h407l-459 -716v-7l455 -720h-412l-280 468h-8l-281 -468h-390z" />
    <glyph glyph-name="Psigreek" unicode="&#x3a8;" horiz-adv-x="1740" 
d="M1042 0h-344v293c-382 10 -609 243 -609 613v537h344v-544c0 -192 85 -299 265 -318v862h344v-862c180 19 265 126 265 318v544h344v-537c0 -370 -227 -604 -609 -613v-293z" />
    <glyph glyph-name="Omegagreek" unicode="&#x3a9;" horiz-adv-x="1586" 
d="M1146 785c0 244 -144 385 -353 385s-353 -141 -353 -385c0 -210 86 -341 238 -431v-354h-604v280h282v7c-167 94 -282 286 -282 529c0 388 292 652 719 652s719 -264 719 -652c0 -243 -115 -435 -282 -529v-7h282v-280h-604v354c152 90 238 221 238 431z" />
    <glyph glyph-name="Alphatonosgreek" unicode="&#x386;" horiz-adv-x="1611" 
d="M1192 0l-91 317h-472l-92 -317h-374l485 1443h449l485 -1443h-390zM861 1137l-161 -556h329l-160 556h-8zM342 1109h-263l75 334h352z" />
    <glyph glyph-name="Epsilontonosgreek" unicode="&#x388;" horiz-adv-x="1670" 
d="M292 1109h-263l75 334h352zM1572 296v-296h-989v1443h989v-296h-622v-287h585v-270h-585v-294h622z" />
    <glyph glyph-name="Etatonosgreek" unicode="&#x389;" horiz-adv-x="2001" 
d="M292 1109h-263l75 334h352zM1891 0h-366v581h-575v-581h-367v1443h367v-566h575v566h366v-1443z" />
    <glyph glyph-name="Iotatonosgreek" unicode="&#x38a;" horiz-adv-x="1059" 
d="M950 0h-367v1443h367v-1443zM292 1109h-263l75 334h352z" />
    <glyph glyph-name="Iotadieresisgreek" unicode="&#x3aa;" horiz-adv-x="585" 
d="M476 0h-367v1443h367v-1443zM76 1547c-84 0 -147 64 -147 141c0 78 63 141 147 141c85 0 148 -63 148 -141c0 -77 -63 -141 -148 -141zM509 1547c-85 0 -147 64 -147 141c0 78 62 141 147 141s147 -63 147 -141c0 -77 -62 -141 -147 -141z" />
    <glyph glyph-name="Omicrontonosgreek" unicode="&#x38c;" horiz-adv-x="1855" 
d="M1073 1468c437 0 712 -287 712 -747s-275 -746 -712 -746c-438 0 -713 286 -713 746s276 747 713 747zM1073 1170c-205 0 -339 -174 -339 -449c0 -274 133 -448 339 -448c205 0 339 174 339 448c0 275 -134 449 -339 449zM287 1109h-263l75 334h352z" />
    <glyph glyph-name="Upsilontonosgreek" unicode="&#x38e;" horiz-adv-x="1907" 
d="M288 1109h-263l75 334h352zM1381 0h-367v496l-497 947h394l287 -600h7l286 600h387l-497 -947v-496z" />
    <glyph glyph-name="Upsilondieresisgreek" unicode="&#x3ab;" horiz-adv-x="1419" 
d="M893 0h-367v496l-497 947h394l287 -600h7l286 600h387l-497 -947v-496zM493 1547c-84 0 -147 64 -147 141c0 78 63 141 147 141c85 0 148 -63 148 -141c0 -77 -63 -141 -148 -141zM926 1547c-85 0 -147 64 -147 141c0 78 62 141 147 141s147 -63 147 -141
c0 -77 -62 -141 -147 -141z" />
    <glyph glyph-name="Omegatonosgreek" unicode="&#x38f;" horiz-adv-x="1889" 
d="M1449 785c0 244 -144 385 -353 385s-353 -141 -353 -385c0 -210 86 -341 238 -431v-354h-604v280h282v7c-167 94 -282 286 -282 529c0 388 292 652 719 652s719 -264 719 -652c0 -243 -115 -435 -282 -529v-7h282v-280h-604v354c152 90 238 221 238 431zM294 1109h-263
l75 334h352z" />
    <glyph glyph-name="Acyrillic" unicode="&#x410;" horiz-adv-x="1497" 
d="M1068 0l-91 317h-472l-92 -317h-374l485 1443h449l485 -1443h-390zM737 1137l-161 -556h329l-160 556h-8z" />
    <glyph glyph-name="Becyrillic" unicode="&#x411;" horiz-adv-x="1333" 
d="M1266 466c0 -283 -210 -466 -519 -466h-628v1443h1020v-295h-653v-230h246c317 0 534 -179 534 -452zM486 283h171c147 0 235 63 235 184s-88 185 -237 185h-169v-369z" />
    <glyph glyph-name="Vecyrillic" unicode="&#x412;" horiz-adv-x="1372" 
d="M812 0h-693v1443h675c284 0 456 -137 456 -360c0 -162 -123 -291 -283 -313v-8c195 -9 350 -154 350 -346c0 -253 -196 -416 -505 -416zM486 1183v-328h193c134 0 213 63 213 167c0 101 -72 161 -195 161h-211zM486 260h222c151 0 236 66 236 188c0 118 -86 184 -238 184
h-220v-372z" />
    <glyph glyph-name="Gecyrillic" unicode="&#x413;" horiz-adv-x="1150" 
d="M486 0h-367v1443h970v-295h-603v-1148z" />
    <glyph glyph-name="Decyrillic" unicode="&#x414;" horiz-adv-x="1604" 
d="M590 644c-10 -159 -32 -270 -93 -340v-8h531v853h-405zM352 0v-285h-330v581h98c98 76 122 181 135 380l47 767h1092v-1147h180v-581h-329v285h-893z" />
    <glyph glyph-name="Iecyrillic" unicode="&#x415;" horiz-adv-x="1217" 
d="M1108 296v-296h-989v1443h989v-296h-622v-287h585v-270h-585v-294h622z" />
    <glyph glyph-name="Iocyrillic" unicode="&#x401;" horiz-adv-x="1217" 
d="M396 1547c-84 0 -147 64 -147 141c0 78 63 141 147 141c85 0 148 -63 148 -141c0 -77 -63 -141 -148 -141zM829 1547c-85 0 -147 64 -147 141c0 78 62 141 147 141s147 -63 147 -141c0 -77 -62 -141 -147 -141zM1108 296v-296h-989v1443h989v-296h-622v-287h585v-270
h-585v-294h622z" />
    <glyph glyph-name="Zhecyrillic" unicode="&#x416;" horiz-adv-x="2115" 
d="M1549 761l550 -761h-437l-422 599h-8v-599h-354v599h-8l-423 -599h-431l545 756l-522 687h401l430 -583h8v583h354v-583h8l430 583h397z" />
    <glyph glyph-name="Zecyrillic" unicode="&#x417;" horiz-adv-x="1338" 
d="M473 600v274h189c128 0 213 66 213 168s-81 165 -214 165c-134 0 -223 -74 -227 -187h-334c6 282 227 462 569 462c330 0 550 -158 550 -394c0 -165 -111 -296 -274 -327v-8c196 -21 322 -157 322 -349c0 -261 -249 -443 -607 -443c-343 0 -576 184 -589 467h350
c5 -110 100 -178 246 -178c134 0 224 74 224 182c0 105 -86 168 -229 168h-189z" />
    <glyph glyph-name="Iicyrillic" unicode="&#x418;" horiz-adv-x="1554" 
d="M1069 0v884h-10l-589 -884h-351v1443h366v-885h10l589 885h351v-1443h-366z" />
    <glyph glyph-name="Iishortcyrillic" unicode="&#x419;" horiz-adv-x="1554" 
d="M420 1832h204c3 -95 68 -151 162 -151s159 56 162 151h204c0 -194 -149 -315 -366 -315s-366 121 -366 315zM1069 0v884h-10l-589 -884h-351v1443h366v-885h10l589 885h351v-1443h-366z" />
    <glyph glyph-name="Kacyrillic" unicode="&#x41a;" horiz-adv-x="1436" 
d="M815 763l603 -763h-445l-479 599h-8v-599h-367v1443h367v-583h8l487 583h401z" />
    <glyph glyph-name="Elcyrillic" unicode="&#x41b;" horiz-adv-x="1509" 
d="M1390 0h-366v1148h-365l-29 -562c-19 -368 -142 -600 -459 -600c-60 0 -108 8 -129 14v319c16 -3 43 -9 74 -9c133 0 170 118 179 303l38 830h1057v-1443z" />
    <glyph glyph-name="Emcyrillic" unicode="&#x41c;" horiz-adv-x="1822" 
d="M1703 1443v-1443h-323v901h-7l-357 -886h-210l-356 886h-8v-901h-323v1443h424l364 -927h8l364 927h424z" />
    <glyph glyph-name="Encyrillic" unicode="&#x41d;" horiz-adv-x="1547" 
d="M1427 0h-366v581h-575v-581h-367v1443h367v-566h575v566h366v-1443z" />
    <glyph glyph-name="Ocyrillic" unicode="&#x41e;" horiz-adv-x="1584" 
d="M792 1468c437 0 712 -287 712 -747s-275 -746 -712 -746c-438 0 -713 286 -713 746s276 747 713 747zM792 1170c-205 0 -339 -174 -339 -449c0 -274 133 -448 339 -448c205 0 339 174 339 448c0 275 -134 449 -339 449z" />
    <glyph glyph-name="Pecyrillic" unicode="&#x41f;" horiz-adv-x="1534" 
d="M1415 0h-366v1148h-563v-1148h-367v1443h1296v-1443z" />
    <glyph glyph-name="Ercyrillic" unicode="&#x420;" horiz-adv-x="1351" 
d="M119 1443h633c309 0 519 -201 519 -511c0 -308 -221 -509 -542 -509h-243v-423h-367v1443zM486 1162v-463h166c156 0 248 81 248 232c0 150 -92 231 -246 231h-168z" />
    <glyph glyph-name="Escyrillic" unicode="&#x421;" horiz-adv-x="1506" 
d="M780 -36c-432 0 -701 286 -701 758c0 471 271 757 701 757c352 0 621 -228 651 -551h-356c-31 150 -146 246 -295 246c-200 0 -327 -171 -327 -451c0 -283 126 -454 328 -454c151 0 262 91 295 240h357c-34 -327 -293 -545 -653 -545z" />
    <glyph glyph-name="Tecyrillic" unicode="&#x422;" horiz-adv-x="1303" 
d="M823 0h-367v1147h-400v296h1167v-296h-400v-1147z" />
    <glyph glyph-name="Ucyrillic" unicode="&#x423;" horiz-adv-x="1396" 
d="M380 -15c-77 0 -144 14 -148 16v290c5 -1 30 -9 92 -9c78 0 139 16 186 81l-471 1080h388l278 -732h8l260 732h387l-442 -1030c-120 -280 -257 -428 -538 -428z" />
    <glyph glyph-name="Efcyrillic" unicode="&#x424;" horiz-adv-x="1856" 
d="M754 406v634c-190 -11 -317 -128 -317 -317c0 -190 127 -307 317 -317zM1419 722c0 190 -127 308 -316 318v-634c189 10 316 127 316 316zM748 120c-406 14 -678 231 -678 603c0 370 273 588 678 602v153h360v-153c406 -14 678 -231 678 -603c0 -370 -273 -588 -678 -602
v-155h-360v155z" />
    <glyph glyph-name="Xacyrillic" unicode="&#x425;" horiz-adv-x="1478" 
d="M52 0l441 723v8l-440 712h428l265 -488h7l267 488h407l-459 -716v-7l455 -720h-412l-280 468h-8l-281 -468h-390z" />
    <glyph glyph-name="Tsecyrillic" unicode="&#x426;" horiz-adv-x="1624" 
d="M1595 -285h-330v285h-1146v1443h367v-1148h563v1148h366v-1148h180v-580z" />
    <glyph glyph-name="Checyrillic" unicode="&#x427;" horiz-adv-x="1496" 
d="M1377 0h-367v587h-8c-86 -70 -208 -109 -348 -109c-318 0 -533 210 -533 537v428h367v-389c0 -171 93 -268 257 -268c125 0 221 51 265 139v518h367v-1443z" />
    <glyph glyph-name="Shacyrillic" unicode="&#x428;" horiz-adv-x="2040" 
d="M119 0v1443h367v-1148h351v1148h366v-1148h351v1148h366v-1443h-1801z" />
    <glyph glyph-name="Shchacyrillic" unicode="&#x429;" horiz-adv-x="2130" 
d="M2100 -285h-329v285h-1652v1443h367v-1148h351v1148h366v-1148h351v1148h366v-1148h180v-580z" />
    <glyph glyph-name="Hardsigncyrillic" unicode="&#x42a;" horiz-adv-x="1620" 
d="M1037 0h-630v1149h-338v294h704v-458h241c322 0 542 -194 542 -492c0 -299 -210 -493 -519 -493zM773 283h166c153 0 243 73 243 211c0 140 -91 213 -245 213h-164v-424z" />
    <glyph glyph-name="Yericyrillic" unicode="&#x42b;" horiz-adv-x="1895" 
d="M1775 0h-367v1443h367v-1443zM119 0v1443h367v-458h241c321 0 541 -195 541 -492c0 -298 -209 -493 -519 -493h-630zM486 283h166c153 0 243 73 243 211c0 140 -91 213 -246 213h-163v-424z" />
    <glyph glyph-name="Softsigncyrillic" unicode="&#x42c;" horiz-adv-x="1332" 
d="M119 0v1443h367v-458h241c321 0 541 -195 541 -492c0 -298 -209 -493 -519 -493h-630zM486 283h166c153 0 243 73 243 211c0 140 -91 213 -246 213h-163v-424z" />
    <glyph glyph-name="Ereversedcyrillic" unicode="&#x42d;" horiz-adv-x="1506" 
d="M732 -36c-363 0 -626 218 -659 545h356c34 -149 149 -240 302 -240c167 0 296 120 315 323h-529v272h527c-22 194 -151 310 -312 310c-152 0 -270 -96 -301 -246h-357c30 323 303 551 658 551c427 0 694 -286 694 -757c0 -472 -266 -758 -694 -758z" />
    <glyph glyph-name="IUcyrillic" unicode="&#x42e;" horiz-adv-x="2140" 
d="M1360 -39c-385 0 -643 234 -692 621h-182v-582h-367v1443h367v-566h184c54 377 312 605 690 605c428 0 700 -291 700 -760c0 -470 -272 -761 -700 -761zM1359 1178c-198 0 -330 -178 -330 -456c0 -279 131 -457 330 -457c196 0 328 178 328 457c0 278 -132 456 -328 456z
" />
    <glyph glyph-name="IAcyrillic" unicode="&#x42f;" horiz-adv-x="1412" 
d="M929 761v405h-213c-136 0 -222 -79 -222 -203c0 -126 83 -202 223 -202h212zM766 503l-314 -503h-397l361 555c-175 64 -297 212 -297 409c0 287 209 479 557 479h616v-1443h-363v503h-163z" />
    <glyph glyph-name="Djecyrillic" unicode="&#x402;" horiz-adv-x="1778" 
d="M1143 -94c-91 0 -149 15 -154 17v277c6 -2 44 -11 113 -11c135 0 218 74 218 207c0 126 -86 203 -228 203c-120 0 -218 -56 -261 -137v-462h-366v1148h-401v295h1168v-295h-401v-350h8c82 69 195 108 339 108c336 0 510 -211 510 -484c0 -308 -202 -516 -545 -516z" />
    <glyph glyph-name="Gjecyrillic" unicode="&#x403;" horiz-adv-x="1150" 
d="M761 1531h-269l232 316h313zM486 0h-367v1443h970v-295h-603v-1148z" />
    <glyph glyph-name="Ecyrillic" unicode="&#x404;" horiz-adv-x="1506" 
d="M1433 509c-34 -327 -293 -545 -653 -545c-432 0 -701 286 -701 758c0 471 271 757 701 757c352 0 621 -228 651 -551h-356c-31 150 -146 246 -295 246c-164 0 -293 -116 -318 -310h527v-272h-529c22 -203 152 -323 321 -323c151 0 262 91 295 240h357z" />
    <glyph glyph-name="Dzecyrillic" unicode="&#x405;" horiz-adv-x="1355" 
d="M73 418h349c13 -99 124 -165 260 -165c143 0 236 64 236 151c0 80 -61 119 -225 153l-189 37c-266 51 -403 195 -403 414c0 280 240 460 574 460c361 0 574 -175 578 -446h-338c-7 105 -104 168 -236 168c-128 0 -213 -58 -213 -146c0 -78 64 -121 215 -152l187 -35
c285 -55 413 -184 413 -412c0 -287 -237 -470 -609 -470c-368 0 -595 163 -599 443z" />
    <glyph glyph-name="Icyrillic" unicode="&#x406;" horiz-adv-x="605" 
d="M486 0h-367v1443h367v-1443z" />
    <glyph glyph-name="Yicyrillic" unicode="&#x407;" horiz-adv-x="605" 
d="M486 0h-367v1443h367v-1443zM86 1547c-84 0 -147 64 -147 141c0 78 63 141 147 141c85 0 148 -63 148 -141c0 -77 -63 -141 -148 -141zM519 1547c-85 0 -147 64 -147 141c0 78 62 141 147 141s147 -63 147 -141c0 -77 -62 -141 -147 -141z" />
    <glyph glyph-name="Jecyrillic" unicode="&#x408;" horiz-adv-x="1230" 
d="M35 470h353c1 -115 68 -187 173 -187c108 0 167 69 167 197v963h366v-965c0 -324 -198 -505 -529 -505c-324 0 -530 191 -530 497z" />
    <glyph glyph-name="Ljecyrillic" unicode="&#x409;" horiz-adv-x="2264" 
d="M653 586c-18 -359 -137 -600 -459 -600c-61 0 -109 8 -129 14v319c16 -3 43 -9 74 -9c139 0 171 131 179 303l38 830h1057v-458h241c321 0 542 -194 542 -492c0 -299 -211 -493 -520 -493h-630v1148h-364zM1413 283h166c153 0 243 73 243 211c0 140 -91 213 -245 213
h-164v-424z" />
    <glyph glyph-name="Njecyrillic" unicode="&#x40a;" horiz-adv-x="2249" 
d="M1403 283h188c145 0 226 61 226 171c0 105 -82 164 -228 164h-186v-335zM486 605v-605h-367v1443h367v-551h550v551h367v-551h240c325 0 542 -176 542 -441c0 -271 -207 -451 -519 -451h-630v605h-550z" />
    <glyph glyph-name="Tshecyrillic" unicode="&#x40b;" horiz-adv-x="1783" 
d="M1081 599c-119 0 -206 -61 -250 -137v-462h-366v1148h-401v295h1168v-295h-401v-350h8c80 69 187 108 326 108c331 0 500 -218 500 -530v-376h-366v355c0 153 -78 244 -218 244z" />
    <glyph glyph-name="Kjecyrillic" unicode="&#x40c;" horiz-adv-x="1435" 
d="M1142 1847l-276 -316h-269l232 316h313zM815 763l603 -763h-445l-479 599h-8v-599h-367v1443h367v-583h8l487 583h401z" />
    <glyph glyph-name="Ushortcyrillic" unicode="&#x40e;" horiz-adv-x="1396" 
d="M342 1832h204c3 -95 68 -151 162 -151s159 56 162 151h204c0 -194 -149 -315 -366 -315s-366 121 -366 315zM380 -15c-77 0 -144 14 -148 16v290c5 -1 30 -9 92 -9c78 0 139 16 186 81l-471 1080h388l278 -732h8l260 732h387l-442 -1030c-120 -280 -257 -428 -538 -428z
" />
    <glyph glyph-name="Dzhecyrillic" unicode="&#x40f;" horiz-adv-x="1534" 
d="M595 0h-476v1443h367v-1148h562v1148h367v-1443h-475v-285h-345v285z" />
    <glyph glyph-name="Geupturncyrillic" unicode="&#x490;" horiz-adv-x="1150" 
d="M486 1148v-1148h-367v1443h625v285h345v-580h-603z" />
    <glyph glyph-name="a" unicode="a" horiz-adv-x="1191" 
d="M546 231c114 0 211 68 211 170v77l-205 -14c-101 -7 -156 -50 -156 -118c0 -71 59 -115 150 -115zM421 -15c-209 0 -376 137 -376 337c0 208 160 323 451 341l261 16v64c0 91 -65 140 -165 140c-96 0 -161 -51 -171 -120h-319c9 225 206 374 507 374
c297 0 494 -151 494 -375v-762h-344v160h-7c-60 -112 -196 -175 -331 -175z" />
    <glyph glyph-name="agrave" unicode="&#xe0;" horiz-adv-x="1191" 
d="M546 231c114 0 211 68 211 170v77l-205 -14c-101 -7 -156 -50 -156 -118c0 -71 59 -115 150 -115zM421 -15c-209 0 -376 137 -376 337c0 208 160 323 451 341l261 16v64c0 91 -65 140 -165 140c-96 0 -161 -51 -171 -120h-319c9 225 206 374 507 374
c297 0 494 -151 494 -375v-762h-344v160h-7c-60 -112 -196 -175 -331 -175zM753 1269h-275l-264 316h312z" />
    <glyph glyph-name="aacute" unicode="&#xe1;" horiz-adv-x="1191" 
d="M546 231c114 0 211 68 211 170v77l-205 -14c-101 -7 -156 -50 -156 -118c0 -71 59 -115 150 -115zM421 -15c-209 0 -376 137 -376 337c0 208 160 323 451 341l261 16v64c0 91 -65 140 -165 140c-96 0 -161 -51 -171 -120h-319c9 225 206 374 507 374
c297 0 494 -151 494 -375v-762h-344v160h-7c-60 -112 -196 -175 -331 -175zM736 1269h-275l227 316h312z" />
    <glyph glyph-name="adieresis" unicode="&#xe4;" horiz-adv-x="1191" 
d="M546 231c114 0 211 68 211 170v77l-205 -14c-101 -7 -156 -50 -156 -118c0 -71 59 -115 150 -115zM421 -15c-209 0 -376 137 -376 337c0 208 160 323 451 341l261 16v64c0 91 -65 140 -165 140c-96 0 -161 -51 -171 -120h-319c9 225 206 374 507 374
c297 0 494 -151 494 -375v-762h-344v160h-7c-60 -112 -196 -175 -331 -175zM388 1257c-84 0 -147 64 -147 141c0 78 63 141 147 141c85 0 148 -63 148 -141c0 -77 -63 -141 -148 -141zM821 1257c-85 0 -147 64 -147 141c0 78 62 141 147 141s147 -63 147 -141
c0 -77 -62 -141 -147 -141z" />
    <glyph glyph-name="adieresismacron" unicode="&#x1df;" horiz-adv-x="1191" 
d="M546 231c114 0 211 68 211 170v77l-205 -14c-101 -7 -156 -50 -156 -118c0 -71 59 -115 150 -115zM421 -15c-209 0 -376 137 -376 337c0 208 160 323 451 341l261 16v64c0 91 -65 140 -165 140c-96 0 -161 -51 -171 -120h-319c9 225 206 374 507 374
c297 0 494 -151 494 -375v-762h-344v160h-7c-60 -112 -196 -175 -331 -175zM399 1256c-80 0 -139 61 -139 133c0 74 59 133 139 133s139 -59 139 -133c0 -72 -59 -133 -139 -133zM811 1256c-79 0 -139 61 -139 133c0 74 60 133 139 133c80 0 139 -59 139 -133
c0 -72 -59 -133 -139 -133zM949 1822v-163h-688v163h688z" />
    <glyph glyph-name="aring" unicode="&#xe5;" horiz-adv-x="1191" 
d="M546 231c114 0 211 68 211 170v77l-205 -14c-101 -7 -156 -50 -156 -118c0 -71 59 -115 150 -115zM421 -15c-209 0 -376 137 -376 337c0 208 160 323 451 341l261 16v64c0 91 -65 140 -165 140c-96 0 -161 -51 -171 -120h-319c9 225 206 374 507 374
c297 0 494 -151 494 -375v-762h-344v160h-7c-60 -112 -196 -175 -331 -175zM605 1223c-127 0 -234 103 -234 227c0 125 107 227 234 227c126 0 232 -102 232 -227c0 -124 -106 -227 -232 -227zM605 1358c51 0 94 42 94 92c0 51 -43 93 -94 93s-95 -42 -95 -93
c0 -50 44 -92 95 -92z" />
    <glyph glyph-name="aringacute" unicode="&#x1fb;" horiz-adv-x="1191" 
d="M546 231c114 0 211 68 211 170v77l-205 -14c-101 -7 -156 -50 -156 -118c0 -71 59 -115 150 -115zM421 -15c-209 0 -376 137 -376 337c0 208 160 323 451 341l261 16v64c0 91 -65 140 -165 140c-96 0 -161 -51 -171 -120h-319c9 225 206 374 507 374
c297 0 494 -151 494 -375v-762h-344v160h-7c-60 -112 -196 -175 -331 -175zM607 1224c-132 0 -228 94 -228 220c0 127 96 221 228 221s228 -94 228 -221c0 -126 -96 -220 -228 -220zM520 1444c0 -49 38 -86 87 -86c50 0 87 37 87 86c0 50 -37 87 -87 87
c-49 0 -87 -37 -87 -87zM501 1743l139 222h277l-183 -222h-233z" />
    <glyph glyph-name="atilde" unicode="&#xe3;" horiz-adv-x="1191" 
d="M546 231c114 0 211 68 211 170v77l-205 -14c-101 -7 -156 -50 -156 -118c0 -71 59 -115 150 -115zM421 -15c-209 0 -376 137 -376 337c0 208 160 323 451 341l261 16v64c0 91 -65 140 -165 140c-96 0 -161 -51 -171 -120h-319c9 225 206 374 507 374
c297 0 494 -151 494 -375v-762h-344v160h-7c-60 -112 -196 -175 -331 -175zM753 1258c-142 0 -192 127 -263 127c-46 0 -67 -48 -69 -110h-181c0 180 105 283 234 283c144 0 195 -127 265 -127c45 0 65 45 67 114h181c0 -179 -106 -287 -234 -287z" />
    <glyph glyph-name="abrevegrave" unicode="&#x1eb1;" horiz-adv-x="1191" 
d="M546 231c114 0 211 68 211 170v77l-205 -14c-101 -7 -156 -50 -156 -118c0 -71 59 -115 150 -115zM421 -15c-209 0 -376 137 -376 337c0 208 160 323 451 341l261 16v64c0 91 -65 140 -165 140c-96 0 -161 -51 -171 -120h-319c9 225 206 374 507 374
c297 0 494 -151 494 -375v-762h-344v160h-7c-60 -112 -196 -175 -331 -175zM730 1620h-215l-237 276h279zM981 1581c-5 -181 -139 -326 -376 -326s-371 145 -376 326h209c3 -95 63 -161 167 -161s164 66 167 161h209z" />
    <glyph glyph-name="adotmacron" unicode="&#x1e1;" horiz-adv-x="1191" 
d="M546 231c114 0 211 68 211 170v77l-205 -14c-101 -7 -156 -50 -156 -118c0 -71 59 -115 150 -115zM421 -15c-209 0 -376 137 -376 337c0 208 160 323 451 341l261 16v64c0 91 -65 140 -165 140c-96 0 -161 -51 -171 -120h-319c9 225 206 374 507 374
c297 0 494 -151 494 -375v-762h-344v160h-7c-60 -112 -196 -175 -331 -175zM605 1246c-92 0 -164 73 -164 161c0 89 72 161 164 161s164 -72 164 -161c0 -88 -72 -161 -164 -161zM949 1830v-163h-688v163h688z" />
    <glyph glyph-name="aringbelow" unicode="&#x1e01;" horiz-adv-x="1191" 
d="M546 231c114 0 211 68 211 170v77l-205 -14c-101 -7 -156 -50 -156 -118c0 -71 59 -115 150 -115zM421 -15c-209 0 -376 137 -376 337c0 208 160 323 451 341l261 16v64c0 91 -65 140 -165 140c-96 0 -161 -51 -171 -120h-319c9 225 206 374 507 374
c297 0 494 -151 494 -375v-762h-344v160h-7c-60 -112 -196 -175 -331 -175zM595 -592c-127 0 -234 103 -234 227c0 125 107 227 234 227c126 0 232 -102 232 -227c0 -124 -106 -227 -232 -227zM595 -457c51 0 94 42 94 92c0 51 -43 93 -94 93s-95 -42 -95 -93
c0 -50 44 -92 95 -92z" />
    <glyph glyph-name="acircumflex" unicode="&#xe2;" horiz-adv-x="1191" 
d="M546 231c114 0 211 68 211 170v77l-205 -14c-101 -7 -156 -50 -156 -118c0 -71 59 -115 150 -115zM421 -15c-209 0 -376 137 -376 337c0 208 160 323 451 341l261 16v64c0 91 -65 140 -165 140c-96 0 -161 -51 -171 -120h-319c9 225 206 374 507 374
c297 0 494 -151 494 -375v-762h-344v160h-7c-60 -112 -196 -175 -331 -175zM739 1582l261 -327h-256l-135 184h-8l-136 -184h-255l260 327h269z" />
    <glyph glyph-name="acircumflexdotbelow" unicode="&#x1ead;" horiz-adv-x="1191" 
d="M546 231c114 0 211 68 211 170v77l-205 -14c-101 -7 -156 -50 -156 -118c0 -71 59 -115 150 -115zM421 -15c-209 0 -376 137 -376 337c0 208 160 323 451 341l261 16v64c0 91 -65 140 -165 140c-96 0 -161 -51 -171 -120h-319c9 225 206 374 507 374
c297 0 494 -151 494 -375v-762h-344v160h-7c-60 -112 -196 -175 -331 -175zM739 1582l261 -327h-256l-135 184h-8l-136 -184h-255l260 327h269zM595 -492c-92 0 -164 73 -164 163s72 163 164 163s164 -73 164 -163s-72 -163 -164 -163z" />
    <glyph glyph-name="acircumflexacute" unicode="&#x1ea5;" horiz-adv-x="1191" 
d="M546 231c114 0 211 68 211 170v77l-205 -14c-101 -7 -156 -50 -156 -118c0 -71 59 -115 150 -115zM421 -15c-209 0 -376 137 -376 337c0 208 160 323 451 341l261 16v64c0 91 -65 140 -165 140c-96 0 -161 -51 -171 -120h-319c9 225 206 374 507 374
c297 0 494 -151 494 -375v-762h-344v160h-7c-60 -112 -196 -175 -331 -175zM745 1572l256 -317h-255l-137 180h-8l-137 -180h-255l256 317h280zM747 1627l196 285h286l-232 -285h-250z" />
    <glyph glyph-name="acircumflextilde" unicode="&#x1eab;" horiz-adv-x="1191" 
d="M546 231c114 0 211 68 211 170v77l-205 -14c-101 -7 -156 -50 -156 -118c0 -71 59 -115 150 -115zM421 -15c-209 0 -376 137 -376 337c0 208 160 323 451 341l261 16v64c0 91 -65 140 -165 140c-96 0 -161 -51 -171 -120h-319c9 225 206 374 507 374
c297 0 494 -151 494 -375v-762h-344v160h-7c-60 -112 -196 -175 -331 -175zM745 1557l256 -302h-255l-137 167h-8l-137 -167h-255l256 302h280zM744 1629c-142 0 -191 127 -262 127c-46 0 -67 -48 -69 -109h-181c0 180 105 282 234 282c144 0 194 -126 264 -126
c45 0 65 44 67 113h181c0 -179 -106 -287 -234 -287z" />
    <glyph glyph-name="acircumflexgrave" unicode="&#x1ea7;" horiz-adv-x="1191" 
d="M546 231c114 0 211 68 211 170v77l-205 -14c-101 -7 -156 -50 -156 -118c0 -71 59 -115 150 -115zM421 -15c-209 0 -376 137 -376 337c0 208 160 323 451 341l261 16v64c0 91 -65 140 -165 140c-96 0 -161 -51 -171 -120h-319c9 225 206 374 507 374
c297 0 494 -151 494 -375v-762h-344v160h-7c-60 -112 -196 -175 -331 -175zM745 1572l256 -317h-255l-137 180h-8l-137 -180h-255l256 317h280zM1070 1627h-249l-232 285h286z" />
    <glyph glyph-name="acircumflexhookabove" unicode="&#x1ea9;" horiz-adv-x="1191" 
d="M546 231c114 0 211 68 211 170v77l-205 -14c-101 -7 -156 -50 -156 -118c0 -71 59 -115 150 -115zM421 -15c-209 0 -376 137 -376 337c0 208 160 323 451 341l261 16v64c0 91 -65 140 -165 140c-96 0 -161 -51 -171 -120h-319c9 225 206 374 507 374
c297 0 494 -151 494 -375v-762h-344v160h-7c-60 -112 -196 -175 -331 -175zM739 1762v148c31 12 79 21 125 21c154 0 251 -79 251 -204c0 -112 -60 -192 -181 -240l-97 109c58 24 89 66 89 107c0 46 -38 73 -98 73c-33 0 -64 -4 -89 -14zM745 1572l256 -317h-255l-137 180
h-8l-137 -180h-255l256 317h280z" />
    <glyph glyph-name="abreve" unicode="&#x103;" horiz-adv-x="1191" 
d="M546 231c114 0 211 68 211 170v77l-205 -14c-101 -7 -156 -50 -156 -118c0 -71 59 -115 150 -115zM421 -15c-209 0 -376 137 -376 337c0 208 160 323 451 341l261 16v64c0 91 -65 140 -165 140c-96 0 -161 -51 -171 -120h-319c9 225 206 374 507 374
c297 0 494 -151 494 -375v-762h-344v160h-7c-60 -112 -196 -175 -331 -175zM227 1581h210c3 -93 65 -161 168 -161s165 68 168 161h210c-5 -181 -140 -329 -378 -329s-373 148 -378 329z" />
    <glyph glyph-name="abreveacute" unicode="&#x1eaf;" horiz-adv-x="1191" 
d="M546 231c114 0 211 68 211 170v77l-205 -14c-101 -7 -156 -50 -156 -118c0 -71 59 -115 150 -115zM421 -15c-209 0 -376 137 -376 337c0 208 160 323 451 341l261 16v64c0 91 -65 140 -165 140c-96 0 -161 -51 -171 -120h-319c9 225 206 374 507 374
c297 0 494 -151 494 -375v-762h-344v160h-7c-60 -112 -196 -175 -331 -175zM470 1627l196 285h285l-232 -285h-249zM981 1581c-5 -181 -139 -326 -376 -326s-371 145 -376 326h209c3 -95 63 -161 167 -161s164 66 167 161h209z" />
    <glyph glyph-name="abrevetilde" unicode="&#x1eb5;" horiz-adv-x="1191" 
d="M546 231c114 0 211 68 211 170v77l-205 -14c-101 -7 -156 -50 -156 -118c0 -71 59 -115 150 -115zM421 -15c-209 0 -376 137 -376 337c0 208 160 323 451 341l261 16v64c0 91 -65 140 -165 140c-96 0 -161 -51 -171 -120h-319c9 225 206 374 507 374
c297 0 494 -151 494 -375v-762h-344v160h-7c-60 -112 -196 -175 -331 -175zM981 1581c-5 -181 -139 -326 -376 -326s-371 145 -376 326h209c3 -95 63 -161 167 -161s164 66 167 161h209zM744 1629c-142 0 -191 127 -262 127c-46 0 -67 -48 -69 -102h-181
c0 173 105 275 234 275c144 0 194 -126 264 -126c45 0 65 44 67 113h181c0 -179 -106 -287 -234 -287z" />
    <glyph glyph-name="abrevehookabove" unicode="&#x1eb3;" horiz-adv-x="1191" 
d="M546 231c114 0 211 68 211 170v77l-205 -14c-101 -7 -156 -50 -156 -118c0 -71 59 -115 150 -115zM421 -15c-209 0 -376 137 -376 337c0 208 160 323 451 341l261 16v64c0 91 -65 140 -165 140c-96 0 -161 -51 -171 -120h-319c9 225 206 374 507 374
c297 0 494 -151 494 -375v-762h-344v160h-7c-60 -112 -196 -175 -331 -175zM981 1581c-5 -181 -139 -326 -376 -326s-371 145 -376 326h209c3 -95 63 -161 167 -161s164 66 167 161h209zM423 1802v136c28 13 73 21 117 21c146 0 236 -72 236 -190c0 -105 -55 -174 -168 -218
l-91 102c60 30 81 58 81 94c0 42 -34 70 -91 70c-30 0 -59 -5 -84 -15z" />
    <glyph glyph-name="abrevedotbelow" unicode="&#x1eb7;" horiz-adv-x="1191" 
d="M546 231c114 0 211 68 211 170v77l-205 -14c-101 -7 -156 -50 -156 -118c0 -71 59 -115 150 -115zM421 -15c-209 0 -376 137 -376 337c0 208 160 323 451 341l261 16v64c0 91 -65 140 -165 140c-96 0 -161 -51 -171 -120h-319c9 225 206 374 507 374
c297 0 494 -151 494 -375v-762h-344v160h-7c-60 -112 -196 -175 -331 -175zM595 -492c-92 0 -164 73 -164 163s72 163 164 163s164 -73 164 -163s-72 -163 -164 -163zM227 1581h210c3 -93 65 -161 168 -161s165 68 168 161h210c-5 -181 -140 -329 -378 -329
s-373 148 -378 329z" />
    <glyph glyph-name="ainvertedbreve" unicode="&#x203;" horiz-adv-x="1191" 
d="M546 231c114 0 211 68 211 170v77l-205 -14c-101 -7 -156 -50 -156 -118c0 -71 59 -115 150 -115zM421 -15c-209 0 -376 137 -376 337c0 208 160 323 451 341l261 16v64c0 91 -65 140 -165 140c-96 0 -161 -51 -171 -120h-319c9 225 206 374 507 374
c297 0 494 -151 494 -375v-762h-344v160h-7c-60 -112 -196 -175 -331 -175zM227 1255c5 181 140 328 378 328s373 -147 378 -328h-210c-3 92 -65 161 -168 161s-165 -69 -168 -161h-210z" />
    <glyph glyph-name="acaron" unicode="&#x1ce;" horiz-adv-x="1191" 
d="M546 231c114 0 211 68 211 170v77l-205 -14c-101 -7 -156 -50 -156 -118c0 -71 59 -115 150 -115zM421 -15c-209 0 -376 137 -376 337c0 208 160 323 451 341l261 16v64c0 91 -65 140 -165 140c-96 0 -161 -51 -171 -120h-319c9 225 206 374 507 374
c297 0 494 -151 494 -375v-762h-344v160h-7c-60 -112 -196 -175 -331 -175zM739 1255h-269l-260 327h255l136 -184h8l135 184h256z" />
    <glyph glyph-name="adotaccent" unicode="&#x227;" horiz-adv-x="1191" 
d="M546 231c114 0 211 68 211 170v77l-205 -14c-101 -7 -156 -50 -156 -118c0 -71 59 -115 150 -115zM421 -15c-209 0 -376 137 -376 337c0 208 160 323 451 341l261 16v64c0 91 -65 140 -165 140c-96 0 -161 -51 -171 -120h-319c9 225 206 374 507 374
c297 0 494 -151 494 -375v-762h-344v160h-7c-60 -112 -196 -175 -331 -175zM603 1263c-92 0 -164 73 -164 162c0 88 72 161 164 161c93 0 165 -73 165 -161c0 -89 -72 -162 -165 -162z" />
    <glyph glyph-name="adotbelow" unicode="&#x1ea1;" horiz-adv-x="1191" 
d="M546 231c114 0 211 68 211 170v77l-205 -14c-101 -7 -156 -50 -156 -118c0 -71 59 -115 150 -115zM421 -15c-209 0 -376 137 -376 337c0 208 160 323 451 341l261 16v64c0 91 -65 140 -165 140c-96 0 -161 -51 -171 -120h-319c9 225 206 374 507 374
c297 0 494 -151 494 -375v-762h-344v160h-7c-60 -112 -196 -175 -331 -175zM595 -492c-92 0 -164 73 -164 163s72 163 164 163s164 -73 164 -163s-72 -163 -164 -163z" />
    <glyph glyph-name="ahookabove" unicode="&#x1ea3;" horiz-adv-x="1191" 
d="M546 231c114 0 211 68 211 170v77l-205 -14c-101 -7 -156 -50 -156 -118c0 -71 59 -115 150 -115zM421 -15c-209 0 -376 137 -376 337c0 208 160 323 451 341l261 16v64c0 91 -65 140 -165 140c-96 0 -161 -51 -171 -120h-319c9 225 206 374 507 374
c297 0 494 -151 494 -375v-762h-344v160h-7c-60 -112 -196 -175 -331 -175zM434 1513v150c39 16 107 28 158 28c156 0 256 -87 256 -223c0 -99 -75 -191 -203 -251l-97 116c70 34 97 66 97 118c0 48 -43 81 -109 81c-36 0 -70 -7 -102 -19z" />
    <glyph glyph-name="adblgrave" unicode="&#x201;" horiz-adv-x="1191" 
d="M546 231c114 0 211 68 211 170v77l-205 -14c-101 -7 -156 -50 -156 -118c0 -71 59 -115 150 -115zM421 -15c-209 0 -376 137 -376 337c0 208 160 323 451 341l261 16v64c0 91 -65 140 -165 140c-96 0 -161 -51 -171 -120h-319c9 225 206 374 507 374
c297 0 494 -151 494 -375v-762h-344v160h-7c-60 -112 -196 -175 -331 -175zM538 1270h-246l-221 315h282zM938 1270h-246l-222 315h282z" />
    <glyph glyph-name="amacron" unicode="&#x101;" horiz-adv-x="1191" 
d="M546 231c114 0 211 68 211 170v77l-205 -14c-101 -7 -156 -50 -156 -118c0 -71 59 -115 150 -115zM421 -15c-209 0 -376 137 -376 337c0 208 160 323 451 341l261 16v64c0 91 -65 140 -165 140c-96 0 -161 -51 -171 -120h-319c9 225 206 374 507 374
c297 0 494 -151 494 -375v-762h-344v160h-7c-60 -112 -196 -175 -331 -175zM949 1449v-163h-688v163h688z" />
    <glyph glyph-name="aogonek" unicode="&#x105;" horiz-adv-x="1191" 
d="M546 231c114 0 211 68 211 170v77l-205 -14c-101 -7 -156 -50 -156 -118c0 -71 59 -115 150 -115zM1053 -456c-25 -10 -68 -23 -156 -23c-174 0 -292 95 -292 231c0 95 66 188 154 236v172h-7c-60 -112 -196 -175 -331 -175c-209 0 -376 137 -376 337
c0 208 160 323 451 341l261 16v64c0 91 -65 140 -165 140c-96 0 -161 -51 -171 -120h-319c9 225 206 374 507 374c297 0 494 -151 494 -375v-762l-48 -7c-106 -22 -194 -97 -194 -183c0 -56 40 -95 121 -95c31 0 60 4 71 8v-179z" />
    <glyph glyph-name="b" unicode="b" horiz-adv-x="1293" 
d="M797 -15c-163 0 -286 77 -343 206h-7v-191h-352v1515h354v-597h8c57 132 178 210 337 210c281 0 445 -210 445 -571s-163 -572 -442 -572zM663 849c-130 0 -215 -116 -215 -293c0 -178 84 -292 215 -292c130 0 214 114 214 293c0 177 -85 292 -214 292z" />
    <glyph glyph-name="blinebelow" unicode="&#x1e07;" horiz-adv-x="1293" 
d="M1015 -235v-163h-722v163h722zM797 -15c-163 0 -286 77 -343 206h-7v-191h-352v1515h354v-597h8c57 132 178 210 337 210c281 0 445 -210 445 -571s-163 -572 -442 -572zM663 849c-130 0 -215 -116 -215 -293c0 -178 84 -292 215 -292c130 0 214 114 214 293
c0 177 -85 292 -214 292z" />
    <glyph glyph-name="bdotbelow" unicode="&#x1e05;" horiz-adv-x="1293" 
d="M654 -492c-92 0 -164 73 -164 163s72 163 164 163s164 -73 164 -163s-72 -163 -164 -163zM797 -15c-163 0 -286 77 -343 206h-7v-191h-352v1515h354v-597h8c57 132 178 210 337 210c281 0 445 -210 445 -571s-163 -572 -442 -572zM663 849c-130 0 -215 -116 -215 -293
c0 -178 84 -292 215 -292c130 0 214 114 214 293c0 177 -85 292 -214 292z" />
    <glyph glyph-name="bdotaccent" unicode="&#x1e03;" horiz-adv-x="1293" 
d="M272 1620c-92 0 -164 73 -164 163s72 163 164 163s164 -73 164 -163s-72 -163 -164 -163zM797 -15c-163 0 -286 77 -343 206h-7v-191h-352v1515h354v-597h8c57 132 178 210 337 210c281 0 445 -210 445 -571s-163 -572 -442 -572zM663 849c-130 0 -215 -116 -215 -293
c0 -178 84 -292 215 -292c130 0 214 114 214 293c0 177 -85 292 -214 292z" />
    <glyph glyph-name="c" unicode="c" horiz-adv-x="1185" 
d="M1138 677h-325c-12 115 -84 190 -192 190c-131 0 -209 -114 -209 -310c0 -200 78 -310 209 -310c108 0 179 66 192 182h326c-11 -280 -211 -453 -522 -453c-347 0 -563 219 -563 581c0 358 216 580 561 580c311 0 513 -185 523 -460z" />
    <glyph glyph-name="cacute" unicode="&#x107;" horiz-adv-x="1185" 
d="M1138 677h-325c-12 115 -84 190 -192 190c-131 0 -209 -114 -209 -310c0 -200 78 -310 209 -310c108 0 179 66 192 182h326c-11 -280 -211 -453 -522 -453c-347 0 -563 219 -563 581c0 358 216 580 561 580c311 0 513 -185 523 -460zM726 1269h-275l227 316h312z" />
    <glyph glyph-name="ccaron" unicode="&#x10d;" horiz-adv-x="1185" 
d="M729 1255h-269l-260 327h255l136 -184h8l135 184h256zM1138 677h-325c-12 115 -84 190 -192 190c-131 0 -209 -114 -209 -310c0 -200 78 -310 209 -310c108 0 179 66 192 182h326c-11 -280 -211 -453 -522 -453c-347 0 -563 219 -563 581c0 358 216 580 561 580
c311 0 513 -185 523 -460z" />
    <glyph glyph-name="ccircumflex" unicode="&#x109;" horiz-adv-x="1185" 
d="M729 1582l261 -327h-256l-135 184h-8l-136 -184h-255l260 327h269zM1138 677h-325c-12 115 -84 190 -192 190c-131 0 -209 -114 -209 -310c0 -200 78 -310 209 -310c108 0 179 66 192 182h326c-11 -280 -211 -453 -522 -453c-347 0 -563 219 -563 581
c0 358 216 580 561 580c311 0 513 -185 523 -460z" />
    <glyph glyph-name="cdotaccent" unicode="&#x10b;" horiz-adv-x="1185" 
d="M1138 677h-325c-12 115 -84 190 -192 190c-131 0 -209 -114 -209 -310c0 -200 78 -310 209 -310c108 0 179 66 192 182h326c-11 -280 -211 -453 -522 -453c-347 0 -563 219 -563 581c0 358 216 580 561 580c311 0 513 -185 523 -460zM593 1263c-92 0 -164 73 -164 162
c0 88 72 161 164 161c93 0 165 -73 165 -161c0 -89 -72 -162 -165 -162z" />
    <glyph glyph-name="ccedilla" unicode="&#xe7;" horiz-adv-x="1185" 
d="M813 429h326c-10 -257 -180 -424 -449 -450l-38 -81c106 0 173 -62 173 -163c0 -123 -89 -191 -252 -191c-56 0 -106 5 -137 15v131c24 -8 67 -12 105 -12c69 0 100 14 100 45c0 38 -30 51 -112 51h-56v114l47 94c-290 38 -466 248 -466 575c0 358 216 580 561 580
c311 0 513 -185 523 -460h-325c-12 115 -84 190 -192 190c-131 0 -209 -114 -209 -310c0 -200 78 -310 209 -310c108 0 179 66 192 182z" />
    <glyph glyph-name="ccedillaacute" unicode="&#x1e09;" horiz-adv-x="1185" 
d="M990 1585l-264 -316h-275l227 316h312zM813 429h326c-10 -257 -180 -424 -449 -450l-38 -81c106 0 173 -62 173 -163c0 -123 -89 -191 -252 -191c-56 0 -106 5 -137 15v131c24 -8 67 -12 105 -12c69 0 100 14 100 45c0 38 -30 51 -112 51h-56v114l47 94
c-290 38 -466 248 -466 575c0 358 216 580 561 580c311 0 513 -185 523 -460h-325c-12 115 -84 190 -192 190c-131 0 -209 -114 -209 -310c0 -200 78 -310 209 -310c108 0 179 66 192 182z" />
    <glyph glyph-name="d" unicode="d" horiz-adv-x="1289" 
d="M499 -15c-276 0 -445 217 -445 574c0 353 171 569 448 569c162 0 285 -86 334 -210h7v597h355v-1515h-353v191h-6c-46 -119 -175 -206 -340 -206zM631 849c-132 0 -215 -112 -215 -292c0 -182 82 -293 215 -293c132 0 214 111 214 292c0 180 -82 293 -214 293z" />
    <glyph glyph-name="ddotaccent" unicode="&#x1e0b;" horiz-adv-x="1289" 
d="M1031 1620c-92 0 -164 73 -164 163s72 163 164 163s164 -73 164 -163s-72 -163 -164 -163zM499 -15c-276 0 -445 217 -445 574c0 353 171 569 448 569c162 0 285 -86 334 -210h7v597h355v-1515h-353v191h-6c-46 -119 -175 -206 -340 -206zM631 849
c-132 0 -215 -112 -215 -292c0 -182 82 -293 215 -293c132 0 214 111 214 292c0 180 -82 293 -214 293z" />
    <glyph glyph-name="dcircumflexbelow" unicode="&#x1e13;" horiz-adv-x="1289" 
d="M499 -15c-276 0 -445 217 -445 574c0 353 171 569 448 569c162 0 285 -86 334 -210h7v597h355v-1515h-353v191h-6c-46 -119 -175 -206 -340 -206zM631 849c-132 0 -215 -112 -215 -292c0 -182 82 -293 215 -293c132 0 214 111 214 292c0 180 -82 293 -214 293zM494 -156
h274l263 -328h-250l-147 194h-6l-147 -194h-250z" />
    <glyph glyph-name="dcommaaccent" unicode="&#x1e11;" horiz-adv-x="1289" 
d="M605 -477h-265l138 333h310zM499 -15c-276 0 -445 217 -445 574c0 353 171 569 448 569c162 0 285 -86 334 -210h7v597h355v-1515h-353v191h-6c-46 -119 -175 -206 -340 -206zM631 849c-132 0 -215 -112 -215 -292c0 -182 82 -293 215 -293c132 0 214 111 214 292
c0 180 -82 293 -214 293z" />
    <glyph glyph-name="dlinebelow" unicode="&#x1e0f;" horiz-adv-x="1289" 
d="M992 -235v-163h-722v163h722zM499 -15c-276 0 -445 217 -445 574c0 353 171 569 448 569c162 0 285 -86 334 -210h7v597h355v-1515h-353v191h-6c-46 -119 -175 -206 -340 -206zM631 849c-132 0 -215 -112 -215 -292c0 -182 82 -293 215 -293c132 0 214 111 214 292
c0 180 -82 293 -214 293z" />
    <glyph glyph-name="dcaron" unicode="&#x10f;" horiz-adv-x="1524" 
d="M1350 1508h257l-45 -511h-212v511zM499 -15c-276 0 -445 217 -445 574c0 353 171 569 448 569c162 0 285 -86 334 -210h7v597h355v-1515h-353v191h-6c-46 -119 -175 -206 -340 -206zM631 849c-132 0 -215 -112 -215 -292c0 -182 82 -293 215 -293c132 0 214 111 214 292
c0 180 -82 293 -214 293z" />
    <glyph glyph-name="ddotbelow" unicode="&#x1e0d;" horiz-adv-x="1289" 
d="M631 -492c-92 0 -164 73 -164 163s72 163 164 163s164 -73 164 -163s-72 -163 -164 -163zM499 -15c-276 0 -445 217 -445 574c0 353 171 569 448 569c162 0 285 -86 334 -210h7v597h355v-1515h-353v191h-6c-46 -119 -175 -206 -340 -206zM631 849
c-132 0 -215 -112 -215 -292c0 -182 82 -293 215 -293c132 0 214 111 214 292c0 180 -82 293 -214 293z" />
    <glyph glyph-name="dcroat" unicode="&#x111;" horiz-adv-x="1316" 
d="M631 264c132 0 214 111 214 292c0 180 -82 293 -214 293s-215 -112 -215 -292c0 -182 82 -293 215 -293zM1285 1408v-164h-87v-1244h-353v191h-6c-46 -119 -175 -206 -340 -206c-276 0 -445 217 -445 574c0 353 171 569 448 569c162 0 285 -86 334 -210h7v326h-193v164
h193v107h355v-107h87z" />
    <glyph glyph-name="e" unicode="e" horiz-adv-x="1205" 
d="M611 885c-114 0 -199 -84 -208 -203h414c-7 123 -88 203 -206 203zM825 350h320c-34 -228 -239 -374 -527 -374c-352 0 -564 217 -564 575c0 359 214 586 552 586c332 0 546 -218 546 -557v-101h-753v-22c0 -136 91 -229 224 -229c98 0 175 46 202 122z" />
    <glyph glyph-name="egrave" unicode="&#xe8;" horiz-adv-x="1205" 
d="M753 1269h-275l-264 316h312zM611 885c-114 0 -199 -84 -208 -203h414c-7 123 -88 203 -206 203zM825 350h320c-34 -228 -239 -374 -527 -374c-352 0 -564 217 -564 575c0 359 214 586 552 586c332 0 546 -218 546 -557v-101h-753v-22c0 -136 91 -229 224 -229
c98 0 175 46 202 122z" />
    <glyph glyph-name="edblgrave" unicode="&#x205;" horiz-adv-x="1205" 
d="M611 885c-114 0 -199 -84 -208 -203h414c-7 123 -88 203 -206 203zM825 350h320c-34 -228 -239 -374 -527 -374c-352 0 -564 217 -564 575c0 359 214 586 552 586c332 0 546 -218 546 -557v-101h-753v-22c0 -136 91 -229 224 -229c98 0 175 46 202 122zM538 1270h-246
l-221 315h282zM938 1270h-246l-222 315h282z" />
    <glyph glyph-name="eacute" unicode="&#xe9;" horiz-adv-x="1205" 
d="M736 1269h-275l227 316h312zM611 885c-114 0 -199 -84 -208 -203h414c-7 123 -88 203 -206 203zM825 350h320c-34 -228 -239 -374 -527 -374c-352 0 -564 217 -564 575c0 359 214 586 552 586c332 0 546 -218 546 -557v-101h-753v-22c0 -136 91 -229 224 -229
c98 0 175 46 202 122z" />
    <glyph glyph-name="ecircumflex" unicode="&#xea;" horiz-adv-x="1205" 
d="M739 1582l261 -327h-256l-135 184h-8l-136 -184h-255l260 327h269zM611 885c-114 0 -199 -84 -208 -203h414c-7 123 -88 203 -206 203zM825 350h320c-34 -228 -239 -374 -527 -374c-352 0 -564 217 -564 575c0 359 214 586 552 586c332 0 546 -218 546 -557v-101h-753
v-22c0 -136 91 -229 224 -229c98 0 175 46 202 122z" />
    <glyph glyph-name="ecircumflexhookabove" unicode="&#x1ec3;" horiz-adv-x="1205" 
d="M739 1762v148c31 12 79 21 125 21c154 0 251 -79 251 -204c0 -112 -60 -192 -181 -240l-97 109c58 24 89 66 89 107c0 46 -38 73 -98 73c-33 0 -64 -4 -89 -14zM745 1572l256 -317h-255l-137 180h-8l-137 -180h-255l256 317h280zM611 885c-114 0 -199 -84 -208 -203h414
c-7 123 -88 203 -206 203zM825 350h320c-34 -228 -239 -374 -527 -374c-352 0 -564 217 -564 575c0 359 214 586 552 586c332 0 546 -218 546 -557v-101h-753v-22c0 -136 91 -229 224 -229c98 0 175 46 202 122z" />
    <glyph glyph-name="ecircumflexgrave" unicode="&#x1ec1;" horiz-adv-x="1205" 
d="M745 1572l256 -317h-255l-137 180h-8l-137 -180h-255l256 317h280zM1070 1627h-249l-232 285h286zM611 885c-114 0 -199 -84 -208 -203h414c-7 123 -88 203 -206 203zM825 350h320c-34 -228 -239 -374 -527 -374c-352 0 -564 217 -564 575c0 359 214 586 552 586
c332 0 546 -218 546 -557v-101h-753v-22c0 -136 91 -229 224 -229c98 0 175 46 202 122z" />
    <glyph glyph-name="ecircumflextilde" unicode="&#x1ec5;" horiz-adv-x="1205" 
d="M611 885c-114 0 -199 -84 -208 -203h414c-7 123 -88 203 -206 203zM825 350h320c-34 -228 -239 -374 -527 -374c-352 0 -564 217 -564 575c0 359 214 586 552 586c332 0 546 -218 546 -557v-101h-753v-22c0 -136 91 -229 224 -229c98 0 175 46 202 122zM745 1557
l256 -302h-255l-137 167h-8l-137 -167h-255l256 302h280zM744 1629c-142 0 -191 127 -262 127c-46 0 -67 -48 -69 -109h-181c0 180 105 282 234 282c144 0 194 -126 264 -126c45 0 65 44 67 113h181c0 -179 -106 -287 -234 -287z" />
    <glyph glyph-name="ecircumflexdotbelow" unicode="&#x1ec7;" horiz-adv-x="1205" 
d="M739 1582l261 -327h-256l-135 184h-8l-136 -184h-255l260 327h269zM611 885c-114 0 -199 -84 -208 -203h414c-7 123 -88 203 -206 203zM825 350h320c-34 -228 -239 -374 -527 -374c-352 0 -564 217 -564 575c0 359 214 586 552 586c332 0 546 -218 546 -557v-101h-753
v-22c0 -136 91 -229 224 -229c98 0 175 46 202 122zM607 -492c-92 0 -164 73 -164 163s72 163 164 163s164 -73 164 -163s-72 -163 -164 -163z" />
    <glyph glyph-name="ecircumflexacute" unicode="&#x1ebf;" horiz-adv-x="1205" 
d="M745 1572l256 -317h-255l-137 180h-8l-137 -180h-255l256 317h280zM747 1627l196 285h286l-232 -285h-250zM611 885c-114 0 -199 -84 -208 -203h414c-7 123 -88 203 -206 203zM825 350h320c-34 -228 -239 -374 -527 -374c-352 0 -564 217 -564 575c0 359 214 586 552 586
c332 0 546 -218 546 -557v-101h-753v-22c0 -136 91 -229 224 -229c98 0 175 46 202 122z" />
    <glyph glyph-name="edieresis" unicode="&#xeb;" horiz-adv-x="1205" 
d="M611 885c-114 0 -199 -84 -208 -203h414c-7 123 -88 203 -206 203zM825 350h320c-34 -228 -239 -374 -527 -374c-352 0 -564 217 -564 575c0 359 214 586 552 586c332 0 546 -218 546 -557v-101h-753v-22c0 -136 91 -229 224 -229c98 0 175 46 202 122zM388 1257
c-84 0 -147 64 -147 141c0 78 63 141 147 141c85 0 148 -63 148 -141c0 -77 -63 -141 -148 -141zM821 1257c-85 0 -147 64 -147 141c0 78 62 141 147 141s147 -63 147 -141c0 -77 -62 -141 -147 -141z" />
    <glyph glyph-name="edotbelow" unicode="&#x1eb9;" horiz-adv-x="1205" 
d="M607 -492c-92 0 -164 73 -164 163s72 163 164 163s164 -73 164 -163s-72 -163 -164 -163zM611 885c-114 0 -199 -84 -208 -203h414c-7 123 -88 203 -206 203zM825 350h320c-34 -228 -239 -374 -527 -374c-352 0 -564 217 -564 575c0 359 214 586 552 586
c332 0 546 -218 546 -557v-101h-753v-22c0 -136 91 -229 224 -229c98 0 175 46 202 122z" />
    <glyph glyph-name="einvertedbreve" unicode="&#x207;" horiz-adv-x="1205" 
d="M611 885c-114 0 -199 -84 -208 -203h414c-7 123 -88 203 -206 203zM825 350h320c-34 -228 -239 -374 -527 -374c-352 0 -564 217 -564 575c0 359 214 586 552 586c332 0 546 -218 546 -557v-101h-753v-22c0 -136 91 -229 224 -229c98 0 175 46 202 122zM227 1255
c5 181 140 328 378 328s373 -147 378 -328h-210c-3 92 -65 161 -168 161s-165 -69 -168 -161h-210z" />
    <glyph glyph-name="ehookabove" unicode="&#x1ebb;" horiz-adv-x="1205" 
d="M611 885c-114 0 -199 -84 -208 -203h414c-7 123 -88 203 -206 203zM825 350h320c-34 -228 -239 -374 -527 -374c-352 0 -564 217 -564 575c0 359 214 586 552 586c332 0 546 -218 546 -557v-101h-753v-22c0 -136 91 -229 224 -229c98 0 175 46 202 122zM434 1513v150
c39 16 107 28 158 28c156 0 256 -87 256 -223c0 -99 -75 -191 -203 -251l-97 116c70 34 97 66 97 118c0 48 -43 81 -109 81c-36 0 -70 -7 -102 -19z" />
    <glyph glyph-name="ecaron" unicode="&#x11b;" horiz-adv-x="1205" 
d="M739 1255h-269l-260 327h255l136 -184h8l135 184h256zM611 885c-114 0 -199 -84 -208 -203h414c-7 123 -88 203 -206 203zM825 350h320c-34 -228 -239 -374 -527 -374c-352 0 -564 217 -564 575c0 359 214 586 552 586c332 0 546 -218 546 -557v-101h-753v-22
c0 -136 91 -229 224 -229c98 0 175 46 202 122z" />
    <glyph glyph-name="emacron" unicode="&#x113;" horiz-adv-x="1205" 
d="M611 885c-114 0 -199 -84 -208 -203h414c-7 123 -88 203 -206 203zM825 350h320c-34 -228 -239 -374 -527 -374c-352 0 -564 217 -564 575c0 359 214 586 552 586c332 0 546 -218 546 -557v-101h-753v-22c0 -136 91 -229 224 -229c98 0 175 46 202 122zM949 1449v-163
h-688v163h688z" />
    <glyph glyph-name="emacrongrave" unicode="&#x1e15;" horiz-adv-x="1205" 
d="M611 885c-114 0 -199 -84 -208 -203h414c-7 123 -88 203 -206 203zM825 350h320c-34 -228 -239 -374 -527 -374c-352 0 -564 217 -564 575c0 359 214 586 552 586c332 0 546 -218 546 -557v-101h-753v-22c0 -136 91 -229 224 -229c98 0 175 46 202 122zM727 1632h-235
l-225 280h290zM949 1449v-163h-688v163h688z" />
    <glyph glyph-name="emacronacute" unicode="&#x1e17;" horiz-adv-x="1205" 
d="M611 885c-114 0 -199 -84 -208 -203h414c-7 123 -88 203 -206 203zM825 350h320c-34 -228 -239 -374 -527 -374c-352 0 -564 217 -564 575c0 359 214 586 552 586c332 0 546 -218 546 -557v-101h-753v-22c0 -136 91 -229 224 -229c98 0 175 46 202 122zM479 1637l192 275
h291l-229 -275h-254zM949 1449v-163h-688v163h688z" />
    <glyph glyph-name="etilde" unicode="&#x1ebd;" horiz-adv-x="1205" 
d="M611 885c-114 0 -199 -84 -208 -203h414c-7 123 -88 203 -206 203zM825 350h320c-34 -228 -239 -374 -527 -374c-352 0 -564 217 -564 575c0 359 214 586 552 586c332 0 546 -218 546 -557v-101h-753v-22c0 -136 91 -229 224 -229c98 0 175 46 202 122zM753 1258
c-142 0 -192 127 -263 127c-46 0 -67 -48 -69 -110h-181c0 180 105 283 234 283c144 0 195 -127 265 -127c45 0 65 45 67 114h181c0 -179 -106 -287 -234 -287z" />
    <glyph glyph-name="ecircumflexbelow" unicode="&#x1e19;" horiz-adv-x="1205" 
d="M611 885c-114 0 -199 -84 -208 -203h414c-7 123 -88 203 -206 203zM825 350h320c-34 -228 -239 -374 -527 -374c-352 0 -564 217 -564 575c0 359 214 586 552 586c332 0 546 -218 546 -557v-101h-753v-22c0 -136 91 -229 224 -229c98 0 175 46 202 122zM470 -156h274
l263 -328h-250l-147 194h-6l-147 -194h-250z" />
    <glyph glyph-name="ebreve" unicode="&#x115;" horiz-adv-x="1205" 
d="M611 885c-114 0 -199 -84 -208 -203h414c-7 123 -88 203 -206 203zM825 350h320c-34 -228 -239 -374 -527 -374c-352 0 -564 217 -564 575c0 359 214 586 552 586c332 0 546 -218 546 -557v-101h-753v-22c0 -136 91 -229 224 -229c98 0 175 46 202 122zM227 1581h210
c3 -93 65 -161 168 -161s165 68 168 161h210c-5 -181 -140 -329 -378 -329s-373 148 -378 329z" />
    <glyph glyph-name="etildebelow" unicode="&#x1e1b;" horiz-adv-x="1205" 
d="M754 -447c-142 0 -192 127 -263 127c-46 0 -67 -48 -69 -110h-181c0 180 105 283 234 283c144 0 195 -127 265 -127c45 0 65 45 67 114h181c0 -179 -106 -287 -234 -287zM611 885c-114 0 -199 -84 -208 -203h414c-7 123 -88 203 -206 203zM825 350h320
c-34 -228 -239 -374 -527 -374c-352 0 -564 217 -564 575c0 359 214 586 552 586c332 0 546 -218 546 -557v-101h-753v-22c0 -136 91 -229 224 -229c98 0 175 46 202 122z" />
    <glyph glyph-name="edotaccent" unicode="&#x117;" horiz-adv-x="1205" 
d="M603 1263c-92 0 -164 73 -164 162c0 88 72 161 164 161c93 0 165 -73 165 -161c0 -89 -72 -162 -165 -162zM611 885c-114 0 -199 -84 -208 -203h414c-7 123 -88 203 -206 203zM825 350h320c-34 -228 -239 -374 -527 -374c-352 0 -564 217 -564 575c0 359 214 586 552 586
c332 0 546 -218 546 -557v-101h-753v-22c0 -136 91 -229 224 -229c98 0 175 46 202 122z" />
    <glyph glyph-name="ecedilla" unicode="&#x229;" horiz-adv-x="1205" 
d="M403 682h414c-7 123 -88 203 -206 203c-114 0 -199 -84 -208 -203zM1152 479h-753v-22c0 -136 91 -229 224 -229c98 0 175 46 202 122h320c-31 -205 -199 -344 -442 -370l-39 -82c106 0 173 -62 173 -163c0 -123 -89 -191 -252 -191c-56 0 -106 5 -137 15v131
c24 -8 67 -12 105 -12c69 0 100 14 100 45c0 38 -30 51 -112 51h-56v114l46 93c-300 33 -477 242 -477 570c0 359 214 586 552 586c332 0 546 -218 546 -557v-101z" />
    <glyph glyph-name="ecedillabreve" unicode="&#x1e1d;" horiz-adv-x="1205" 
d="M773 1581h210c-5 -181 -140 -329 -378 -329s-373 148 -378 329h210c3 -93 65 -161 168 -161s165 68 168 161zM403 682h414c-7 123 -88 203 -206 203c-114 0 -199 -84 -208 -203zM1152 479h-753v-22c0 -136 91 -229 224 -229c98 0 175 46 202 122h320
c-31 -205 -199 -344 -442 -370l-39 -82c106 0 173 -62 173 -163c0 -123 -89 -191 -252 -191c-56 0 -106 5 -137 15v131c24 -8 67 -12 105 -12c69 0 100 14 100 45c0 38 -30 51 -112 51h-56v114l46 93c-300 33 -477 242 -477 570c0 359 214 586 552 586
c332 0 546 -218 546 -557v-101z" />
    <glyph glyph-name="eogonek" unicode="&#x119;" horiz-adv-x="1205" 
d="M832 -479c-171 0 -291 95 -291 231c0 91 53 171 146 221v7c-14 -2 -39 -4 -69 -4c-352 0 -564 217 -564 575c0 359 214 586 552 586c332 0 546 -218 546 -557v-101h-753v-22c0 -136 91 -229 224 -229c99 0 175 47 202 122h320c-13 -94 -69 -190 -152 -258
c-134 -110 -196 -197 -196 -274c0 -67 43 -103 121 -103c31 0 60 4 70 8v-179c-37 -15 -90 -23 -156 -23zM611 885c-114 0 -199 -84 -208 -203h414c-7 123 -88 203 -206 203z" />
    <glyph glyph-name="f" unicode="f" horiz-adv-x="789" 
d="M178 0v851h-149v262h149v97c0 218 108 305 392 305c58 0 111 -5 156 -11v-234c-21 4 -45 7 -81 7c-86 0 -122 -29 -122 -94v-70h204v-262h-195v-851h-354z" />
    <glyph glyph-name="fdotaccent" unicode="&#x1e1f;" horiz-adv-x="789" 
d="M474 1615c-92 0 -164 73 -164 163s72 163 164 163s164 -73 164 -163s-72 -163 -164 -163zM178 0v851h-149v262h149v97c0 218 108 305 392 305c58 0 111 -5 156 -11v-234c-21 4 -45 7 -81 7c-86 0 -122 -29 -122 -94v-70h204v-262h-195v-851h-354z" />
    <glyph glyph-name="g" unicode="g" horiz-adv-x="1287" 
d="M630 274c133 0 215 103 215 283c0 179 -83 292 -215 292s-214 -112 -214 -291c0 -181 81 -284 214 -284zM624 -413c-313 0 -529 132 -539 340h344c15 -63 99 -104 201 -104c128 0 213 65 213 173v211h-7c-45 -118 -175 -196 -339 -196c-265 0 -443 203 -443 549
c0 353 170 568 449 568c161 0 285 -86 336 -210h6v195h353v-1091c0 -264 -228 -435 -574 -435z" />
    <glyph glyph-name="gacute" unicode="&#x1f5;" horiz-adv-x="1287" 
d="M768 1269h-275l227 316h312zM630 274c133 0 215 103 215 283c0 179 -83 292 -215 292s-214 -112 -214 -291c0 -181 81 -284 214 -284zM624 -413c-313 0 -529 132 -539 340h344c15 -63 99 -104 201 -104c128 0 213 65 213 173v211h-7c-45 -118 -175 -196 -339 -196
c-265 0 -443 203 -443 549c0 353 170 568 449 568c161 0 285 -86 336 -210h6v195h353v-1091c0 -264 -228 -435 -574 -435z" />
    <glyph glyph-name="gcaron" unicode="&#x1e7;" horiz-adv-x="1287" 
d="M771 1255h-269l-260 327h255l136 -184h8l135 184h256zM630 274c133 0 215 103 215 283c0 179 -83 292 -215 292s-214 -112 -214 -291c0 -181 81 -284 214 -284zM624 -413c-313 0 -529 132 -539 340h344c15 -63 99 -104 201 -104c128 0 213 65 213 173v211h-7
c-45 -118 -175 -196 -339 -196c-265 0 -443 203 -443 549c0 353 170 568 449 568c161 0 285 -86 336 -210h6v195h353v-1091c0 -264 -228 -435 -574 -435z" />
    <glyph glyph-name="gcircumflex" unicode="&#x11d;" horiz-adv-x="1287" 
d="M771 1582l261 -327h-256l-135 184h-8l-136 -184h-255l260 327h269zM630 274c133 0 215 103 215 283c0 179 -83 292 -215 292s-214 -112 -214 -291c0 -181 81 -284 214 -284zM624 -413c-313 0 -529 132 -539 340h344c15 -63 99 -104 201 -104c128 0 213 65 213 173v211h-7
c-45 -118 -175 -196 -339 -196c-265 0 -443 203 -443 549c0 353 170 568 449 568c161 0 285 -86 336 -210h6v195h353v-1091c0 -264 -228 -435 -574 -435z" />
    <glyph glyph-name="gbreve" unicode="&#x11f;" horiz-adv-x="1287" 
d="M259 1581h210c3 -93 65 -161 168 -161s165 68 168 161h210c-5 -181 -140 -329 -378 -329s-373 148 -378 329zM630 274c133 0 215 103 215 283c0 179 -83 292 -215 292s-214 -112 -214 -291c0 -181 81 -284 214 -284zM624 -413c-313 0 -529 132 -539 340h344
c15 -63 99 -104 201 -104c128 0 213 65 213 173v211h-7c-45 -118 -175 -196 -339 -196c-265 0 -443 203 -443 549c0 353 170 568 449 568c161 0 285 -86 336 -210h6v195h353v-1091c0 -264 -228 -435 -574 -435z" />
    <glyph glyph-name="gmacron" unicode="&#x1e21;" horiz-adv-x="1287" 
d="M981 1449v-163h-688v163h688zM630 274c133 0 215 103 215 283c0 179 -83 292 -215 292s-214 -112 -214 -291c0 -181 81 -284 214 -284zM624 -413c-313 0 -529 132 -539 340h344c15 -63 99 -104 201 -104c128 0 213 65 213 173v211h-7c-45 -118 -175 -196 -339 -196
c-265 0 -443 203 -443 549c0 353 170 568 449 568c161 0 285 -86 336 -210h6v195h353v-1091c0 -264 -228 -435 -574 -435z" />
    <glyph glyph-name="gdotaccent" unicode="&#x121;" horiz-adv-x="1287" 
d="M635 1263c-92 0 -164 73 -164 162c0 88 72 161 164 161c93 0 165 -73 165 -161c0 -89 -72 -162 -165 -162zM630 274c133 0 215 103 215 283c0 179 -83 292 -215 292s-214 -112 -214 -291c0 -181 81 -284 214 -284zM624 -413c-313 0 -529 132 -539 340h344
c15 -63 99 -104 201 -104c128 0 213 65 213 173v211h-7c-45 -118 -175 -196 -339 -196c-265 0 -443 203 -443 549c0 353 170 568 449 568c161 0 285 -86 336 -210h6v195h353v-1091c0 -264 -228 -435 -574 -435z" />
    <glyph glyph-name="gcommaaccent" unicode="&#x123;" horiz-adv-x="1287" 
d="M612 -867h-265l138 333h310zM630 274c133 0 215 103 215 283c0 179 -83 292 -215 292s-214 -112 -214 -291c0 -181 81 -284 214 -284zM624 -413c-313 0 -529 132 -539 340h344c15 -63 99 -104 201 -104c128 0 213 65 213 173v211h-7c-45 -118 -175 -196 -339 -196
c-265 0 -443 203 -443 549c0 353 170 568 449 568c161 0 285 -86 336 -210h6v195h353v-1091c0 -264 -228 -435 -574 -435z" />
    <glyph glyph-name="h" unicode="h" horiz-adv-x="1269" 
d="M95 0v1515h347v-611h7c59 149 179 228 349 228c248 0 387 -157 387 -420v-712h-355v636c0 128 -63 207 -185 207c-125 0 -196 -89 -196 -216v-627h-354z" />
    <glyph glyph-name="hdieresis" unicode="&#x1e27;" horiz-adv-x="1269" 
d="M95 0v1515h347v-611h7c59 149 179 228 349 228c248 0 387 -157 387 -420v-712h-355v636c0 128 -63 207 -185 207c-125 0 -196 -89 -196 -216v-627h-354zM54 1619c-84 0 -147 64 -147 141c0 78 63 141 147 141c85 0 148 -63 148 -141c0 -77 -63 -141 -148 -141zM487 1619
c-85 0 -147 64 -147 141c0 78 62 141 147 141s147 -63 147 -141c0 -77 -62 -141 -147 -141z" />
    <glyph glyph-name="hcaron" unicode="&#x21f;" horiz-adv-x="1269" 
d="M95 0v1515h347v-611h7c59 149 179 228 349 228c248 0 387 -157 387 -420v-712h-355v636c0 128 -63 207 -185 207c-125 0 -196 -89 -196 -216v-627h-354zM134 1611l-263 328h250l147 -195h6l147 195h250l-263 -328h-274z" />
    <glyph glyph-name="hcircumflex" unicode="&#x125;" horiz-adv-x="1269" 
d="M95 0v1515h347v-611h7c59 149 179 228 349 228c248 0 387 -157 387 -420v-712h-355v636c0 128 -63 207 -185 207c-125 0 -196 -89 -196 -216v-627h-354zM134 1939h274l263 -328h-250l-147 194h-6l-147 -194h-250z" />
    <glyph glyph-name="hdotbelow" unicode="&#x1e25;" horiz-adv-x="1269" 
d="M95 0v1515h347v-611h7c59 149 179 228 349 228c248 0 387 -157 387 -420v-712h-355v636c0 128 -63 207 -185 207c-125 0 -196 -89 -196 -216v-627h-354zM637 -492c-92 0 -164 73 -164 163s72 163 164 163s164 -73 164 -163s-72 -163 -164 -163z" />
    <glyph glyph-name="hdotaccent" unicode="&#x1e23;" horiz-adv-x="1269" 
d="M95 0v1515h347v-611h7c59 149 179 228 349 228c248 0 387 -157 387 -420v-712h-355v636c0 128 -63 207 -185 207c-125 0 -196 -89 -196 -216v-627h-354zM271 1620c-92 0 -164 73 -164 163s72 163 164 163s164 -73 164 -163s-72 -163 -164 -163z" />
    <glyph glyph-name="hbrevebelow" unicode="&#x1e2b;" horiz-adv-x="1269" 
d="M262 -165h208c4 -92 65 -159 167 -159s163 67 167 159h208c-5 -179 -139 -326 -375 -326s-370 147 -375 326zM95 0v1515h347v-611h7c59 149 179 228 349 228c248 0 387 -157 387 -420v-712h-355v636c0 128 -63 207 -185 207c-125 0 -196 -89 -196 -216v-627h-354z" />
    <glyph glyph-name="hcedilla" unicode="&#x1e29;" horiz-adv-x="1269" 
d="M442 904h7c59 149 179 228 349 228c248 0 387 -157 387 -420v-712h-355v636c0 128 -63 207 -185 207c-125 0 -196 -89 -196 -216v-627h-133l-48 -102c106 0 173 -62 173 -163c0 -123 -89 -191 -252 -191c-56 0 -106 5 -137 15v131c24 -8 67 -12 105 -12
c69 0 100 14 100 45c0 38 -30 51 -112 51h-56v114l56 112h-50v1515h347v-611z" />
    <glyph glyph-name="hbar" unicode="&#x127;" horiz-adv-x="1269" 
d="M442 904h7c59 149 179 228 349 228c248 0 387 -157 387 -420v-712h-355v636c0 128 -63 207 -185 207c-125 0 -196 -89 -196 -216v-627h-354v1244h-64v164h64v107h347v-107h217v-164h-217v-340z" />
    <glyph glyph-name="hlinebelow" unicode="&#x1e96;" horiz-adv-x="1269" 
d="M95 0v1515h347v-611h7c59 149 179 228 349 228c248 0 387 -157 387 -420v-712h-355v636c0 128 -63 207 -185 207c-125 0 -196 -89 -196 -216v-627h-354zM998 -235v-163h-722v163h722z" />
    <glyph glyph-name="i" unicode="i" horiz-adv-x="537" 
d="M91 0v1113h355v-1113h-355zM268 1205c-100 0 -182 74 -182 175c0 100 82 175 182 175c101 0 183 -75 183 -175c0 -101 -82 -175 -183 -175z" />
    <glyph glyph-name="idotaccent" horiz-adv-x="537" 
d="M266 1263c-92 0 -164 73 -164 162c0 88 72 161 164 161c93 0 165 -73 165 -161c0 -89 -72 -162 -165 -162zM91 0v1113h355v-1113h-355z" />
    <glyph glyph-name="igrave" unicode="&#xec;" horiz-adv-x="537" 
d="M416 1269h-275l-264 316h312zM91 0v1113h355v-1113h-355z" />
    <glyph glyph-name="idblgrave" unicode="&#x209;" horiz-adv-x="537" 
d="M91 0v1113h355v-1113h-355zM201 1270h-246l-221 315h282zM601 1270h-246l-222 315h282z" />
    <glyph glyph-name="iacute" unicode="&#xed;" horiz-adv-x="537" 
d="M399 1269h-275l227 316h312zM91 0v1113h355v-1113h-355z" />
    <glyph glyph-name="icircumflex" unicode="&#xee;" horiz-adv-x="537" 
d="M402 1582l261 -327h-256l-135 184h-8l-136 -184h-255l260 327h269zM91 0v1113h355v-1113h-355z" />
    <glyph glyph-name="icaron" unicode="&#x1d0;" horiz-adv-x="537" 
d="M402 1255h-269l-260 327h255l136 -184h8l135 184h256zM91 0v1113h355v-1113h-355z" />
    <glyph glyph-name="idieresis" unicode="&#xef;" horiz-adv-x="537" 
d="M91 0v1113h355v-1113h-355zM51 1257c-84 0 -147 64 -147 141c0 78 63 141 147 141c85 0 148 -63 148 -141c0 -77 -63 -141 -148 -141zM484 1257c-85 0 -147 64 -147 141c0 78 62 141 147 141s147 -63 147 -141c0 -77 -62 -141 -147 -141z" />
    <glyph glyph-name="idieresisacute" unicode="&#x1e2f;" horiz-adv-x="537" 
d="M142 1637l192 275h291l-229 -275h-254zM51 1257c-84 0 -147 64 -147 141c0 78 63 141 147 141c85 0 148 -63 148 -141c0 -77 -63 -141 -148 -141zM484 1257c-85 0 -147 64 -147 141c0 78 62 141 147 141s147 -63 147 -141c0 -77 -62 -141 -147 -141zM91 0v1113h355v-1113
h-355z" />
    <glyph glyph-name="ibreve" unicode="&#x12d;" horiz-adv-x="537" 
d="M91 0v1113h355v-1113h-355zM-110 1581h210c3 -93 65 -161 168 -161s165 68 168 161h210c-5 -181 -140 -329 -378 -329s-373 148 -378 329z" />
    <glyph glyph-name="idotbelow" unicode="&#x1ecb;" horiz-adv-x="537" 
d="M91 0v1113h355v-1113h-355zM268 1205c-100 0 -182 74 -182 175c0 100 82 175 182 175c101 0 183 -75 183 -175c0 -101 -82 -175 -183 -175zM268 -492c-92 0 -164 73 -164 163s72 163 164 163s164 -73 164 -163s-72 -163 -164 -163z" />
    <glyph glyph-name="iinvertedbreve" unicode="&#x20b;" horiz-adv-x="537" 
d="M91 0v1113h355v-1113h-355zM-110 1255c5 181 140 328 378 328s373 -147 378 -328h-210c-3 92 -65 161 -168 161s-165 -69 -168 -161h-210z" />
    <glyph glyph-name="imacron" unicode="&#x12b;" horiz-adv-x="537" 
d="M91 0v1113h355v-1113h-355zM612 1449v-163h-688v163h688z" />
    <glyph glyph-name="itildebelow" unicode="&#x1e2d;" horiz-adv-x="537" 
d="M91 0v1113h355v-1113h-355zM268 1205c-100 0 -182 74 -182 175c0 100 82 175 182 175c101 0 183 -75 183 -175c0 -101 -82 -175 -183 -175zM415 -447c-142 0 -192 127 -263 127c-46 0 -67 -48 -69 -110h-181c0 180 105 283 234 283c144 0 195 -127 265 -127
c45 0 65 45 67 114h181c0 -179 -106 -287 -234 -287z" />
    <glyph glyph-name="ihookabove" unicode="&#x1ec9;" horiz-adv-x="537" 
d="M91 0v1113h355v-1113h-355zM97 1513v150c39 16 107 28 158 28c156 0 256 -87 256 -223c0 -99 -75 -191 -203 -251l-97 116c70 34 97 66 97 118c0 48 -43 81 -109 81c-36 0 -70 -7 -102 -19z" />
    <glyph glyph-name="itilde" unicode="&#x129;" horiz-adv-x="537" 
d="M91 0v1113h355v-1113h-355zM416 1258c-142 0 -192 127 -263 127c-46 0 -67 -48 -69 -110h-181c0 180 105 283 234 283c144 0 195 -127 265 -127c45 0 65 45 67 114h181c0 -179 -106 -287 -234 -287z" />
    <glyph glyph-name="iogonek" unicode="&#x12f;" horiz-adv-x="537" 
d="M268 1205c-100 0 -182 74 -182 175c0 100 82 175 182 175c101 0 183 -75 183 -175c0 -101 -82 -175 -183 -175zM91 -30v1143h355v-1113l-47 -7c-91 -23 -168 -91 -168 -175c0 -63 44 -103 129 -103c23 0 45 2 70 7v-178c-35 -15 -94 -23 -151 -23
c-182 0 -299 97 -299 239c0 79 41 157 111 210z" />
    <glyph glyph-name="j" unicode="j" horiz-adv-x="537" 
d="M446 1113v-1140c0 -226 -151 -351 -423 -351c-32 0 -84 3 -103 5v253c10 -1 29 -2 42 -2c92 0 129 31 129 108v1127h355zM268 1205c-100 0 -182 74 -182 175c0 100 82 175 182 175c101 0 183 -75 183 -175c0 -101 -82 -175 -183 -175z" />
    <glyph glyph-name="jcircumflex" unicode="&#x135;" horiz-adv-x="536" 
d="M446 1113v-1140c0 -226 -151 -351 -423 -351c-32 0 -84 3 -103 5v253c10 -1 29 -2 42 -2c92 0 129 31 129 108v1127h355zM402 1582l261 -327h-256l-135 184h-8l-136 -184h-255l260 327h269z" />
    <glyph glyph-name="k" unicode="k" horiz-adv-x="1179" 
d="M456 687l327 426h396l-400 -477l423 -636h-408l-277 424l-68 -79v-345h-354v1515h354v-828h7z" />
    <glyph glyph-name="kacute" unicode="&#x1e31;" horiz-adv-x="1179" 
d="M396 1626h-269l232 316h313zM456 687l327 426h396l-400 -477l423 -636h-408l-277 424l-68 -79v-345h-354v1515h354v-828h7z" />
    <glyph glyph-name="kcaron" unicode="&#x1e9;" horiz-adv-x="1179" 
d="M456 687l327 426h396l-400 -477l423 -636h-408l-277 424l-68 -79v-345h-354v1515h354v-828h7zM134 1611l-263 328h250l147 -195h6l147 195h250l-263 -328h-274z" />
    <glyph glyph-name="kdotbelow" unicode="&#x1e33;" horiz-adv-x="1179" 
d="M600 -492c-92 0 -164 73 -164 163s72 163 164 163s164 -73 164 -163s-72 -163 -164 -163zM456 687l327 426h396l-400 -477l423 -636h-408l-277 424l-68 -79v-345h-354v1515h354v-828h7z" />
    <glyph glyph-name="klinebelow" unicode="&#x1e35;" horiz-adv-x="1179" 
d="M456 687l327 426h396l-400 -477l423 -636h-408l-277 424l-68 -79v-345h-354v1515h354v-828h7zM961 -235v-163h-722v163h722z" />
    <glyph glyph-name="kcommaaccent" unicode="&#x137;" horiz-adv-x="1179" 
d="M456 687l327 426h396l-400 -477l423 -636h-408l-277 424l-68 -79v-345h-354v1515h354v-828h7zM574 -477h-265l138 333h310z" />
    <glyph glyph-name="l" unicode="l" horiz-adv-x="545" 
d="M95 0v1515h354v-1515h-354z" />
    <glyph glyph-name="lacute" unicode="&#x13a;" horiz-adv-x="545" 
d="M397 1626h-269l232 316h313zM95 0v1515h354v-1515h-354z" />
    <glyph glyph-name="lcircumflexbelow" unicode="&#x1e3d;" horiz-adv-x="545" 
d="M95 0v1515h354v-1515h-354zM135 -156h274l263 -328h-250l-147 194h-6l-147 -194h-250z" />
    <glyph glyph-name="ldotbelow" unicode="&#x1e37;" horiz-adv-x="545" 
d="M272 -492c-92 0 -164 73 -164 163s72 163 164 163s164 -73 164 -163s-72 -163 -164 -163zM95 0v1515h354v-1515h-354z" />
    <glyph glyph-name="ldotbelowmacron" unicode="&#x1e39;" horiz-adv-x="545" 
d="M272 -492c-92 0 -164 73 -164 163s72 163 164 163s164 -73 164 -163s-72 -163 -164 -163zM95 0v1515h354v-1515h-354zM633 1849v-163h-722v163h722z" />
    <glyph glyph-name="llinebelow" unicode="&#x1e3b;" horiz-adv-x="545" 
d="M633 -235v-163h-722v163h722zM95 0v1515h354v-1515h-354z" />
    <glyph glyph-name="lcommaaccent" unicode="&#x13c;" horiz-adv-x="545" 
d="M246 -477h-265l138 333h310zM95 0v1515h354v-1515h-354z" />
    <glyph glyph-name="lcaron" unicode="&#x13e;" horiz-adv-x="793" 
d="M604 1508h256l-45 -511h-211v511zM95 0v1515h354v-1515h-354z" />
    <glyph glyph-name="lslash" unicode="&#x142;" horiz-adv-x="589" 
d="M570 1127v-229l-99 -56v-842h-354v641l-98 -56v229l98 56v645h354v-444z" />
    <glyph glyph-name="m" unicode="m" horiz-adv-x="1868" 
d="M89 0v1113h344v-214h7c44 143 168 233 318 233c165 0 278 -85 310 -236h7c44 144 178 236 344 236c217 0 365 -152 365 -378v-754h-354v664c0 118 -55 180 -160 180c-100 0 -164 -72 -164 -184v-660h-338v669c0 112 -58 175 -160 175c-99 0 -165 -74 -165 -186v-658h-354
z" />
    <glyph glyph-name="macute" unicode="&#x1e3f;" horiz-adv-x="1868" 
d="M1066 1269h-275l227 316h312zM89 0v1113h344v-214h7c44 143 168 233 318 233c165 0 278 -85 310 -236h7c44 144 178 236 344 236c217 0 365 -152 365 -378v-754h-354v664c0 118 -55 180 -160 180c-100 0 -164 -72 -164 -184v-660h-338v669c0 112 -58 175 -160 175
c-99 0 -165 -74 -165 -186v-658h-354z" />
    <glyph glyph-name="mdotaccent" unicode="&#x1e41;" horiz-adv-x="1868" 
d="M933 1263c-92 0 -164 73 -164 162c0 88 72 161 164 161c93 0 165 -73 165 -161c0 -89 -72 -162 -165 -162zM89 0v1113h344v-214h7c44 143 168 233 318 233c165 0 278 -85 310 -236h7c44 144 178 236 344 236c217 0 365 -152 365 -378v-754h-354v664
c0 118 -55 180 -160 180c-100 0 -164 -72 -164 -184v-660h-338v669c0 112 -58 175 -160 175c-99 0 -165 -74 -165 -186v-658h-354z" />
    <glyph glyph-name="mdotbelow" unicode="&#x1e43;" horiz-adv-x="1868" 
d="M935 -492c-92 0 -164 73 -164 163s72 163 164 163s164 -73 164 -163s-72 -163 -164 -163zM89 0v1113h344v-214h7c44 143 168 233 318 233c165 0 278 -85 310 -236h7c44 144 178 236 344 236c217 0 365 -152 365 -378v-754h-354v664c0 118 -55 180 -160 180
c-100 0 -164 -72 -164 -184v-660h-338v669c0 112 -58 175 -160 175c-99 0 -165 -74 -165 -186v-658h-354z" />
    <glyph glyph-name="n" unicode="n" horiz-adv-x="1256" 
d="M89 0v1113h344v-209h7c60 149 175 228 345 228c248 0 387 -156 387 -419v-713h-355v637c0 129 -60 206 -182 206c-120 0 -192 -89 -192 -215v-628h-354z" />
    <glyph glyph-name="ngrave" unicode="&#x1f9;" horiz-adv-x="1256" 
d="M777 1269h-275l-264 316h312zM89 0v1113h344v-209h7c60 149 175 228 345 228c248 0 387 -156 387 -419v-713h-355v637c0 129 -60 206 -182 206c-120 0 -192 -89 -192 -215v-628h-354z" />
    <glyph glyph-name="nacute" unicode="&#x144;" horiz-adv-x="1256" 
d="M760 1269h-275l227 316h312zM89 0v1113h344v-209h7c60 149 175 228 345 228c248 0 387 -156 387 -419v-713h-355v637c0 129 -60 206 -182 206c-120 0 -192 -89 -192 -215v-628h-354z" />
    <glyph glyph-name="ntilde" unicode="&#xf1;" horiz-adv-x="1256" 
d="M777 1258c-142 0 -192 127 -263 127c-46 0 -67 -48 -69 -110h-181c0 180 105 283 234 283c144 0 195 -127 265 -127c45 0 65 45 67 114h181c0 -179 -106 -287 -234 -287zM89 0v1113h344v-209h7c60 149 175 228 345 228c248 0 387 -156 387 -419v-713h-355v637
c0 129 -60 206 -182 206c-120 0 -192 -89 -192 -215v-628h-354z" />
    <glyph glyph-name="ndotbelow" unicode="&#x1e47;" horiz-adv-x="1256" 
d="M633 -492c-92 0 -164 73 -164 163s72 163 164 163s164 -73 164 -163s-72 -163 -164 -163zM89 0v1113h344v-209h7c60 149 175 228 345 228c248 0 387 -156 387 -419v-713h-355v637c0 129 -60 206 -182 206c-120 0 -192 -89 -192 -215v-628h-354z" />
    <glyph glyph-name="ndotaccent" unicode="&#x1e45;" horiz-adv-x="1256" 
d="M627 1263c-92 0 -164 73 -164 162c0 88 72 161 164 161c93 0 165 -73 165 -161c0 -89 -72 -162 -165 -162zM89 0v1113h344v-209h7c60 149 175 228 345 228c248 0 387 -156 387 -419v-713h-355v637c0 129 -60 206 -182 206c-120 0 -192 -89 -192 -215v-628h-354z" />
    <glyph glyph-name="ncaron" unicode="&#x148;" horiz-adv-x="1256" 
d="M763 1255h-269l-260 327h255l136 -184h8l135 184h256zM89 0v1113h344v-209h7c60 149 175 228 345 228c248 0 387 -156 387 -419v-713h-355v637c0 129 -60 206 -182 206c-120 0 -192 -89 -192 -215v-628h-354z" />
    <glyph glyph-name="ncircumflexbelow" unicode="&#x1e4b;" horiz-adv-x="1256" 
d="M89 0v1113h344v-209h7c60 149 175 228 345 228c248 0 387 -156 387 -419v-713h-355v637c0 129 -60 206 -182 206c-120 0 -192 -89 -192 -215v-628h-354zM496 -156h274l263 -328h-250l-147 194h-6l-147 -194h-250z" />
    <glyph glyph-name="nlinebelow" unicode="&#x1e49;" horiz-adv-x="1256" 
d="M994 -235v-163h-722v163h722zM89 0v1113h344v-209h7c60 149 175 228 345 228c248 0 387 -156 387 -419v-713h-355v637c0 129 -60 206 -182 206c-120 0 -192 -89 -192 -215v-628h-354z" />
    <glyph glyph-name="ncommaaccent" unicode="&#x146;" horiz-adv-x="1256" 
d="M607 -477h-265l138 333h310zM89 0v1113h344v-209h7c60 149 175 228 345 228c248 0 387 -156 387 -419v-713h-355v637c0 129 -60 206 -182 206c-120 0 -192 -89 -192 -215v-628h-354z" />
    <glyph glyph-name="o" unicode="o" horiz-adv-x="1242" 
d="M621 -24c-351 0 -567 213 -567 581c0 361 221 580 567 580c347 0 567 -217 567 -580c0 -369 -216 -581 -567 -581zM621 237c129 0 208 115 208 320c0 200 -80 319 -208 319c-129 0 -208 -119 -208 -319c0 -205 78 -320 208 -320z" />
    <glyph glyph-name="odieresis" unicode="&#xf6;" horiz-adv-x="1242" 
d="M404 1257c-84 0 -147 64 -147 141c0 78 63 141 147 141c85 0 148 -63 148 -141c0 -77 -63 -141 -148 -141zM837 1257c-85 0 -147 64 -147 141c0 78 62 141 147 141s147 -63 147 -141c0 -77 -62 -141 -147 -141zM621 -24c-351 0 -567 213 -567 581c0 361 221 580 567 580
c347 0 567 -217 567 -580c0 -369 -216 -581 -567 -581zM621 237c129 0 208 115 208 320c0 200 -80 319 -208 319c-129 0 -208 -119 -208 -319c0 -205 78 -320 208 -320z" />
    <glyph glyph-name="oslash" unicode="&#xf8;" horiz-adv-x="1242" 
d="M804 727l-279 -464c27 -17 60 -26 96 -26c129 0 208 115 208 320c0 66 -9 123 -25 170zM445 365l285 474c-31 24 -67 37 -109 37c-129 0 -208 -119 -208 -319c0 -77 11 -142 32 -192zM1052 1137l-67 -110c129 -99 203 -260 203 -470c0 -369 -216 -581 -567 -581
c-91 0 -173 14 -245 42l-63 -105l-103 61l60 100c-138 97 -216 262 -216 483c0 361 221 580 567 580c97 0 183 -17 258 -49l64 106z" />
    <glyph glyph-name="otilde" unicode="&#xf5;" horiz-adv-x="1242" 
d="M769 1258c-142 0 -192 127 -263 127c-46 0 -67 -48 -69 -110h-181c0 180 105 283 234 283c144 0 195 -127 265 -127c45 0 65 45 67 114h181c0 -179 -106 -287 -234 -287zM621 -24c-351 0 -567 213 -567 581c0 361 221 580 567 580c347 0 567 -217 567 -580
c0 -369 -216 -581 -567 -581zM621 237c129 0 208 115 208 320c0 200 -80 319 -208 319c-129 0 -208 -119 -208 -319c0 -205 78 -320 208 -320z" />
    <glyph glyph-name="oacute" unicode="&#xf3;" horiz-adv-x="1242" 
d="M752 1269h-275l227 316h312zM621 -24c-351 0 -567 213 -567 581c0 361 221 580 567 580c347 0 567 -217 567 -580c0 -369 -216 -581 -567 -581zM621 237c129 0 208 115 208 320c0 200 -80 319 -208 319c-129 0 -208 -119 -208 -319c0 -205 78 -320 208 -320z" />
    <glyph glyph-name="ocircumflex" unicode="&#xf4;" horiz-adv-x="1242" 
d="M755 1582l261 -327h-256l-135 184h-8l-136 -184h-255l260 327h269zM621 -24c-351 0 -567 213 -567 581c0 361 221 580 567 580c347 0 567 -217 567 -580c0 -369 -216 -581 -567 -581zM621 237c129 0 208 115 208 320c0 200 -80 319 -208 319c-129 0 -208 -119 -208 -319
c0 -205 78 -320 208 -320z" />
    <glyph glyph-name="ograve" unicode="&#xf2;" horiz-adv-x="1242" 
d="M769 1269h-275l-264 316h312zM621 -24c-351 0 -567 213 -567 581c0 361 221 580 567 580c347 0 567 -217 567 -580c0 -369 -216 -581 -567 -581zM621 237c129 0 208 115 208 320c0 200 -80 319 -208 319c-129 0 -208 -119 -208 -319c0 -205 78 -320 208 -320z" />
    <glyph glyph-name="ocircumflexhookabove" unicode="&#x1ed5;" horiz-adv-x="1242" 
d="M755 1762v148c31 12 79 21 125 21c154 0 251 -79 251 -204c0 -112 -60 -192 -181 -240l-97 109c58 24 89 66 89 107c0 46 -38 73 -98 73c-33 0 -64 -4 -89 -14zM761 1572l256 -317h-255l-137 180h-8l-137 -180h-255l256 317h280zM621 -24c-351 0 -567 213 -567 581
c0 361 221 580 567 580c347 0 567 -217 567 -580c0 -369 -216 -581 -567 -581zM621 237c129 0 208 115 208 320c0 200 -80 319 -208 319c-129 0 -208 -119 -208 -319c0 -205 78 -320 208 -320z" />
    <glyph glyph-name="ocircumflexgrave" unicode="&#x1ed3;" horiz-adv-x="1242" 
d="M761 1572l256 -317h-255l-137 180h-8l-137 -180h-255l256 317h280zM1086 1627h-249l-232 285h286zM621 -24c-351 0 -567 213 -567 581c0 361 221 580 567 580c347 0 567 -217 567 -580c0 -369 -216 -581 -567 -581zM621 237c129 0 208 115 208 320
c0 200 -80 319 -208 319c-129 0 -208 -119 -208 -319c0 -205 78 -320 208 -320z" />
    <glyph glyph-name="odotbelow" unicode="&#x1ecd;" horiz-adv-x="1242" 
d="M621 -492c-92 0 -164 73 -164 163s72 163 164 163s164 -73 164 -163s-72 -163 -164 -163zM621 -24c-351 0 -567 213 -567 581c0 361 221 580 567 580c347 0 567 -217 567 -580c0 -369 -216 -581 -567 -581zM621 237c129 0 208 115 208 320c0 200 -80 319 -208 319
c-129 0 -208 -119 -208 -319c0 -205 78 -320 208 -320z" />
    <glyph glyph-name="odblgrave" unicode="&#x20d;" horiz-adv-x="1242" 
d="M621 -24c-351 0 -567 213 -567 581c0 361 221 580 567 580c347 0 567 -217 567 -580c0 -369 -216 -581 -567 -581zM621 237c129 0 208 115 208 320c0 200 -80 319 -208 319c-129 0 -208 -119 -208 -319c0 -205 78 -320 208 -320zM554 1270h-246l-221 315h282zM954 1270
h-246l-222 315h282z" />
    <glyph glyph-name="otildeacute" unicode="&#x1e4d;" horiz-adv-x="1242" 
d="M497 1637l192 275h286l-229 -275h-249zM769 1255c-142 0 -192 127 -263 127c-46 0 -67 -48 -69 -110h-181c0 180 105 283 234 283c144 0 195 -127 265 -127c45 0 65 45 67 114h181c0 -179 -106 -287 -234 -287zM621 -24c-351 0 -567 213 -567 581c0 361 221 580 567 580
c347 0 567 -217 567 -580c0 -369 -216 -581 -567 -581zM621 237c129 0 208 115 208 320c0 200 -80 319 -208 319c-129 0 -208 -119 -208 -319c0 -205 78 -320 208 -320z" />
    <glyph glyph-name="omacronacute" unicode="&#x1e53;" horiz-adv-x="1242" 
d="M621 -24c-351 0 -567 213 -567 581c0 361 221 580 567 580c347 0 567 -217 567 -580c0 -369 -216 -581 -567 -581zM621 237c129 0 208 115 208 320c0 200 -80 319 -208 319c-129 0 -208 -119 -208 -319c0 -205 78 -320 208 -320zM495 1637l192 275h291l-229 -275h-254z
M965 1449v-163h-688v163h688z" />
    <glyph glyph-name="ocircumflextilde" unicode="&#x1ed7;" horiz-adv-x="1242" 
d="M761 1557l256 -302h-255l-137 167h-8l-137 -167h-255l256 302h280zM760 1629c-142 0 -191 127 -262 127c-46 0 -67 -48 -69 -109h-181c0 180 105 282 234 282c144 0 194 -126 264 -126c45 0 65 44 67 113h181c0 -179 -106 -287 -234 -287zM621 -24
c-351 0 -567 213 -567 581c0 361 221 580 567 580c347 0 567 -217 567 -580c0 -369 -216 -581 -567 -581zM621 237c129 0 208 115 208 320c0 200 -80 319 -208 319c-129 0 -208 -119 -208 -319c0 -205 78 -320 208 -320z" />
    <glyph glyph-name="odotaccentmacron" unicode="&#x231;" horiz-adv-x="1242" 
d="M621 -24c-351 0 -567 213 -567 581c0 361 221 580 567 580c347 0 567 -217 567 -580c0 -369 -216 -581 -567 -581zM621 237c129 0 208 115 208 320c0 200 -80 319 -208 319c-129 0 -208 -119 -208 -319c0 -205 78 -320 208 -320zM621 1246c-92 0 -164 73 -164 161
c0 89 72 161 164 161s164 -72 164 -161c0 -88 -72 -161 -164 -161zM965 1830v-163h-688v163h688z" />
    <glyph glyph-name="omacrongrave" unicode="&#x1e51;" horiz-adv-x="1242" 
d="M621 -24c-351 0 -567 213 -567 581c0 361 221 580 567 580c347 0 567 -217 567 -580c0 -369 -216 -581 -567 -581zM621 237c129 0 208 115 208 320c0 200 -80 319 -208 319c-129 0 -208 -119 -208 -319c0 -205 78 -320 208 -320zM743 1632h-235l-225 280h290zM965 1449
v-163h-688v163h688z" />
    <glyph glyph-name="ocaron" unicode="&#x1d2;" horiz-adv-x="1242" 
d="M755 1255h-269l-260 327h255l136 -184h8l135 184h256zM621 -24c-351 0 -567 213 -567 581c0 361 221 580 567 580c347 0 567 -217 567 -580c0 -369 -216 -581 -567 -581zM621 237c129 0 208 115 208 320c0 200 -80 319 -208 319c-129 0 -208 -119 -208 -319
c0 -205 78 -320 208 -320z" />
    <glyph glyph-name="oslashacute" unicode="&#x1ff;" horiz-adv-x="1242" 
d="M1016 1585l-264 -316h-275l227 316h312zM804 727l-279 -464c27 -17 60 -26 96 -26c129 0 208 115 208 320c0 66 -9 123 -25 170zM445 365l285 474c-31 24 -67 37 -109 37c-129 0 -208 -119 -208 -319c0 -77 11 -142 32 -192zM1052 1137l-67 -110
c129 -99 203 -260 203 -470c0 -369 -216 -581 -567 -581c-91 0 -173 14 -245 42l-63 -105l-103 61l60 100c-138 97 -216 262 -216 483c0 361 221 580 567 580c97 0 183 -17 258 -49l64 106z" />
    <glyph glyph-name="ohungarumlaut" unicode="&#x151;" horiz-adv-x="1242" 
d="M688 1270l185 315h282l-221 -315h-246zM288 1270l187 315h281l-222 -315h-246zM621 -24c-351 0 -567 213 -567 581c0 361 221 580 567 580c347 0 567 -217 567 -580c0 -369 -216 -581 -567 -581zM621 237c129 0 208 115 208 320c0 200 -80 319 -208 319
c-129 0 -208 -119 -208 -319c0 -205 78 -320 208 -320z" />
    <glyph glyph-name="obreve" unicode="&#x14f;" horiz-adv-x="1242" 
d="M243 1581h210c3 -93 65 -161 168 -161s165 68 168 161h210c-5 -181 -140 -329 -378 -329s-373 148 -378 329zM621 -24c-351 0 -567 213 -567 581c0 361 221 580 567 580c347 0 567 -217 567 -580c0 -369 -216 -581 -567 -581zM621 237c129 0 208 115 208 320
c0 200 -80 319 -208 319c-129 0 -208 -119 -208 -319c0 -205 78 -320 208 -320z" />
    <glyph glyph-name="oinvertedbreve" unicode="&#x20f;" horiz-adv-x="1242" 
d="M621 -24c-351 0 -567 213 -567 581c0 361 221 580 567 580c347 0 567 -217 567 -580c0 -369 -216 -581 -567 -581zM621 237c129 0 208 115 208 320c0 200 -80 319 -208 319c-129 0 -208 -119 -208 -319c0 -205 78 -320 208 -320zM243 1255c5 181 140 328 378 328
s373 -147 378 -328h-210c-3 92 -65 161 -168 161s-165 -69 -168 -161h-210z" />
    <glyph glyph-name="ohookabove" unicode="&#x1ecf;" horiz-adv-x="1242" 
d="M621 -24c-351 0 -567 213 -567 581c0 361 221 580 567 580c347 0 567 -217 567 -580c0 -369 -216 -581 -567 -581zM621 237c129 0 208 115 208 320c0 200 -80 319 -208 319c-129 0 -208 -119 -208 -319c0 -205 78 -320 208 -320zM450 1513v150c39 16 107 28 158 28
c156 0 256 -87 256 -223c0 -99 -75 -191 -203 -251l-97 116c70 34 97 66 97 118c0 48 -43 81 -109 81c-36 0 -70 -7 -102 -19z" />
    <glyph glyph-name="odieresismacron" unicode="&#x22b;" horiz-adv-x="1242" 
d="M415 1256c-80 0 -139 61 -139 133c0 74 59 133 139 133s139 -59 139 -133c0 -72 -59 -133 -139 -133zM827 1256c-79 0 -139 61 -139 133c0 74 60 133 139 133c80 0 139 -59 139 -133c0 -72 -59 -133 -139 -133zM965 1822v-163h-688v163h688zM621 -24
c-351 0 -567 213 -567 581c0 361 221 580 567 580c347 0 567 -217 567 -580c0 -369 -216 -581 -567 -581zM621 237c129 0 208 115 208 320c0 200 -80 319 -208 319c-129 0 -208 -119 -208 -319c0 -205 78 -320 208 -320z" />
    <glyph glyph-name="otildemacron" unicode="&#x22d;" horiz-adv-x="1242" 
d="M769 1255c-142 0 -192 127 -263 127c-46 0 -67 -48 -69 -110h-181c0 180 105 283 234 283c144 0 195 -127 265 -127c45 0 65 45 67 114h181c0 -179 -106 -287 -234 -287zM965 1822v-163h-688v163h688zM621 -24c-351 0 -567 213 -567 581c0 361 221 580 567 580
c347 0 567 -217 567 -580c0 -369 -216 -581 -567 -581zM621 237c129 0 208 115 208 320c0 200 -80 319 -208 319c-129 0 -208 -119 -208 -319c0 -205 78 -320 208 -320z" />
    <glyph glyph-name="odotaccent" unicode="&#x22f;" horiz-adv-x="1242" 
d="M619 1263c-92 0 -164 73 -164 162c0 88 72 161 164 161c93 0 165 -73 165 -161c0 -89 -72 -162 -165 -162zM621 -24c-351 0 -567 213 -567 581c0 361 221 580 567 580c347 0 567 -217 567 -580c0 -369 -216 -581 -567 -581zM621 237c129 0 208 115 208 320
c0 200 -80 319 -208 319c-129 0 -208 -119 -208 -319c0 -205 78 -320 208 -320z" />
    <glyph glyph-name="ocircumflexdotbelow" unicode="&#x1ed9;" horiz-adv-x="1242" 
d="M755 1582l261 -327h-256l-135 184h-8l-136 -184h-255l260 327h269zM621 -24c-351 0 -567 213 -567 581c0 361 221 580 567 580c347 0 567 -217 567 -580c0 -369 -216 -581 -567 -581zM621 237c129 0 208 115 208 320c0 200 -80 319 -208 319c-129 0 -208 -119 -208 -319
c0 -205 78 -320 208 -320zM621 -492c-92 0 -164 73 -164 163s72 163 164 163s164 -73 164 -163s-72 -163 -164 -163z" />
    <glyph glyph-name="ocircumflexacute" unicode="&#x1ed1;" horiz-adv-x="1242" 
d="M761 1572l256 -317h-255l-137 180h-8l-137 -180h-255l256 317h280zM763 1627l196 285h286l-232 -285h-250zM621 -24c-351 0 -567 213 -567 581c0 361 221 580 567 580c347 0 567 -217 567 -580c0 -369 -216 -581 -567 -581zM621 237c129 0 208 115 208 320
c0 200 -80 319 -208 319c-129 0 -208 -119 -208 -319c0 -205 78 -320 208 -320z" />
    <glyph glyph-name="otildedieresis" unicode="&#x1e4f;" horiz-adv-x="1242" 
d="M418 1642c-80 0 -139 61 -139 133c0 74 59 133 139 133c79 0 139 -59 139 -133c0 -72 -60 -133 -139 -133zM824 1642c-79 0 -139 61 -139 133c0 74 60 133 139 133c80 0 139 -59 139 -133c0 -72 -59 -133 -139 -133zM769 1255c-142 0 -192 127 -263 127
c-46 0 -67 -48 -69 -110h-181c0 180 105 283 234 283c144 0 195 -127 265 -127c45 0 65 45 67 114h181c0 -179 -106 -287 -234 -287zM621 -24c-351 0 -567 213 -567 581c0 361 221 580 567 580c347 0 567 -217 567 -580c0 -369 -216 -581 -567 -581zM621 237
c129 0 208 115 208 320c0 200 -80 319 -208 319c-129 0 -208 -119 -208 -319c0 -205 78 -320 208 -320z" />
    <glyph glyph-name="omacron" unicode="&#x14d;" horiz-adv-x="1242" 
d="M965 1449v-163h-688v163h688zM621 -24c-351 0 -567 213 -567 581c0 361 221 580 567 580c347 0 567 -217 567 -580c0 -369 -216 -581 -567 -581zM621 237c129 0 208 115 208 320c0 200 -80 319 -208 319c-129 0 -208 -119 -208 -319c0 -205 78 -320 208 -320z" />
    <glyph glyph-name="oogonek" unicode="&#x1eb;" horiz-adv-x="1242" 
d="M835 -479c-172 0 -282 95 -282 231c0 91 45 171 135 221v7c-23 -3 -41 -4 -67 -4c-351 0 -567 213 -567 581c0 361 221 580 567 580c347 0 567 -217 567 -580c0 -209 -81 -372 -209 -476c-122 -99 -180 -180 -180 -263c0 -67 43 -103 122 -103c31 0 60 4 70 8v-179
c-36 -15 -90 -23 -156 -23zM621 237c129 0 208 115 208 320c0 200 -80 319 -208 319c-129 0 -208 -119 -208 -319c0 -205 78 -320 208 -320z" />
    <glyph glyph-name="oogonekmacron" unicode="&#x1ed;" horiz-adv-x="1242" 
d="M965 1449v-163h-688v163h688zM835 -479c-172 0 -282 95 -282 231c0 91 45 171 135 221v7c-23 -3 -41 -4 -67 -4c-351 0 -567 213 -567 581c0 361 221 580 567 580c347 0 567 -217 567 -580c0 -209 -81 -372 -209 -476c-122 -99 -180 -180 -180 -263
c0 -67 43 -103 122 -103c31 0 60 4 70 8v-179c-36 -15 -90 -23 -156 -23zM621 237c129 0 208 115 208 320c0 200 -80 319 -208 319c-129 0 -208 -119 -208 -319c0 -205 78 -320 208 -320z" />
    <glyph glyph-name="ohorn" unicode="&#x1a1;" horiz-adv-x="1345" 
d="M621 237c131 0 208 118 208 320c0 199 -79 319 -208 319s-208 -121 -208 -319c0 -202 77 -320 208 -320zM1187 529c0 -331 -223 -553 -559 -553c-361 0 -574 217 -574 581c0 357 217 580 567 580c151 0 202 -43 304 -43c80 0 111 23 111 82v149h269v-237
c0 -135 -68 -204 -200 -204h-41v-7c79 -72 123 -198 123 -348z" />
    <glyph glyph-name="ohorndotbelow" unicode="&#x1ee3;" horiz-adv-x="1345" 
d="M621 -492c-92 0 -164 73 -164 163s72 163 164 163s164 -73 164 -163s-72 -163 -164 -163zM621 237c131 0 208 118 208 320c0 199 -79 319 -208 319s-208 -121 -208 -319c0 -202 77 -320 208 -320zM1187 529c0 -331 -223 -553 -559 -553c-361 0 -574 217 -574 581
c0 357 217 580 567 580c151 0 202 -43 304 -43c80 0 111 23 111 82v149h269v-237c0 -135 -68 -204 -200 -204h-41v-7c79 -72 123 -198 123 -348z" />
    <glyph glyph-name="ohornhookabove" unicode="&#x1edf;" horiz-adv-x="1345" 
d="M621 237c131 0 208 118 208 320c0 199 -79 319 -208 319s-208 -121 -208 -319c0 -202 77 -320 208 -320zM1187 529c0 -331 -223 -553 -559 -553c-361 0 -574 217 -574 581c0 357 217 580 567 580c151 0 202 -43 304 -43c80 0 111 23 111 82v149h269v-237
c0 -135 -68 -204 -200 -204h-41v-7c79 -72 123 -198 123 -348zM450 1513v150c39 16 107 28 158 28c156 0 256 -87 256 -223c0 -99 -75 -191 -203 -251l-97 116c70 34 97 66 97 118c0 48 -43 81 -109 81c-36 0 -70 -7 -102 -19z" />
    <glyph glyph-name="ohorntilde" unicode="&#x1ee1;" horiz-adv-x="1345" 
d="M769 1258c-142 0 -192 127 -263 127c-46 0 -67 -48 -69 -110h-181c0 180 105 283 234 283c144 0 195 -127 265 -127c45 0 65 45 67 114h181c0 -179 -106 -287 -234 -287zM621 237c131 0 208 118 208 320c0 199 -79 319 -208 319s-208 -121 -208 -319
c0 -202 77 -320 208 -320zM1187 529c0 -331 -223 -553 -559 -553c-361 0 -574 217 -574 581c0 357 217 580 567 580c151 0 202 -43 304 -43c80 0 111 23 111 82v149h269v-237c0 -135 -68 -204 -200 -204h-41v-7c79 -72 123 -198 123 -348z" />
    <glyph glyph-name="ohorngrave" unicode="&#x1edd;" horiz-adv-x="1345" 
d="M769 1269h-275l-264 316h312zM621 237c131 0 208 118 208 320c0 199 -79 319 -208 319s-208 -121 -208 -319c0 -202 77 -320 208 -320zM1187 529c0 -331 -223 -553 -559 -553c-361 0 -574 217 -574 581c0 357 217 580 567 580c151 0 202 -43 304 -43c80 0 111 23 111 82
v149h269v-237c0 -135 -68 -204 -200 -204h-41v-7c79 -72 123 -198 123 -348z" />
    <glyph glyph-name="ohornacute" unicode="&#x1edb;" horiz-adv-x="1345" 
d="M752 1269h-275l227 316h312zM621 237c131 0 208 118 208 320c0 199 -79 319 -208 319s-208 -121 -208 -319c0 -202 77 -320 208 -320zM1187 529c0 -331 -223 -553 -559 -553c-361 0 -574 217 -574 581c0 357 217 580 567 580c151 0 202 -43 304 -43c80 0 111 23 111 82
v149h269v-237c0 -135 -68 -204 -200 -204h-41v-7c79 -72 123 -198 123 -348z" />
    <glyph glyph-name="p" unicode="p" horiz-adv-x="1287" 
d="M787 1128c281 0 446 -210 446 -571s-164 -572 -442 -572c-162 0 -285 77 -341 205h-7v-550h-354v1473h352v-195h7c56 131 180 210 339 210zM656 264c130 0 214 114 214 293c0 177 -84 292 -214 292s-214 -116 -214 -293c0 -179 84 -292 214 -292z" />
    <glyph glyph-name="pdotaccent" unicode="&#x1e57;" horiz-adv-x="1287" 
d="M787 1128c281 0 446 -210 446 -571s-164 -572 -442 -572c-162 0 -285 77 -341 205h-7v-550h-354v1473h352v-195h7c56 131 180 210 339 210zM656 264c130 0 214 114 214 293c0 177 -84 292 -214 292s-214 -116 -214 -293c0 -179 84 -292 214 -292zM648 1263
c-92 0 -164 73 -164 162c0 88 72 161 164 161c93 0 165 -73 165 -161c0 -89 -72 -162 -165 -162z" />
    <glyph glyph-name="pacute" unicode="&#x1e55;" horiz-adv-x="1287" 
d="M787 1128c281 0 446 -210 446 -571s-164 -572 -442 -572c-162 0 -285 77 -341 205h-7v-550h-354v1473h352v-195h7c56 131 180 210 339 210zM656 264c130 0 214 114 214 293c0 177 -84 292 -214 292s-214 -116 -214 -293c0 -179 84 -292 214 -292zM781 1269h-275l227 316
h312z" />
    <glyph glyph-name="q" unicode="q" horiz-adv-x="1287" 
d="M503 1128c162 0 286 -86 336 -210h6v195h353v-1473h-355v550h-7c-45 -118 -174 -205 -339 -205c-275 0 -443 217 -443 574c0 354 170 569 449 569zM630 264c133 0 215 111 215 292c0 179 -83 293 -215 293s-214 -112 -214 -292c0 -182 81 -293 214 -293z" />
    <glyph glyph-name="r" unicode="r" horiz-adv-x="816" 
d="M89 0v1113h344v-209h7c40 148 131 224 263 224c35 0 67 -6 91 -14v-304c-30 13 -72 20 -115 20c-152 0 -236 -86 -236 -242v-588h-354z" />
    <glyph glyph-name="rcaron" unicode="&#x159;" horiz-adv-x="816" 
d="M557 1255h-269l-260 327h255l136 -184h8l135 184h256zM89 0v1113h344v-209h7c40 148 131 224 263 224c35 0 67 -6 91 -14v-304c-30 13 -72 20 -115 20c-152 0 -236 -86 -236 -242v-588h-354z" />
    <glyph glyph-name="rlinebelow" unicode="&#x1e5f;" horiz-adv-x="816" 
d="M89 0v1113h344v-209h7c40 148 131 224 263 224c35 0 67 -6 91 -14v-304c-30 13 -72 20 -115 20c-152 0 -236 -86 -236 -242v-588h-354zM630 -235v-163h-722v163h722z" />
    <glyph glyph-name="rdotbelowmacron" unicode="&#x1e5d;" horiz-adv-x="816" 
d="M269 -492c-92 0 -164 73 -164 163s72 163 164 163s164 -73 164 -163s-72 -163 -164 -163zM89 0v1113h344v-209h7c40 148 131 224 263 224c35 0 67 -6 91 -14v-304c-30 13 -72 20 -115 20c-152 0 -236 -86 -236 -242v-588h-354zM767 1449v-163h-688v163h688z" />
    <glyph glyph-name="rdblgrave" unicode="&#x211;" horiz-adv-x="816" 
d="M89 0v1113h344v-209h7c40 148 131 224 263 224c35 0 67 -6 91 -14v-304c-30 13 -72 20 -115 20c-152 0 -236 -86 -236 -242v-588h-354zM356 1270h-246l-221 315h282zM756 1270h-246l-222 315h282z" />
    <glyph glyph-name="rinvertedbreve" unicode="&#x213;" horiz-adv-x="816" 
d="M89 0v1113h344v-209h7c40 148 131 224 263 224c35 0 67 -6 91 -14v-304c-30 13 -72 20 -115 20c-152 0 -236 -86 -236 -242v-588h-354zM45 1255c5 181 140 328 378 328s373 -147 378 -328h-210c-3 92 -65 161 -168 161s-165 -69 -168 -161h-210z" />
    <glyph glyph-name="racute" unicode="&#x155;" horiz-adv-x="816" 
d="M554 1269h-275l227 316h312zM89 0v1113h344v-209h7c40 148 131 224 263 224c35 0 67 -6 91 -14v-304c-30 13 -72 20 -115 20c-152 0 -236 -86 -236 -242v-588h-354z" />
    <glyph glyph-name="rdotbelow" unicode="&#x1e5b;" horiz-adv-x="816" 
d="M269 -492c-92 0 -164 73 -164 163s72 163 164 163s164 -73 164 -163s-72 -163 -164 -163zM89 0v1113h344v-209h7c40 148 131 224 263 224c35 0 67 -6 91 -14v-304c-30 13 -72 20 -115 20c-152 0 -236 -86 -236 -242v-588h-354z" />
    <glyph glyph-name="rdotaccent" unicode="&#x1e59;" horiz-adv-x="816" 
d="M89 0v1113h344v-209h7c40 148 131 224 263 224c35 0 67 -6 91 -14v-304c-30 13 -72 20 -115 20c-152 0 -236 -86 -236 -242v-588h-354zM421 1263c-92 0 -164 73 -164 162c0 88 72 161 164 161c93 0 165 -73 165 -161c0 -89 -72 -162 -165 -162z" />
    <glyph glyph-name="rcommaaccent" unicode="&#x157;" horiz-adv-x="816" 
d="M89 0v1113h344v-209h7c40 148 131 224 263 224c35 0 67 -6 91 -14v-304c-30 13 -72 20 -115 20c-152 0 -236 -86 -236 -242v-588h-354zM243 -477h-265l138 333h310z" />
    <glyph glyph-name="s" unicode="s" horiz-adv-x="1128" 
d="M69 776c0 221 191 361 494 361c300 0 489 -143 491 -371h-324c-3 80 -69 131 -171 131c-90 0 -149 -39 -149 -98c0 -45 42 -76 128 -94l230 -48c222 -47 316 -137 316 -305c0 -229 -208 -376 -517 -376c-320 0 -509 147 -524 373h344c11 -84 80 -133 187 -133
c99 0 159 36 159 96c0 46 -34 72 -123 91l-209 44c-217 46 -332 160 -332 329z" />
    <glyph glyph-name="scaron" unicode="&#x161;" horiz-adv-x="1128" 
d="M699 1255h-269l-260 327h255l136 -184h8l135 184h256zM69 776c0 221 191 361 494 361c300 0 489 -143 491 -371h-324c-3 80 -69 131 -171 131c-90 0 -149 -39 -149 -98c0 -45 42 -76 128 -94l230 -48c222 -47 316 -137 316 -305c0 -229 -208 -376 -517 -376
c-320 0 -509 147 -524 373h344c11 -84 80 -133 187 -133c99 0 159 36 159 96c0 46 -34 72 -123 91l-209 44c-217 46 -332 160 -332 329z" />
    <glyph glyph-name="scedilla" unicode="&#x15f;" horiz-adv-x="1128" 
d="M538 705l230 -48c222 -47 316 -137 316 -305c0 -205 -167 -345 -425 -371l-39 -83c106 0 173 -62 173 -163c0 -123 -89 -191 -252 -191c-56 0 -106 5 -137 15v131c24 -8 67 -12 105 -12c69 0 100 14 100 45c0 38 -30 51 -112 51h-56v114l46 91c-272 23 -430 164 -444 370
h344c11 -84 80 -133 187 -133c99 0 159 36 159 96c0 46 -34 72 -123 91l-209 44c-217 46 -332 160 -332 329c0 221 191 361 494 361c300 0 489 -143 491 -371h-324c-3 80 -69 131 -171 131c-90 0 -149 -39 -149 -98c0 -45 42 -76 128 -94z" />
    <glyph glyph-name="sdotaccent" unicode="&#x1e61;" horiz-adv-x="1128" 
d="M69 776c0 221 191 361 494 361c300 0 489 -143 491 -371h-324c-3 80 -69 131 -171 131c-90 0 -149 -39 -149 -98c0 -45 42 -76 128 -94l230 -48c222 -47 316 -137 316 -305c0 -229 -208 -376 -517 -376c-320 0 -509 147 -524 373h344c11 -84 80 -133 187 -133
c99 0 159 36 159 96c0 46 -34 72 -123 91l-209 44c-217 46 -332 160 -332 329zM563 1263c-92 0 -164 73 -164 162c0 88 72 161 164 161c93 0 165 -73 165 -161c0 -89 -72 -162 -165 -162z" />
    <glyph glyph-name="sdotbelow" unicode="&#x1e63;" horiz-adv-x="1128" 
d="M563 -492c-92 0 -164 73 -164 163s72 163 164 163s164 -73 164 -163s-72 -163 -164 -163zM69 776c0 221 191 361 494 361c300 0 489 -143 491 -371h-324c-3 80 -69 131 -171 131c-90 0 -149 -39 -149 -98c0 -45 42 -76 128 -94l230 -48c222 -47 316 -137 316 -305
c0 -229 -208 -376 -517 -376c-320 0 -509 147 -524 373h344c11 -84 80 -133 187 -133c99 0 159 36 159 96c0 46 -34 72 -123 91l-209 44c-217 46 -332 160 -332 329z" />
    <glyph glyph-name="scommaaccent" unicode="&#x219;" horiz-adv-x="1128" 
d="M69 776c0 221 191 361 494 361c300 0 489 -143 491 -371h-324c-3 80 -69 131 -171 131c-90 0 -149 -39 -149 -98c0 -45 42 -76 128 -94l230 -48c222 -47 316 -137 316 -305c0 -229 -208 -376 -517 -376c-320 0 -509 147 -524 373h344c11 -84 80 -133 187 -133
c99 0 159 36 159 96c0 46 -34 72 -123 91l-209 44c-217 46 -332 160 -332 329zM537 -477h-265l138 333h310z" />
    <glyph glyph-name="sdotbelowdotaccent" unicode="&#x1e69;" horiz-adv-x="1128" 
d="M563 -492c-92 0 -164 73 -164 163s72 163 164 163s164 -73 164 -163s-72 -163 -164 -163zM69 776c0 221 191 361 494 361c300 0 489 -143 491 -371h-324c-3 80 -69 131 -171 131c-90 0 -149 -39 -149 -98c0 -45 42 -76 128 -94l230 -48c222 -47 316 -137 316 -305
c0 -229 -208 -376 -517 -376c-320 0 -509 147 -524 373h344c11 -84 80 -133 187 -133c99 0 159 36 159 96c0 46 -34 72 -123 91l-209 44c-217 46 -332 160 -332 329zM563 1263c-92 0 -164 73 -164 162c0 88 72 161 164 161c93 0 165 -73 165 -161c0 -89 -72 -162 -165 -162z
" />
    <glyph glyph-name="scarondotaccent" unicode="&#x1e67;" horiz-adv-x="1128" 
d="M69 776c0 221 191 361 494 361c300 0 489 -143 491 -371h-324c-3 80 -69 131 -171 131c-90 0 -149 -39 -149 -98c0 -45 42 -76 128 -94l230 -48c222 -47 316 -137 316 -305c0 -229 -208 -376 -517 -376c-320 0 -509 147 -524 373h344c11 -84 80 -133 187 -133
c99 0 159 36 159 96c0 46 -34 72 -123 91l-209 44c-217 46 -332 160 -332 329zM707 1255h-280l-256 317h255l137 -180h8l137 180h255zM567 1653c-84 0 -150 66 -150 148c0 81 66 148 150 148s150 -67 150 -148c0 -82 -66 -148 -150 -148z" />
    <glyph glyph-name="scircumflex" unicode="&#x15d;" horiz-adv-x="1128" 
d="M699 1582l261 -327h-256l-135 184h-8l-136 -184h-255l260 327h269zM69 776c0 221 191 361 494 361c300 0 489 -143 491 -371h-324c-3 80 -69 131 -171 131c-90 0 -149 -39 -149 -98c0 -45 42 -76 128 -94l230 -48c222 -47 316 -137 316 -305c0 -229 -208 -376 -517 -376
c-320 0 -509 147 -524 373h344c11 -84 80 -133 187 -133c99 0 159 36 159 96c0 46 -34 72 -123 91l-209 44c-217 46 -332 160 -332 329z" />
    <glyph glyph-name="sacutedotaccent" unicode="&#x1e65;" horiz-adv-x="1128" 
d="M69 776c0 221 191 361 494 361c300 0 489 -143 491 -371h-324c-3 80 -69 131 -171 131c-90 0 -149 -39 -149 -98c0 -45 42 -76 128 -94l230 -48c222 -47 316 -137 316 -305c0 -229 -208 -376 -517 -376c-320 0 -509 147 -524 373h344c11 -84 80 -133 187 -133
c99 0 159 36 159 96c0 46 -34 72 -123 91l-209 44c-217 46 -332 160 -332 329zM841 1269h-275l227 316h312zM327 1267c-92 0 -164 73 -164 162c0 88 72 161 164 161c93 0 165 -73 165 -161c0 -89 -72 -162 -165 -162z" />
    <glyph glyph-name="sacute" unicode="&#x15b;" horiz-adv-x="1128" 
d="M69 776c0 221 191 361 494 361c300 0 489 -143 491 -371h-324c-3 80 -69 131 -171 131c-90 0 -149 -39 -149 -98c0 -45 42 -76 128 -94l230 -48c222 -47 316 -137 316 -305c0 -229 -208 -376 -517 -376c-320 0 -509 147 -524 373h344c11 -84 80 -133 187 -133
c99 0 159 36 159 96c0 46 -34 72 -123 91l-209 44c-217 46 -332 160 -332 329zM696 1269h-275l227 316h312z" />
    <glyph glyph-name="t" unicode="t" horiz-adv-x="797" 
d="M178 1359h354v-246h201v-262h-201v-475c0 -78 42 -117 129 -117c29 0 51 2 72 5v-252c-35 -8 -87 -14 -156 -14c-286 0 -399 89 -399 307v546h-149v262h149v246z" />
    <glyph glyph-name="tcircumflexbelow" unicode="&#x1e71;" horiz-adv-x="797" 
d="M178 1359h354v-246h201v-262h-201v-475c0 -78 42 -117 129 -117c29 0 51 2 72 5v-252c-35 -8 -87 -14 -156 -14c-286 0 -399 89 -399 307v546h-149v262h149v246zM317 -156h274l263 -328h-250l-147 194h-6l-147 -194h-250z" />
    <glyph glyph-name="tdotbelow" unicode="&#x1e6d;" horiz-adv-x="797" 
d="M454 -492c-92 0 -164 73 -164 163s72 163 164 163s164 -73 164 -163s-72 -163 -164 -163zM178 1359h354v-246h201v-262h-201v-475c0 -78 42 -117 129 -117c29 0 51 2 72 5v-252c-35 -8 -87 -14 -156 -14c-286 0 -399 89 -399 307v546h-149v262h149v246z" />
    <glyph glyph-name="tcommaaccent" unicode="&#x21b;" horiz-adv-x="797" 
d="M428 -477h-265l138 333h310zM178 1359h354v-246h201v-262h-201v-475c0 -78 42 -117 129 -117c29 0 51 2 72 5v-252c-35 -8 -87 -14 -156 -14c-286 0 -399 89 -399 307v546h-149v262h149v246z" />
    <glyph glyph-name="tdotaccent" unicode="&#x1e6b;" horiz-adv-x="797" 
d="M356 1486c-92 0 -164 73 -164 162c0 88 72 161 164 161c93 0 165 -73 165 -161c0 -89 -72 -162 -165 -162zM178 1359h354v-246h201v-262h-201v-475c0 -78 42 -117 129 -117c29 0 51 2 72 5v-252c-35 -8 -87 -14 -156 -14c-286 0 -399 89 -399 307v546h-149v262h149v246z
" />
    <glyph glyph-name="tcedilla" unicode="&#x163;" horiz-adv-x="797" 
d="M733 851h-201v-475c0 -78 42 -117 129 -117c29 0 51 2 72 5v-252c-35 -8 -87 -14 -156 -14h-4l-47 -100c106 0 173 -62 173 -163c0 -123 -89 -191 -252 -191c-56 0 -106 5 -137 15v131c24 -8 67 -12 105 -12c69 0 100 14 100 45c0 38 -30 51 -112 51h-56v114l62 124
c-163 33 -231 124 -231 293v546h-149v262h149v246h354v-246h201v-262z" />
    <glyph glyph-name="tlinebelow" unicode="&#x1e6f;" horiz-adv-x="797" 
d="M815 -235v-163h-722v163h722zM178 1359h354v-246h201v-262h-201v-475c0 -78 42 -117 129 -117c29 0 51 2 72 5v-252c-35 -8 -87 -14 -156 -14c-286 0 -399 89 -399 307v546h-149v262h149v246z" />
    <glyph glyph-name="tcaron" unicode="&#x165;" horiz-adv-x="894" 
d="M680 1757h257l-45 -511h-212v511zM178 1359h354v-246h201v-262h-201v-475c0 -78 42 -117 129 -117c29 0 51 2 72 5v-252c-35 -8 -87 -14 -156 -14c-286 0 -399 89 -399 307v546h-149v262h149v246z" />
    <glyph glyph-name="tbar" unicode="&#x167;" horiz-adv-x="874" 
d="M775 491h-243v-115c0 -78 42 -117 129 -117c29 0 51 2 72 5v-252c-35 -8 -87 -14 -156 -14c-286 0 -399 89 -399 307v186h-133v169h133v191h-149v262h149v246h354v-246h201v-262h-201v-191h243v-169z" />
    <glyph glyph-name="tdieresis" unicode="&#x1e97;" horiz-adv-x="797" 
d="M178 1359h354v-246h201v-262h-201v-475c0 -78 42 -117 129 -117c29 0 51 2 72 5v-252c-35 -8 -87 -14 -156 -14c-286 0 -399 89 -399 307v546h-149v262h149v246zM141 1480c-84 0 -147 64 -147 141c0 78 63 141 147 141c85 0 148 -63 148 -141c0 -77 -63 -141 -148 -141z
M574 1480c-85 0 -147 64 -147 141c0 78 62 141 147 141s147 -63 147 -141c0 -77 -62 -141 -147 -141z" />
    <glyph glyph-name="u" unicode="u" horiz-adv-x="1256" 
d="M1167 1113v-1113h-345v210h-7c-50 -145 -157 -229 -324 -229c-240 0 -407 156 -407 418v714h354v-636c0 -135 70 -207 186 -207c115 0 188 86 188 215v628h355z" />
    <glyph glyph-name="ugrave" unicode="&#xf9;" horiz-adv-x="1256" 
d="M776 1269h-275l-264 316h312zM1167 1113v-1113h-345v210h-7c-50 -145 -157 -229 -324 -229c-240 0 -407 156 -407 418v714h354v-636c0 -135 70 -207 186 -207c115 0 188 86 188 215v628h355z" />
    <glyph glyph-name="udblgrave" unicode="&#x215;" horiz-adv-x="1256" 
d="M1167 1113v-1113h-345v210h-7c-50 -145 -157 -229 -324 -229c-240 0 -407 156 -407 418v714h354v-636c0 -135 70 -207 186 -207c115 0 188 86 188 215v628h355zM561 1270h-246l-221 315h282zM961 1270h-246l-222 315h282z" />
    <glyph glyph-name="uacute" unicode="&#xfa;" horiz-adv-x="1256" 
d="M759 1269h-275l227 316h312zM1167 1113v-1113h-345v210h-7c-50 -145 -157 -229 -324 -229c-240 0 -407 156 -407 418v714h354v-636c0 -135 70 -207 186 -207c115 0 188 86 188 215v628h355z" />
    <glyph glyph-name="uhungarumlaut" unicode="&#x171;" horiz-adv-x="1256" 
d="M695 1270l185 315h282l-221 -315h-246zM295 1270l187 315h281l-222 -315h-246zM1167 1113v-1113h-345v210h-7c-50 -145 -157 -229 -324 -229c-240 0 -407 156 -407 418v714h354v-636c0 -135 70 -207 186 -207c115 0 188 86 188 215v628h355z" />
    <glyph glyph-name="ucircumflex" unicode="&#xfb;" horiz-adv-x="1256" 
d="M762 1582l261 -327h-256l-135 184h-8l-136 -184h-255l260 327h269zM1167 1113v-1113h-345v210h-7c-50 -145 -157 -229 -324 -229c-240 0 -407 156 -407 418v714h354v-636c0 -135 70 -207 186 -207c115 0 188 86 188 215v628h355z" />
    <glyph glyph-name="ucaron" unicode="&#x1d4;" horiz-adv-x="1256" 
d="M762 1255h-269l-260 327h255l136 -184h8l135 184h256zM1167 1113v-1113h-345v210h-7c-50 -145 -157 -229 -324 -229c-240 0 -407 156 -407 418v714h354v-636c0 -135 70 -207 186 -207c115 0 188 86 188 215v628h355z" />
    <glyph glyph-name="ucircumflexbelow" unicode="&#x1e77;" horiz-adv-x="1256" 
d="M1167 1113v-1113h-345v210h-7c-50 -145 -157 -229 -324 -229c-240 0 -407 156 -407 418v714h354v-636c0 -135 70 -207 186 -207c115 0 188 86 188 215v628h355zM491 -156h274l263 -328h-250l-147 194h-6l-147 -194h-250z" />
    <glyph glyph-name="udieresis" unicode="&#xfc;" horiz-adv-x="1256" 
d="M1167 1113v-1113h-345v210h-7c-50 -145 -157 -229 -324 -229c-240 0 -407 156 -407 418v714h354v-636c0 -135 70 -207 186 -207c115 0 188 86 188 215v628h355zM411 1257c-84 0 -147 64 -147 141c0 78 63 141 147 141c85 0 148 -63 148 -141c0 -77 -63 -141 -148 -141z
M844 1257c-85 0 -147 64 -147 141c0 78 62 141 147 141s147 -63 147 -141c0 -77 -62 -141 -147 -141z" />
    <glyph glyph-name="udieresisgrave" unicode="&#x1dc;" horiz-adv-x="1256" 
d="M762 1655h-251l-233 271h306zM411 1257c-84 0 -147 64 -147 141c0 78 63 141 147 141c85 0 148 -63 148 -141c0 -77 -63 -141 -148 -141zM844 1257c-85 0 -147 64 -147 141c0 78 62 141 147 141s147 -63 147 -141c0 -77 -62 -141 -147 -141zM1167 1113v-1113h-345v210h-7
c-50 -145 -157 -229 -324 -229c-240 0 -407 156 -407 418v714h354v-636c0 -135 70 -207 186 -207c115 0 188 86 188 215v628h355z" />
    <glyph glyph-name="udieresisacute" unicode="&#x1d8;" horiz-adv-x="1256" 
d="M502 1637l192 275h291l-229 -275h-254zM411 1257c-84 0 -147 64 -147 141c0 78 63 141 147 141c85 0 148 -63 148 -141c0 -77 -63 -141 -148 -141zM844 1257c-85 0 -147 64 -147 141c0 78 62 141 147 141s147 -63 147 -141c0 -77 -62 -141 -147 -141zM1167 1113v-1113
h-345v210h-7c-50 -145 -157 -229 -324 -229c-240 0 -407 156 -407 418v714h354v-636c0 -135 70 -207 186 -207c115 0 188 86 188 215v628h355z" />
    <glyph glyph-name="udieresismacron" unicode="&#x1d6;" horiz-adv-x="1256" 
d="M1167 1113v-1113h-345v210h-7c-50 -145 -157 -229 -324 -229c-240 0 -407 156 -407 418v714h354v-636c0 -135 70 -207 186 -207c115 0 188 86 188 215v628h355zM422 1256c-80 0 -139 61 -139 133c0 74 59 133 139 133s139 -59 139 -133c0 -72 -59 -133 -139 -133z
M834 1256c-79 0 -139 61 -139 133c0 74 60 133 139 133c80 0 139 -59 139 -133c0 -72 -59 -133 -139 -133zM972 1822v-163h-688v163h688z" />
    <glyph glyph-name="udieresiscaron" unicode="&#x1da;" horiz-adv-x="1256" 
d="M422 1256c-80 0 -140 61 -140 135s60 134 140 134s140 -60 140 -134s-60 -135 -140 -135zM834 1256c-80 0 -140 61 -140 135s60 134 140 134c81 0 140 -60 140 -134s-59 -135 -140 -135zM768 1609h-280l-256 317h255l137 -180h8l137 180h255zM1167 1113v-1113h-345v210
h-7c-50 -145 -157 -229 -324 -229c-240 0 -407 156 -407 418v714h354v-636c0 -135 70 -207 186 -207c115 0 188 86 188 215v628h355z" />
    <glyph glyph-name="udieresisbelow" unicode="&#x1e73;" horiz-adv-x="1256" 
d="M1167 1113v-1113h-345v210h-7c-50 -145 -157 -229 -324 -229c-240 0 -407 156 -407 418v714h354v-636c0 -135 70 -207 186 -207c115 0 188 86 188 215v628h355zM411 -454c-84 0 -147 64 -147 141c0 78 63 141 147 141c85 0 148 -63 148 -141c0 -77 -63 -141 -148 -141z
M844 -454c-85 0 -147 64 -147 141c0 78 62 141 147 141s147 -63 147 -141c0 -77 -62 -141 -147 -141z" />
    <glyph glyph-name="utildebelow" unicode="&#x1e75;" horiz-adv-x="1256" 
d="M775 -447c-142 0 -192 127 -263 127c-46 0 -67 -48 -69 -110h-181c0 180 105 283 234 283c144 0 195 -127 265 -127c45 0 65 45 67 114h181c0 -179 -106 -287 -234 -287zM1167 1113v-1113h-345v210h-7c-50 -145 -157 -229 -324 -229c-240 0 -407 156 -407 418v714h354
v-636c0 -135 70 -207 186 -207c115 0 188 86 188 215v628h355z" />
    <glyph glyph-name="uhookabove" unicode="&#x1ee7;" horiz-adv-x="1256" 
d="M1167 1113v-1113h-345v210h-7c-50 -145 -157 -229 -324 -229c-240 0 -407 156 -407 418v714h354v-636c0 -135 70 -207 186 -207c115 0 188 86 188 215v628h355zM457 1513v150c39 16 107 28 158 28c156 0 256 -87 256 -223c0 -99 -75 -191 -203 -251l-97 116
c70 34 97 66 97 118c0 48 -43 81 -109 81c-36 0 -70 -7 -102 -19z" />
    <glyph glyph-name="ubreve" unicode="&#x16d;" horiz-adv-x="1256" 
d="M1167 1113v-1113h-345v210h-7c-50 -145 -157 -229 -324 -229c-240 0 -407 156 -407 418v714h354v-636c0 -135 70 -207 186 -207c115 0 188 86 188 215v628h355zM250 1581h210c3 -93 65 -161 168 -161s165 68 168 161h210c-5 -181 -140 -329 -378 -329s-373 148 -378 329z
" />
    <glyph glyph-name="uinvertedbreve" unicode="&#x217;" horiz-adv-x="1256" 
d="M1167 1113v-1113h-345v210h-7c-50 -145 -157 -229 -324 -229c-240 0 -407 156 -407 418v714h354v-636c0 -135 70 -207 186 -207c115 0 188 86 188 215v628h355zM250 1255c5 181 140 328 378 328s373 -147 378 -328h-210c-3 92 -65 161 -168 161s-165 -69 -168 -161h-210z
" />
    <glyph glyph-name="utildeacute" unicode="&#x1e79;" horiz-adv-x="1256" 
d="M1167 1113v-1113h-345v210h-7c-50 -145 -157 -229 -324 -229c-240 0 -407 156 -407 418v714h354v-636c0 -135 70 -207 186 -207c115 0 188 86 188 215v628h355zM504 1637l192 275h286l-229 -275h-249zM776 1255c-142 0 -192 127 -263 127c-46 0 -67 -48 -69 -110h-181
c0 180 105 283 234 283c144 0 195 -127 265 -127c45 0 65 45 67 114h181c0 -179 -106 -287 -234 -287z" />
    <glyph glyph-name="udotbelow" unicode="&#x1ee5;" horiz-adv-x="1256" 
d="M628 -492c-92 0 -164 73 -164 163s72 163 164 163s164 -73 164 -163s-72 -163 -164 -163zM1167 1113v-1113h-345v210h-7c-50 -145 -157 -229 -324 -229c-240 0 -407 156 -407 418v714h354v-636c0 -135 70 -207 186 -207c115 0 188 86 188 215v628h355z" />
    <glyph glyph-name="utilde" unicode="&#x169;" horiz-adv-x="1256" 
d="M1167 1113v-1113h-345v210h-7c-50 -145 -157 -229 -324 -229c-240 0 -407 156 -407 418v714h354v-636c0 -135 70 -207 186 -207c115 0 188 86 188 215v628h355zM776 1258c-142 0 -192 127 -263 127c-46 0 -67 -48 -69 -110h-181c0 180 105 283 234 283
c144 0 195 -127 265 -127c45 0 65 45 67 114h181c0 -179 -106 -287 -234 -287z" />
    <glyph glyph-name="umacron" unicode="&#x16b;" horiz-adv-x="1256" 
d="M1167 1113v-1113h-345v210h-7c-50 -145 -157 -229 -324 -229c-240 0 -407 156 -407 418v714h354v-636c0 -135 70 -207 186 -207c115 0 188 86 188 215v628h355zM972 1449v-163h-688v163h688z" />
    <glyph glyph-name="umacrondieresis" unicode="&#x1e7b;" horiz-adv-x="1256" 
d="M425 1587c-80 0 -139 60 -139 133s59 133 139 133s139 -60 139 -133s-59 -133 -139 -133zM831 1587c-79 0 -139 60 -139 133s60 133 139 133c80 0 139 -60 139 -133s-59 -133 -139 -133zM972 1449v-163h-688v163h688zM1167 1113v-1113h-345v210h-7
c-50 -145 -157 -229 -324 -229c-240 0 -407 156 -407 418v714h354v-636c0 -135 70 -207 186 -207c115 0 188 86 188 215v628h355z" />
    <glyph glyph-name="uring" unicode="&#x16f;" horiz-adv-x="1256" 
d="M1167 1113v-1113h-345v210h-7c-50 -145 -157 -229 -324 -229c-240 0 -407 156 -407 418v714h354v-636c0 -135 70 -207 186 -207c115 0 188 86 188 215v628h355zM628 1223c-127 0 -234 103 -234 227c0 125 107 227 234 227c126 0 232 -102 232 -227
c0 -124 -106 -227 -232 -227zM628 1358c51 0 94 42 94 92c0 51 -43 93 -94 93s-95 -42 -95 -93c0 -50 44 -92 95 -92z" />
    <glyph glyph-name="uogonek" unicode="&#x173;" horiz-adv-x="1256" 
d="M1116 -456c-25 -10 -67 -23 -156 -23c-173 0 -291 95 -291 231c0 93 62 188 153 236v222h-7c-50 -145 -157 -229 -324 -229c-240 0 -407 156 -407 418v714h354v-636c0 -135 70 -207 186 -207c115 0 188 86 188 215v628h355v-1113l-49 -7c-106 -22 -194 -97 -194 -183
c0 -56 40 -95 121 -95c31 0 61 4 71 8v-179z" />
    <glyph glyph-name="uhorn" unicode="&#x1b0;" horiz-adv-x="1521" 
d="M815 210c-50 -146 -158 -229 -324 -229c-240 0 -407 156 -407 418v714h354v-636c0 -135 70 -207 186 -207c114 0 188 85 188 215v628h369c47 0 73 26 73 71v162h269v-234c0 -142 -89 -227 -240 -227h-116v-885h-345v210h-7z" />
    <glyph glyph-name="uhorngrave" unicode="&#x1eeb;" horiz-adv-x="1521" 
d="M776 1269h-275l-264 316h312zM815 210c-50 -146 -158 -229 -324 -229c-240 0 -407 156 -407 418v714h354v-636c0 -135 70 -207 186 -207c114 0 188 85 188 215v628h369c47 0 73 26 73 71v162h269v-234c0 -142 -89 -227 -240 -227h-116v-885h-345v210h-7z" />
    <glyph glyph-name="uhornacute" unicode="&#x1ee9;" horiz-adv-x="1521" 
d="M759 1269h-275l227 316h312zM815 210c-50 -146 -158 -229 -324 -229c-240 0 -407 156 -407 418v714h354v-636c0 -135 70 -207 186 -207c114 0 188 85 188 215v628h369c47 0 73 26 73 71v162h269v-234c0 -142 -89 -227 -240 -227h-116v-885h-345v210h-7z" />
    <glyph glyph-name="uhorndotbelow" unicode="&#x1ef1;" horiz-adv-x="1521" 
d="M628 -492c-92 0 -164 73 -164 163s72 163 164 163s164 -73 164 -163s-72 -163 -164 -163zM815 210c-50 -146 -158 -229 -324 -229c-240 0 -407 156 -407 418v714h354v-636c0 -135 70 -207 186 -207c114 0 188 85 188 215v628h369c47 0 73 26 73 71v162h269v-234
c0 -142 -89 -227 -240 -227h-116v-885h-345v210h-7z" />
    <glyph glyph-name="uhornhookabove" unicode="&#x1eed;" horiz-adv-x="1521" 
d="M457 1513v150c39 16 107 28 158 28c156 0 256 -87 256 -223c0 -99 -75 -191 -203 -251l-97 116c70 34 97 66 97 118c0 48 -43 81 -109 81c-36 0 -70 -7 -102 -19zM815 210c-50 -146 -158 -229 -324 -229c-240 0 -407 156 -407 418v714h354v-636c0 -135 70 -207 186 -207
c114 0 188 85 188 215v628h369c47 0 73 26 73 71v162h269v-234c0 -142 -89 -227 -240 -227h-116v-885h-345v210h-7z" />
    <glyph glyph-name="uhorntilde" unicode="&#x1eef;" horiz-adv-x="1521" 
d="M776 1258c-142 0 -192 127 -263 127c-46 0 -67 -48 -69 -110h-181c0 180 105 283 234 283c144 0 195 -127 265 -127c45 0 65 45 67 114h181c0 -179 -106 -287 -234 -287zM815 210c-50 -146 -158 -229 -324 -229c-240 0 -407 156 -407 418v714h354v-636
c0 -135 70 -207 186 -207c114 0 188 85 188 215v628h369c47 0 73 26 73 71v162h269v-234c0 -142 -89 -227 -240 -227h-116v-885h-345v210h-7z" />
    <glyph glyph-name="v" unicode="v" horiz-adv-x="1150" 
d="M1151 1113l-370 -1113h-408l-375 1113h381l199 -814h7l196 814h370z" />
    <glyph glyph-name="vtilde" unicode="&#x1e7d;" horiz-adv-x="1150" 
d="M723 1258c-142 0 -192 127 -263 127c-46 0 -67 -48 -69 -110h-181c0 180 105 283 234 283c144 0 195 -127 265 -127c45 0 65 45 67 114h181c0 -179 -106 -287 -234 -287zM1151 1113l-370 -1113h-408l-375 1113h381l199 -814h7l196 814h370z" />
    <glyph glyph-name="vdotbelow" unicode="&#x1e7f;" horiz-adv-x="1150" 
d="M575 -492c-92 0 -164 73 -164 163s72 163 164 163s164 -73 164 -163s-72 -163 -164 -163zM1151 1113l-370 -1113h-408l-375 1113h381l199 -814h7l196 814h370z" />
    <glyph glyph-name="w" unicode="w" horiz-adv-x="1729" 
d="M1714 1113l-288 -1113h-382l-179 755h-7l-178 -755h-376l-289 1113h357l145 -791h7l174 791h338l176 -791h7l145 791h350z" />
    <glyph glyph-name="wgrave" unicode="&#x1e81;" horiz-adv-x="1729" 
d="M1012 1269h-275l-264 316h312zM1714 1113l-288 -1113h-382l-179 755h-7l-178 -755h-376l-289 1113h357l145 -791h7l174 791h338l176 -791h7l145 791h350z" />
    <glyph glyph-name="wacute" unicode="&#x1e83;" horiz-adv-x="1729" 
d="M995 1269h-275l227 316h312zM1714 1113l-288 -1113h-382l-179 755h-7l-178 -755h-376l-289 1113h357l145 -791h7l174 791h338l176 -791h7l145 791h350z" />
    <glyph glyph-name="wdotaccent" unicode="&#x1e87;" horiz-adv-x="1729" 
d="M862 1263c-92 0 -164 73 -164 162c0 88 72 161 164 161c93 0 165 -73 165 -161c0 -89 -72 -162 -165 -162zM1714 1113l-288 -1113h-382l-179 755h-7l-178 -755h-376l-289 1113h357l145 -791h7l174 791h338l176 -791h7l145 791h350z" />
    <glyph glyph-name="wdotbelow" unicode="&#x1e89;" horiz-adv-x="1729" 
d="M864 -492c-92 0 -164 73 -164 163s72 163 164 163s164 -73 164 -163s-72 -163 -164 -163zM1714 1113l-288 -1113h-382l-179 755h-7l-178 -755h-376l-289 1113h357l145 -791h7l174 791h338l176 -791h7l145 791h350z" />
    <glyph glyph-name="wdieresis" unicode="&#x1e85;" horiz-adv-x="1729" 
d="M647 1257c-84 0 -147 64 -147 141c0 78 63 141 147 141c85 0 148 -63 148 -141c0 -77 -63 -141 -148 -141zM1080 1257c-85 0 -147 64 -147 141c0 78 62 141 147 141s147 -63 147 -141c0 -77 -62 -141 -147 -141zM1714 1113l-288 -1113h-382l-179 755h-7l-178 -755h-376
l-289 1113h357l145 -791h7l174 791h338l176 -791h7l145 791h350z" />
    <glyph glyph-name="wcircumflex" unicode="&#x175;" horiz-adv-x="1729" 
d="M998 1582l261 -327h-256l-135 184h-8l-136 -184h-255l260 327h269zM1714 1113l-288 -1113h-382l-179 755h-7l-178 -755h-376l-289 1113h357l145 -791h7l174 791h338l176 -791h7l145 791h350z" />
    <glyph glyph-name="wring" unicode="&#x1e98;" horiz-adv-x="1729" 
d="M1714 1113l-288 -1113h-382l-179 755h-7l-178 -755h-376l-289 1113h357l145 -791h7l174 791h338l176 -791h7l145 791h350zM864 1223c-127 0 -234 103 -234 227c0 125 107 227 234 227c126 0 232 -102 232 -227c0 -124 -106 -227 -232 -227zM864 1358c51 0 94 42 94 92
c0 51 -43 93 -94 93s-95 -42 -95 -93c0 -50 44 -92 95 -92z" />
    <glyph glyph-name="x" unicode="x" horiz-adv-x="1163" 
d="M575 369h-7l-183 -369h-368l336 554l-336 559h401l170 -359h7l169 359h383l-336 -552l335 -561h-384z" />
    <glyph glyph-name="xdotaccent" unicode="&#x1e8b;" horiz-adv-x="1163" 
d="M575 369h-7l-183 -369h-368l336 554l-336 559h401l170 -359h7l169 359h383l-336 -552l335 -561h-384zM580 1263c-92 0 -164 73 -164 162c0 88 72 161 164 161c93 0 165 -73 165 -161c0 -89 -72 -162 -165 -162z" />
    <glyph glyph-name="xdieresis" unicode="&#x1e8d;" horiz-adv-x="1163" 
d="M575 369h-7l-183 -369h-368l336 554l-336 559h401l170 -359h7l169 359h383l-336 -552l335 -561h-384zM365 1257c-84 0 -147 64 -147 141c0 78 63 141 147 141c85 0 148 -63 148 -141c0 -77 -63 -141 -148 -141zM798 1257c-85 0 -147 64 -147 141c0 78 62 141 147 141
s147 -63 147 -141c0 -77 -62 -141 -147 -141z" />
    <glyph glyph-name="y" unicode="y" horiz-adv-x="1194" 
d="M254 -407c-5 0 -124 1 -129 2v268c5 -1 57 -1 62 -1c115 0 182 32 194 98l5 31l-380 1122h391l205 -845h7l205 845h374l-358 -1111c-95 -297 -257 -409 -576 -409z" />
    <glyph glyph-name="ygrave" unicode="&#x1ef3;" horiz-adv-x="1194" 
d="M254 -407c-5 0 -124 1 -129 2v268c5 -1 57 -1 62 -1c115 0 182 32 194 98l5 31l-380 1122h391l205 -845h7l205 845h374l-358 -1111c-95 -297 -257 -409 -576 -409zM745 1269h-275l-264 316h312z" />
    <glyph glyph-name="yacute" unicode="&#xfd;" horiz-adv-x="1194" 
d="M254 -407c-5 0 -124 1 -129 2v268c5 -1 57 -1 62 -1c115 0 182 32 194 98l5 31l-380 1122h391l205 -845h7l205 845h374l-358 -1111c-95 -297 -257 -409 -576 -409zM728 1269h-275l227 316h312z" />
    <glyph glyph-name="ydotaccent" unicode="&#x1e8f;" horiz-adv-x="1194" 
d="M254 -407c-5 0 -124 1 -129 2v268c5 -1 57 -1 62 -1c115 0 182 32 194 98l5 31l-380 1122h391l205 -845h7l205 845h374l-358 -1111c-95 -297 -257 -409 -576 -409zM595 1263c-92 0 -164 73 -164 162c0 88 72 161 164 161c93 0 165 -73 165 -161c0 -89 -72 -162 -165 -162
z" />
    <glyph glyph-name="ydotbelow" unicode="&#x1ef5;" horiz-adv-x="1194" 
d="M254 -407c-5 0 -124 1 -129 2v268c5 -1 57 -1 62 -1c115 0 182 32 194 98l5 31l-380 1122h391l205 -845h7l205 845h374l-358 -1111c-95 -297 -257 -409 -576 -409zM985 -492c-92 0 -164 73 -164 163s72 163 164 163s164 -73 164 -163s-72 -163 -164 -163z" />
    <glyph glyph-name="ydieresis" unicode="&#xff;" horiz-adv-x="1194" 
d="M254 -407c-5 0 -124 1 -129 2v268c5 -1 57 -1 62 -1c115 0 182 32 194 98l5 31l-380 1122h391l205 -845h7l205 845h374l-358 -1111c-95 -297 -257 -409 -576 -409zM380 1257c-84 0 -147 64 -147 141c0 78 63 141 147 141c85 0 148 -63 148 -141c0 -77 -63 -141 -148 -141
zM813 1257c-85 0 -147 64 -147 141c0 78 62 141 147 141s147 -63 147 -141c0 -77 -62 -141 -147 -141z" />
    <glyph glyph-name="ytilde" unicode="&#x1ef9;" horiz-adv-x="1194" 
d="M254 -407c-5 0 -124 1 -129 2v268c5 -1 57 -1 62 -1c115 0 182 32 194 98l5 31l-380 1122h391l205 -845h7l205 845h374l-358 -1111c-95 -297 -257 -409 -576 -409zM745 1258c-142 0 -192 127 -263 127c-46 0 -67 -48 -69 -110h-181c0 180 105 283 234 283
c144 0 195 -127 265 -127c45 0 65 45 67 114h181c0 -179 -106 -287 -234 -287z" />
    <glyph glyph-name="ycircumflex" unicode="&#x177;" horiz-adv-x="1194" 
d="M254 -407c-5 0 -124 1 -129 2v268c5 -1 57 -1 62 -1c115 0 182 32 194 98l5 31l-380 1122h391l205 -845h7l205 845h374l-358 -1111c-95 -297 -257 -409 -576 -409zM731 1582l261 -327h-256l-135 184h-8l-136 -184h-255l260 327h269z" />
    </font>
</defs>
</svg>
