<?xml version="1.0" standalone="no"?>
<!DOCTYPE svg PUBLIC "-//W3C//DTD SVG 1.1//EN" "http://www.w3.org/Graphics/SVG/1.1/DTD/svg11.dtd" >
<svg xmlns="http://www.w3.org/2000/svg" xmlns:xlink="http://www.w3.org/1999/xlink" version="1.1">
<metadata>
Created by FontForge 20190801 at Sat Aug  8 01:34:06 2015
 By Jimmy Wärting
(c) 2015 Apple Inc. All rights reserved.
</metadata>
<defs>
<font id="SFUIDisplay-Light" horiz-adv-x="0" >
  <font-face 
    font-family="SF UI Display"
    font-weight="300"
    font-stretch="normal"
    units-per-em="2048"
    panose-1="0 0 4 0 0 0 0 0 0 0"
    ascent="1638"
    descent="-410"
    x-height="1077"
    cap-height="1443"
    bbox="-516 -882 2508 2091"
    underline-thickness="95"
    underline-position="-369"
    stemh="120"
    stemv="134"
    unicode-range="U+0020-FB02"
  />
<missing-glyph horiz-adv-x="2048" 
d="M100 -494v308h1848v-308h-1848zM100 -67v308h1848v-308h-1848zM100 361v307h1848v-307h-1848zM100 788v307h1848v-307h-1848zM100 1215v308h1848v-308h-1848zM100 1642v308h1848v-308h-1848z" />
    <glyph glyph-name=".notdef" horiz-adv-x="2048" 
d="M100 -494v308h1848v-308h-1848zM100 -67v308h1848v-308h-1848zM100 361v307h1848v-307h-1848zM100 788v307h1848v-307h-1848zM100 1215v308h1848v-308h-1848zM100 1642v308h1848v-308h-1848z" />
    <glyph glyph-name=".null" 
 />
    <glyph glyph-name="nonmarkingreturn" 
 />
    <glyph glyph-name="space" unicode=" " horiz-adv-x="454" 
 />
    <glyph glyph-name="A" unicode="A" horiz-adv-x="1262" 
d="M1094 0l-160 442h-606l-160 -442h-145l540 1443h136l539 -1443h-144zM628 1274l-259 -714h524l-259 714h-6z" />
    <glyph glyph-name="Agrave" unicode="&#xc0;" horiz-adv-x="1262" 
d="M1094 0l-160 442h-606l-160 -442h-145l540 1443h136l539 -1443h-144zM628 1274l-259 -714h524l-259 714h-6zM576 1551l-289 295h154l252 -295h-117z" />
    <glyph glyph-name="Aacute" unicode="&#xc1;" horiz-adv-x="1262" 
d="M1094 0l-160 442h-606l-160 -442h-145l540 1443h136l539 -1443h-144zM628 1274l-259 -714h524l-259 714h-6zM688 1551h-117l252 295h154z" />
    <glyph glyph-name="Adieresis" unicode="&#xc4;" horiz-adv-x="1262" 
d="M1094 0l-160 442h-606l-160 -442h-145l540 1443h136l539 -1443h-144zM628 1274l-259 -714h524l-259 714h-6zM453 1576c-50 0 -93 42 -93 92c0 51 43 93 93 93c51 0 93 -42 93 -93c0 -50 -42 -92 -93 -92zM809 1576c-51 0 -93 42 -93 92c0 51 42 93 93 93s93 -42 93 -93
c0 -50 -42 -92 -93 -92z" />
    <glyph glyph-name="Adieresismacron" unicode="&#x1de;" horiz-adv-x="1262" 
d="M1094 0l-160 442h-606l-160 -442h-145l540 1443h136l539 -1443h-144zM628 1274l-259 -714h524l-259 714h-6zM461 1747c45 0 83 -38 83 -83c0 -47 -38 -84 -83 -84c-47 0 -84 37 -84 84c0 45 37 83 84 83zM326 1979h610v-84h-610v84zM801 1747c47 0 84 -38 84 -83
c0 -47 -37 -84 -84 -84c-45 0 -83 37 -83 84c0 45 38 83 83 83z" />
    <glyph glyph-name="Aring" unicode="&#xc5;" horiz-adv-x="1262" 
d="M1094 0l-160 442h-606l-160 -442h-145l540 1443h136l539 -1443h-144zM628 1274l-259 -714h524l-259 714h-6zM631 1507c-103 0 -188 85 -188 188c0 102 85 187 188 187s188 -85 188 -187c0 -103 -85 -188 -188 -188zM631 1575c66 0 119 53 119 120c0 66 -53 119 -119 119
s-119 -53 -119 -119c0 -67 53 -120 119 -120z" />
    <glyph glyph-name="Aringacute" unicode="&#x1fa;" horiz-adv-x="1262" 
d="M1094 0l-160 442h-606l-160 -442h-145l540 1443h136l539 -1443h-144zM628 1274l-259 -714h524l-259 714h-6zM631 1485c-103 0 -188 85 -188 188s85 188 188 188s188 -85 188 -188s-85 -188 -188 -188zM631 1553c67 0 120 53 120 120s-53 121 -120 121s-120 -54 -120 -121
s53 -120 120 -120zM715 2091h137l-173 -178h-95z" />
    <glyph glyph-name="Atilde" unicode="&#xc3;" horiz-adv-x="1262" 
d="M1094 0l-160 442h-606l-160 -442h-145l540 1443h136l539 -1443h-144zM628 1274l-259 -714h524l-259 714h-6zM762 1541c-130 0 -170 157 -258 157c-52 0 -78 -55 -78 -144h-91c0 144 59 234 166 234c136 0 177 -157 261 -157c50 0 73 53 73 144h91
c0 -141 -61 -234 -164 -234z" />
    <glyph glyph-name="Abrevegrave" unicode="&#x1eb0;" horiz-adv-x="1262" 
d="M1094 0l-160 442h-606l-160 -442h-145l540 1443h136l539 -1443h-144zM628 1274l-259 -714h524l-259 714h-6zM927 1823c0 -154 -120 -255 -296 -255s-296 101 -296 255h101c0 -96 82 -168 195 -168s195 72 195 168h101zM728 1818h-109l-231 203h145z" />
    <glyph glyph-name="Adotmacron" unicode="&#x1e0;" horiz-adv-x="1262" 
d="M1094 0l-160 442h-606l-160 -442h-145l540 1443h136l539 -1443h-144zM628 1274l-259 -714h524l-259 714h-6zM631 1568c-55 0 -99 44 -99 99c0 53 44 97 99 97s99 -44 99 -97c0 -55 -44 -99 -99 -99zM936 1979v-84h-610v84h610z" />
    <glyph glyph-name="Aringbelow" unicode="&#x1e00;" horiz-adv-x="1262" 
d="M1094 0l-160 442h-606l-160 -442h-145l540 1443h136l539 -1443h-144zM628 1274l-259 -714h524l-259 714h-6zM631 -529c-103 0 -187 85 -187 188s84 188 187 188s188 -85 188 -188s-85 -188 -188 -188zM631 -461c67 0 120 54 120 120s-53 120 -120 120
c-66 0 -119 -54 -119 -120s53 -120 119 -120z" />
    <glyph glyph-name="Acircumflex" unicode="&#xc2;" horiz-adv-x="1262" 
d="M1094 0l-160 442h-606l-160 -442h-145l540 1443h136l539 -1443h-144zM628 1274l-259 -714h524l-259 714h-6zM576 1846h110l283 -295h-131l-206 217h-2l-206 -217h-131z" />
    <glyph glyph-name="Acircumflexdotbelow" unicode="&#x1eac;" horiz-adv-x="1262" 
d="M1094 0l-160 442h-606l-160 -442h-145l540 1443h136l539 -1443h-144zM628 1274l-259 -714h524l-259 714h-6zM631 -351c-56 0 -102 46 -102 102s46 102 102 102s102 -46 102 -102s-46 -102 -102 -102zM576 1846h110l283 -295h-131l-206 217h-2l-206 -217h-131z" />
    <glyph glyph-name="Acircumflexacute" unicode="&#x1ea4;" horiz-adv-x="1262" 
d="M1094 0l-160 442h-606l-160 -442h-145l540 1443h136l539 -1443h-144zM628 1274l-259 -714h524l-259 714h-6zM574 1785h119l265 -217h-144l-175 145h-11l-176 -145h-144zM776 1818l194 203h146l-231 -203h-109z" />
    <glyph glyph-name="Acircumflextilde" unicode="&#x1eaa;" horiz-adv-x="1262" 
d="M1094 0l-160 442h-606l-160 -442h-145l540 1443h136l539 -1443h-144zM628 1274l-259 -714h524l-259 714h-6zM751 1829c-133 0 -141 140 -232 140c-55 0 -78 -41 -81 -123h-88c0 125 63 203 169 203c136 0 151 -138 231 -138c53 0 77 43 80 122h87
c0 -122 -64 -204 -166 -204zM572 1772h118l266 -204h-144l-176 133h-10l-176 -133h-144z" />
    <glyph glyph-name="Acircumflexgrave" unicode="&#x1ea6;" horiz-adv-x="1262" 
d="M1094 0l-160 442h-606l-160 -442h-145l540 1443h136l539 -1443h-144zM628 1274l-259 -714h524l-259 714h-6zM572 1785h118l266 -217h-144l-176 145h-10l-176 -145h-144zM954 1818h-109l-231 203h145z" />
    <glyph glyph-name="Acircumflexhookabove" unicode="&#x1ea8;" horiz-adv-x="1262" 
d="M1094 0l-160 442h-606l-160 -442h-145l540 1443h136l539 -1443h-144zM628 1274l-259 -714h524l-259 714h-6zM573 1785h119l266 -217h-144l-176 145h-11l-176 -145h-144zM755 1927v71c26 14 66 23 102 23c93 0 158 -55 158 -137c0 -65 -41 -123 -106 -147l-60 51
c46 18 76 52 76 91s-34 68 -82 68c-33 0 -68 -8 -88 -20z" />
    <glyph glyph-name="Abreve" unicode="&#x102;" horiz-adv-x="1262" 
d="M1094 0l-160 442h-606l-160 -442h-145l540 1443h136l539 -1443h-144zM628 1274l-259 -714h524l-259 714h-6zM339 1823h94c0 -106 83 -189 198 -189s198 83 198 189h94c0 -162 -120 -272 -292 -272s-292 110 -292 272z" />
    <glyph glyph-name="Abreveacute" unicode="&#x1eae;" horiz-adv-x="1262" 
d="M1094 0l-160 442h-606l-160 -442h-145l540 1443h136l539 -1443h-144zM628 1274l-259 -714h524l-259 714h-6zM335 1823h101c0 -96 82 -168 195 -168s195 72 195 168h101c0 -154 -120 -255 -296 -255s-296 101 -296 255zM534 1818l195 203h145l-231 -203h-109z" />
    <glyph glyph-name="Abrevetilde" unicode="&#x1eb4;" horiz-adv-x="1262" 
d="M1094 0l-160 442h-606l-160 -442h-145l540 1443h136l539 -1443h-144zM628 1274l-259 -714h524l-259 714h-6zM338 1788h100c7 -80 83 -134 193 -134c111 0 186 54 193 134h100c-6 -135 -122 -220 -293 -220c-170 0 -287 85 -293 220zM750 1831c-133 0 -147 136 -231 136
c-52 0 -78 -45 -81 -121h-100c0 120 70 203 179 203c137 0 158 -135 231 -135c48 0 73 44 76 119h100c0 -117 -70 -202 -174 -202z" />
    <glyph glyph-name="Abrevehookabove" unicode="&#x1eb2;" horiz-adv-x="1262" 
d="M1094 0l-160 442h-606l-160 -442h-145l540 1443h136l539 -1443h-144zM628 1274l-259 -714h524l-259 714h-6zM488 1976v78c25 15 66 26 110 26c103 0 172 -60 172 -150c0 -72 -51 -137 -133 -169l-47 64c51 18 84 58 84 99c0 43 -39 75 -90 75c-36 0 -73 -11 -96 -23z
M339 1788h100c7 -80 82 -134 192 -134c111 0 188 54 195 134h99c-6 -135 -123 -220 -294 -220c-170 0 -285 85 -292 220z" />
    <glyph glyph-name="Abrevedotbelow" unicode="&#x1eb6;" horiz-adv-x="1262" 
d="M1094 0l-160 442h-606l-160 -442h-145l540 1443h136l539 -1443h-144zM628 1274l-259 -714h524l-259 714h-6zM631 -351c-56 0 -102 46 -102 102s46 102 102 102s102 -46 102 -102s-46 -102 -102 -102zM339 1823h94c0 -106 83 -189 198 -189s198 83 198 189h94
c0 -162 -120 -272 -292 -272s-292 110 -292 272z" />
    <glyph glyph-name="Ainvertedbreve" unicode="&#x202;" horiz-adv-x="1262" 
d="M1094 0l-160 442h-606l-160 -442h-145l540 1443h136l539 -1443h-144zM628 1274l-259 -714h524l-259 714h-6zM339 1551c0 162 120 272 292 272s292 -110 292 -272h-94c0 107 -83 189 -198 189s-198 -82 -198 -189h-94z" />
    <glyph glyph-name="Acaron" unicode="&#x1cd;" horiz-adv-x="1262" 
d="M1094 0l-160 442h-606l-160 -442h-145l540 1443h136l539 -1443h-144zM628 1274l-259 -714h524l-259 714h-6zM576 1551l-283 295h131l206 -217h2l206 217h131l-283 -295h-110z" />
    <glyph glyph-name="Adotaccent" unicode="&#x226;" horiz-adv-x="1262" 
d="M1094 0l-160 442h-606l-160 -442h-145l540 1443h136l539 -1443h-144zM628 1274l-259 -714h524l-259 714h-6zM631 1575c-56 0 -102 46 -102 102s46 102 102 102s102 -46 102 -102s-46 -102 -102 -102z" />
    <glyph glyph-name="Adotbelow" unicode="&#x1ea0;" horiz-adv-x="1262" 
d="M1094 0l-160 442h-606l-160 -442h-145l540 1443h136l539 -1443h-144zM628 1274l-259 -714h524l-259 714h-6zM631 -351c-56 0 -102 46 -102 102s46 102 102 102s102 -46 102 -102s-46 -102 -102 -102z" />
    <glyph glyph-name="Ahookabove" unicode="&#x1ea2;" horiz-adv-x="1262" 
d="M1094 0l-160 442h-606l-160 -442h-145l540 1443h136l539 -1443h-144zM628 1274l-259 -714h524l-259 714h-6zM479 1763v78c30 14 74 24 118 24c106 0 179 -58 179 -149c0 -74 -54 -139 -138 -170l-50 63c53 18 87 58 87 101s-39 75 -93 75c-36 0 -77 -8 -103 -22z" />
    <glyph glyph-name="Adblgrave" unicode="&#x200;" horiz-adv-x="1262" 
d="M1094 0l-160 442h-606l-160 -442h-145l540 1443h136l539 -1443h-144zM628 1274l-259 -714h524l-259 714h-6zM718 1551l-288 295h147l252 -295h-111zM427 1551l-288 295h147l252 -295h-111z" />
    <glyph glyph-name="Amacron" unicode="&#x100;" horiz-adv-x="1262" 
d="M1094 0l-160 442h-606l-160 -442h-145l540 1443h136l539 -1443h-144zM628 1274l-259 -714h524l-259 714h-6zM936 1718v-85h-610v85h610z" />
    <glyph glyph-name="Aogonek" unicode="&#x104;" horiz-adv-x="1262" 
d="M628 1274l-259 -714h524l-259 714h-6zM1223 -402c-24 -9 -57 -14 -93 -14c-132 0 -226 81 -226 194c0 90 62 173 185 235l-155 429h-606l-160 -442h-145l540 1443h136l539 -1443l-6 -2c-124 -42 -199 -115 -199 -195c0 -63 51 -108 123 -108c29 0 54 3 67 7v-104z" />
    <glyph glyph-name="B" unicode="B" horiz-adv-x="1217" 
d="M669 0h-534v1443h531c248 0 417 -143 417 -356c0 -160 -111 -297 -264 -325v-7c199 -24 338 -159 338 -359c0 -246 -183 -396 -488 -396zM271 1322v-520h326c219 0 348 100 348 270c0 157 -116 250 -308 250h-366zM271 121h380c235 0 366 103 366 282
c0 180 -136 281 -385 281h-361v-563z" />
    <glyph glyph-name="Blinebelow" unicode="&#x1e06;" horiz-adv-x="1217" 
d="M669 0h-534v1443h531c248 0 417 -143 417 -356c0 -160 -111 -297 -264 -325v-7c199 -24 338 -159 338 -359c0 -246 -183 -396 -488 -396zM271 1322v-520h326c219 0 348 100 348 270c0 157 -116 250 -308 250h-366zM271 121h380c235 0 366 103 366 282
c0 180 -136 281 -385 281h-361v-563zM847 -214v-85h-610v85h610z" />
    <glyph glyph-name="Bdotbelow" unicode="&#x1e04;" horiz-adv-x="1217" 
d="M542 -351c-56 0 -102 46 -102 102s46 102 102 102s102 -46 102 -102s-46 -102 -102 -102zM669 0h-534v1443h531c248 0 417 -143 417 -356c0 -160 -111 -297 -264 -325v-7c199 -24 338 -159 338 -359c0 -246 -183 -396 -488 -396zM271 1322v-520h326
c219 0 348 100 348 270c0 157 -116 250 -308 250h-366zM271 121h380c235 0 366 103 366 282c0 180 -136 281 -385 281h-361v-563z" />
    <glyph glyph-name="Bdotaccent" unicode="&#x1e02;" horiz-adv-x="1217" 
d="M542 1575c-56 0 -102 46 -102 102s46 102 102 102s102 -46 102 -102s-46 -102 -102 -102zM669 0h-534v1443h531c248 0 417 -143 417 -356c0 -160 -111 -297 -264 -325v-7c199 -24 338 -159 338 -359c0 -246 -183 -396 -488 -396zM271 1322v-520h326
c219 0 348 100 348 270c0 157 -116 250 -308 250h-366zM271 121h380c235 0 366 103 366 282c0 180 -136 281 -385 281h-361v-563z" />
    <glyph glyph-name="C" unicode="C" horiz-adv-x="1371" 
d="M720 -23c-393 0 -643 291 -643 748c0 452 251 741 643 741c305 0 546 -199 585 -481h-137c-40 208 -224 354 -448 354c-306 0 -503 -239 -503 -614c0 -380 197 -621 504 -621c230 0 404 123 447 323h137c-51 -281 -272 -450 -585 -450z" />
    <glyph glyph-name="Cacute" unicode="&#x106;" horiz-adv-x="1371" 
d="M777 1552h-117l252 295h154zM720 -23c-393 0 -643 291 -643 748c0 452 251 741 643 741c305 0 546 -199 585 -481h-137c-40 208 -224 354 -448 354c-306 0 -503 -239 -503 -614c0 -380 197 -621 504 -621c230 0 404 123 447 323h137c-51 -281 -272 -450 -585 -450z" />
    <glyph glyph-name="Ccaron" unicode="&#x10c;" horiz-adv-x="1371" 
d="M720 -23c-393 0 -643 291 -643 748c0 452 251 741 643 741c305 0 546 -199 585 -481h-137c-40 208 -224 354 -448 354c-306 0 -503 -239 -503 -614c0 -380 197 -621 504 -621c230 0 404 123 447 323h137c-51 -281 -272 -450 -585 -450zM665 1552l-283 295h131l206 -217h2
l206 217h131l-283 -295h-110z" />
    <glyph glyph-name="Ccircumflex" unicode="&#x108;" horiz-adv-x="1371" 
d="M720 -23c-393 0 -643 291 -643 748c0 452 251 741 643 741c305 0 546 -199 585 -481h-137c-40 208 -224 354 -448 354c-306 0 -503 -239 -503 -614c0 -380 197 -621 504 -621c230 0 404 123 447 323h137c-51 -281 -272 -450 -585 -450zM665 1847h110l283 -295h-131
l-206 217h-2l-206 -217h-131z" />
    <glyph glyph-name="Cdotaccent" unicode="&#x10a;" horiz-adv-x="1371" 
d="M720 1576c-56 0 -102 46 -102 102s46 102 102 102s102 -46 102 -102s-46 -102 -102 -102zM720 -23c-393 0 -643 291 -643 748c0 452 251 741 643 741c305 0 546 -199 585 -481h-137c-40 208 -224 354 -448 354c-306 0 -503 -239 -503 -614c0 -380 197 -621 504 -621
c230 0 404 123 447 323h137c-51 -281 -272 -450 -585 -450z" />
    <glyph glyph-name="Ccedilla" unicode="&#xc7;" horiz-adv-x="1371" 
d="M1305 985h-137c-40 208 -224 354 -448 354c-306 0 -503 -239 -503 -614c0 -380 197 -621 504 -621c230 0 404 123 447 323h137c-49 -267 -251 -433 -540 -449l-46 -119c134 0 208 -54 208 -152c0 -101 -91 -173 -218 -174c-52 0 -100 5 -139 17v80c23 -9 78 -16 122 -16
c84 0 137 35 137 90s-49 82 -155 82h-53v60l53 132c-366 22 -597 308 -597 747c0 452 251 741 643 741c305 0 546 -199 585 -481z" />
    <glyph glyph-name="Ccedillaacute" unicode="&#x1e08;" horiz-adv-x="1371" 
d="M1066 1847l-289 -295h-117l252 295h154zM1305 985h-137c-40 208 -224 354 -448 354c-306 0 -503 -239 -503 -614c0 -380 197 -621 504 -621c230 0 404 123 447 323h137c-49 -267 -251 -433 -540 -449l-46 -119c134 0 208 -54 208 -152c0 -101 -91 -173 -218 -174
c-52 0 -100 5 -139 17v80c23 -9 78 -16 122 -16c84 0 137 35 137 90s-49 82 -155 82h-53v60l53 132c-366 22 -597 308 -597 747c0 452 251 741 643 741c305 0 546 -199 585 -481z" />
    <glyph glyph-name="D" unicode="D" horiz-adv-x="1370" 
d="M135 1443h475c432 0 684 -265 684 -721c0 -457 -251 -722 -684 -722h-475v1443zM272 1319v-1195h330c355 0 553 214 553 597c0 384 -198 598 -553 598h-330z" />
    <glyph glyph-name="Ddotaccent" unicode="&#x1e0a;" horiz-adv-x="1370" 
d="M551 1575c-56 0 -102 46 -102 102s46 102 102 102s102 -46 102 -102s-46 -102 -102 -102zM135 1443h475c432 0 684 -265 684 -721c0 -457 -251 -722 -684 -722h-475v1443zM272 1319v-1195h330c355 0 553 214 553 597c0 384 -198 598 -553 598h-330z" />
    <glyph glyph-name="Dcircumflexbelow" unicode="&#x1e12;" horiz-adv-x="1370" 
d="M135 1443h475c432 0 684 -265 684 -721c0 -457 -251 -722 -684 -722h-475v1443zM272 1319v-1195h330c355 0 553 214 553 597c0 384 -198 598 -553 598h-330zM496 -158h110l283 -295h-131l-206 217h-2l-206 -217h-131z" />
    <glyph glyph-name="Dcommaaccent" unicode="&#x1e10;" horiz-adv-x="1370" 
d="M518 -520h-100l95 358h121zM135 1443h475c432 0 684 -265 684 -721c0 -457 -251 -722 -684 -722h-475v1443zM272 1319v-1195h330c355 0 553 214 553 597c0 384 -198 598 -553 598h-330z" />
    <glyph glyph-name="Dlinebelow" unicode="&#x1e0e;" horiz-adv-x="1370" 
d="M856 -214v-85h-610v85h610zM135 1443h475c432 0 684 -265 684 -721c0 -457 -251 -722 -684 -722h-475v1443zM272 1319v-1195h330c355 0 553 214 553 597c0 384 -198 598 -553 598h-330z" />
    <glyph glyph-name="Dcaron" unicode="&#x10e;" horiz-adv-x="1370" 
d="M496 1551l-283 295h131l206 -217h2l206 217h131l-283 -295h-110zM135 1443h475c432 0 684 -265 684 -721c0 -457 -251 -722 -684 -722h-475v1443zM272 1319v-1195h330c355 0 553 214 553 597c0 384 -198 598 -553 598h-330z" />
    <glyph glyph-name="Ddotbelow" unicode="&#x1e0c;" horiz-adv-x="1370" 
d="M551 -351c-56 0 -102 46 -102 102s46 102 102 102s102 -46 102 -102s-46 -102 -102 -102zM135 1443h475c432 0 684 -265 684 -721c0 -457 -251 -722 -684 -722h-475v1443zM272 1319v-1195h330c355 0 553 214 553 597c0 384 -198 598 -553 598h-330z" />
    <glyph glyph-name="Dcroat" unicode="&#x110;" horiz-adv-x="1385" 
d="M287 124h330c355 0 553 214 553 597c0 384 -198 598 -553 598h-330v-514h312v-124h-312v-557zM150 1443h475c432 0 684 -265 684 -721c0 -457 -251 -722 -684 -722h-475v681h-126v124h126v638z" />
    <glyph glyph-name="E" unicode="E" horiz-adv-x="1104" 
d="M1006 124v-124h-871v1443h871v-124h-735v-519h698v-122h-698v-554h735z" />
    <glyph glyph-name="Egrave" unicode="&#xc8;" horiz-adv-x="1104" 
d="M515 1551l-289 295h154l252 -295h-117zM1006 124v-124h-871v1443h871v-124h-735v-519h698v-122h-698v-554h735z" />
    <glyph glyph-name="Edblgrave" unicode="&#x204;" horiz-adv-x="1104" 
d="M657 1551l-288 295h147l252 -295h-111zM366 1551l-288 295h147l252 -295h-111zM1006 124v-124h-871v1443h871v-124h-735v-519h698v-122h-698v-554h735z" />
    <glyph glyph-name="Eacute" unicode="&#xc9;" horiz-adv-x="1104" 
d="M627 1551h-117l252 295h154zM1006 124v-124h-871v1443h871v-124h-735v-519h698v-122h-698v-554h735z" />
    <glyph glyph-name="Ecircumflex" unicode="&#xca;" horiz-adv-x="1104" 
d="M515 1846h110l283 -295h-131l-206 217h-2l-206 -217h-131zM1006 124v-124h-871v1443h871v-124h-735v-519h698v-122h-698v-554h735z" />
    <glyph glyph-name="Ecircumflexhookabove" unicode="&#x1ec2;" horiz-adv-x="1104" 
d="M1006 124v-124h-871v1443h871v-124h-735v-519h698v-122h-698v-554h735zM512 1785h119l266 -217h-144l-176 145h-11l-176 -145h-144zM694 1927v71c26 14 66 23 102 23c93 0 158 -55 158 -137c0 -65 -41 -123 -106 -147l-60 51c46 18 76 52 76 91s-34 68 -82 68
c-33 0 -68 -8 -88 -20z" />
    <glyph glyph-name="Ecircumflexgrave" unicode="&#x1ec0;" horiz-adv-x="1104" 
d="M1006 124v-124h-871v1443h871v-124h-735v-519h698v-122h-698v-554h735zM511 1785h118l266 -217h-144l-176 145h-10l-176 -145h-144zM893 1818h-109l-231 203h145z" />
    <glyph glyph-name="Ecircumflextilde" unicode="&#x1ec4;" horiz-adv-x="1104" 
d="M690 1829c-133 0 -141 140 -232 140c-55 0 -78 -41 -81 -123h-88c0 125 63 203 169 203c136 0 151 -138 231 -138c53 0 77 43 80 122h87c0 -122 -64 -204 -166 -204zM511 1772h118l266 -204h-144l-176 133h-10l-176 -133h-144zM1006 124v-124h-871v1443h871v-124h-735
v-519h698v-122h-698v-554h735z" />
    <glyph glyph-name="Ecircumflexdotbelow" unicode="&#x1ec6;" horiz-adv-x="1104" 
d="M570 -351c-56 0 -102 46 -102 102s46 102 102 102s102 -46 102 -102s-46 -102 -102 -102zM515 1846h110l283 -295h-131l-206 217h-2l-206 -217h-131zM1006 124v-124h-871v1443h871v-124h-735v-519h698v-122h-698v-554h735z" />
    <glyph glyph-name="Ecircumflexacute" unicode="&#x1ebe;" horiz-adv-x="1104" 
d="M1006 124v-124h-871v1443h871v-124h-735v-519h698v-122h-698v-554h735zM513 1785h119l265 -217h-144l-175 145h-11l-176 -145h-144zM715 1818l194 203h146l-231 -203h-109z" />
    <glyph glyph-name="Edieresis" unicode="&#xcb;" horiz-adv-x="1104" 
d="M392 1576c-50 0 -93 42 -93 92c0 51 43 93 93 93c51 0 93 -42 93 -93c0 -50 -42 -92 -93 -92zM748 1576c-51 0 -93 42 -93 92c0 51 42 93 93 93s93 -42 93 -93c0 -50 -42 -92 -93 -92zM1006 124v-124h-871v1443h871v-124h-735v-519h698v-122h-698v-554h735z" />
    <glyph glyph-name="Edotbelow" unicode="&#x1eb8;" horiz-adv-x="1104" 
d="M570 -351c-56 0 -102 46 -102 102s46 102 102 102s102 -46 102 -102s-46 -102 -102 -102zM1006 124v-124h-871v1443h871v-124h-735v-519h698v-122h-698v-554h735z" />
    <glyph glyph-name="Einvertedbreve" unicode="&#x206;" horiz-adv-x="1104" 
d="M1006 124v-124h-871v1443h871v-124h-735v-519h698v-122h-698v-554h735zM278 1551c0 162 120 272 292 272s292 -110 292 -272h-94c0 107 -83 189 -198 189s-198 -82 -198 -189h-94z" />
    <glyph glyph-name="Ehookabove" unicode="&#x1eba;" horiz-adv-x="1104" 
d="M1006 124v-124h-871v1443h871v-124h-735v-519h698v-122h-698v-554h735zM418 1763v78c30 14 74 24 118 24c106 0 179 -58 179 -149c0 -74 -54 -139 -138 -170l-50 63c53 18 87 58 87 101s-39 75 -93 75c-36 0 -77 -8 -103 -22z" />
    <glyph glyph-name="Ecaron" unicode="&#x11a;" horiz-adv-x="1104" 
d="M515 1551l-283 295h131l206 -217h2l206 217h131l-283 -295h-110zM1006 124v-124h-871v1443h871v-124h-735v-519h698v-122h-698v-554h735z" />
    <glyph glyph-name="Emacron" unicode="&#x112;" horiz-adv-x="1104" 
d="M1006 124v-124h-871v1443h871v-124h-735v-519h698v-122h-698v-554h735zM875 1718v-85h-610v85h610z" />
    <glyph glyph-name="Emacrongrave" unicode="&#x1e14;" horiz-adv-x="1104" 
d="M265 1633v85h610v-85h-610zM630 1818h-109l-231 203h145zM1006 124v-124h-871v1443h871v-124h-735v-519h698v-122h-698v-554h735z" />
    <glyph glyph-name="Emacronacute" unicode="&#x1e16;" horiz-adv-x="1104" 
d="M875 1633h-610v85h610v-85zM510 1818l195 203h145l-231 -203h-109zM1006 124v-124h-871v1443h871v-124h-735v-519h698v-122h-698v-554h735z" />
    <glyph glyph-name="Etilde" unicode="&#x1ebc;" horiz-adv-x="1104" 
d="M1006 124v-124h-871v1443h871v-124h-735v-519h698v-122h-698v-554h735zM701 1541c-130 0 -170 157 -258 157c-52 0 -78 -55 -78 -144h-91c0 144 59 234 166 234c136 0 177 -157 261 -157c50 0 73 53 73 144h91c0 -141 -61 -234 -164 -234z" />
    <glyph glyph-name="Ecircumflexbelow" unicode="&#x1e18;" horiz-adv-x="1104" 
d="M1006 124v-124h-871v1443h871v-124h-735v-519h698v-122h-698v-554h735zM515 -158h110l283 -295h-131l-206 217h-2l-206 -217h-131z" />
    <glyph glyph-name="Ebreve" unicode="&#x114;" horiz-adv-x="1104" 
d="M1006 124v-124h-871v1443h871v-124h-735v-519h698v-122h-698v-554h735zM278 1823h94c0 -106 83 -189 198 -189s198 83 198 189h94c0 -162 -120 -272 -292 -272s-292 110 -292 272z" />
    <glyph glyph-name="Etildebelow" unicode="&#x1e1a;" horiz-adv-x="1104" 
d="M701 -394c-130 0 -170 157 -258 157c-52 0 -78 -55 -78 -144h-91c0 144 59 234 166 234c136 0 177 -157 261 -157c50 0 73 53 73 144h91c0 -141 -61 -234 -164 -234zM1006 124v-124h-871v1443h871v-124h-735v-519h698v-122h-698v-554h735z" />
    <glyph glyph-name="Edotaccent" unicode="&#x116;" horiz-adv-x="1104" 
d="M570 1575c-56 0 -102 46 -102 102s46 102 102 102s102 -46 102 -102s-46 -102 -102 -102zM1006 124v-124h-871v1443h871v-124h-735v-519h698v-122h-698v-554h735z" />
    <glyph glyph-name="Ecedilla" unicode="&#x228;" horiz-adv-x="1104" 
d="M1006 1319h-735v-519h698v-122h-698v-554h735v-124h-383l-54 -141c134 0 208 -54 208 -152c0 -101 -91 -173 -218 -174c-52 0 -100 5 -139 17v80c23 -9 78 -16 122 -16c84 0 137 35 137 90s-49 82 -155 82h-53v60l62 154h-398v1443h871v-124z" />
    <glyph glyph-name="Ecedillabreve" unicode="&#x1e1c;" horiz-adv-x="1104" 
d="M768 1823h94c0 -162 -120 -272 -292 -272s-292 110 -292 272h94c0 -106 83 -189 198 -189s198 83 198 189zM1006 1319h-735v-519h698v-122h-698v-554h735v-124h-383l-54 -141c134 0 208 -54 208 -152c0 -101 -91 -173 -218 -174c-52 0 -100 5 -139 17v80
c23 -9 78 -16 122 -16c84 0 137 35 137 90s-49 82 -155 82h-53v60l62 154h-398v1443h871v-124z" />
    <glyph glyph-name="Eogonek" unicode="&#x118;" horiz-adv-x="1104" 
d="M871 -416c-131 0 -226 81 -226 194c0 87 58 166 155 218v4h-665v1443h871v-124h-735v-519h698v-122h-698v-554h735v-115l-33 -11c-114 -37 -199 -113 -199 -195c0 -63 51 -108 123 -108c28 0 53 3 68 7v-104c-26 -9 -58 -14 -94 -14z" />
    <glyph glyph-name="F" unicode="F" horiz-adv-x="1061" 
d="M271 0h-136v1443h856v-124h-720v-542h662v-122h-662v-655z" />
    <glyph glyph-name="Fdotaccent" unicode="&#x1e1e;" horiz-adv-x="1061" 
d="M563 1575c-56 0 -102 46 -102 102s46 102 102 102s102 -46 102 -102s-46 -102 -102 -102zM271 0h-136v1443h856v-124h-720v-542h662v-122h-662v-655z" />
    <glyph glyph-name="G" unicode="G" horiz-adv-x="1409" 
d="M1324 586c0 -381 -224 -609 -599 -609c-391 0 -648 298 -648 753c0 447 254 736 648 736c303 0 536 -181 590 -457h-142c-59 206 -228 330 -448 330c-313 0 -508 -233 -508 -609c0 -381 199 -626 508 -626c279 0 463 178 463 450v51h-448v120h584v-139z" />
    <glyph glyph-name="Gacute" unicode="&#x1f4;" horiz-adv-x="1409" 
d="M782 1551h-117l252 295h154zM1324 586c0 -381 -224 -609 -599 -609c-391 0 -648 298 -648 753c0 447 254 736 648 736c303 0 536 -181 590 -457h-142c-59 206 -228 330 -448 330c-313 0 -508 -233 -508 -609c0 -381 199 -626 508 -626c279 0 463 178 463 450v51h-448v120
h584v-139z" />
    <glyph glyph-name="Gcaron" unicode="&#x1e6;" horiz-adv-x="1409" 
d="M670 1551l-283 295h131l206 -217h2l206 217h131l-283 -295h-110zM1324 586c0 -381 -224 -609 -599 -609c-391 0 -648 298 -648 753c0 447 254 736 648 736c303 0 536 -181 590 -457h-142c-59 206 -228 330 -448 330c-313 0 -508 -233 -508 -609c0 -381 199 -626 508 -626
c279 0 463 178 463 450v51h-448v120h584v-139z" />
    <glyph glyph-name="Gcircumflex" unicode="&#x11c;" horiz-adv-x="1409" 
d="M670 1846h110l283 -295h-131l-206 217h-2l-206 -217h-131zM1324 586c0 -381 -224 -609 -599 -609c-391 0 -648 298 -648 753c0 447 254 736 648 736c303 0 536 -181 590 -457h-142c-59 206 -228 330 -448 330c-313 0 -508 -233 -508 -609c0 -381 199 -626 508 -626
c279 0 463 178 463 450v51h-448v120h584v-139z" />
    <glyph glyph-name="Gbreve" unicode="&#x11e;" horiz-adv-x="1409" 
d="M1324 586c0 -381 -224 -609 -599 -609c-391 0 -648 298 -648 753c0 447 254 736 648 736c303 0 536 -181 590 -457h-142c-59 206 -228 330 -448 330c-313 0 -508 -233 -508 -609c0 -381 199 -626 508 -626c279 0 463 178 463 450v51h-448v120h584v-139zM433 1823h94
c0 -106 83 -189 198 -189s198 83 198 189h94c0 -162 -120 -272 -292 -272s-292 110 -292 272z" />
    <glyph glyph-name="Gmacron" unicode="&#x1e20;" horiz-adv-x="1409" 
d="M1324 586c0 -381 -224 -609 -599 -609c-391 0 -648 298 -648 753c0 447 254 736 648 736c303 0 536 -181 590 -457h-142c-59 206 -228 330 -448 330c-313 0 -508 -233 -508 -609c0 -381 199 -626 508 -626c279 0 463 178 463 450v51h-448v120h584v-139zM1030 1718v-85
h-610v85h610z" />
    <glyph glyph-name="Gdotaccent" unicode="&#x120;" horiz-adv-x="1409" 
d="M725 1575c-56 0 -102 46 -102 102s46 102 102 102s102 -46 102 -102s-46 -102 -102 -102zM1324 586c0 -381 -224 -609 -599 -609c-391 0 -648 298 -648 753c0 447 254 736 648 736c303 0 536 -181 590 -457h-142c-59 206 -228 330 -448 330c-313 0 -508 -233 -508 -609
c0 -381 199 -626 508 -626c279 0 463 178 463 450v51h-448v120h584v-139z" />
    <glyph glyph-name="Gcommaaccent" unicode="&#x122;" horiz-adv-x="1409" 
d="M692 -520h-100l95 358h121zM1324 586c0 -381 -224 -609 -599 -609c-391 0 -648 298 -648 753c0 447 254 736 648 736c303 0 536 -181 590 -457h-142c-59 206 -228 330 -448 330c-313 0 -508 -233 -508 -609c0 -381 199 -626 508 -626c279 0 463 178 463 450v51h-448v120
h584v-139z" />
    <glyph glyph-name="H" unicode="H" horiz-adv-x="1387" 
d="M1252 0h-137v677h-844v-677h-136v1443h136v-642h844v642h137v-1443z" />
    <glyph glyph-name="Hdieresis" unicode="&#x1e26;" horiz-adv-x="1387" 
d="M1252 0h-137v677h-844v-677h-136v1443h136v-642h844v642h137v-1443zM515 1576c-50 0 -93 42 -93 92c0 51 43 93 93 93c51 0 93 -42 93 -93c0 -50 -42 -92 -93 -92zM871 1576c-51 0 -93 42 -93 92c0 51 42 93 93 93s93 -42 93 -93c0 -50 -42 -92 -93 -92z" />
    <glyph glyph-name="Hcaron" unicode="&#x21e;" horiz-adv-x="1387" 
d="M1252 0h-137v677h-844v-677h-136v1443h136v-642h844v642h137v-1443zM638 1551l-283 295h131l206 -217h2l206 217h131l-283 -295h-110z" />
    <glyph glyph-name="Hcircumflex" unicode="&#x124;" horiz-adv-x="1387" 
d="M1252 0h-137v677h-844v-677h-136v1443h136v-642h844v642h137v-1443zM638 1846h110l283 -295h-131l-206 217h-2l-206 -217h-131z" />
    <glyph glyph-name="Hdotbelow" unicode="&#x1e24;" horiz-adv-x="1387" 
d="M1252 0h-137v677h-844v-677h-136v1443h136v-642h844v642h137v-1443zM693 -351c-56 0 -102 46 -102 102s46 102 102 102s102 -46 102 -102s-46 -102 -102 -102z" />
    <glyph glyph-name="Hdotaccent" unicode="&#x1e22;" horiz-adv-x="1387" 
d="M1252 0h-137v677h-844v-677h-136v1443h136v-642h844v642h137v-1443zM693 1575c-56 0 -102 46 -102 102s46 102 102 102s102 -46 102 -102s-46 -102 -102 -102z" />
    <glyph glyph-name="Hbrevebelow" unicode="&#x1e2a;" horiz-adv-x="1387" 
d="M401 -179h94c0 -106 83 -189 198 -189s198 83 198 189h94c0 -162 -120 -272 -292 -272s-292 110 -292 272zM1252 0h-137v677h-844v-677h-136v1443h136v-642h844v642h137v-1443z" />
    <glyph glyph-name="Hcedilla" unicode="&#x1e28;" horiz-adv-x="1387" 
d="M1115 1443h137v-1443h-137v677h-844v-677h-15l-54 -141c134 0 208 -54 208 -152c0 -101 -91 -173 -218 -174c-52 0 -100 5 -139 17v80c23 -9 78 -16 122 -16c84 0 137 35 137 90s-49 82 -155 82h-53v60l62 154h-31v1443h136v-642h844v642z" />
    <glyph glyph-name="Hbar" unicode="&#x126;" horiz-adv-x="1401" 
d="M1122 801v294h-844v-294h844zM1390 1206v-111h-131v-1095h-137v677h-844v-677h-136v1095h-131v111h131v237h136v-237h844v237h137v-237h131z" />
    <glyph glyph-name="I" unicode="I" horiz-adv-x="406" 
d="M271 0h-136v1443h136v-1443z" />
    <glyph glyph-name="Idotaccent" unicode="&#x130;" horiz-adv-x="406" 
d="M271 0h-136v1443h136v-1443zM203 1575c-56 0 -102 46 -102 102s46 102 102 102s102 -46 102 -102s-46 -102 -102 -102z" />
    <glyph glyph-name="Igrave" unicode="&#xcc;" horiz-adv-x="406" 
d="M271 0h-136v1443h136v-1443zM148 1551l-289 295h154l252 -295h-117z" />
    <glyph glyph-name="Idblgrave" unicode="&#x208;" horiz-adv-x="406" 
d="M271 0h-136v1443h136v-1443zM290 1551l-288 295h147l252 -295h-111zM-1 1551l-288 295h147l252 -295h-111z" />
    <glyph glyph-name="Iacute" unicode="&#xcd;" horiz-adv-x="406" 
d="M271 0h-136v1443h136v-1443zM260 1551h-117l252 295h154z" />
    <glyph glyph-name="Icircumflex" unicode="&#xce;" horiz-adv-x="406" 
d="M271 0h-136v1443h136v-1443zM148 1846h110l283 -295h-131l-206 217h-2l-206 -217h-131z" />
    <glyph glyph-name="Icaron" unicode="&#x1cf;" horiz-adv-x="406" 
d="M271 0h-136v1443h136v-1443zM148 1551l-283 295h131l206 -217h2l206 217h131l-283 -295h-110z" />
    <glyph glyph-name="Idieresis" unicode="&#xcf;" horiz-adv-x="406" 
d="M271 0h-136v1443h136v-1443zM25 1576c-50 0 -93 42 -93 92c0 51 43 93 93 93c51 0 93 -42 93 -93c0 -50 -42 -92 -93 -92zM381 1576c-51 0 -93 42 -93 92c0 51 42 93 93 93s93 -42 93 -93c0 -50 -42 -92 -93 -92z" />
    <glyph glyph-name="Idieresisacute" unicode="&#x1e2e;" horiz-adv-x="406" 
d="M271 0h-136v1443h136v-1443zM143 1818l195 203h145l-231 -203h-109zM33 1580c-47 0 -84 37 -84 84c0 45 37 83 84 83c45 0 83 -38 83 -83c0 -47 -38 -84 -83 -84zM373 1580c-45 0 -83 37 -83 84c0 45 38 83 83 83c47 0 84 -38 84 -83c0 -47 -37 -84 -84 -84z" />
    <glyph glyph-name="Ibreve" unicode="&#x12c;" horiz-adv-x="406" 
d="M271 0h-136v1443h136v-1443zM-89 1823h94c0 -106 83 -189 198 -189s198 83 198 189h94c0 -162 -120 -272 -292 -272s-292 110 -292 272z" />
    <glyph glyph-name="Idotbelow" unicode="&#x1eca;" horiz-adv-x="406" 
d="M271 0h-136v1443h136v-1443zM203 -351c-56 0 -102 46 -102 102s46 102 102 102s102 -46 102 -102s-46 -102 -102 -102z" />
    <glyph glyph-name="Iinvertedbreve" unicode="&#x20a;" horiz-adv-x="406" 
d="M271 0h-136v1443h136v-1443zM-89 1551c0 162 120 272 292 272s292 -110 292 -272h-94c0 107 -83 189 -198 189s-198 -82 -198 -189h-94z" />
    <glyph glyph-name="Imacron" unicode="&#x12a;" horiz-adv-x="406" 
d="M271 0h-136v1443h136v-1443zM508 1718v-85h-610v85h610z" />
    <glyph glyph-name="Itildebelow" unicode="&#x1e2c;" horiz-adv-x="406" 
d="M271 0h-136v1443h136v-1443zM334 -394c-130 0 -170 157 -258 157c-52 0 -78 -55 -78 -144h-91c0 144 59 234 166 234c136 0 177 -157 261 -157c50 0 73 53 73 144h91c0 -141 -61 -234 -164 -234z" />
    <glyph glyph-name="Ihookabove" unicode="&#x1ec8;" horiz-adv-x="406" 
d="M271 0h-136v1443h136v-1443zM51 1763v78c30 14 74 24 118 24c106 0 179 -58 179 -149c0 -74 -54 -139 -138 -170l-50 63c53 18 87 58 87 101s-39 75 -93 75c-36 0 -77 -8 -103 -22z" />
    <glyph glyph-name="Itilde" unicode="&#x128;" horiz-adv-x="406" 
d="M271 0h-136v1443h136v-1443zM334 1541c-130 0 -170 157 -258 157c-52 0 -78 -55 -78 -144h-91c0 144 59 234 166 234c136 0 177 -157 261 -157c50 0 73 53 73 144h91c0 -141 -61 -234 -164 -234z" />
    <glyph glyph-name="Iogonek" unicode="&#x12e;" horiz-adv-x="406" 
d="M135 6v1437h136v-1443l-5 -3c-100 -56 -153 -123 -153 -194c0 -63 51 -108 124 -108c27 0 53 3 67 7v-104c-26 -9 -58 -14 -93 -14c-132 0 -227 80 -227 192c0 92 55 176 151 230z" />
    <glyph glyph-name="J" unicode="J" horiz-adv-x="987" 
d="M42 331h135c6 -138 113 -234 262 -234c176 0 277 107 277 300v1046h136v-1048c0 -265 -154 -425 -413 -425c-231 0 -395 149 -397 361z" />
    <glyph glyph-name="Jcircumflex" unicode="&#x134;" horiz-adv-x="987" 
d="M42 331h135c6 -138 113 -234 262 -234c176 0 277 107 277 300v1046h136v-1048c0 -265 -154 -425 -413 -425c-231 0 -395 149 -397 361zM729 1846h110l283 -295h-131l-206 217h-2l-206 -217h-131z" />
    <glyph glyph-name="K" unicode="K" horiz-adv-x="1209" 
d="M271 0h-136v1443h136v-748h8l686 748h173l-593 -638l652 -805h-175l-573 708l-178 -193v-515z" />
    <glyph glyph-name="Kacute" unicode="&#x1e30;" horiz-adv-x="1209" 
d="M638 1551h-117l252 295h154zM271 0h-136v1443h136v-748h8l686 748h173l-593 -638l652 -805h-175l-573 708l-178 -193v-515z" />
    <glyph glyph-name="Kcaron" unicode="&#x1e8;" horiz-adv-x="1209" 
d="M271 0h-136v1443h136v-748h8l686 748h173l-593 -638l652 -805h-175l-573 708l-178 -193v-515zM526 1551l-283 295h131l206 -217h2l206 217h131l-283 -295h-110z" />
    <glyph glyph-name="Kdotbelow" unicode="&#x1e32;" horiz-adv-x="1209" 
d="M581 -351c-56 0 -102 46 -102 102s46 102 102 102s102 -46 102 -102s-46 -102 -102 -102zM271 0h-136v1443h136v-748h8l686 748h173l-593 -638l652 -805h-175l-573 708l-178 -193v-515z" />
    <glyph glyph-name="Klinebelow" unicode="&#x1e34;" horiz-adv-x="1209" 
d="M271 0h-136v1443h136v-748h8l686 748h173l-593 -638l652 -805h-175l-573 708l-178 -193v-515zM886 -214v-85h-610v85h610z" />
    <glyph glyph-name="Kcommaaccent" unicode="&#x136;" horiz-adv-x="1209" 
d="M271 0h-136v1443h136v-748h8l686 748h173l-593 -638l652 -805h-175l-573 708l-178 -193v-515zM548 -520h-100l95 358h121z" />
    <glyph glyph-name="L" unicode="L" horiz-adv-x="1052" 
d="M994 124v-124h-859v1443h136v-1319h723z" />
    <glyph glyph-name="Lacute" unicode="&#x139;" horiz-adv-x="1052" 
d="M260 1551h-117l252 295h154zM994 124v-124h-859v1443h136v-1319h723z" />
    <glyph glyph-name="Lcircumflexbelow" unicode="&#x1e3c;" horiz-adv-x="1052" 
d="M994 124v-124h-859v1443h136v-1319h723zM509 -158h110l283 -295h-131l-206 217h-2l-206 -217h-131z" />
    <glyph glyph-name="Ldotbelow" unicode="&#x1e36;" horiz-adv-x="1052" 
d="M564 -351c-56 0 -102 46 -102 102s46 102 102 102s102 -46 102 -102s-46 -102 -102 -102zM994 124v-124h-859v1443h136v-1319h723z" />
    <glyph glyph-name="Ldotbelowmacron" unicode="&#x1e38;" horiz-adv-x="1052" 
d="M564 -351c-56 0 -102 46 -102 102s46 102 102 102s102 -46 102 -102s-46 -102 -102 -102zM994 124v-124h-859v1443h136v-1319h723zM508 1718v-85h-610v85h610z" />
    <glyph glyph-name="Llinebelow" unicode="&#x1e3a;" horiz-adv-x="1052" 
d="M869 -214v-85h-610v85h610zM994 124v-124h-859v1443h136v-1319h723z" />
    <glyph glyph-name="Lcommaaccent" unicode="&#x13b;" horiz-adv-x="1052" 
d="M531 -520h-100l95 358h121zM994 124v-124h-859v1443h136v-1319h723z" />
    <glyph glyph-name="Lcaron" unicode="&#x13d;" horiz-adv-x="1052" 
d="M529 1443h129l-37 -444h-92v444zM994 124v-124h-859v1443h136v-1319h723z" />
    <glyph glyph-name="Lslash" unicode="&#x141;" horiz-adv-x="1061" 
d="M280 124h723v-124h-859v705l-124 -60v111l124 60v627h136v-560l360 175v-111l-360 -175v-648z" />
    <glyph glyph-name="M" unicode="M" horiz-adv-x="1660" 
d="M1525 1443v-1443h-128v1184h-6l-502 -1177h-119l-501 1177h-6v-1184h-128v1443h157l535 -1263h6l534 1263h158z" />
    <glyph glyph-name="Macute" unicode="&#x1e3e;" horiz-adv-x="1660" 
d="M1525 1443v-1443h-128v1184h-6l-502 -1177h-119l-501 1177h-6v-1184h-128v1443h157l535 -1263h6l534 1263h158zM887 1551h-117l252 295h154z" />
    <glyph glyph-name="Mdotaccent" unicode="&#x1e40;" horiz-adv-x="1660" 
d="M1525 1443v-1443h-128v1184h-6l-502 -1177h-119l-501 1177h-6v-1184h-128v1443h157l535 -1263h6l534 1263h158zM830 1575c-56 0 -102 46 -102 102s46 102 102 102s102 -46 102 -102s-46 -102 -102 -102z" />
    <glyph glyph-name="Mdotbelow" unicode="&#x1e42;" horiz-adv-x="1660" 
d="M1525 1443v-1443h-128v1184h-6l-502 -1177h-119l-501 1177h-6v-1184h-128v1443h157l535 -1263h6l534 1263h158zM830 -351c-56 0 -102 46 -102 102s46 102 102 102s102 -46 102 -102s-46 -102 -102 -102z" />
    <glyph glyph-name="N" unicode="N" horiz-adv-x="1393" 
d="M270 0h-135v1443h135l846 -1205h7v1205h135v-1443h-132l-849 1206h-7v-1206z" />
    <glyph glyph-name="Ngrave" unicode="&#x1f8;" horiz-adv-x="1393" 
d="M641 1551l-289 295h154l252 -295h-117zM270 0h-135v1443h135l846 -1205h7v1205h135v-1443h-132l-849 1206h-7v-1206z" />
    <glyph glyph-name="Nacute" unicode="&#x143;" horiz-adv-x="1393" 
d="M753 1551h-117l252 295h154zM270 0h-135v1443h135l846 -1205h7v1205h135v-1443h-132l-849 1206h-7v-1206z" />
    <glyph glyph-name="Ntilde" unicode="&#xd1;" horiz-adv-x="1393" 
d="M827 1541c-130 0 -170 157 -258 157c-52 0 -78 -55 -78 -144h-91c0 144 59 234 166 234c136 0 177 -157 261 -157c50 0 73 53 73 144h91c0 -141 -61 -234 -164 -234zM270 0h-135v1443h135l846 -1205h7v1205h135v-1443h-132l-849 1206h-7v-1206z" />
    <glyph glyph-name="Ndotbelow" unicode="&#x1e46;" horiz-adv-x="1393" 
d="M696 -351c-56 0 -102 46 -102 102s46 102 102 102s102 -46 102 -102s-46 -102 -102 -102zM270 0h-135v1443h135l846 -1205h7v1205h135v-1443h-132l-849 1206h-7v-1206z" />
    <glyph glyph-name="Ndotaccent" unicode="&#x1e44;" horiz-adv-x="1393" 
d="M696 1575c-56 0 -102 46 -102 102s46 102 102 102s102 -46 102 -102s-46 -102 -102 -102zM270 0h-135v1443h135l846 -1205h7v1205h135v-1443h-132l-849 1206h-7v-1206z" />
    <glyph glyph-name="Ncaron" unicode="&#x147;" horiz-adv-x="1393" 
d="M641 1551l-283 295h131l206 -217h2l206 217h131l-283 -295h-110zM270 0h-135v1443h135l846 -1205h7v1205h135v-1443h-132l-849 1206h-7v-1206z" />
    <glyph glyph-name="Ncircumflexbelow" unicode="&#x1e4a;" horiz-adv-x="1393" 
d="M270 0h-135v1443h135l846 -1205h7v1205h135v-1443h-132l-849 1206h-7v-1206zM641 -158h110l283 -295h-131l-206 217h-2l-206 -217h-131z" />
    <glyph glyph-name="Nlinebelow" unicode="&#x1e48;" horiz-adv-x="1393" 
d="M1001 -214v-85h-610v85h610zM270 0h-135v1443h135l846 -1205h7v1205h135v-1443h-132l-849 1206h-7v-1206z" />
    <glyph glyph-name="Ncommaaccent" unicode="&#x145;" horiz-adv-x="1393" 
d="M663 -520h-100l95 358h121zM270 0h-135v1443h135l846 -1205h7v1205h135v-1443h-132l-849 1206h-7v-1206z" />
    <glyph glyph-name="O" unicode="O" horiz-adv-x="1465" 
d="M732 1466c402 0 656 -288 656 -745s-253 -744 -656 -744c-402 0 -655 287 -655 744s253 745 655 745zM732 1339c-316 0 -515 -239 -515 -618c0 -378 199 -617 515 -617s516 239 516 617c0 379 -200 618 -516 618z" />
    <glyph glyph-name="Odieresis" unicode="&#xd6;" horiz-adv-x="1465" 
d="M554 1576c-50 0 -93 42 -93 92c0 51 43 93 93 93c51 0 93 -42 93 -93c0 -50 -42 -92 -93 -92zM910 1576c-51 0 -93 42 -93 92c0 51 42 93 93 93s93 -42 93 -93c0 -50 -42 -92 -93 -92zM732 1466c402 0 656 -288 656 -745s-253 -744 -656 -744c-402 0 -655 287 -655 744
s253 745 655 745zM732 1339c-316 0 -515 -239 -515 -618c0 -378 199 -617 515 -617s516 239 516 617c0 379 -200 618 -516 618z" />
    <glyph glyph-name="Oslash" unicode="&#xd8;" horiz-adv-x="1465" 
d="M1135 1137l-716 -929c83 -67 189 -104 313 -104c316 0 516 239 516 617c0 170 -40 311 -113 416zM350 278l723 933c-87 82 -203 128 -341 128c-316 0 -515 -239 -515 -618c0 -185 47 -336 133 -443zM1363 1432l-140 -182c106 -128 165 -309 165 -529
c0 -457 -253 -744 -656 -744c-157 0 -291 44 -396 124l-126 -164l-79 59l132 171c-119 129 -186 319 -186 554c0 457 253 745 655 745c171 0 315 -52 424 -147l130 167z" />
    <glyph glyph-name="Otilde" unicode="&#xd5;" horiz-adv-x="1465" 
d="M732 1466c402 0 656 -288 656 -745s-253 -744 -656 -744c-402 0 -655 287 -655 744s253 745 655 745zM732 1339c-316 0 -515 -239 -515 -618c0 -378 199 -617 515 -617s516 239 516 617c0 379 -200 618 -516 618zM863 1541c-130 0 -170 157 -258 157
c-52 0 -78 -55 -78 -144h-91c0 144 59 234 166 234c136 0 177 -157 261 -157c50 0 73 53 73 144h91c0 -141 -61 -234 -164 -234z" />
    <glyph glyph-name="Oacute" unicode="&#xd3;" horiz-adv-x="1465" 
d="M789 1551h-117l252 295h154zM732 1466c402 0 656 -288 656 -745s-253 -744 -656 -744c-402 0 -655 287 -655 744s253 745 655 745zM732 1339c-316 0 -515 -239 -515 -618c0 -378 199 -617 515 -617s516 239 516 617c0 379 -200 618 -516 618z" />
    <glyph glyph-name="Ocircumflex" unicode="&#xd4;" horiz-adv-x="1465" 
d="M677 1846h110l283 -295h-131l-206 217h-2l-206 -217h-131zM732 1466c402 0 656 -288 656 -745s-253 -744 -656 -744c-402 0 -655 287 -655 744s253 745 655 745zM732 1339c-316 0 -515 -239 -515 -618c0 -378 199 -617 515 -617s516 239 516 617c0 379 -200 618 -516 618
z" />
    <glyph glyph-name="Ograve" unicode="&#xd2;" horiz-adv-x="1465" 
d="M677 1551l-289 295h154l252 -295h-117zM732 1466c402 0 656 -288 656 -745s-253 -744 -656 -744c-402 0 -655 287 -655 744s253 745 655 745zM732 1339c-316 0 -515 -239 -515 -618c0 -378 199 -617 515 -617s516 239 516 617c0 379 -200 618 -516 618z" />
    <glyph glyph-name="Ocircumflexhookabove" unicode="&#x1ed4;" horiz-adv-x="1465" 
d="M674 1785h119l266 -217h-144l-176 145h-11l-176 -145h-144zM856 1927v71c26 14 66 23 102 23c93 0 158 -55 158 -137c0 -65 -41 -123 -106 -147l-60 51c46 18 76 52 76 91s-34 68 -82 68c-33 0 -68 -8 -88 -20zM732 1466c402 0 656 -288 656 -745s-253 -744 -656 -744
c-402 0 -655 287 -655 744s253 745 655 745zM732 1339c-316 0 -515 -239 -515 -618c0 -378 199 -617 515 -617s516 239 516 617c0 379 -200 618 -516 618z" />
    <glyph glyph-name="Ocircumflexgrave" unicode="&#x1ed2;" horiz-adv-x="1465" 
d="M673 1785h118l266 -217h-144l-176 145h-10l-176 -145h-144zM1055 1818h-109l-231 203h145zM732 1466c402 0 656 -288 656 -745s-253 -744 -656 -744c-402 0 -655 287 -655 744s253 745 655 745zM732 1339c-316 0 -515 -239 -515 -618c0 -378 199 -617 515 -617
s516 239 516 617c0 379 -200 618 -516 618z" />
    <glyph glyph-name="Odotbelow" unicode="&#x1ecc;" horiz-adv-x="1465" 
d="M732 -351c-56 0 -102 46 -102 102s46 102 102 102s102 -46 102 -102s-46 -102 -102 -102zM732 1466c402 0 656 -288 656 -745s-253 -744 -656 -744c-402 0 -655 287 -655 744s253 745 655 745zM732 1339c-316 0 -515 -239 -515 -618c0 -378 199 -617 515 -617
s516 239 516 617c0 379 -200 618 -516 618z" />
    <glyph glyph-name="Odblgrave" unicode="&#x20c;" horiz-adv-x="1465" 
d="M819 1551l-288 295h147l252 -295h-111zM528 1551l-288 295h147l252 -295h-111zM732 1466c402 0 656 -288 656 -745s-253 -744 -656 -744c-402 0 -655 287 -655 744s253 745 655 745zM732 1339c-316 0 -515 -239 -515 -618c0 -378 199 -617 515 -617s516 239 516 617
c0 379 -200 618 -516 618z" />
    <glyph glyph-name="Otildeacute" unicode="&#x1e4c;" horiz-adv-x="1465" 
d="M732 1466c402 0 656 -288 656 -745s-253 -744 -656 -744c-402 0 -655 287 -655 744s253 745 655 745zM732 1339c-316 0 -515 -239 -515 -618c0 -378 199 -617 515 -617s516 239 516 617c0 379 -200 618 -516 618zM856 1541c-127 0 -161 151 -245 151
c-51 0 -78 -52 -78 -135h-91c0 138 61 224 165 224c133 0 167 -151 249 -151c48 0 72 50 72 136h91c0 -135 -62 -225 -163 -225zM692 1830l176 191h146l-213 -191h-109z" />
    <glyph glyph-name="Omacronacute" unicode="&#x1e52;" horiz-adv-x="1465" 
d="M1037 1633h-610v85h610v-85zM672 1818l195 203h145l-231 -203h-109zM732 1466c402 0 656 -288 656 -745s-253 -744 -656 -744c-402 0 -655 287 -655 744s253 745 655 745zM732 1339c-316 0 -515 -239 -515 -618c0 -378 199 -617 515 -617s516 239 516 617
c0 379 -200 618 -516 618z" />
    <glyph glyph-name="Ocircumflextilde" unicode="&#x1ed6;" horiz-adv-x="1465" 
d="M852 1829c-133 0 -141 140 -232 140c-55 0 -78 -41 -81 -123h-88c0 125 63 203 169 203c136 0 151 -138 231 -138c53 0 77 43 80 122h87c0 -122 -64 -204 -166 -204zM673 1772h118l266 -204h-144l-176 133h-10l-176 -133h-144zM732 1466c402 0 656 -288 656 -745
s-253 -744 -656 -744c-402 0 -655 287 -655 744s253 745 655 745zM732 1339c-316 0 -515 -239 -515 -618c0 -378 199 -617 515 -617s516 239 516 617c0 379 -200 618 -516 618z" />
    <glyph glyph-name="Odotaccentmacron" unicode="&#x230;" horiz-adv-x="1465" 
d="M732 1568c-55 0 -99 44 -99 99c0 53 44 97 99 97s99 -44 99 -97c0 -55 -44 -99 -99 -99zM1037 1979v-84h-610v84h610zM732 1466c402 0 656 -288 656 -745s-253 -744 -656 -744c-402 0 -655 287 -655 744s253 745 655 745zM732 1339c-316 0 -515 -239 -515 -618
c0 -378 199 -617 515 -617s516 239 516 617c0 379 -200 618 -516 618z" />
    <glyph glyph-name="Omacrongrave" unicode="&#x1e50;" horiz-adv-x="1465" 
d="M427 1633v85h610v-85h-610zM792 1818h-109l-231 203h145zM732 1466c402 0 656 -288 656 -745s-253 -744 -656 -744c-402 0 -655 287 -655 744s253 745 655 745zM732 1339c-316 0 -515 -239 -515 -618c0 -378 199 -617 515 -617s516 239 516 617c0 379 -200 618 -516 618z
" />
    <glyph glyph-name="Ocaron" unicode="&#x1d1;" horiz-adv-x="1465" 
d="M677 1551l-283 295h131l206 -217h2l206 217h131l-283 -295h-110zM732 1466c402 0 656 -288 656 -745s-253 -744 -656 -744c-402 0 -655 287 -655 744s253 745 655 745zM732 1339c-316 0 -515 -239 -515 -618c0 -378 199 -617 515 -617s516 239 516 617
c0 379 -200 618 -516 618z" />
    <glyph glyph-name="Oslashacute" unicode="&#x1fe;" horiz-adv-x="1465" 
d="M1111 1846l-289 -295h-117l252 295h154zM1135 1137l-716 -929c83 -67 189 -104 313 -104c316 0 516 239 516 617c0 170 -40 311 -113 416zM350 278l723 933c-87 82 -203 128 -341 128c-316 0 -515 -239 -515 -618c0 -185 47 -336 133 -443zM1363 1432l-140 -182
c106 -128 165 -309 165 -529c0 -457 -253 -744 -656 -744c-157 0 -291 44 -396 124l-126 -164l-79 59l132 171c-119 129 -186 319 -186 554c0 457 253 745 655 745c171 0 315 -52 424 -147l130 167z" />
    <glyph glyph-name="Ohungarumlaut" unicode="&#x150;" horiz-adv-x="1465" 
d="M936 1551h-111l252 295h147zM645 1551h-111l252 295h147zM732 1466c402 0 656 -288 656 -745s-253 -744 -656 -744c-402 0 -655 287 -655 744s253 745 655 745zM732 1339c-316 0 -515 -239 -515 -618c0 -378 199 -617 515 -617s516 239 516 617c0 379 -200 618 -516 618z
" />
    <glyph glyph-name="Obreve" unicode="&#x14e;" horiz-adv-x="1465" 
d="M732 1466c402 0 656 -288 656 -745s-253 -744 -656 -744c-402 0 -655 287 -655 744s253 745 655 745zM732 1339c-316 0 -515 -239 -515 -618c0 -378 199 -617 515 -617s516 239 516 617c0 379 -200 618 -516 618zM440 1823h94c0 -106 83 -189 198 -189s198 83 198 189h94
c0 -162 -120 -272 -292 -272s-292 110 -292 272z" />
    <glyph glyph-name="Oinvertedbreve" unicode="&#x20e;" horiz-adv-x="1465" 
d="M440 1551c0 162 120 272 292 272s292 -110 292 -272h-94c0 107 -83 189 -198 189s-198 -82 -198 -189h-94zM732 1466c402 0 656 -288 656 -745s-253 -744 -656 -744c-402 0 -655 287 -655 744s253 745 655 745zM732 1339c-316 0 -515 -239 -515 -618
c0 -378 199 -617 515 -617s516 239 516 617c0 379 -200 618 -516 618z" />
    <glyph glyph-name="Ohookabove" unicode="&#x1ece;" horiz-adv-x="1465" 
d="M580 1763v78c30 14 74 24 118 24c106 0 179 -58 179 -149c0 -74 -54 -139 -138 -170l-50 63c53 18 87 58 87 101s-39 75 -93 75c-36 0 -77 -8 -103 -22zM732 1466c402 0 656 -288 656 -745s-253 -744 -656 -744c-402 0 -655 287 -655 744s253 745 655 745zM732 1339
c-316 0 -515 -239 -515 -618c0 -378 199 -617 515 -617s516 239 516 617c0 379 -200 618 -516 618z" />
    <glyph glyph-name="Odieresismacron" unicode="&#x22a;" horiz-adv-x="1465" 
d="M732 1466c402 0 656 -288 656 -745s-253 -744 -656 -744c-402 0 -655 287 -655 744s253 745 655 745zM732 1339c-316 0 -515 -239 -515 -618c0 -378 199 -617 515 -617s516 239 516 617c0 379 -200 618 -516 618zM562 1747c45 0 83 -38 83 -83c0 -47 -38 -84 -83 -84
c-47 0 -84 37 -84 84c0 45 37 83 84 83zM427 1979h610v-84h-610v84zM902 1747c47 0 84 -38 84 -83c0 -47 -37 -84 -84 -84c-45 0 -83 37 -83 84c0 45 38 83 83 83z" />
    <glyph glyph-name="Otildemacron" unicode="&#x22c;" horiz-adv-x="1465" 
d="M854 1541c-127 0 -160 151 -245 151c-51 0 -77 -52 -77 -135h-91c0 138 60 224 165 224c133 0 167 -151 248 -151c49 0 72 50 72 136h91c0 -135 -62 -225 -163 -225zM1037 1979v-84h-610v84h610zM732 1466c402 0 656 -288 656 -745s-253 -744 -656 -744
c-402 0 -655 287 -655 744s253 745 655 745zM732 1339c-316 0 -515 -239 -515 -618c0 -378 199 -617 515 -617s516 239 516 617c0 379 -200 618 -516 618z" />
    <glyph glyph-name="Odotaccent" unicode="&#x22e;" horiz-adv-x="1465" 
d="M732 1575c-56 0 -102 46 -102 102s46 102 102 102s102 -46 102 -102s-46 -102 -102 -102zM732 1466c402 0 656 -288 656 -745s-253 -744 -656 -744c-402 0 -655 287 -655 744s253 745 655 745zM732 1339c-316 0 -515 -239 -515 -618c0 -378 199 -617 515 -617
s516 239 516 617c0 379 -200 618 -516 618z" />
    <glyph glyph-name="Ocircumflexdotbelow" unicode="&#x1ed8;" horiz-adv-x="1465" 
d="M732 -351c-56 0 -102 46 -102 102s46 102 102 102s102 -46 102 -102s-46 -102 -102 -102zM677 1846h110l283 -295h-131l-206 217h-2l-206 -217h-131zM732 1466c402 0 656 -288 656 -745s-253 -744 -656 -744c-402 0 -655 287 -655 744s253 745 655 745zM732 1339
c-316 0 -515 -239 -515 -618c0 -378 199 -617 515 -617s516 239 516 617c0 379 -200 618 -516 618z" />
    <glyph glyph-name="Ocircumflexacute" unicode="&#x1ed0;" horiz-adv-x="1465" 
d="M675 1785h119l265 -217h-144l-175 145h-11l-176 -145h-144zM877 1818l194 203h146l-231 -203h-109zM732 1466c402 0 656 -288 656 -745s-253 -744 -656 -744c-402 0 -655 287 -655 744s253 745 655 745zM732 1339c-316 0 -515 -239 -515 -618c0 -378 199 -617 515 -617
s516 239 516 617c0 379 -200 618 -516 618z" />
    <glyph glyph-name="Otildedieresis" unicode="&#x1e4e;" horiz-adv-x="1465" 
d="M857 1541c-127 0 -160 151 -245 151c-51 0 -77 -52 -77 -135h-91c0 138 60 224 164 224c134 0 167 -151 249 -151c49 0 72 50 72 136h91c0 -135 -62 -225 -163 -225zM562 2046c45 0 83 -38 83 -83c0 -46 -38 -84 -83 -84c-47 0 -84 38 -84 84c0 45 37 83 84 83zM902 2046
c47 0 84 -38 84 -83c0 -46 -37 -84 -84 -84c-45 0 -83 38 -83 84c0 45 38 83 83 83zM732 1466c402 0 656 -288 656 -745s-253 -744 -656 -744c-402 0 -655 287 -655 744s253 745 655 745zM732 1339c-316 0 -515 -239 -515 -618c0 -378 199 -617 515 -617s516 239 516 617
c0 379 -200 618 -516 618z" />
    <glyph glyph-name="Omacron" unicode="&#x14c;" horiz-adv-x="1465" 
d="M732 1466c402 0 656 -288 656 -745s-253 -744 -656 -744c-402 0 -655 287 -655 744s253 745 655 745zM732 1339c-316 0 -515 -239 -515 -618c0 -378 199 -617 515 -617s516 239 516 617c0 379 -200 618 -516 618zM1037 1718v-85h-610v85h610z" />
    <glyph glyph-name="Oogonek" unicode="&#x1ea;" horiz-adv-x="1465" 
d="M992 -416c-133 0 -227 80 -227 192c0 83 45 156 138 225v4c-49 -18 -108 -28 -171 -28c-402 0 -655 287 -655 744s253 745 655 745s656 -288 656 -745c0 -295 -104 -512 -327 -686c-119 -88 -167 -156 -167 -232c0 -63 51 -108 124 -108c28 0 54 3 67 7v-104
c-25 -9 -58 -14 -93 -14zM732 1339c-316 0 -515 -239 -515 -618c0 -378 199 -617 515 -617s516 239 516 617c0 379 -200 618 -516 618z" />
    <glyph glyph-name="Oogonekmacron" unicode="&#x1ec;" horiz-adv-x="1464" 
d="M992 -416c-133 0 -227 80 -227 192c0 83 45 156 138 225v4c-49 -18 -108 -28 -171 -28c-402 0 -655 287 -655 744s253 745 655 745s656 -288 656 -745c0 -295 -104 -512 -327 -686c-119 -88 -167 -156 -167 -232c0 -63 51 -108 124 -108c28 0 54 3 67 7v-104
c-25 -9 -58 -14 -93 -14zM732 1339c-316 0 -515 -239 -515 -618c0 -378 199 -617 515 -617s516 239 516 617c0 379 -200 618 -516 618zM1037 1718v-85h-610v85h610z" />
    <glyph glyph-name="Ohorn" unicode="&#x1a0;" horiz-adv-x="1465" 
d="M732 -23c-402 0 -655 287 -655 744s253 745 655 745c143 0 241 -34 404 -34c106 0 140 26 140 107v129h122v-168c0 -108 -72 -170 -202 -170h-72v-5c159 -97 264 -340 264 -604c0 -457 -253 -744 -656 -744zM732 104c316 0 516 239 516 617c0 380 -200 618 -516 618
s-515 -239 -515 -618c0 -378 199 -617 515 -617z" />
    <glyph glyph-name="Ohorndotbelow" unicode="&#x1ee2;" horiz-adv-x="1465" 
d="M732 -351c-56 0 -102 46 -102 102s46 102 102 102s102 -46 102 -102s-46 -102 -102 -102zM732 -23c-402 0 -655 287 -655 744s253 745 655 745c143 0 241 -34 404 -34c106 0 140 26 140 107v129h122v-168c0 -108 -72 -170 -202 -170h-72v-5c159 -97 264 -340 264 -604
c0 -457 -253 -744 -656 -744zM732 104c316 0 516 239 516 617c0 380 -200 618 -516 618s-515 -239 -515 -618c0 -378 199 -617 515 -617z" />
    <glyph glyph-name="Ohornhookabove" unicode="&#x1ede;" horiz-adv-x="1465" 
d="M580 1763v78c30 14 74 24 118 24c106 0 179 -58 179 -149c0 -74 -54 -139 -138 -170l-50 63c53 18 87 58 87 101s-39 75 -93 75c-36 0 -77 -8 -103 -22zM732 -23c-402 0 -655 287 -655 744s253 745 655 745c143 0 241 -34 404 -34c106 0 140 26 140 107v129h122v-168
c0 -108 -72 -170 -202 -170h-72v-5c159 -97 264 -340 264 -604c0 -457 -253 -744 -656 -744zM732 104c316 0 516 239 516 617c0 380 -200 618 -516 618s-515 -239 -515 -618c0 -378 199 -617 515 -617z" />
    <glyph glyph-name="Ohorntilde" unicode="&#x1ee0;" horiz-adv-x="1465" 
d="M732 -23c-402 0 -655 287 -655 744s253 745 655 745c143 0 241 -34 404 -34c106 0 140 26 140 107v129h122v-168c0 -108 -72 -170 -202 -170h-72v-5c159 -97 264 -340 264 -604c0 -457 -253 -744 -656 -744zM732 104c316 0 516 239 516 617c0 380 -200 618 -516 618
s-515 -239 -515 -618c0 -378 199 -617 515 -617zM863 1541c-130 0 -170 157 -258 157c-52 0 -78 -55 -78 -144h-91c0 144 59 234 166 234c136 0 177 -157 261 -157c50 0 73 53 73 144h91c0 -141 -61 -234 -164 -234z" />
    <glyph glyph-name="Ohorngrave" unicode="&#x1edc;" horiz-adv-x="1465" 
d="M677 1551l-289 295h154l252 -295h-117zM732 -23c-402 0 -655 287 -655 744s253 745 655 745c143 0 241 -34 404 -34c106 0 140 26 140 107v129h122v-168c0 -108 -72 -170 -202 -170h-72v-5c159 -97 264 -340 264 -604c0 -457 -253 -744 -656 -744zM732 104
c316 0 516 239 516 617c0 380 -200 618 -516 618s-515 -239 -515 -618c0 -378 199 -617 515 -617z" />
    <glyph glyph-name="Ohornacute" unicode="&#x1eda;" horiz-adv-x="1465" 
d="M789 1551h-117l252 295h154zM732 -23c-402 0 -655 287 -655 744s253 745 655 745c143 0 241 -34 404 -34c106 0 140 26 140 107v129h122v-168c0 -108 -72 -170 -202 -170h-72v-5c159 -97 264 -340 264 -604c0 -457 -253 -744 -656 -744zM732 104c316 0 516 239 516 617
c0 380 -200 618 -516 618s-515 -239 -515 -618c0 -378 199 -617 515 -617z" />
    <glyph glyph-name="P" unicode="P" horiz-adv-x="1171" 
d="M135 1443h512c275 0 463 -181 463 -449s-189 -450 -464 -450h-375v-544h-136v1443zM271 1321v-655h344c222 0 355 123 355 328s-132 327 -355 327h-344z" />
    <glyph glyph-name="Pdotaccent" unicode="&#x1e56;" horiz-adv-x="1171" 
d="M135 1443h512c275 0 463 -181 463 -449s-189 -450 -464 -450h-375v-544h-136v1443zM271 1321v-655h344c222 0 355 123 355 328s-132 327 -355 327h-344zM500 1575c-56 0 -102 46 -102 102s46 102 102 102s102 -46 102 -102s-46 -102 -102 -102z" />
    <glyph glyph-name="Pacute" unicode="&#x1e54;" horiz-adv-x="1171" 
d="M557 1551h-117l252 295h154zM135 1443h512c275 0 463 -181 463 -449s-189 -450 -464 -450h-375v-544h-136v1443zM271 1321v-655h344c222 0 355 123 355 328s-132 327 -355 327h-344z" />
    <glyph glyph-name="Q" unicode="Q" horiz-adv-x="1465" 
d="M1300 -169h-154l-145 198c-80 -34 -169 -52 -269 -52c-403 0 -655 287 -655 744s253 745 655 745s656 -288 656 -745c0 -286 -100 -507 -276 -632zM732 104c69 0 133 12 190 34l-187 257h154l143 -196c138 103 215 287 215 522c0 379 -199 618 -515 618
s-515 -239 -515 -618c0 -378 200 -617 515 -617z" />
    <glyph glyph-name="R" unicode="R" horiz-adv-x="1199" 
d="M271 1321v-609h369c209 0 332 112 332 305c0 191 -127 304 -337 304h-364zM271 591v-591h-136v1443h516c282 0 462 -165 462 -422c0 -204 -116 -358 -309 -408l349 -613h-159l-332 591h-22h-369z" />
    <glyph glyph-name="Rcaron" unicode="&#x158;" horiz-adv-x="1199" 
d="M271 1321v-609h369c209 0 332 112 332 305c0 191 -127 304 -337 304h-364zM271 591v-591h-136v1443h516c282 0 462 -165 462 -422c0 -204 -116 -358 -309 -408l349 -613h-159l-332 591h-22h-369zM463 1551l-283 295h131l206 -217h2l206 217h131l-283 -295h-110z" />
    <glyph glyph-name="Rlinebelow" unicode="&#x1e5e;" horiz-adv-x="1199" 
d="M271 1321v-609h369c209 0 332 112 332 305c0 191 -127 304 -337 304h-364zM271 591v-591h-136v1443h516c282 0 462 -165 462 -422c0 -204 -116 -358 -309 -408l349 -613h-159l-332 591h-22h-369zM823 -214v-85h-610v85h610z" />
    <glyph glyph-name="Rdotbelowmacron" unicode="&#x1e5c;" horiz-adv-x="1199" 
d="M518 -351c-56 0 -102 46 -102 102s46 102 102 102s102 -46 102 -102s-46 -102 -102 -102zM271 1321v-609h369c209 0 332 112 332 305c0 191 -127 304 -337 304h-364zM271 591v-591h-136v1443h516c282 0 462 -165 462 -422c0 -204 -116 -358 -309 -408l349 -613h-159
l-332 591h-22h-369zM823 1718v-85h-610v85h610z" />
    <glyph glyph-name="Rdblgrave" unicode="&#x210;" horiz-adv-x="1199" 
d="M605 1551l-288 295h147l252 -295h-111zM314 1551l-288 295h147l252 -295h-111zM271 1321v-609h369c209 0 332 112 332 305c0 191 -127 304 -337 304h-364zM271 591v-591h-136v1443h516c282 0 462 -165 462 -422c0 -204 -116 -358 -309 -408l349 -613h-159l-332 591h-22
h-369z" />
    <glyph glyph-name="Rinvertedbreve" unicode="&#x212;" horiz-adv-x="1199" 
d="M271 1321v-609h369c209 0 332 112 332 305c0 191 -127 304 -337 304h-364zM271 591v-591h-136v1443h516c282 0 462 -165 462 -422c0 -204 -116 -358 -309 -408l349 -613h-159l-332 591h-22h-369zM226 1551c0 162 120 272 292 272s292 -110 292 -272h-94
c0 107 -83 189 -198 189s-198 -82 -198 -189h-94z" />
    <glyph glyph-name="Racute" unicode="&#x154;" horiz-adv-x="1199" 
d="M575 1551h-117l252 295h154zM271 1321v-609h369c209 0 332 112 332 305c0 191 -127 304 -337 304h-364zM271 591v-591h-136v1443h516c282 0 462 -165 462 -422c0 -204 -116 -358 -309 -408l349 -613h-159l-332 591h-22h-369z" />
    <glyph glyph-name="Rdotbelow" unicode="&#x1e5a;" horiz-adv-x="1199" 
d="M518 -351c-56 0 -102 46 -102 102s46 102 102 102s102 -46 102 -102s-46 -102 -102 -102zM271 1321v-609h369c209 0 332 112 332 305c0 191 -127 304 -337 304h-364zM271 591v-591h-136v1443h516c282 0 462 -165 462 -422c0 -204 -116 -358 -309 -408l349 -613h-159
l-332 591h-22h-369z" />
    <glyph glyph-name="Rdotaccent" unicode="&#x1e58;" horiz-adv-x="1199" 
d="M518 1575c-56 0 -102 46 -102 102s46 102 102 102s102 -46 102 -102s-46 -102 -102 -102zM271 1321v-609h369c209 0 332 112 332 305c0 191 -127 304 -337 304h-364zM271 591v-591h-136v1443h516c282 0 462 -165 462 -422c0 -204 -116 -358 -309 -408l349 -613h-159
l-332 591h-22h-369z" />
    <glyph glyph-name="Rcommaaccent" unicode="&#x156;" horiz-adv-x="1199" 
d="M271 1321v-609h369c209 0 332 112 332 305c0 191 -127 304 -337 304h-364zM271 591v-591h-136v1443h516c282 0 462 -165 462 -422c0 -204 -116 -358 -309 -408l349 -613h-159l-332 591h-22h-369zM485 -520h-100l95 358h121z" />
    <glyph glyph-name="S" unicode="S" horiz-adv-x="1182" 
d="M65 392h137c15 -173 178 -291 404 -291c216 0 371 118 371 280c0 135 -93 215 -307 269l-179 46c-267 68 -386 181 -386 371c0 233 210 399 494 399c281 0 487 -166 495 -395h-137c-13 163 -157 271 -362 271c-200 0 -348 -111 -348 -270c0 -124 90 -197 302 -251
l156 -40c290 -73 412 -184 412 -385c0 -253 -204 -419 -523 -419c-302 0 -514 167 -529 415z" />
    <glyph glyph-name="Scaron" unicode="&#x160;" horiz-adv-x="1182" 
d="M65 392h137c15 -173 178 -291 404 -291c216 0 371 118 371 280c0 135 -93 215 -307 269l-179 46c-267 68 -386 181 -386 371c0 233 210 399 494 399c281 0 487 -166 495 -395h-137c-13 163 -157 271 -362 271c-200 0 -348 -111 -348 -270c0 -124 90 -197 302 -251
l156 -40c290 -73 412 -184 412 -385c0 -253 -204 -419 -523 -419c-302 0 -514 167 -529 415zM544 1551l-283 295h131l206 -217h2l206 217h131l-283 -295h-110z" />
    <glyph glyph-name="Scedilla" unicode="&#x15e;" horiz-adv-x="1182" 
d="M549 821l156 -40c290 -73 412 -184 412 -385c0 -241 -185 -403 -478 -418l-46 -119c134 0 208 -54 208 -152c0 -101 -91 -173 -218 -174c-52 0 -100 5 -139 17v80c23 -9 78 -16 122 -16c84 0 137 35 137 90s-49 82 -155 82h-53v60l53 132c-277 16 -469 179 -483 414h137
c15 -173 178 -291 404 -291c216 0 371 118 371 280c0 135 -93 215 -307 269l-179 46c-267 68 -386 181 -386 371c0 233 210 399 494 399c281 0 487 -166 495 -395h-137c-13 163 -157 271 -362 271c-200 0 -348 -111 -348 -270c0 -124 90 -197 302 -251z" />
    <glyph glyph-name="Sdotaccent" unicode="&#x1e60;" horiz-adv-x="1182" 
d="M599 1575c-56 0 -102 46 -102 102s46 102 102 102s102 -46 102 -102s-46 -102 -102 -102zM65 392h137c15 -173 178 -291 404 -291c216 0 371 118 371 280c0 135 -93 215 -307 269l-179 46c-267 68 -386 181 -386 371c0 233 210 399 494 399c281 0 487 -166 495 -395h-137
c-13 163 -157 271 -362 271c-200 0 -348 -111 -348 -270c0 -124 90 -197 302 -251l156 -40c290 -73 412 -184 412 -385c0 -253 -204 -419 -523 -419c-302 0 -514 167 -529 415z" />
    <glyph glyph-name="Sdotbelow" unicode="&#x1e62;" horiz-adv-x="1182" 
d="M594 -351c-56 0 -102 46 -102 102s46 102 102 102s102 -46 102 -102s-46 -102 -102 -102zM65 392h137c15 -173 178 -291 404 -291c216 0 371 118 371 280c0 135 -93 215 -307 269l-179 46c-267 68 -386 181 -386 371c0 233 210 399 494 399c281 0 487 -166 495 -395h-137
c-13 163 -157 271 -362 271c-200 0 -348 -111 -348 -270c0 -124 90 -197 302 -251l156 -40c290 -73 412 -184 412 -385c0 -253 -204 -419 -523 -419c-302 0 -514 167 -529 415z" />
    <glyph glyph-name="Scommaaccent" unicode="&#x218;" horiz-adv-x="1182" 
d="M65 392h137c15 -173 178 -291 404 -291c216 0 371 118 371 280c0 135 -93 215 -307 269l-179 46c-267 68 -386 181 -386 371c0 233 210 399 494 399c281 0 487 -166 495 -395h-137c-13 163 -157 271 -362 271c-200 0 -348 -111 -348 -270c0 -124 90 -197 302 -251
l156 -40c290 -73 412 -184 412 -385c0 -253 -204 -419 -523 -419c-302 0 -514 167 -529 415zM561 -520h-100l95 358h121z" />
    <glyph glyph-name="Sdotbelowdotaccent" unicode="&#x1e68;" horiz-adv-x="1182" 
d="M594 -351c-56 0 -102 46 -102 102s46 102 102 102s102 -46 102 -102s-46 -102 -102 -102zM65 392h137c15 -173 178 -291 404 -291c216 0 371 118 371 280c0 135 -93 215 -307 269l-179 46c-267 68 -386 181 -386 371c0 233 210 399 494 399c281 0 487 -166 495 -395h-137
c-13 163 -157 271 -362 271c-200 0 -348 -111 -348 -270c0 -124 90 -197 302 -251l156 -40c290 -73 412 -184 412 -385c0 -253 -204 -419 -523 -419c-302 0 -514 167 -529 415zM599 1575c-56 0 -102 46 -102 102s46 102 102 102s102 -46 102 -102s-46 -102 -102 -102z" />
    <glyph glyph-name="Scarondotaccent" unicode="&#x1e66;" horiz-adv-x="1182" 
d="M540 1568l-266 217h144l176 -145h10l176 145h144l-266 -217h-118zM599 1833c-52 0 -94 43 -94 95s42 93 94 93s94 -41 94 -93s-42 -95 -94 -95zM65 392h137c15 -173 178 -291 404 -291c216 0 371 118 371 280c0 135 -93 215 -307 269l-179 46c-267 68 -386 181 -386 371
c0 233 210 399 494 399c281 0 487 -166 495 -395h-137c-13 163 -157 271 -362 271c-200 0 -348 -111 -348 -270c0 -124 90 -197 302 -251l156 -40c290 -73 412 -184 412 -385c0 -253 -204 -419 -523 -419c-302 0 -514 167 -529 415z" />
    <glyph glyph-name="Scircumflex" unicode="&#x15c;" horiz-adv-x="1182" 
d="M65 392h137c15 -173 178 -291 404 -291c216 0 371 118 371 280c0 135 -93 215 -307 269l-179 46c-267 68 -386 181 -386 371c0 233 210 399 494 399c281 0 487 -166 495 -395h-137c-13 163 -157 271 -362 271c-200 0 -348 -111 -348 -270c0 -124 90 -197 302 -251
l156 -40c290 -73 412 -184 412 -385c0 -253 -204 -419 -523 -419c-302 0 -514 167 -529 415zM544 1846h110l283 -295h-131l-206 217h-2l-206 -217h-131z" />
    <glyph glyph-name="Sacutedotaccent" unicode="&#x1e64;" horiz-adv-x="1182" 
d="M735 1551h-117l252 295h154zM440 1609c-56 0 -102 46 -102 102s46 102 102 102s102 -46 102 -102s-46 -102 -102 -102zM65 392h137c15 -173 178 -291 404 -291c216 0 371 118 371 280c0 135 -93 215 -307 269l-179 46c-267 68 -386 181 -386 371c0 233 210 399 494 399
c281 0 487 -166 495 -395h-137c-13 163 -157 271 -362 271c-200 0 -348 -111 -348 -270c0 -124 90 -197 302 -251l156 -40c290 -73 412 -184 412 -385c0 -253 -204 -419 -523 -419c-302 0 -514 167 -529 415z" />
    <glyph glyph-name="Sacute" unicode="&#x15a;" horiz-adv-x="1182" 
d="M656 1551h-117l252 295h154zM65 392h137c15 -173 178 -291 404 -291c216 0 371 118 371 280c0 135 -93 215 -307 269l-179 46c-267 68 -386 181 -386 371c0 233 210 399 494 399c281 0 487 -166 495 -395h-137c-13 163 -157 271 -362 271c-200 0 -348 -111 -348 -270
c0 -124 90 -197 302 -251l156 -40c290 -73 412 -184 412 -385c0 -253 -204 -419 -523 -419c-302 0 -514 167 -529 415z" />
    <glyph glyph-name="T" unicode="T" horiz-adv-x="1179" 
d="M658 0h-137v1319h-483v124h1103v-124h-483v-1319z" />
    <glyph glyph-name="Tcircumflexbelow" unicode="&#x1e70;" horiz-adv-x="1179" 
d="M658 0h-137v1319h-483v124h1103v-124h-483v-1319zM535 -158h110l283 -295h-131l-206 217h-2l-206 -217h-131z" />
    <glyph glyph-name="Tdotbelow" unicode="&#x1e6c;" horiz-adv-x="1179" 
d="M590 -351c-56 0 -102 46 -102 102s46 102 102 102s102 -46 102 -102s-46 -102 -102 -102zM658 0h-137v1319h-483v124h1103v-124h-483v-1319z" />
    <glyph glyph-name="Tcommaaccent" unicode="&#x21a;" horiz-adv-x="1179" 
d="M557 -520h-100l95 358h121zM658 0h-137v1319h-483v124h1103v-124h-483v-1319z" />
    <glyph glyph-name="Tdotaccent" unicode="&#x1e6a;" horiz-adv-x="1179" 
d="M590 1575c-56 0 -102 46 -102 102s46 102 102 102s102 -46 102 -102s-46 -102 -102 -102zM658 0h-137v1319h-483v124h1103v-124h-483v-1319z" />
    <glyph glyph-name="Tcedilla" unicode="&#x162;" horiz-adv-x="1179" 
d="M658 0h-15l-54 -141c134 0 208 -54 208 -152c0 -101 -91 -173 -218 -174c-52 0 -100 5 -139 17v80c23 -9 78 -16 122 -16c84 0 137 35 137 90s-49 82 -155 82h-53v60l62 154h-32v1319h-483v124h1103v-124h-483v-1319z" />
    <glyph glyph-name="Tlinebelow" unicode="&#x1e6e;" horiz-adv-x="1179" 
d="M895 -214v-85h-610v85h610zM658 0h-137v1319h-483v124h1103v-124h-483v-1319z" />
    <glyph glyph-name="Tcaron" unicode="&#x164;" horiz-adv-x="1179" 
d="M535 1551l-283 295h131l206 -217h2l206 217h131l-283 -295h-110zM658 0h-137v1319h-483v124h1103v-124h-483v-1319z" />
    <glyph glyph-name="Tbar" unicode="&#x166;" horiz-adv-x="1207" 
d="M1141 1319h-483v-531h317v-110h-317v-678h-137v678h-289v110h289v531h-483v124h1103v-124z" />
    <glyph glyph-name="U" unicode="U" horiz-adv-x="1386" 
d="M271 1443v-931c0 -242 158 -408 422 -408c265 0 422 166 422 408v931h137v-939c0 -311 -212 -527 -559 -527s-558 216 -558 527v939h136z" />
    <glyph glyph-name="Ugrave" unicode="&#xd9;" horiz-adv-x="1386" 
d="M638 1551l-289 295h154l252 -295h-117zM271 1443v-931c0 -242 158 -408 422 -408c265 0 422 166 422 408v931h137v-939c0 -311 -212 -527 -559 -527s-558 216 -558 527v939h136z" />
    <glyph glyph-name="Udblgrave" unicode="&#x214;" horiz-adv-x="1386" 
d="M780 1551l-288 295h147l252 -295h-111zM489 1551l-288 295h147l252 -295h-111zM271 1443v-931c0 -242 158 -408 422 -408c265 0 422 166 422 408v931h137v-939c0 -311 -212 -527 -559 -527s-558 216 -558 527v939h136z" />
    <glyph glyph-name="Uacute" unicode="&#xda;" horiz-adv-x="1386" 
d="M750 1551h-117l252 295h154zM271 1443v-931c0 -242 158 -408 422 -408c265 0 422 166 422 408v931h137v-939c0 -311 -212 -527 -559 -527s-558 216 -558 527v939h136z" />
    <glyph glyph-name="Uhungarumlaut" unicode="&#x170;" horiz-adv-x="1386" 
d="M271 1443v-931c0 -242 158 -408 422 -408c265 0 422 166 422 408v931h137v-939c0 -311 -212 -527 -559 -527s-558 216 -558 527v939h136zM897 1551h-111l252 295h147zM606 1551h-111l252 295h147z" />
    <glyph glyph-name="Ucircumflex" unicode="&#xdb;" horiz-adv-x="1386" 
d="M638 1846h110l283 -295h-131l-206 217h-2l-206 -217h-131zM271 1443v-931c0 -242 158 -408 422 -408c265 0 422 166 422 408v931h137v-939c0 -311 -212 -527 -559 -527s-558 216 -558 527v939h136z" />
    <glyph glyph-name="Ucaron" unicode="&#x1d3;" horiz-adv-x="1386" 
d="M638 1551l-283 295h131l206 -217h2l206 217h131l-283 -295h-110zM271 1443v-931c0 -242 158 -408 422 -408c265 0 422 166 422 408v931h137v-939c0 -311 -212 -527 -559 -527s-558 216 -558 527v939h136z" />
    <glyph glyph-name="Ucircumflexbelow" unicode="&#x1e76;" horiz-adv-x="1386" 
d="M271 1443v-931c0 -242 158 -408 422 -408c265 0 422 166 422 408v931h137v-939c0 -311 -212 -527 -559 -527s-558 216 -558 527v939h136zM638 -158h110l283 -295h-131l-206 217h-2l-206 -217h-131z" />
    <glyph glyph-name="Udieresis" unicode="&#xdc;" horiz-adv-x="1386" 
d="M515 1576c-50 0 -93 42 -93 92c0 51 43 93 93 93c51 0 93 -42 93 -93c0 -50 -42 -92 -93 -92zM871 1576c-51 0 -93 42 -93 92c0 51 42 93 93 93s93 -42 93 -93c0 -50 -42 -92 -93 -92zM271 1443v-931c0 -242 158 -408 422 -408c265 0 422 166 422 408v931h137v-939
c0 -311 -212 -527 -559 -527s-558 216 -558 527v939h136z" />
    <glyph glyph-name="Udieresisgrave" unicode="&#x1db;" horiz-adv-x="1386" 
d="M753 1818h-109l-231 203h145zM523 1580c-47 0 -84 37 -84 84c0 45 37 83 84 83c45 0 83 -38 83 -83c0 -47 -38 -84 -83 -84zM863 1580c-45 0 -83 37 -83 84c0 45 38 83 83 83c47 0 84 -38 84 -83c0 -47 -37 -84 -84 -84zM271 1443v-931c0 -242 158 -408 422 -408
c265 0 422 166 422 408v931h137v-939c0 -311 -212 -527 -559 -527s-558 216 -558 527v939h136z" />
    <glyph glyph-name="Udieresisacute" unicode="&#x1d7;" horiz-adv-x="1386" 
d="M633 1818l195 203h145l-231 -203h-109zM523 1580c-47 0 -84 37 -84 84c0 45 37 83 84 83c45 0 83 -38 83 -83c0 -47 -38 -84 -83 -84zM863 1580c-45 0 -83 37 -83 84c0 45 38 83 83 83c47 0 84 -38 84 -83c0 -47 -37 -84 -84 -84zM271 1443v-931
c0 -242 158 -408 422 -408c265 0 422 166 422 408v931h137v-939c0 -311 -212 -527 -559 -527s-558 216 -558 527v939h136z" />
    <glyph glyph-name="Udieresismacron" unicode="&#x1d5;" horiz-adv-x="1386" 
d="M271 1443v-931c0 -242 158 -408 422 -408c265 0 422 166 422 408v931h137v-939c0 -311 -212 -527 -559 -527s-558 216 -558 527v939h136zM523 1747c45 0 83 -38 83 -83c0 -47 -38 -84 -83 -84c-47 0 -84 37 -84 84c0 45 37 83 84 83zM388 1979h610v-84h-610v84zM863 1747
c47 0 84 -38 84 -83c0 -47 -37 -84 -84 -84c-45 0 -83 37 -83 84c0 45 38 83 83 83z" />
    <glyph glyph-name="Udieresiscaron" unicode="&#x1d9;" horiz-adv-x="1386" 
d="M634 1818l-266 203h144l176 -135h10l176 135h144l-266 -203h-118zM523 1747c45 0 83 -38 83 -83c0 -47 -38 -84 -83 -84c-47 0 -84 37 -84 84c0 45 37 83 84 83zM863 1747c47 0 84 -38 84 -83c0 -47 -37 -84 -84 -84c-45 0 -83 37 -83 84c0 45 38 83 83 83zM271 1443
v-931c0 -242 158 -408 422 -408c265 0 422 166 422 408v931h137v-939c0 -311 -212 -527 -559 -527s-558 216 -558 527v939h136z" />
    <glyph glyph-name="Udieresisbelow" unicode="&#x1e72;" horiz-adv-x="1386" 
d="M271 1443v-931c0 -242 158 -408 422 -408c265 0 422 166 422 408v931h137v-939c0 -311 -212 -527 -559 -527s-558 216 -558 527v939h136zM515 -339c-50 0 -93 42 -93 92c0 51 43 93 93 93c51 0 93 -42 93 -93c0 -50 -42 -92 -93 -92zM871 -339c-51 0 -93 42 -93 92
c0 51 42 93 93 93s93 -42 93 -93c0 -50 -42 -92 -93 -92z" />
    <glyph glyph-name="Utildebelow" unicode="&#x1e74;" horiz-adv-x="1386" 
d="M824 -394c-130 0 -170 157 -258 157c-52 0 -78 -55 -78 -144h-91c0 144 59 234 166 234c136 0 177 -157 261 -157c50 0 73 53 73 144h91c0 -141 -61 -234 -164 -234zM271 1443v-931c0 -242 158 -408 422 -408c265 0 422 166 422 408v931h137v-939
c0 -311 -212 -527 -559 -527s-558 216 -558 527v939h136z" />
    <glyph glyph-name="Uhookabove" unicode="&#x1ee6;" horiz-adv-x="1386" 
d="M271 1443v-931c0 -242 158 -408 422 -408c265 0 422 166 422 408v931h137v-939c0 -311 -212 -527 -559 -527s-558 216 -558 527v939h136zM541 1763v78c30 14 74 24 118 24c106 0 179 -58 179 -149c0 -74 -54 -139 -138 -170l-50 63c53 18 87 58 87 101s-39 75 -93 75
c-36 0 -77 -8 -103 -22z" />
    <glyph glyph-name="Ubreve" unicode="&#x16c;" horiz-adv-x="1386" 
d="M271 1443v-931c0 -242 158 -408 422 -408c265 0 422 166 422 408v931h137v-939c0 -311 -212 -527 -559 -527s-558 216 -558 527v939h136zM401 1823h94c0 -106 83 -189 198 -189s198 83 198 189h94c0 -162 -120 -272 -292 -272s-292 110 -292 272z" />
    <glyph glyph-name="Uinvertedbreve" unicode="&#x216;" horiz-adv-x="1386" 
d="M271 1443v-931c0 -242 158 -408 422 -408c265 0 422 166 422 408v931h137v-939c0 -311 -212 -527 -559 -527s-558 216 -558 527v939h136zM401 1551c0 162 120 272 292 272s292 -110 292 -272h-94c0 107 -83 189 -198 189s-198 -82 -198 -189h-94z" />
    <glyph glyph-name="Utildeacute" unicode="&#x1e78;" horiz-adv-x="1386" 
d="M271 1443v-931c0 -242 158 -408 422 -408c265 0 422 166 422 408v931h137v-939c0 -311 -212 -527 -559 -527s-558 216 -558 527v939h136zM817 1541c-127 0 -161 151 -245 151c-51 0 -78 -52 -78 -135h-91c0 138 61 224 165 224c133 0 167 -151 249 -151
c48 0 72 50 72 136h91c0 -135 -62 -225 -163 -225zM653 1830l176 191h146l-213 -191h-109z" />
    <glyph glyph-name="Udotbelow" unicode="&#x1ee4;" horiz-adv-x="1386" 
d="M693 -351c-56 0 -102 46 -102 102s46 102 102 102s102 -46 102 -102s-46 -102 -102 -102zM271 1443v-931c0 -242 158 -408 422 -408c265 0 422 166 422 408v931h137v-939c0 -311 -212 -527 -559 -527s-558 216 -558 527v939h136z" />
    <glyph glyph-name="Utilde" unicode="&#x168;" horiz-adv-x="1386" 
d="M271 1443v-931c0 -242 158 -408 422 -408c265 0 422 166 422 408v931h137v-939c0 -311 -212 -527 -559 -527s-558 216 -558 527v939h136zM824 1541c-130 0 -170 157 -258 157c-52 0 -78 -55 -78 -144h-91c0 144 59 234 166 234c136 0 177 -157 261 -157
c50 0 73 53 73 144h91c0 -141 -61 -234 -164 -234z" />
    <glyph glyph-name="Umacron" unicode="&#x16a;" horiz-adv-x="1386" 
d="M271 1443v-931c0 -242 158 -408 422 -408c265 0 422 166 422 408v931h137v-939c0 -311 -212 -527 -559 -527s-558 216 -558 527v939h136zM998 1718v-85h-610v85h610z" />
    <glyph glyph-name="Umacrondieresis" unicode="&#x1e7a;" horiz-adv-x="1386" 
d="M998 1634h-610v85h610v-85zM523 1853c-47 0 -84 38 -84 84s37 83 84 83c45 0 83 -37 83 -83s-38 -84 -83 -84zM863 1853c-45 0 -83 38 -83 84s38 83 83 83c47 0 84 -37 84 -83s-37 -84 -84 -84zM271 1443v-931c0 -242 158 -408 422 -408c265 0 422 166 422 408v931h137
v-939c0 -311 -212 -527 -559 -527s-558 216 -558 527v939h136z" />
    <glyph glyph-name="Uring" unicode="&#x16e;" horiz-adv-x="1386" 
d="M693 1507c-103 0 -188 85 -188 188c0 102 85 187 188 187s188 -85 188 -187c0 -103 -85 -188 -188 -188zM693 1575c66 0 119 53 119 120c0 66 -53 119 -119 119s-119 -53 -119 -119c0 -67 53 -120 119 -120zM271 1443v-931c0 -242 158 -408 422 -408
c265 0 422 166 422 408v931h137v-939c0 -311 -212 -527 -559 -527s-558 216 -558 527v939h136z" />
    <glyph glyph-name="Uogonek" unicode="&#x172;" horiz-adv-x="1386" 
d="M937 -416c-132 0 -226 80 -226 192c0 83 45 156 137 225v4c-45 -17 -104 -28 -155 -28c-338 0 -558 208 -558 527v939h136v-931c0 -250 165 -408 422 -408s422 158 422 408v931h137v-939c0 -198 -81 -341 -250 -472c-110 -82 -162 -153 -162 -229c0 -63 51 -108 123 -108
c28 0 54 3 68 7v-104c-26 -9 -58 -14 -94 -14z" />
    <glyph glyph-name="Uhorn" unicode="&#x1af;" horiz-adv-x="1531" 
d="M693 -23c-338 0 -558 207 -558 527v939h136v-931c0 -247 167 -408 422 -408c256 0 422 161 422 408v931h163c69 0 101 30 101 94v158h122v-182c0 -107 -71 -170 -189 -170h-60v-839c0 -320 -221 -527 -559 -527z" />
    <glyph glyph-name="Uhorngrave" unicode="&#x1eea;" horiz-adv-x="1531" 
d="M638 1551l-289 295h154l252 -295h-117zM693 -23c-338 0 -558 207 -558 527v939h136v-931c0 -247 167 -408 422 -408c256 0 422 161 422 408v931h163c69 0 101 30 101 94v158h122v-182c0 -107 -71 -170 -189 -170h-60v-839c0 -320 -221 -527 -559 -527z" />
    <glyph glyph-name="Uhornacute" unicode="&#x1ee8;" horiz-adv-x="1531" 
d="M750 1551h-117l252 295h154zM693 -23c-338 0 -558 207 -558 527v939h136v-931c0 -247 167 -408 422 -408c256 0 422 161 422 408v931h163c69 0 101 30 101 94v158h122v-182c0 -107 -71 -170 -189 -170h-60v-839c0 -320 -221 -527 -559 -527z" />
    <glyph glyph-name="Uhorndotbelow" unicode="&#x1ef0;" horiz-adv-x="1531" 
d="M693 -351c-56 0 -102 46 -102 102s46 102 102 102s102 -46 102 -102s-46 -102 -102 -102zM693 -23c-338 0 -558 207 -558 527v939h136v-931c0 -247 167 -408 422 -408c256 0 422 161 422 408v931h163c69 0 101 30 101 94v158h122v-182c0 -107 -71 -170 -189 -170h-60
v-839c0 -320 -221 -527 -559 -527z" />
    <glyph glyph-name="Uhornhookabove" unicode="&#x1eec;" horiz-adv-x="1531" 
d="M541 1763v78c30 14 74 24 118 24c106 0 179 -58 179 -149c0 -74 -54 -139 -138 -170l-50 63c53 18 87 58 87 101s-39 75 -93 75c-36 0 -77 -8 -103 -22zM693 -23c-338 0 -558 207 -558 527v939h136v-931c0 -247 167 -408 422 -408c256 0 422 161 422 408v931h163
c69 0 101 30 101 94v158h122v-182c0 -107 -71 -170 -189 -170h-60v-839c0 -320 -221 -527 -559 -527z" />
    <glyph glyph-name="Uhorntilde" unicode="&#x1eee;" horiz-adv-x="1531" 
d="M824 1541c-130 0 -170 157 -258 157c-52 0 -78 -55 -78 -144h-91c0 144 59 234 166 234c136 0 177 -157 261 -157c50 0 73 53 73 144h91c0 -141 -61 -234 -164 -234zM693 -23c-338 0 -558 207 -558 527v939h136v-931c0 -247 167 -408 422 -408c256 0 422 161 422 408v931
h163c69 0 101 30 101 94v158h122v-182c0 -107 -71 -170 -189 -170h-60v-839c0 -320 -221 -527 -559 -527z" />
    <glyph glyph-name="V" unicode="V" horiz-adv-x="1262" 
d="M699 0h-136l-540 1443h145l460 -1273h6l461 1273h144z" />
    <glyph glyph-name="Vtilde" unicode="&#x1e7c;" horiz-adv-x="1262" 
d="M762 1541c-130 0 -170 157 -258 157c-52 0 -78 -55 -78 -144h-91c0 144 59 234 166 234c136 0 177 -157 261 -157c50 0 73 53 73 144h91c0 -141 -61 -234 -164 -234zM699 0h-136l-540 1443h145l460 -1273h6l461 1273h144z" />
    <glyph glyph-name="Vdotbelow" unicode="&#x1e7e;" horiz-adv-x="1262" 
d="M631 -351c-56 0 -102 46 -102 102s46 102 102 102s102 -46 102 -102s-46 -102 -102 -102zM699 0h-136l-540 1443h145l460 -1273h6l461 1273h144z" />
    <glyph glyph-name="W" unicode="W" horiz-adv-x="1854" 
d="M923 1209l-355 -1209h-127l-397 1443h142l318 -1233h6l349 1233h136l348 -1233h7l317 1233h143l-398 -1443h-126l-355 1209h-8z" />
    <glyph glyph-name="Wgrave" unicode="&#x1e80;" horiz-adv-x="1854" 
d="M872 1551l-289 295h154l252 -295h-117zM923 1209l-355 -1209h-127l-397 1443h142l318 -1233h6l349 1233h136l348 -1233h7l317 1233h143l-398 -1443h-126l-355 1209h-8z" />
    <glyph glyph-name="Wacute" unicode="&#x1e82;" horiz-adv-x="1854" 
d="M984 1551h-117l252 295h154zM923 1209l-355 -1209h-127l-397 1443h142l318 -1233h6l349 1233h136l348 -1233h7l317 1233h143l-398 -1443h-126l-355 1209h-8z" />
    <glyph glyph-name="Wdotaccent" unicode="&#x1e86;" horiz-adv-x="1854" 
d="M927 1575c-56 0 -102 46 -102 102s46 102 102 102s102 -46 102 -102s-46 -102 -102 -102zM923 1209l-355 -1209h-127l-397 1443h142l318 -1233h6l349 1233h136l348 -1233h7l317 1233h143l-398 -1443h-126l-355 1209h-8z" />
    <glyph glyph-name="Wdotbelow" unicode="&#x1e88;" horiz-adv-x="1854" 
d="M927 -351c-56 0 -102 46 -102 102s46 102 102 102s102 -46 102 -102s-46 -102 -102 -102zM923 1209l-355 -1209h-127l-397 1443h142l318 -1233h6l349 1233h136l348 -1233h7l317 1233h143l-398 -1443h-126l-355 1209h-8z" />
    <glyph glyph-name="Wdieresis" unicode="&#x1e84;" horiz-adv-x="1854" 
d="M749 1576c-50 0 -93 42 -93 92c0 51 43 93 93 93c51 0 93 -42 93 -93c0 -50 -42 -92 -93 -92zM1105 1576c-51 0 -93 42 -93 92c0 51 42 93 93 93s93 -42 93 -93c0 -50 -42 -92 -93 -92zM923 1209l-355 -1209h-127l-397 1443h142l318 -1233h6l349 1233h136l348 -1233h7
l317 1233h143l-398 -1443h-126l-355 1209h-8z" />
    <glyph glyph-name="Wcircumflex" unicode="&#x174;" horiz-adv-x="1854" 
d="M872 1846h110l283 -295h-131l-206 217h-2l-206 -217h-131zM923 1209l-355 -1209h-127l-397 1443h142l318 -1233h6l349 1233h136l348 -1233h7l317 1233h143l-398 -1443h-126l-355 1209h-8z" />
    <glyph glyph-name="X" unicode="X" horiz-adv-x="1263" 
d="M44 0l502 722v5l-498 716h165l421 -613h5l424 613h157l-507 -722v-4l499 -717h-164l-419 610h-5l-425 -610h-155z" />
    <glyph glyph-name="Xdotaccent" unicode="&#x1e8a;" horiz-adv-x="1263" 
d="M44 0l502 722v5l-498 716h165l421 -613h5l424 613h157l-507 -722v-4l499 -717h-164l-419 610h-5l-425 -610h-155zM632 1575c-56 0 -102 46 -102 102s46 102 102 102s102 -46 102 -102s-46 -102 -102 -102z" />
    <glyph glyph-name="Xdieresis" unicode="&#x1e8c;" horiz-adv-x="1263" 
d="M44 0l502 722v5l-498 716h165l421 -613h5l424 613h157l-507 -722v-4l499 -717h-164l-419 610h-5l-425 -610h-155zM454 1576c-50 0 -93 42 -93 92c0 51 43 93 93 93c51 0 93 -42 93 -93c0 -50 -42 -92 -93 -92zM810 1576c-51 0 -93 42 -93 92c0 51 42 93 93 93
s93 -42 93 -93c0 -50 -42 -92 -93 -92z" />
    <glyph glyph-name="Y" unicode="Y" horiz-adv-x="1219" 
d="M678 0h-137v624l-517 819h156l427 -685h5l427 685h156l-517 -819v-624z" />
    <glyph glyph-name="Ygrave" unicode="&#x1ef2;" horiz-adv-x="1219" 
d="M678 0h-137v624l-517 819h156l427 -685h5l427 685h156l-517 -819v-624zM554 1551l-289 295h154l252 -295h-117z" />
    <glyph glyph-name="Yacute" unicode="&#xdd;" horiz-adv-x="1219" 
d="M678 0h-137v624l-517 819h156l427 -685h5l427 685h156l-517 -819v-624zM666 1551h-117l252 295h154z" />
    <glyph glyph-name="Ydotaccent" unicode="&#x1e8e;" horiz-adv-x="1219" 
d="M678 0h-137v624l-517 819h156l427 -685h5l427 685h156l-517 -819v-624zM609 1575c-56 0 -102 46 -102 102s46 102 102 102s102 -46 102 -102s-46 -102 -102 -102z" />
    <glyph glyph-name="Ydotbelow" unicode="&#x1ef4;" horiz-adv-x="1219" 
d="M678 0h-137v624l-517 819h156l427 -685h5l427 685h156l-517 -819v-624zM609 -351c-56 0 -102 46 -102 102s46 102 102 102s102 -46 102 -102s-46 -102 -102 -102z" />
    <glyph glyph-name="Ydieresis" unicode="&#x178;" horiz-adv-x="1219" 
d="M678 0h-137v624l-517 819h156l427 -685h5l427 685h156l-517 -819v-624zM431 1576c-50 0 -93 42 -93 92c0 51 43 93 93 93c51 0 93 -42 93 -93c0 -50 -42 -92 -93 -92zM787 1576c-51 0 -93 42 -93 92c0 51 42 93 93 93s93 -42 93 -93c0 -50 -42 -92 -93 -92z" />
    <glyph glyph-name="Ytilde" unicode="&#x1ef8;" horiz-adv-x="1219" 
d="M678 0h-137v624l-517 819h156l427 -685h5l427 685h156l-517 -819v-624zM740 1541c-130 0 -170 157 -258 157c-52 0 -78 -55 -78 -144h-91c0 144 59 234 166 234c136 0 177 -157 261 -157c50 0 73 53 73 144h91c0 -141 -61 -234 -164 -234z" />
    <glyph glyph-name="Ycircumflex" unicode="&#x176;" horiz-adv-x="1219" 
d="M678 0h-137v624l-517 819h156l427 -685h5l427 685h156l-517 -819v-624zM554 1846h110l283 -295h-131l-206 217h-2l-206 -217h-131z" />
    <glyph glyph-name="Ymacron" unicode="&#x232;" horiz-adv-x="1219" 
d="M678 0h-137v624l-517 819h156l427 -685h5l427 685h156l-517 -819v-624zM914 1718v-85h-610v85h610z" />
    <glyph glyph-name="Yhookabove" unicode="&#x1ef6;" horiz-adv-x="1219" 
d="M678 0h-137v624l-517 819h156l427 -685h5l427 685h156l-517 -819v-624zM457 1763v78c30 14 74 24 118 24c106 0 179 -58 179 -149c0 -74 -54 -139 -138 -170l-50 63c53 18 87 58 87 101s-39 75 -93 75c-36 0 -77 -8 -103 -22z" />
    <glyph glyph-name="Z" unicode="Z" horiz-adv-x="1224" 
d="M87 0v99l866 1214v6h-838v124h1011v-100l-864 -1213v-6h876v-124h-1051z" />
    <glyph glyph-name="Zacute" unicode="&#x179;" horiz-adv-x="1224" 
d="M669 1551h-117l252 295h154zM87 0v99l866 1214v6h-838v124h1011v-100l-864 -1213v-6h876v-124h-1051z" />
    <glyph glyph-name="Zcaron" unicode="&#x17d;" horiz-adv-x="1224" 
d="M87 0v99l866 1214v6h-838v124h1011v-100l-864 -1213v-6h876v-124h-1051zM557 1551l-283 295h131l206 -217h2l206 217h131l-283 -295h-110z" />
    <glyph glyph-name="Zcircumflex" unicode="&#x1e90;" horiz-adv-x="1224" 
d="M87 0v99l866 1214v6h-838v124h1011v-100l-864 -1213v-6h876v-124h-1051zM557 1846h110l283 -295h-131l-206 217h-2l-206 -217h-131z" />
    <glyph glyph-name="Zlinebelow" unicode="&#x1e94;" horiz-adv-x="1224" 
d="M87 0v99l866 1214v6h-838v124h1011v-100l-864 -1213v-6h876v-124h-1051zM917 -214v-85h-610v85h610z" />
    <glyph glyph-name="Zdotbelow" unicode="&#x1e92;" horiz-adv-x="1224" 
d="M612 -351c-56 0 -102 46 -102 102s46 102 102 102s102 -46 102 -102s-46 -102 -102 -102zM87 0v99l866 1214v6h-838v124h1011v-100l-864 -1213v-6h876v-124h-1051z" />
    <glyph glyph-name="Zdotaccent" unicode="&#x17b;" horiz-adv-x="1224" 
d="M612 1575c-56 0 -102 46 -102 102s46 102 102 102s102 -46 102 -102s-46 -102 -102 -102zM87 0v99l866 1214v6h-838v124h1011v-100l-864 -1213v-6h876v-124h-1051z" />
    <glyph glyph-name="AE" unicode="&#xc6;" horiz-adv-x="1941" 
d="M808 1327l-374 -766h544v766h-170zM978 0v443h-600l-214 -443h-141l702 1443h1091v-124h-702v-526h665v-122h-665v-547h702v-124h-838z" />
    <glyph glyph-name="AEmacron" unicode="&#x1e2;" horiz-adv-x="1945" 
d="M808 1327l-374 -766h544v766h-170zM978 0v443h-600l-214 -443h-141l702 1443h1091v-124h-702v-526h665v-122h-665v-547h702v-124h-838zM1675 1718v-85h-610v85h610z" />
    <glyph glyph-name="AEacute" unicode="&#x1fc;" horiz-adv-x="1945" 
d="M1427 1551h-117l252 295h154zM808 1327l-374 -766h544v766h-170zM978 0v443h-600l-214 -443h-141l702 1443h1091v-124h-702v-526h665v-122h-665v-547h702v-124h-838z" />
    <glyph glyph-name="OE" unicode="&#x152;" horiz-adv-x="2200" 
d="M739 1339c-320 0 -522 -239 -522 -618c0 -377 202 -617 522 -617c319 0 521 239 521 617s-203 618 -521 618zM1262 0v290c-95 -199 -285 -313 -523 -313c-407 0 -662 286 -662 744c0 459 255 745 662 745c240 0 428 -112 523 -310v287h849v-124h-712v-519h674v-122h-674
v-554h712v-124h-849z" />
    <glyph glyph-name="Eth" unicode="&#xd0;" horiz-adv-x="1385" 
d="M287 124h330c355 0 553 214 553 597c0 384 -198 598 -553 598h-330v-514h312v-124h-312v-557zM150 1443h475c432 0 684 -265 684 -721c0 -457 -251 -722 -684 -722h-475v681h-126v124h126v638z" />
    <glyph glyph-name="Thorn" unicode="&#xde;" horiz-adv-x="1222" 
d="M161 1443h137v-274h386c237 0 431 -151 431 -410s-194 -411 -432 -411h-385v-348h-137v1443zM298 1046v-576h352c194 0 325 102 325 289c0 186 -131 287 -325 287h-352z" />
    <glyph glyph-name="Alphagreek" unicode="&#x391;" horiz-adv-x="1262" 
d="M1094 0l-160 442h-606l-160 -442h-145l540 1443h136l539 -1443h-144zM628 1274l-259 -714h524l-259 714h-6z" />
    <glyph glyph-name="Betagreek" unicode="&#x392;" horiz-adv-x="1217" 
d="M669 0h-534v1443h531c248 0 417 -143 417 -356c0 -160 -111 -297 -264 -325v-7c199 -24 338 -159 338 -359c0 -246 -183 -396 -488 -396zM271 1322v-520h326c219 0 348 100 348 270c0 157 -116 250 -308 250h-366zM271 121h380c235 0 366 103 366 282
c0 180 -136 281 -385 281h-361v-563z" />
    <glyph glyph-name="Gammagreek" unicode="&#x393;" horiz-adv-x="1041" 
d="M271 0h-136v1443h836v-124h-700v-1319z" />
    <glyph glyph-name="Deltagreek" unicode="&#x394;" horiz-adv-x="1283" 
d="M1233 0h-1183v97l524 1346h135l524 -1346v-97zM205 130v-6h874v6l-435 1151h-5z" />
    <glyph glyph-name="Epsilongreek" unicode="&#x395;" horiz-adv-x="1095" 
d="M1006 124v-124h-871v1443h871v-124h-735v-519h698v-122h-698v-554h735z" />
    <glyph glyph-name="Zetagreek" unicode="&#x396;" horiz-adv-x="1224" 
d="M87 0v99l866 1214v6h-838v124h1011v-100l-864 -1213v-6h876v-124h-1051z" />
    <glyph glyph-name="Etagreek" unicode="&#x397;" horiz-adv-x="1387" 
d="M1252 0h-137v677h-844v-677h-136v1443h136v-642h844v642h137v-1443z" />
    <glyph glyph-name="Thetagreek" unicode="&#x398;" horiz-adv-x="1471" 
d="M1055 661h-638v124h638v-124zM736 1466c408 0 659 -288 659 -745s-251 -744 -659 -744s-659 287 -659 744s252 745 659 745zM736 1339c-320 0 -519 -239 -519 -618c0 -378 199 -617 519 -617c321 0 519 239 519 617c0 379 -198 618 -519 618z" />
    <glyph glyph-name="Iotagreek" unicode="&#x399;" horiz-adv-x="406" 
d="M271 0h-136v1443h136v-1443z" />
    <glyph glyph-name="Kappagreek" unicode="&#x39a;" horiz-adv-x="1209" 
d="M271 0h-136v1443h136v-748h8l686 748h173l-593 -638l652 -805h-175l-573 708l-178 -193v-515z" />
    <glyph glyph-name="Lambdagreek" unicode="&#x39b;" horiz-adv-x="1222" 
d="M1054 0l-440 1266h-6l-440 -1266h-145l520 1443h136l519 -1443h-144z" />
    <glyph glyph-name="Mugreek" unicode="&#x39c;" horiz-adv-x="1660" 
d="M1525 1443v-1443h-128v1184h-6l-502 -1177h-119l-501 1177h-6v-1184h-128v1443h157l535 -1263h6l534 1263h158z" />
    <glyph glyph-name="Nugreek" unicode="&#x39d;" horiz-adv-x="1393" 
d="M270 0h-135v1443h135l846 -1205h7v1205h135v-1443h-132l-849 1206h-7v-1206z" />
    <glyph glyph-name="Xigreek" unicode="&#x39e;" horiz-adv-x="1220" 
d="M89 1443h1042v-126h-1042v126zM1054 676h-888v124h888v-124zM89 126h1042v-126h-1042v126z" />
    <glyph glyph-name="Omicrongreek" unicode="&#x39f;" horiz-adv-x="1465" 
d="M732 1466c402 0 656 -288 656 -745s-253 -744 -656 -744c-402 0 -655 287 -655 744s253 745 655 745zM732 1339c-316 0 -515 -239 -515 -618c0 -378 199 -617 515 -617s516 239 516 617c0 379 -200 618 -516 618z" />
    <glyph glyph-name="Pigreek" unicode="&#x3a0;" horiz-adv-x="1367" 
d="M1232 0h-137v1319h-824v-1319h-136v1443h1097v-1443z" />
    <glyph glyph-name="Rhogreek" unicode="&#x3a1;" horiz-adv-x="1171" 
d="M135 1443h512c275 0 463 -181 463 -449s-189 -450 -464 -450h-375v-544h-136v1443zM271 1321v-655h344c222 0 355 123 355 328s-132 327 -355 327h-344z" />
    <glyph glyph-name="Sigmagreek" unicode="&#x3a3;" horiz-adv-x="1197" 
d="M253 130v-6h858v-124h-1024v99l440 631l-423 604v109h988v-124h-817v-6l400 -571v-6z" />
    <glyph glyph-name="Taugreek" unicode="&#x3a4;" horiz-adv-x="1179" 
d="M658 0h-137v1319h-483v124h1103v-124h-483v-1319z" />
    <glyph glyph-name="Upsilongreek" unicode="&#x3a5;" horiz-adv-x="1219" 
d="M678 0h-137v624l-517 819h156l427 -685h5l427 685h156l-517 -819v-624z" />
    <glyph glyph-name="Phigreek" unicode="&#x3a6;" horiz-adv-x="1596" 
d="M1389 720c0 317 -196 511 -523 519v-1038c327 7 523 202 523 519zM206 720c0 -317 196 -512 523 -519v1038c-327 -8 -523 -202 -523 -519zM866 -58h-137v136c-409 12 -662 258 -662 642s253 629 662 642v133h137v-133c409 -13 663 -258 663 -642s-254 -630 -663 -642
v-136z" />
    <glyph glyph-name="Chigreek" unicode="&#x3a7;" horiz-adv-x="1263" 
d="M44 0l502 722v5l-498 716h165l421 -613h5l424 613h157l-507 -722v-4l499 -717h-164l-419 610h-5l-425 -610h-155z" />
    <glyph glyph-name="Psigreek" unicode="&#x3a8;" horiz-adv-x="1519" 
d="M828 0h-137v345c-357 1 -576 213 -576 559v539h136v-535c0 -278 156 -433 440 -437v972h137v-972c284 4 440 159 440 437v535h136v-539c0 -346 -220 -559 -576 -559v-345z" />
    <glyph glyph-name="Omegagreek" unicode="&#x3a9;" horiz-adv-x="1518" 
d="M1275 784c0 333 -201 555 -516 555c-314 0 -516 -220 -516 -555c0 -278 122 -476 386 -630v-154h-524v124h363v6c-235 141 -365 370 -365 657c0 401 265 679 656 679c392 0 656 -280 656 -679c0 -287 -129 -515 -365 -657v-6h363v-124h-524v154c264 154 386 352 386 630z
" />
    <glyph glyph-name="Alphatonosgreek" unicode="&#x386;" horiz-adv-x="1261" 
d="M1094 0l-160 442h-606l-160 -442h-145l540 1443h136l539 -1443h-144zM628 1274l-259 -714h524l-259 714h-6zM228 1122h-111l85 321h169z" />
    <glyph glyph-name="Epsilontonosgreek" unicode="&#x388;" horiz-adv-x="1390" 
d="M165 1122h-111l85 321h169zM1301 124v-124h-871v1443h871v-124h-735v-519h698v-122h-698v-554h735z" />
    <glyph glyph-name="Etatonosgreek" unicode="&#x389;" horiz-adv-x="1682" 
d="M165 1122h-111l85 321h169zM1547 0h-137v677h-844v-677h-136v1443h136v-642h844v642h137v-1443z" />
    <glyph glyph-name="Iotatonosgreek" unicode="&#x38a;" horiz-adv-x="701" 
d="M566 0h-136v1443h136v-1443zM165 1122h-111l85 321h169z" />
    <glyph glyph-name="Iotadieresisgreek" unicode="&#x3aa;" horiz-adv-x="422" 
d="M287 0h-136v1443h136v-1443zM41 1576c-50 0 -93 42 -93 92c0 51 43 93 93 93c51 0 93 -42 93 -93c0 -50 -42 -92 -93 -92zM397 1576c-51 0 -93 42 -93 92c0 51 42 93 93 93s93 -42 93 -93c0 -50 -42 -92 -93 -92z" />
    <glyph glyph-name="Omicrontonosgreek" unicode="&#x38c;" horiz-adv-x="1625" 
d="M892 1466c402 0 656 -288 656 -745s-253 -744 -656 -744c-402 0 -655 287 -655 744s253 745 655 745zM892 1339c-316 0 -515 -239 -515 -618c0 -378 199 -617 515 -617s516 239 516 617c0 379 -200 618 -516 618zM149 1122h-111l85 321h169z" />
    <glyph glyph-name="Upsilontonosgreek" unicode="&#x38e;" horiz-adv-x="1561" 
d="M152 1122h-111l85 321h169zM1021 0h-137v624l-517 819h156l427 -685h5l427 685h156l-517 -819v-624z" />
    <glyph glyph-name="Upsilondieresisgreek" unicode="&#x3ab;" horiz-adv-x="1239" 
d="M698 0h-137v624l-517 819h156l427 -685h5l427 685h156l-517 -819v-624zM451 1576c-50 0 -93 42 -93 92c0 51 43 93 93 93c51 0 93 -42 93 -93c0 -50 -42 -92 -93 -92zM807 1576c-51 0 -93 42 -93 92c0 51 42 93 93 93s93 -42 93 -93c0 -50 -42 -92 -93 -92z" />
    <glyph glyph-name="Omegatonosgreek" unicode="&#x38f;" horiz-adv-x="1668" 
d="M1425 784c0 333 -201 555 -516 555c-314 0 -516 -220 -516 -555c0 -278 122 -476 386 -630v-154h-524v124h363v6c-235 141 -365 370 -365 657c0 401 265 679 656 679c392 0 656 -280 656 -679c0 -287 -129 -515 -365 -657v-6h363v-124h-524v154c264 154 386 352 386 630z
M169 1122h-111l85 321h169z" />
    <glyph glyph-name="Acyrillic" unicode="&#x410;" horiz-adv-x="1282" 
d="M1104 0l-160 442h-606l-160 -442h-145l540 1443h136l539 -1443h-144zM638 1274l-259 -714h524l-259 714h-6z" />
    <glyph glyph-name="Becyrillic" unicode="&#x411;" horiz-adv-x="1211" 
d="M1109 425c0 -253 -187 -425 -463 -425h-501v1443h829v-124h-693v-467h364c275 0 464 -173 464 -427zM281 124h333c223 0 355 111 355 301s-133 303 -355 303h-333v-604z" />
    <glyph glyph-name="Vecyrillic" unicode="&#x412;" horiz-adv-x="1237" 
d="M679 0h-534v1443h531c248 0 417 -143 417 -356c0 -160 -111 -297 -264 -325v-7c199 -24 338 -159 338 -359c0 -246 -183 -396 -488 -396zM281 1322v-520h326c219 0 348 100 348 270c0 157 -116 250 -308 250h-366zM281 121h380c235 0 366 103 366 282
c0 180 -136 281 -385 281h-361v-563z" />
    <glyph glyph-name="Gecyrillic" unicode="&#x413;" horiz-adv-x="1051" 
d="M282 0h-137v1443h842v-125h-705v-1318z" />
    <glyph glyph-name="Decyrillic" unicode="&#x414;" horiz-adv-x="1434" 
d="M412 503c-11 -167 -33 -290 -109 -372v-7h766v1195h-607zM151 0v-285h-127v409h102c104 54 145 191 156 384l57 935h867v-1319h183v-409h-128v285h-1110z" />
    <glyph glyph-name="Iecyrillic" unicode="&#x415;" horiz-adv-x="1115" 
d="M1016 124v-124h-871v1443h871v-124h-735v-519h698v-122h-698v-554h735z" />
    <glyph glyph-name="Iocyrillic" unicode="&#x401;" horiz-adv-x="1115" 
d="M402 1576c-50 0 -93 42 -93 92c0 51 43 93 93 93c51 0 93 -42 93 -93c0 -50 -42 -92 -93 -92zM758 1576c-51 0 -93 42 -93 92c0 51 42 93 93 93s93 -42 93 -93c0 -50 -42 -92 -93 -92zM1016 124v-124h-871v1443h871v-124h-735v-519h698v-122h-698v-554h735z" />
    <glyph glyph-name="Zhecyrillic" unicode="&#x416;" horiz-adv-x="1897" 
d="M1162 750l715 -750h-186l-669 708h-7v-708h-137v708h-6l-673 -708h-179l709 748l-654 695h176l621 -671h6v671h137v-671h7l622 671h171z" />
    <glyph glyph-name="Zecyrillic" unicode="&#x417;" horiz-adv-x="1158" 
d="M380 681v122h185c204 0 338 115 338 280c0 157 -123 268 -320 268c-192 0 -320 -106 -338 -268h-133c20 236 201 390 476 390c268 0 453 -162 453 -379c0 -165 -111 -299 -284 -338v-7c207 -22 331 -160 331 -359c0 -237 -212 -420 -505 -420s-499 167 -512 399h132
c15 -160 167 -276 380 -276c219 0 365 125 365 300c0 181 -134 288 -377 288h-191z" />
    <glyph glyph-name="Iicyrillic" unicode="&#x418;" horiz-adv-x="1413" 
d="M1133 0v1218h-12l-841 -1218h-135v1443h135v-1221h12l841 1221h135v-1443h-135z" />
    <glyph glyph-name="Iishortcyrillic" unicode="&#x419;" horiz-adv-x="1413" 
d="M413 1823h98c0 -112 81 -192 195 -192s195 80 195 192h98c0 -164 -120 -272 -293 -272s-293 108 -293 272zM1133 0v1218h-12l-841 -1218h-135v1443h135v-1221h12l841 1221h135v-1443h-135z" />
    <glyph glyph-name="Kacyrillic" unicode="&#x41a;" horiz-adv-x="1231" 
d="M432 750l771 -750h-190l-725 708h-7v-708h-136v1443h136v-671h7l677 671h175z" />
    <glyph glyph-name="Elcyrillic" unicode="&#x41b;" horiz-adv-x="1347" 
d="M1202 0h-137v1319h-577l-50 -809c-21 -339 -114 -519 -334 -519c-28 0 -52 6 -65 10v123c8 -3 33 -7 54 -7c141 0 199 135 215 400l54 926h840v-1443z" />
    <glyph glyph-name="Emcyrillic" unicode="&#x41c;" horiz-adv-x="1680" 
d="M1535 1443v-1443h-128v1184h-6l-502 -1177h-119l-501 1177h-6v-1184h-128v1443h157l535 -1263h6l534 1263h158z" />
    <glyph glyph-name="Encyrillic" unicode="&#x41d;" horiz-adv-x="1407" 
d="M1262 0h-137v677h-844v-677h-136v1443h136v-642h844v642h137v-1443z" />
    <glyph glyph-name="Ocyrillic" unicode="&#x41e;" horiz-adv-x="1485" 
d="M742 1466c402 0 656 -288 656 -745s-253 -744 -656 -744c-402 0 -655 287 -655 744s253 745 655 745zM742 1339c-316 0 -515 -239 -515 -618c0 -378 199 -617 515 -617s516 239 516 617c0 379 -200 618 -516 618z" />
    <glyph glyph-name="Pecyrillic" unicode="&#x41f;" horiz-adv-x="1389" 
d="M1244 0h-135v1318h-827v-1318h-137v1443h1099v-1443z" />
    <glyph glyph-name="Ercyrillic" unicode="&#x420;" horiz-adv-x="1190" 
d="M145 1443h512c275 0 463 -181 463 -449s-189 -450 -464 -450h-375v-544h-136v1443zM281 1321v-655h344c222 0 355 123 355 328s-132 327 -355 327h-344z" />
    <glyph glyph-name="Escyrillic" unicode="&#x421;" horiz-adv-x="1388" 
d="M730 -23c-393 0 -643 291 -643 748c0 452 251 741 643 741c300 0 539 -191 583 -464h-139c-44 198 -225 337 -444 337c-306 0 -503 -239 -503 -614c0 -380 197 -621 504 -621c225 0 396 117 442 307h139c-55 -271 -274 -434 -582 -434z" />
    <glyph glyph-name="Tecyrillic" unicode="&#x422;" horiz-adv-x="1199" 
d="M668 0h-137v1319h-483v124h1103v-124h-483v-1319z" />
    <glyph glyph-name="Ucyrillic" unicode="&#x423;" horiz-adv-x="1185" 
d="M280 -10c-36 0 -64 7 -75 12v124c14 -4 41 -9 75 -9c118 0 190 77 255 207l-501 1119h147l422 -965h7l405 965h143l-453 -1044c-123 -285 -224 -409 -425 -409z" />
    <glyph glyph-name="Efcyrillic" unicode="&#x424;" horiz-adv-x="1581" 
d="M724 260v930c-313 -7 -508 -187 -508 -465c0 -280 196 -459 508 -465zM1366 725c0 279 -196 459 -507 465v-930c311 7 507 187 507 465zM724 137c-397 6 -646 233 -646 588c0 354 248 580 646 588v147h135v-147c396 -6 645 -233 645 -588c0 -354 -249 -581 -645 -588
v-154h-135v154z" />
    <glyph glyph-name="Xacyrillic" unicode="&#x425;" horiz-adv-x="1283" 
d="M54 0l502 722v5l-498 716h165l421 -613h5l424 613h157l-507 -722v-4l499 -717h-164l-419 610h-5l-425 -610h-155z" />
    <glyph glyph-name="Tsecyrillic" unicode="&#x426;" horiz-adv-x="1470" 
d="M1425 -285h-128v285h-1152v1443h136v-1319h824v1319h137v-1319h183v-409z" />
    <glyph glyph-name="Checyrillic" unicode="&#x427;" horiz-adv-x="1306" 
d="M1162 0h-137v707h-6c-83 -85 -217 -154 -394 -154c-302 0 -507 201 -507 508v382h137v-372c0 -243 149 -391 369 -391c201 0 351 104 401 205v558h137v-1443z" />
    <glyph glyph-name="Shacyrillic" unicode="&#x428;" horiz-adv-x="1835" 
d="M145 0v1443h136v-1319h568v1319h137v-1319h568v1319h136v-1443h-1545z" />
    <glyph glyph-name="Shchacyrillic" unicode="&#x429;" horiz-adv-x="1918" 
d="M1873 -285h-127v285h-1601v1443h136v-1319h568v1319h137v-1319h568v1319h136v-1319h183v-409z" />
    <glyph glyph-name="Hardsigncyrillic" unicode="&#x42a;" horiz-adv-x="1453" 
d="M920 0h-505v1319h-340v124h476v-558h368c275 0 464 -179 464 -443c0 -263 -188 -442 -463 -442zM551 124h337c223 0 355 118 355 318s-133 320 -355 320h-337v-638z" />
    <glyph glyph-name="Yericyrillic" unicode="&#x42b;" horiz-adv-x="1601" 
d="M1456 0h-136v1443h136v-1443zM145 0v1443h136v-558h368c276 0 464 -179 464 -443c0 -263 -187 -442 -463 -442h-505zM281 124h337c223 0 355 118 355 318s-133 320 -355 320h-337v-638z" />
    <glyph glyph-name="Softsigncyrillic" unicode="&#x42c;" horiz-adv-x="1184" 
d="M145 0v1443h136v-558h368c276 0 464 -179 464 -443c0 -263 -187 -442 -463 -442h-505zM281 124h337c223 0 355 118 355 318s-133 320 -355 320h-337v-638z" />
    <glyph glyph-name="Ereversedcyrillic" unicode="&#x42d;" horiz-adv-x="1392" 
d="M668 -23c-312 0 -536 162 -593 434h140c47 -188 224 -307 452 -307c295 0 488 223 497 573h-683v124h680c-19 329 -211 538 -493 538c-219 0 -408 -139 -453 -337h-140c46 274 291 464 593 464c391 0 637 -290 637 -744c0 -458 -243 -745 -637 -745z" />
    <glyph glyph-name="IUcyrillic" unicode="&#x42e;" horiz-adv-x="1932" 
d="M1206 -30c-386 0 -624 272 -639 707h-286v-677h-136v1443h136v-642h287c27 416 267 672 638 672c396 0 639 -290 639 -751c0 -460 -241 -752 -639 -752zM1206 1346c-307 0 -501 -242 -501 -624c0 -380 190 -625 501 -625c308 0 499 245 499 625c0 382 -191 624 -499 624z
" />
    <glyph glyph-name="IAcyrillic" unicode="&#x42f;" horiz-adv-x="1231" 
d="M950 703v616h-342c-225 0 -356 -113 -356 -307c0 -195 132 -309 356 -309h342zM615 579l-406 -579h-162l418 596c-209 41 -352 195 -352 416c0 258 186 431 462 431h511v-1443h-136v579h-335z" />
    <glyph glyph-name="Djecyrillic" unicode="&#x402;" horiz-adv-x="1626" 
d="M1095 -14c-47 0 -98 7 -121 15v123c23 -8 73 -13 119 -13c176 0 286 125 286 321c0 203 -133 334 -338 334c-155 0 -308 -84 -374 -198v-568h-136v1319h-483v124h1103v-124h-484v-578h7c90 95 225 149 375 149c281 0 466 -182 466 -457c0 -270 -167 -447 -420 -447z" />
    <glyph glyph-name="Gjecyrillic" unicode="&#x403;" horiz-adv-x="1051" 
d="M615 1551h-117l252 295h154zM282 0h-137v1443h842v-125h-705v-1318z" />
    <glyph glyph-name="Ecyrillic" unicode="&#x404;" horiz-adv-x="1388" 
d="M1312 411c-55 -271 -274 -434 -582 -434c-393 0 -643 291 -643 748c0 452 251 741 643 741c300 0 539 -191 583 -464h-139c-44 198 -225 337 -444 337c-285 0 -481 -207 -500 -538h684v-124h-686c10 -352 209 -573 503 -573c225 0 396 117 442 307h139z" />
    <glyph glyph-name="Dzecyrillic" unicode="&#x405;" horiz-adv-x="1201" 
d="M74 392h137c15 -173 178 -291 404 -291c216 0 371 118 371 280c0 135 -93 215 -307 269l-179 46c-267 68 -386 181 -386 371c0 233 210 399 494 399c281 0 487 -166 495 -395h-137c-13 163 -157 271 -362 271c-200 0 -348 -111 -348 -270c0 -124 90 -197 302 -251
l156 -40c290 -73 412 -184 412 -385c0 -253 -204 -419 -523 -419c-302 0 -514 167 -529 415z" />
    <glyph glyph-name="Icyrillic" unicode="&#x406;" horiz-adv-x="426" 
d="M281 0h-136v1443h136v-1443z" />
    <glyph glyph-name="Yicyrillic" unicode="&#x407;" horiz-adv-x="426" 
d="M281 0h-136v1443h136v-1443zM35 1576c-50 0 -93 42 -93 92c0 51 43 93 93 93c51 0 93 -42 93 -93c0 -50 -42 -92 -93 -92zM391 1576c-51 0 -93 42 -93 92c0 51 42 93 93 93s93 -42 93 -93c0 -50 -42 -92 -93 -92z" />
    <glyph glyph-name="Jecyrillic" unicode="&#x408;" horiz-adv-x="1007" 
d="M52 331h135c6 -138 113 -234 262 -234c176 0 277 107 277 300v1046h136v-1048c0 -265 -154 -425 -413 -425c-231 0 -395 149 -397 361z" />
    <glyph glyph-name="Ljecyrillic" unicode="&#x409;" horiz-adv-x="2115" 
d="M438 510c-19 -314 -99 -519 -334 -519c-28 0 -53 6 -65 10v123c8 -3 33 -7 54 -7c159 0 201 171 215 400l54 926h837v-558h367c275 0 464 -179 464 -443c0 -263 -187 -442 -462 -442h-506v1319h-574zM1199 124h336c223 0 356 118 356 318s-134 320 -356 320h-336v-638z
" />
    <glyph glyph-name="Njecyrillic" unicode="&#x40a;" horiz-adv-x="2130" 
d="M1228 124h337c223 0 355 107 355 285c0 169 -133 268 -355 268h-337v-553zM281 677v-677h-136v1443h136v-642h811v642h136v-642h368c275 0 464 -158 464 -392c0 -244 -188 -409 -463 -409h-505v677h-811z" />
    <glyph glyph-name="Tshecyrillic" unicode="&#x40b;" horiz-adv-x="1646" 
d="M1034 766c-149 0 -300 -82 -367 -198v-568h-136v1319h-483v124h1103v-124h-484v-576h7c91 94 226 147 373 147c282 0 465 -191 465 -487v-403h-137v392c0 233 -128 374 -341 374z" />
    <glyph glyph-name="Kjecyrillic" unicode="&#x40c;" horiz-adv-x="1223" 
d="M927 1846l-289 -295h-117l252 295h154zM432 750l771 -750h-190l-725 708h-7v-708h-136v1443h136v-671h7l677 671h175z" />
    <glyph glyph-name="Ushortcyrillic" unicode="&#x40e;" horiz-adv-x="1185" 
d="M314 1823h98c0 -112 81 -192 195 -192s195 80 195 192h98c0 -164 -120 -272 -293 -272s-293 108 -293 272zM280 -10c-36 0 -64 7 -75 12v124c14 -4 41 -9 75 -9c118 0 190 77 255 207l-501 1119h147l422 -965h7l405 965h143l-453 -1044c-123 -285 -224 -409 -425 -409z
" />
    <glyph glyph-name="Dzhecyrillic" unicode="&#x40f;" horiz-adv-x="1389" 
d="M631 0h-486v1443h136v-1319h827v1319h136v-1443h-486v-285h-127v285z" />
    <glyph glyph-name="Geupturncyrillic" unicode="&#x490;" horiz-adv-x="1051" 
d="M282 1318v-1318h-137v1443h714v273h128v-398h-705z" />
    <glyph glyph-name="a" unicode="a" horiz-adv-x="1048" 
d="M463 104c193 0 340 131 340 301v119l-315 -22c-181 -12 -277 -82 -277 -203c0 -116 102 -195 252 -195zM437 -12c-215 0 -361 126 -361 312c0 184 138 291 396 309l331 22v92c0 157 -99 248 -273 248c-150 0 -255 -77 -279 -205h-127c11 189 181 323 407 323
c247 0 404 -138 404 -355v-734h-126v206h-3c-58 -131 -204 -218 -369 -218z" />
    <glyph glyph-name="agrave" unicode="&#xe0;" horiz-adv-x="1048" 
d="M463 104c193 0 340 131 340 301v119l-315 -22c-181 -12 -277 -82 -277 -203c0 -116 102 -195 252 -195zM437 -12c-215 0 -361 126 -361 312c0 184 138 291 396 309l331 22v92c0 157 -99 248 -273 248c-150 0 -255 -77 -279 -205h-127c11 189 181 323 407 323
c247 0 404 -138 404 -355v-734h-126v206h-3c-58 -131 -204 -218 -369 -218zM588 1251h-117l-256 301h153z" />
    <glyph glyph-name="aacute" unicode="&#xe1;" horiz-adv-x="1048" 
d="M463 104c193 0 340 131 340 301v119l-315 -22c-181 -12 -277 -82 -277 -203c0 -116 102 -195 252 -195zM437 -12c-215 0 -361 126 -361 312c0 184 138 291 396 309l331 22v92c0 157 -99 248 -273 248c-150 0 -255 -77 -279 -205h-127c11 189 181 323 407 323
c247 0 404 -138 404 -355v-734h-126v206h-3c-58 -131 -204 -218 -369 -218zM579 1251h-117l220 301h153z" />
    <glyph glyph-name="adieresis" unicode="&#xe4;" horiz-adv-x="1048" 
d="M463 104c193 0 340 131 340 301v119l-315 -22c-181 -12 -277 -82 -277 -203c0 -116 102 -195 252 -195zM437 -12c-215 0 -361 126 -361 312c0 184 138 291 396 309l331 22v92c0 157 -99 248 -273 248c-150 0 -255 -77 -279 -205h-127c11 189 181 323 407 323
c247 0 404 -138 404 -355v-734h-126v206h-3c-58 -131 -204 -218 -369 -218zM350 1259c-50 0 -93 42 -93 92c0 51 43 93 93 93c51 0 93 -42 93 -93c0 -50 -42 -92 -93 -92zM706 1259c-51 0 -93 42 -93 92c0 51 42 93 93 93s93 -42 93 -93c0 -50 -42 -92 -93 -92z" />
    <glyph glyph-name="adieresismacron" unicode="&#x1df;" horiz-adv-x="1048" 
d="M463 104c193 0 340 131 340 301v119l-315 -22c-181 -12 -277 -82 -277 -203c0 -116 102 -195 252 -195zM437 -12c-215 0 -361 126 -361 312c0 184 138 291 396 309l331 22v92c0 157 -99 248 -273 248c-150 0 -255 -77 -279 -205h-127c11 189 181 323 407 323
c247 0 404 -138 404 -355v-734h-126v206h-3c-58 -131 -204 -218 -369 -218zM350 1259c-49 0 -89 40 -89 89c0 50 40 89 89 89c50 0 90 -39 90 -89c0 -49 -40 -89 -90 -89zM706 1259c-49 0 -90 40 -90 89c0 50 41 89 90 89c50 0 89 -39 89 -89c0 -49 -39 -89 -89 -89z
M835 1719v-85h-618v85h618z" />
    <glyph glyph-name="aring" unicode="&#xe5;" horiz-adv-x="1048" 
d="M463 104c193 0 340 131 340 301v119l-315 -22c-181 -12 -277 -82 -277 -203c0 -116 102 -195 252 -195zM437 -12c-215 0 -361 126 -361 312c0 184 138 291 396 309l331 22v92c0 157 -99 248 -273 248c-150 0 -255 -77 -279 -205h-127c11 189 181 323 407 323
c247 0 404 -138 404 -355v-734h-126v206h-3c-58 -131 -204 -218 -369 -218zM528 1206c-103 0 -187 85 -187 188s84 188 187 188s188 -85 188 -188s-85 -188 -188 -188zM528 1274c67 0 120 54 120 120s-53 120 -120 120c-66 0 -119 -54 -119 -120s53 -120 119 -120z" />
    <glyph glyph-name="aringacute" unicode="&#x1fb;" horiz-adv-x="1048" 
d="M463 104c193 0 340 131 340 301v119l-315 -22c-181 -12 -277 -82 -277 -203c0 -116 102 -195 252 -195zM437 -12c-215 0 -361 126 -361 312c0 184 138 291 396 309l331 22v92c0 157 -99 248 -273 248c-150 0 -255 -77 -279 -205h-127c11 189 181 323 407 323
c247 0 404 -138 404 -355v-734h-126v206h-3c-58 -131 -204 -218 -369 -218zM528 1200c-103 0 -188 85 -188 187c0 103 85 188 188 188s188 -85 188 -188c0 -102 -85 -187 -188 -187zM409 1387c0 -66 53 -119 119 -119s119 53 119 119c0 67 -53 120 -119 120
s-119 -53 -119 -120zM474 1651l132 186h125l-160 -186h-97z" />
    <glyph glyph-name="atilde" unicode="&#xe3;" horiz-adv-x="1048" 
d="M463 104c193 0 340 131 340 301v119l-315 -22c-181 -12 -277 -82 -277 -203c0 -116 102 -195 252 -195zM437 -12c-215 0 -361 126 -361 312c0 184 138 291 396 309l331 22v92c0 157 -99 248 -273 248c-150 0 -255 -77 -279 -205h-127c11 189 181 323 407 323
c247 0 404 -138 404 -355v-734h-126v206h-3c-58 -131 -204 -218 -369 -218zM662 1257c-130 0 -170 157 -258 157c-52 0 -78 -55 -78 -144h-91c0 144 59 234 166 234c136 0 177 -157 261 -157c50 0 73 53 73 144h91c0 -141 -61 -234 -164 -234z" />
    <glyph glyph-name="abrevegrave" unicode="&#x1eb1;" horiz-adv-x="1048" 
d="M463 104c193 0 340 131 340 301v119l-315 -22c-181 -12 -277 -82 -277 -203c0 -116 102 -195 252 -195zM437 -12c-215 0 -361 126 -361 312c0 184 138 291 396 309l331 22v92c0 157 -99 248 -273 248c-150 0 -255 -77 -279 -205h-127c11 189 181 323 407 323
c247 0 404 -138 404 -355v-734h-126v206h-3c-58 -131 -204 -218 -369 -218zM610 1536h-104l-227 298h133zM822 1530c0 -172 -118 -279 -294 -279s-294 107 -294 279h93c0 -120 79 -198 201 -198s201 78 201 198h93z" />
    <glyph glyph-name="adotmacron" unicode="&#x1e1;" horiz-adv-x="1048" 
d="M463 104c193 0 340 131 340 301v119l-315 -22c-181 -12 -277 -82 -277 -203c0 -116 102 -195 252 -195zM437 -12c-215 0 -361 126 -361 312c0 184 138 291 396 309l331 22v92c0 157 -99 248 -273 248c-150 0 -255 -77 -279 -205h-127c11 189 181 323 407 323
c247 0 404 -138 404 -355v-734h-126v206h-3c-58 -131 -204 -218 -369 -218zM528 1259c-55 0 -103 45 -103 102c0 56 48 103 103 103s103 -47 103 -103c0 -57 -48 -102 -103 -102zM835 1719v-85h-618v85h618z" />
    <glyph glyph-name="aringbelow" unicode="&#x1e01;" horiz-adv-x="1048" 
d="M463 104c193 0 340 131 340 301v119l-315 -22c-181 -12 -277 -82 -277 -203c0 -116 102 -195 252 -195zM437 -12c-215 0 -361 126 -361 312c0 184 138 291 396 309l331 22v92c0 157 -99 248 -273 248c-150 0 -255 -77 -279 -205h-127c11 189 181 323 407 323
c247 0 404 -138 404 -355v-734h-126v206h-3c-58 -131 -204 -218 -369 -218zM514 -529c-103 0 -187 85 -187 188s84 188 187 188s188 -85 188 -188s-85 -188 -188 -188zM514 -461c67 0 120 54 120 120s-53 120 -120 120c-66 0 -119 -54 -119 -120s53 -120 119 -120z" />
    <glyph glyph-name="acircumflex" unicode="&#xe2;" horiz-adv-x="1048" 
d="M463 104c193 0 340 131 340 301v119l-315 -22c-181 -12 -277 -82 -277 -203c0 -116 102 -195 252 -195zM437 -12c-215 0 -361 126 -361 312c0 184 138 291 396 309l331 22v92c0 157 -99 248 -273 248c-150 0 -255 -77 -279 -205h-127c11 189 181 323 407 323
c247 0 404 -138 404 -355v-734h-126v206h-3c-58 -131 -204 -218 -369 -218zM576 1552l273 -301h-127l-192 220h-5l-192 -220h-127l273 301h97z" />
    <glyph glyph-name="acircumflexdotbelow" unicode="&#x1ead;" horiz-adv-x="1048" 
d="M463 104c193 0 340 131 340 301v119l-315 -22c-181 -12 -277 -82 -277 -203c0 -116 102 -195 252 -195zM437 -12c-215 0 -361 126 -361 312c0 184 138 291 396 309l331 22v92c0 157 -99 248 -273 248c-150 0 -255 -77 -279 -205h-127c11 189 181 323 407 323
c247 0 404 -138 404 -355v-734h-126v206h-3c-58 -131 -204 -218 -369 -218zM576 1552l273 -301h-127l-192 220h-5l-192 -220h-127l273 301h97zM514 -351c-56 0 -102 46 -102 102s46 102 102 102s102 -46 102 -102s-46 -102 -102 -102z" />
    <glyph glyph-name="acircumflexacute" unicode="&#x1ea5;" horiz-adv-x="1048" 
d="M463 104c193 0 340 131 340 301v119l-315 -22c-181 -12 -277 -82 -277 -203c0 -116 102 -195 252 -195zM437 -12c-215 0 -361 126 -361 312c0 184 138 291 396 309l331 22v92c0 157 -99 248 -273 248c-150 0 -255 -77 -279 -205h-127c11 189 181 323 407 323
c247 0 404 -138 404 -355v-734h-126v206h-3c-58 -131 -204 -218 -369 -218zM593 1520l261 -269h-125l-199 205h-4l-199 -205h-125l261 269h130zM711 1536l197 298h134l-227 -298h-104z" />
    <glyph glyph-name="acircumflextilde" unicode="&#x1eab;" horiz-adv-x="1048" 
d="M463 104c193 0 340 131 340 301v119l-315 -22c-181 -12 -277 -82 -277 -203c0 -116 102 -195 252 -195zM437 -12c-215 0 -361 126 -361 312c0 184 138 291 396 309l331 22v92c0 157 -99 248 -273 248c-150 0 -255 -77 -279 -205h-127c11 189 181 323 407 323
c247 0 404 -138 404 -355v-734h-126v206h-3c-58 -131 -204 -218 -369 -218zM593 1520l261 -269h-125l-199 205h-4l-199 -205h-125l261 269h130zM653 1603c-127 0 -160 151 -245 151c-51 0 -77 -51 -77 -135h-91c0 138 60 224 164 224c134 0 167 -151 249 -151
c49 0 72 50 72 136h91c0 -135 -62 -225 -163 -225z" />
    <glyph glyph-name="acircumflexgrave" unicode="&#x1ea7;" horiz-adv-x="1048" 
d="M463 104c193 0 340 131 340 301v119l-315 -22c-181 -12 -277 -82 -277 -203c0 -116 102 -195 252 -195zM437 -12c-215 0 -361 126 -361 312c0 184 138 291 396 309l331 22v92c0 157 -99 248 -273 248c-150 0 -255 -77 -279 -205h-127c11 189 181 323 407 323
c247 0 404 -138 404 -355v-734h-126v206h-3c-58 -131 -204 -218 -369 -218zM593 1520l261 -269h-125l-199 205h-4l-199 -205h-125l261 269h130zM894 1536h-104l-227 298h133z" />
    <glyph glyph-name="acircumflexhookabove" unicode="&#x1ea9;" horiz-adv-x="1048" 
d="M463 104c193 0 340 131 340 301v119l-315 -22c-181 -12 -277 -82 -277 -203c0 -116 102 -195 252 -195zM437 -12c-215 0 -361 126 -361 312c0 184 138 291 396 309l331 22v92c0 157 -99 248 -273 248c-150 0 -255 -77 -279 -205h-127c11 189 181 323 407 323
c247 0 404 -138 404 -355v-734h-126v206h-3c-58 -131 -204 -218 -369 -218zM620 1721v79c22 13 70 25 111 25c108 0 177 -60 177 -152c0 -77 -45 -138 -124 -166l-55 57c53 21 85 60 85 103c0 44 -39 76 -92 76c-37 0 -73 -8 -102 -22zM593 1520l261 -269h-125l-199 205h-4
l-199 -205h-125l261 269h130z" />
    <glyph glyph-name="abreve" unicode="&#x103;" horiz-adv-x="1048" 
d="M463 104c193 0 340 131 340 301v119l-315 -22c-181 -12 -277 -82 -277 -203c0 -116 102 -195 252 -195zM437 -12c-215 0 -361 126 -361 312c0 184 138 291 396 309l331 22v92c0 157 -99 248 -273 248c-150 0 -255 -77 -279 -205h-127c11 189 181 323 407 323
c247 0 404 -138 404 -355v-734h-126v206h-3c-58 -131 -204 -218 -369 -218zM226 1530h97c0 -115 86 -200 204 -200s204 85 204 200h97c0 -174 -124 -286 -301 -286s-301 112 -301 286z" />
    <glyph glyph-name="abreveacute" unicode="&#x1eaf;" horiz-adv-x="1048" 
d="M463 104c193 0 340 131 340 301v119l-315 -22c-181 -12 -277 -82 -277 -203c0 -116 102 -195 252 -195zM437 -12c-215 0 -361 126 -361 312c0 184 138 291 396 309l331 22v92c0 157 -99 248 -273 248c-150 0 -255 -77 -279 -205h-127c11 189 181 323 407 323
c247 0 404 -138 404 -355v-734h-126v206h-3c-58 -131 -204 -218 -369 -218zM446 1536l198 298h133l-227 -298h-104zM822 1530c0 -172 -118 -279 -294 -279s-294 107 -294 279h93c0 -120 79 -198 201 -198s201 78 201 198h93z" />
    <glyph glyph-name="abrevetilde" unicode="&#x1eb5;" horiz-adv-x="1048" 
d="M463 104c193 0 340 131 340 301v119l-315 -22c-181 -12 -277 -82 -277 -203c0 -116 102 -195 252 -195zM437 -12c-215 0 -361 126 -361 312c0 184 138 291 396 309l331 22v92c0 157 -99 248 -273 248c-150 0 -255 -77 -279 -205h-127c11 189 181 323 407 323
c247 0 404 -138 404 -355v-734h-126v206h-3c-58 -131 -204 -218 -369 -218zM822 1530c0 -172 -118 -279 -294 -279s-294 107 -294 279h93c0 -120 79 -198 201 -198s201 78 201 198h93zM653 1603c-127 0 -160 151 -245 151c-51 0 -77 -51 -77 -135h-91c0 138 60 224 164 224
c134 0 167 -151 249 -151c49 0 72 50 72 136h91c0 -135 -62 -225 -163 -225z" />
    <glyph glyph-name="abrevehookabove" unicode="&#x1eb3;" horiz-adv-x="1048" 
d="M463 104c193 0 340 131 340 301v119l-315 -22c-181 -12 -277 -82 -277 -203c0 -116 102 -195 252 -195zM437 -12c-215 0 -361 126 -361 312c0 184 138 291 396 309l331 22v92c0 157 -99 248 -273 248c-150 0 -255 -77 -279 -205h-127c11 189 181 323 407 323
c247 0 404 -138 404 -355v-734h-126v206h-3c-58 -131 -204 -218 -369 -218zM822 1530c0 -172 -118 -279 -294 -279s-294 107 -294 279h93c0 -120 79 -198 201 -198s201 78 201 198h93zM370 1721v79c22 13 69 25 110 25c108 0 178 -60 178 -152c0 -77 -45 -138 -124 -166
l-55 57c52 21 85 60 85 103c0 44 -39 76 -92 76c-37 0 -73 -8 -102 -22z" />
    <glyph glyph-name="abrevedotbelow" unicode="&#x1eb7;" horiz-adv-x="1048" 
d="M463 104c193 0 340 131 340 301v119l-315 -22c-181 -12 -277 -82 -277 -203c0 -116 102 -195 252 -195zM437 -12c-215 0 -361 126 -361 312c0 184 138 291 396 309l331 22v92c0 157 -99 248 -273 248c-150 0 -255 -77 -279 -205h-127c11 189 181 323 407 323
c247 0 404 -138 404 -355v-734h-126v206h-3c-58 -131 -204 -218 -369 -218zM514 -351c-56 0 -102 46 -102 102s46 102 102 102s102 -46 102 -102s-46 -102 -102 -102zM226 1530h97c0 -115 86 -200 204 -200s204 85 204 200h97c0 -174 -124 -286 -301 -286s-301 112 -301 286
z" />
    <glyph glyph-name="ainvertedbreve" unicode="&#x203;" horiz-adv-x="1048" 
d="M463 104c193 0 340 131 340 301v119l-315 -22c-181 -12 -277 -82 -277 -203c0 -116 102 -195 252 -195zM437 -12c-215 0 -361 126 -361 312c0 184 138 291 396 309l331 22v92c0 157 -99 248 -273 248c-150 0 -255 -77 -279 -205h-127c11 189 181 323 407 323
c247 0 404 -138 404 -355v-734h-126v206h-3c-58 -131 -204 -218 -369 -218zM227 1251c0 174 124 286 301 286s301 -112 301 -286h-97c0 115 -86 200 -204 200s-204 -85 -204 -200h-97z" />
    <glyph glyph-name="acaron" unicode="&#x1ce;" horiz-adv-x="1048" 
d="M463 104c193 0 340 131 340 301v119l-315 -22c-181 -12 -277 -82 -277 -203c0 -116 102 -195 252 -195zM437 -12c-215 0 -361 126 -361 312c0 184 138 291 396 309l331 22v92c0 157 -99 248 -273 248c-150 0 -255 -77 -279 -205h-127c11 189 181 323 407 323
c247 0 404 -138 404 -355v-734h-126v206h-3c-58 -131 -204 -218 -369 -218zM576 1251h-97l-273 301h127l192 -219h5l192 219h127z" />
    <glyph glyph-name="adotaccent" unicode="&#x227;" horiz-adv-x="1048" 
d="M463 104c193 0 340 131 340 301v119l-315 -22c-181 -12 -277 -82 -277 -203c0 -116 102 -195 252 -195zM437 -12c-215 0 -361 126 -361 312c0 184 138 291 396 309l331 22v92c0 157 -99 248 -273 248c-150 0 -255 -77 -279 -205h-127c11 189 181 323 407 323
c247 0 404 -138 404 -355v-734h-126v206h-3c-58 -131 -204 -218 -369 -218zM528 1259c-57 0 -104 47 -104 104s47 104 104 104s104 -47 104 -104s-47 -104 -104 -104z" />
    <glyph glyph-name="adotbelow" unicode="&#x1ea1;" horiz-adv-x="1048" 
d="M463 104c193 0 340 131 340 301v119l-315 -22c-181 -12 -277 -82 -277 -203c0 -116 102 -195 252 -195zM437 -12c-215 0 -361 126 -361 312c0 184 138 291 396 309l331 22v92c0 157 -99 248 -273 248c-150 0 -255 -77 -279 -205h-127c11 189 181 323 407 323
c247 0 404 -138 404 -355v-734h-126v206h-3c-58 -131 -204 -218 -369 -218zM514 -351c-56 0 -102 46 -102 102s46 102 102 102s102 -46 102 -102s-46 -102 -102 -102z" />
    <glyph glyph-name="ahookabove" unicode="&#x1ea3;" horiz-adv-x="1048" 
d="M463 104c193 0 340 131 340 301v119l-315 -22c-181 -12 -277 -82 -277 -203c0 -116 102 -195 252 -195zM437 -12c-215 0 -361 126 -361 312c0 184 138 291 396 309l331 22v92c0 157 -99 248 -273 248c-150 0 -255 -77 -279 -205h-127c11 189 181 323 407 323
c247 0 404 -138 404 -355v-734h-126v206h-3c-58 -131 -204 -218 -369 -218zM413 1433v85c37 18 75 27 124 27c106 0 175 -64 175 -161c0 -76 -57 -145 -141 -177l-50 66c58 21 88 56 88 106c0 46 -40 81 -95 81c-35 0 -64 -8 -101 -27z" />
    <glyph glyph-name="adblgrave" unicode="&#x201;" horiz-adv-x="1048" 
d="M463 104c193 0 340 131 340 301v119l-315 -22c-181 -12 -277 -82 -277 -203c0 -116 102 -195 252 -195zM437 -12c-215 0 -361 126 -361 312c0 184 138 291 396 309l331 22v92c0 157 -99 248 -273 248c-150 0 -255 -77 -279 -205h-127c11 189 181 323 407 323
c247 0 404 -138 404 -355v-734h-126v206h-3c-58 -131 -204 -218 -369 -218zM440 1251h-108l-252 301h151zM725 1251h-108l-252 301h151z" />
    <glyph glyph-name="amacron" unicode="&#x101;" horiz-adv-x="1048" 
d="M463 104c193 0 340 131 340 301v119l-315 -22c-181 -12 -277 -82 -277 -203c0 -116 102 -195 252 -195zM437 -12c-215 0 -361 126 -361 312c0 184 138 291 396 309l331 22v92c0 157 -99 248 -273 248c-150 0 -255 -77 -279 -205h-127c11 189 181 323 407 323
c247 0 404 -138 404 -355v-734h-126v206h-3c-58 -131 -204 -218 -369 -218zM835 1400v-85h-618v85h618z" />
    <glyph glyph-name="aogonek" unicode="&#x105;" horiz-adv-x="1048" 
d="M463 104c193 0 340 131 340 301v119l-315 -22c-181 -12 -277 -82 -277 -203c0 -116 102 -195 252 -195zM930 -402c-25 -9 -58 -14 -94 -14c-132 0 -226 80 -226 192c0 101 77 191 199 238v192h-3c-58 -131 -204 -218 -369 -218c-215 0 -361 126 -361 312
c0 184 138 291 396 309l331 22v92c0 157 -99 248 -273 248c-150 0 -255 -77 -279 -205h-127c11 189 181 323 407 323c247 0 404 -138 404 -355v-734l-10 -4c-119 -50 -186 -118 -186 -193c0 -63 51 -108 124 -108c28 0 53 3 67 7v-104z" />
    <glyph glyph-name="b" unicode="b" horiz-adv-x="1154" 
d="M632 -12c-172 0 -310 89 -374 240h-3v-228h-126v1506h132v-650h3c62 145 200 233 370 233c270 0 455 -221 455 -550c0 -330 -185 -551 -457 -551zM610 971c-207 0 -350 -178 -350 -433c0 -254 143 -431 349 -431c207 0 345 172 345 432c0 259 -138 432 -344 432z" />
    <glyph glyph-name="blinebelow" unicode="&#x1e07;" horiz-adv-x="1154" 
d="M915 -214v-85h-610v85h610zM632 -12c-172 0 -310 89 -374 240h-3v-228h-126v1506h132v-650h3c62 145 200 233 370 233c270 0 455 -221 455 -550c0 -330 -185 -551 -457 -551zM610 971c-207 0 -350 -178 -350 -433c0 -254 143 -431 349 -431c207 0 345 172 345 432
c0 259 -138 432 -344 432z" />
    <glyph glyph-name="bdotbelow" unicode="&#x1e05;" horiz-adv-x="1154" 
d="M610 -351c-56 0 -102 46 -102 102s46 102 102 102s102 -46 102 -102s-46 -102 -102 -102zM632 -12c-172 0 -310 89 -374 240h-3v-228h-126v1506h132v-650h3c62 145 200 233 370 233c270 0 455 -221 455 -550c0 -330 -185 -551 -457 -551zM610 971
c-207 0 -350 -178 -350 -433c0 -254 143 -431 349 -431c207 0 345 172 345 432c0 259 -138 432 -344 432z" />
    <glyph glyph-name="bdotaccent" unicode="&#x1e03;" horiz-adv-x="1154" 
d="M195 1638c-56 0 -102 46 -102 102s46 102 102 102s102 -46 102 -102s-46 -102 -102 -102zM632 -12c-172 0 -310 89 -374 240h-3v-228h-126v1506h132v-650h3c62 145 200 233 370 233c270 0 455 -221 455 -550c0 -330 -185 -551 -457 -551zM610 971
c-207 0 -350 -178 -350 -433c0 -254 143 -431 349 -431c207 0 345 172 345 432c0 259 -138 432 -344 432z" />
    <glyph glyph-name="c" unicode="c" horiz-adv-x="1046" 
d="M992 738h-131c-26 132 -139 233 -311 233c-211 0 -350 -170 -350 -432c0 -267 140 -432 351 -432c165 0 280 84 311 225h131c-31 -203 -204 -344 -442 -344c-293 0 -486 211 -486 551c0 333 192 550 484 550c252 0 417 -161 443 -351z" />
    <glyph glyph-name="cacute" unicode="&#x107;" horiz-adv-x="1046" 
d="M992 738h-131c-26 132 -139 233 -311 233c-211 0 -350 -170 -350 -432c0 -267 140 -432 351 -432c165 0 280 84 311 225h131c-31 -203 -204 -344 -442 -344c-293 0 -486 211 -486 551c0 333 192 550 484 550c252 0 417 -161 443 -351zM600 1251h-117l220 301h153z" />
    <glyph glyph-name="ccaron" unicode="&#x10d;" horiz-adv-x="1046" 
d="M597 1251h-97l-273 301h127l192 -219h5l192 219h127zM992 738h-131c-26 132 -139 233 -311 233c-211 0 -350 -170 -350 -432c0 -267 140 -432 351 -432c165 0 280 84 311 225h131c-31 -203 -204 -344 -442 -344c-293 0 -486 211 -486 551c0 333 192 550 484 550
c252 0 417 -161 443 -351z" />
    <glyph glyph-name="ccircumflex" unicode="&#x109;" horiz-adv-x="1046" 
d="M597 1552l273 -301h-127l-192 220h-5l-192 -220h-127l273 301h97zM992 738h-131c-26 132 -139 233 -311 233c-211 0 -350 -170 -350 -432c0 -267 140 -432 351 -432c165 0 280 84 311 225h131c-31 -203 -204 -344 -442 -344c-293 0 -486 211 -486 551
c0 333 192 550 484 550c252 0 417 -161 443 -351z" />
    <glyph glyph-name="cdotaccent" unicode="&#x10b;" horiz-adv-x="1046" 
d="M992 738h-131c-26 132 -139 233 -311 233c-211 0 -350 -170 -350 -432c0 -267 140 -432 351 -432c165 0 280 84 311 225h131c-31 -203 -204 -344 -442 -344c-293 0 -486 211 -486 551c0 333 192 550 484 550c252 0 417 -161 443 -351zM549 1259c-57 0 -104 47 -104 104
s47 104 104 104s104 -47 104 -104s-47 -104 -104 -104z" />
    <glyph glyph-name="ccedilla" unicode="&#xe7;" horiz-adv-x="1046" 
d="M862 332h131c-29 -189 -180 -324 -393 -342l-50 -131c134 0 208 -54 208 -152c0 -101 -91 -173 -218 -174c-52 0 -100 5 -139 17v80c23 -9 78 -16 122 -16c84 0 137 35 137 90s-49 82 -155 82h-53v60l58 143c-270 19 -445 226 -445 550c0 333 192 550 484 550
c252 0 417 -161 443 -351h-131c-26 132 -139 233 -311 233c-211 0 -350 -170 -350 -432c0 -267 140 -432 351 -432c165 0 280 84 311 225z" />
    <glyph glyph-name="ccedillaacute" unicode="&#x1e09;" horiz-adv-x="1046" 
d="M856 1552l-256 -301h-117l220 301h153zM862 332h131c-29 -189 -180 -324 -393 -342l-50 -131c134 0 208 -54 208 -152c0 -101 -91 -173 -218 -174c-52 0 -100 5 -139 17v80c23 -9 78 -16 122 -16c84 0 137 35 137 90s-49 82 -155 82h-53v60l58 143
c-270 19 -445 226 -445 550c0 333 192 550 484 550c252 0 417 -161 443 -351h-131c-26 132 -139 233 -311 233c-211 0 -350 -170 -350 -432c0 -267 140 -432 351 -432c165 0 280 84 311 225z" />
    <glyph glyph-name="d" unicode="d" horiz-adv-x="1157" 
d="M526 -12c-270 0 -461 222 -461 551s190 550 458 550c174 0 312 -94 370 -233h3v650h133v-1506h-126v229h-3c-62 -146 -199 -241 -374 -241zM547 971c-206 0 -347 -173 -347 -432c0 -260 141 -432 347 -432c207 0 350 175 350 432c0 255 -143 432 -350 432z" />
    <glyph glyph-name="ddotaccent" unicode="&#x1e0b;" horiz-adv-x="1157" 
d="M962 1638c-56 0 -102 46 -102 102s46 102 102 102s102 -46 102 -102s-46 -102 -102 -102zM526 -12c-270 0 -461 222 -461 551s190 550 458 550c174 0 312 -94 370 -233h3v650h133v-1506h-126v229h-3c-62 -146 -199 -241 -374 -241zM547 971c-206 0 -347 -173 -347 -432
c0 -260 141 -432 347 -432c207 0 350 175 350 432c0 255 -143 432 -350 432z" />
    <glyph glyph-name="dcircumflexbelow" unicode="&#x1e13;" horiz-adv-x="1157" 
d="M526 -12c-270 0 -461 222 -461 551s190 550 458 550c174 0 312 -94 370 -233h3v650h133v-1506h-126v229h-3c-62 -146 -199 -241 -374 -241zM547 971c-206 0 -347 -173 -347 -432c0 -260 141 -432 347 -432c207 0 350 175 350 432c0 255 -143 432 -350 432zM480 -158h110
l283 -295h-131l-206 217h-2l-206 -217h-131z" />
    <glyph glyph-name="dcommaaccent" unicode="&#x1e11;" horiz-adv-x="1157" 
d="M502 -520h-100l95 358h121zM526 -12c-270 0 -461 222 -461 551s190 550 458 550c174 0 312 -94 370 -233h3v650h133v-1506h-126v229h-3c-62 -146 -199 -241 -374 -241zM547 971c-206 0 -347 -173 -347 -432c0 -260 141 -432 347 -432c207 0 350 175 350 432
c0 255 -143 432 -350 432z" />
    <glyph glyph-name="dlinebelow" unicode="&#x1e0f;" horiz-adv-x="1157" 
d="M840 -214v-85h-610v85h610zM526 -12c-270 0 -461 222 -461 551s190 550 458 550c174 0 312 -94 370 -233h3v650h133v-1506h-126v229h-3c-62 -146 -199 -241 -374 -241zM547 971c-206 0 -347 -173 -347 -432c0 -260 141 -432 347 -432c207 0 350 175 350 432
c0 255 -143 432 -350 432z" />
    <glyph glyph-name="dcaron" unicode="&#x10f;" horiz-adv-x="1274" 
d="M1195 1496h109l-24 -444h-85v444zM526 -12c-270 0 -461 222 -461 551s190 550 458 550c174 0 312 -94 370 -233h3v650h133v-1506h-126v229h-3c-62 -146 -199 -241 -374 -241zM547 971c-206 0 -347 -173 -347 -432c0 -260 141 -432 347 -432c207 0 350 175 350 432
c0 255 -143 432 -350 432z" />
    <glyph glyph-name="ddotbelow" unicode="&#x1e0d;" horiz-adv-x="1157" 
d="M535 -351c-56 0 -102 46 -102 102s46 102 102 102s102 -46 102 -102s-46 -102 -102 -102zM526 -12c-270 0 -461 222 -461 551s190 550 458 550c174 0 312 -94 370 -233h3v650h133v-1506h-126v229h-3c-62 -146 -199 -241 -374 -241zM547 971c-206 0 -347 -173 -347 -432
c0 -260 141 -432 347 -432c207 0 350 175 350 432c0 255 -143 432 -350 432z" />
    <glyph glyph-name="dcroat" unicode="&#x111;" horiz-adv-x="1177" 
d="M547 107c207 0 350 175 350 432c0 255 -143 432 -350 432c-206 0 -347 -173 -347 -432c0 -260 141 -432 347 -432zM1163 1369v-97h-134v-1272h-126v229h-3c-62 -146 -199 -241 -374 -241c-270 0 -461 222 -461 551s190 550 458 550c174 0 312 -94 370 -233h3v416h-262v97
h262v137h133v-137h134z" />
    <glyph glyph-name="e" unicode="e" horiz-adv-x="1075" 
d="M543 972c-193 0 -329 -144 -341 -358h670c-2 214 -134 358 -329 358zM865 305h131c-32 -184 -209 -317 -443 -317c-298 0 -488 209 -488 548c0 334 190 553 480 553c283 0 465 -205 465 -525v-58h-808v-7c0 -244 140 -394 354 -394c162 0 277 82 309 200z" />
    <glyph glyph-name="egrave" unicode="&#xe8;" horiz-adv-x="1075" 
d="M605 1251h-117l-256 301h153zM543 972c-193 0 -329 -144 -341 -358h670c-2 214 -134 358 -329 358zM865 305h131c-32 -184 -209 -317 -443 -317c-298 0 -488 209 -488 548c0 334 190 553 480 553c283 0 465 -205 465 -525v-58h-808v-7c0 -244 140 -394 354 -394
c162 0 277 82 309 200z" />
    <glyph glyph-name="edblgrave" unicode="&#x205;" horiz-adv-x="1075" 
d="M543 972c-193 0 -329 -144 -341 -358h670c-2 214 -134 358 -329 358zM865 305h131c-32 -184 -209 -317 -443 -317c-298 0 -488 209 -488 548c0 334 190 553 480 553c283 0 465 -205 465 -525v-58h-808v-7c0 -244 140 -394 354 -394c162 0 277 82 309 200zM457 1251h-108
l-252 301h151zM742 1251h-108l-252 301h151z" />
    <glyph glyph-name="eacute" unicode="&#xe9;" horiz-adv-x="1075" 
d="M596 1251h-117l220 301h153zM543 972c-193 0 -329 -144 -341 -358h670c-2 214 -134 358 -329 358zM865 305h131c-32 -184 -209 -317 -443 -317c-298 0 -488 209 -488 548c0 334 190 553 480 553c283 0 465 -205 465 -525v-58h-808v-7c0 -244 140 -394 354 -394
c162 0 277 82 309 200z" />
    <glyph glyph-name="ecircumflex" unicode="&#xea;" horiz-adv-x="1075" 
d="M593 1552l273 -301h-127l-192 220h-5l-192 -220h-127l273 301h97zM543 972c-193 0 -329 -144 -341 -358h670c-2 214 -134 358 -329 358zM865 305h131c-32 -184 -209 -317 -443 -317c-298 0 -488 209 -488 548c0 334 190 553 480 553c283 0 465 -205 465 -525v-58h-808v-7
c0 -244 140 -394 354 -394c162 0 277 82 309 200z" />
    <glyph glyph-name="ecircumflexhookabove" unicode="&#x1ec3;" horiz-adv-x="1075" 
d="M637 1721v79c22 13 70 25 111 25c108 0 177 -60 177 -152c0 -77 -45 -138 -124 -166l-55 57c53 21 85 60 85 103c0 44 -39 76 -92 76c-37 0 -73 -8 -102 -22zM610 1520l261 -269h-125l-199 205h-4l-199 -205h-125l261 269h130zM543 972c-193 0 -329 -144 -341 -358h670
c-2 214 -134 358 -329 358zM865 305h131c-32 -184 -209 -317 -443 -317c-298 0 -488 209 -488 548c0 334 190 553 480 553c283 0 465 -205 465 -525v-58h-808v-7c0 -244 140 -394 354 -394c162 0 277 82 309 200z" />
    <glyph glyph-name="ecircumflexgrave" unicode="&#x1ec1;" horiz-adv-x="1075" 
d="M610 1520l261 -269h-125l-199 205h-4l-199 -205h-125l261 269h130zM911 1536h-104l-227 298h133zM543 972c-193 0 -329 -144 -341 -358h670c-2 214 -134 358 -329 358zM865 305h131c-32 -184 -209 -317 -443 -317c-298 0 -488 209 -488 548c0 334 190 553 480 553
c283 0 465 -205 465 -525v-58h-808v-7c0 -244 140 -394 354 -394c162 0 277 82 309 200z" />
    <glyph glyph-name="ecircumflextilde" unicode="&#x1ec5;" horiz-adv-x="1075" 
d="M543 972c-193 0 -329 -144 -341 -358h670c-2 214 -134 358 -329 358zM865 305h131c-32 -184 -209 -317 -443 -317c-298 0 -488 209 -488 548c0 334 190 553 480 553c283 0 465 -205 465 -525v-58h-808v-7c0 -244 140 -394 354 -394c162 0 277 82 309 200zM610 1520
l261 -269h-125l-199 205h-4l-199 -205h-125l261 269h130zM670 1603c-127 0 -160 151 -245 151c-51 0 -77 -51 -77 -135h-91c0 138 60 224 164 224c134 0 167 -151 249 -151c49 0 72 50 72 136h91c0 -135 -62 -225 -163 -225z" />
    <glyph glyph-name="ecircumflexdotbelow" unicode="&#x1ec7;" horiz-adv-x="1075" 
d="M593 1552l273 -301h-127l-192 220h-5l-192 -220h-127l273 301h97zM543 972c-193 0 -329 -144 -341 -358h670c-2 214 -134 358 -329 358zM865 305h131c-32 -184 -209 -317 -443 -317c-298 0 -488 209 -488 548c0 334 190 553 480 553c283 0 465 -205 465 -525v-58h-808v-7
c0 -244 140 -394 354 -394c162 0 277 82 309 200zM553 -351c-56 0 -102 46 -102 102s46 102 102 102s102 -46 102 -102s-46 -102 -102 -102z" />
    <glyph glyph-name="ecircumflexacute" unicode="&#x1ebf;" horiz-adv-x="1075" 
d="M610 1520l261 -269h-125l-199 205h-4l-199 -205h-125l261 269h130zM728 1536l197 298h134l-227 -298h-104zM543 972c-193 0 -329 -144 -341 -358h670c-2 214 -134 358 -329 358zM865 305h131c-32 -184 -209 -317 -443 -317c-298 0 -488 209 -488 548
c0 334 190 553 480 553c283 0 465 -205 465 -525v-58h-808v-7c0 -244 140 -394 354 -394c162 0 277 82 309 200z" />
    <glyph glyph-name="edieresis" unicode="&#xeb;" horiz-adv-x="1075" 
d="M543 972c-193 0 -329 -144 -341 -358h670c-2 214 -134 358 -329 358zM865 305h131c-32 -184 -209 -317 -443 -317c-298 0 -488 209 -488 548c0 334 190 553 480 553c283 0 465 -205 465 -525v-58h-808v-7c0 -244 140 -394 354 -394c162 0 277 82 309 200zM367 1259
c-50 0 -93 42 -93 92c0 51 43 93 93 93c51 0 93 -42 93 -93c0 -50 -42 -92 -93 -92zM723 1259c-51 0 -93 42 -93 92c0 51 42 93 93 93s93 -42 93 -93c0 -50 -42 -92 -93 -92z" />
    <glyph glyph-name="edotbelow" unicode="&#x1eb9;" horiz-adv-x="1075" 
d="M553 -351c-56 0 -102 46 -102 102s46 102 102 102s102 -46 102 -102s-46 -102 -102 -102zM543 972c-193 0 -329 -144 -341 -358h670c-2 214 -134 358 -329 358zM865 305h131c-32 -184 -209 -317 -443 -317c-298 0 -488 209 -488 548c0 334 190 553 480 553
c283 0 465 -205 465 -525v-58h-808v-7c0 -244 140 -394 354 -394c162 0 277 82 309 200z" />
    <glyph glyph-name="einvertedbreve" unicode="&#x207;" horiz-adv-x="1075" 
d="M543 972c-193 0 -329 -144 -341 -358h670c-2 214 -134 358 -329 358zM865 305h131c-32 -184 -209 -317 -443 -317c-298 0 -488 209 -488 548c0 334 190 553 480 553c283 0 465 -205 465 -525v-58h-808v-7c0 -244 140 -394 354 -394c162 0 277 82 309 200zM244 1251
c0 174 124 286 301 286s301 -112 301 -286h-97c0 115 -86 200 -204 200s-204 -85 -204 -200h-97z" />
    <glyph glyph-name="ehookabove" unicode="&#x1ebb;" horiz-adv-x="1075" 
d="M543 972c-193 0 -329 -144 -341 -358h670c-2 214 -134 358 -329 358zM865 305h131c-32 -184 -209 -317 -443 -317c-298 0 -488 209 -488 548c0 334 190 553 480 553c283 0 465 -205 465 -525v-58h-808v-7c0 -244 140 -394 354 -394c162 0 277 82 309 200zM430 1433v85
c37 18 75 27 124 27c106 0 175 -64 175 -161c0 -76 -57 -145 -141 -177l-50 66c58 21 88 56 88 106c0 46 -40 81 -95 81c-35 0 -64 -8 -101 -27z" />
    <glyph glyph-name="ecaron" unicode="&#x11b;" horiz-adv-x="1075" 
d="M593 1251h-97l-273 301h127l192 -219h5l192 219h127zM543 972c-193 0 -329 -144 -341 -358h670c-2 214 -134 358 -329 358zM865 305h131c-32 -184 -209 -317 -443 -317c-298 0 -488 209 -488 548c0 334 190 553 480 553c283 0 465 -205 465 -525v-58h-808v-7
c0 -244 140 -394 354 -394c162 0 277 82 309 200z" />
    <glyph glyph-name="emacron" unicode="&#x113;" horiz-adv-x="1075" 
d="M543 972c-193 0 -329 -144 -341 -358h670c-2 214 -134 358 -329 358zM865 305h131c-32 -184 -209 -317 -443 -317c-298 0 -488 209 -488 548c0 334 190 553 480 553c283 0 465 -205 465 -525v-58h-808v-7c0 -244 140 -394 354 -394c162 0 277 82 309 200zM852 1400v-85
h-618v85h618z" />
    <glyph glyph-name="emacrongrave" unicode="&#x1e15;" horiz-adv-x="1075" 
d="M543 972c-193 0 -329 -144 -341 -358h670c-2 214 -134 358 -329 358zM865 305h131c-32 -184 -209 -317 -443 -317c-298 0 -488 209 -488 548c0 334 190 553 480 553c283 0 465 -205 465 -525v-58h-808v-7c0 -244 140 -394 354 -394c162 0 277 82 309 200zM612 1563h-117
l-218 274h145zM852 1400v-85h-618v85h618z" />
    <glyph glyph-name="emacronacute" unicode="&#x1e17;" horiz-adv-x="1075" 
d="M543 972c-193 0 -329 -144 -341 -358h670c-2 214 -134 358 -329 358zM865 305h131c-32 -184 -209 -317 -443 -317c-298 0 -488 209 -488 548c0 334 190 553 480 553c283 0 465 -205 465 -525v-58h-808v-7c0 -244 140 -394 354 -394c162 0 277 82 309 200zM478 1563
l190 274h145l-218 -274h-117zM852 1400v-85h-618v85h618z" />
    <glyph glyph-name="etilde" unicode="&#x1ebd;" horiz-adv-x="1075" 
d="M543 972c-193 0 -329 -144 -341 -358h670c-2 214 -134 358 -329 358zM865 305h131c-32 -184 -209 -317 -443 -317c-298 0 -488 209 -488 548c0 334 190 553 480 553c283 0 465 -205 465 -525v-58h-808v-7c0 -244 140 -394 354 -394c162 0 277 82 309 200zM679 1257
c-130 0 -170 157 -258 157c-52 0 -78 -55 -78 -144h-91c0 144 59 234 166 234c136 0 177 -157 261 -157c50 0 73 53 73 144h91c0 -141 -61 -234 -164 -234z" />
    <glyph glyph-name="ecircumflexbelow" unicode="&#x1e19;" horiz-adv-x="1075" 
d="M543 972c-193 0 -329 -144 -341 -358h670c-2 214 -134 358 -329 358zM865 305h131c-32 -184 -209 -317 -443 -317c-298 0 -488 209 -488 548c0 334 190 553 480 553c283 0 465 -205 465 -525v-58h-808v-7c0 -244 140 -394 354 -394c162 0 277 82 309 200zM498 -158h110
l283 -295h-131l-206 217h-2l-206 -217h-131z" />
    <glyph glyph-name="ebreve" unicode="&#x115;" horiz-adv-x="1075" 
d="M543 972c-193 0 -329 -144 -341 -358h670c-2 214 -134 358 -329 358zM865 305h131c-32 -184 -209 -317 -443 -317c-298 0 -488 209 -488 548c0 334 190 553 480 553c283 0 465 -205 465 -525v-58h-808v-7c0 -244 140 -394 354 -394c162 0 277 82 309 200zM243 1530h97
c0 -115 86 -200 204 -200s204 85 204 200h97c0 -174 -124 -286 -301 -286s-301 112 -301 286z" />
    <glyph glyph-name="etildebelow" unicode="&#x1e1b;" horiz-adv-x="1075" 
d="M684 -394c-130 0 -170 157 -258 157c-52 0 -78 -55 -78 -144h-91c0 144 59 234 166 234c136 0 177 -157 261 -157c50 0 73 53 73 144h91c0 -141 -61 -234 -164 -234zM543 972c-193 0 -329 -144 -341 -358h670c-2 214 -134 358 -329 358zM865 305h131
c-32 -184 -209 -317 -443 -317c-298 0 -488 209 -488 548c0 334 190 553 480 553c283 0 465 -205 465 -525v-58h-808v-7c0 -244 140 -394 354 -394c162 0 277 82 309 200z" />
    <glyph glyph-name="edotaccent" unicode="&#x117;" horiz-adv-x="1075" 
d="M545 1259c-57 0 -104 47 -104 104s47 104 104 104s104 -47 104 -104s-47 -104 -104 -104zM543 972c-193 0 -329 -144 -341 -358h670c-2 214 -134 358 -329 358zM865 305h131c-32 -184 -209 -317 -443 -317c-298 0 -488 209 -488 548c0 334 190 553 480 553
c283 0 465 -205 465 -525v-58h-808v-7c0 -244 140 -394 354 -394c162 0 277 82 309 200z" />
    <glyph glyph-name="ecedilla" unicode="&#x229;" horiz-adv-x="1075" 
d="M202 614h670c-2 214 -134 358 -329 358c-193 0 -329 -144 -341 -358zM1010 506h-808v-7c0 -244 140 -394 354 -394c162 0 277 82 309 200h131c-30 -171 -184 -298 -394 -315l-50 -131c134 0 208 -54 208 -152c0 -101 -91 -173 -218 -174c-52 0 -100 5 -139 17v80
c23 -9 78 -16 122 -16c84 0 137 35 137 90s-49 82 -155 82h-53v60l58 143c-274 19 -447 224 -447 547c0 334 190 553 480 553c283 0 465 -205 465 -525v-58z" />
    <glyph glyph-name="ecedillabreve" unicode="&#x1e1d;" horiz-adv-x="1075" 
d="M748 1530h97c0 -174 -124 -286 -301 -286s-301 112 -301 286h97c0 -115 86 -200 204 -200s204 85 204 200zM202 614h670c-2 214 -134 358 -329 358c-193 0 -329 -144 -341 -358zM1010 506h-808v-7c0 -244 140 -394 354 -394c162 0 277 82 309 200h131
c-30 -171 -184 -298 -394 -315l-50 -131c134 0 208 -54 208 -152c0 -101 -91 -173 -218 -174c-52 0 -100 5 -139 17v80c23 -9 78 -16 122 -16c84 0 137 35 137 90s-49 82 -155 82h-53v60l58 143c-274 19 -447 224 -447 547c0 334 190 553 480 553c283 0 465 -205 465 -525
v-58z" />
    <glyph glyph-name="eogonek" unicode="&#x119;" horiz-adv-x="1075" 
d="M736 -416c-132 0 -226 80 -226 192c0 83 46 156 135 221v4c-21 -7 -64 -13 -92 -13c-298 0 -488 209 -488 548c0 334 190 553 480 553c283 0 465 -205 465 -525v-58h-808v-7c0 -244 140 -394 354 -394c162 0 277 82 309 200h131c-17 -99 -86 -196 -199 -277
c-110 -76 -158 -145 -158 -225c0 -63 51 -108 123 -108c28 0 54 3 67 7v-104c-25 -9 -58 -14 -93 -14zM543 972c-193 0 -329 -144 -341 -358h670c-2 214 -134 358 -329 358z" />
    <glyph glyph-name="f" unicode="f" horiz-adv-x="589" 
d="M173 0v966h-150v111h150v123c0 189 87 272 266 272c33 0 62 -3 89 -9v-111c-22 5 -51 8 -78 8c-96 0 -143 -46 -144 -162v-121h219v-111h-219v-966h-133z" />
    <glyph glyph-name="fdotaccent" unicode="&#x1e1f;" horiz-adv-x="589" 
d="M346 1597c-56 0 -102 46 -102 102s46 102 102 102s102 -46 102 -102s-46 -102 -102 -102zM173 0v966h-150v111h150v123c0 189 87 272 266 272c33 0 62 -3 89 -9v-111c-22 5 -51 8 -78 8c-96 0 -143 -46 -144 -162v-121h219v-111h-219v-966h-133z" />
    <glyph glyph-name="g" unicode="g" horiz-adv-x="1144" 
d="M543 114c208 0 350 174 350 427c0 255 -142 430 -350 430c-206 0 -343 -172 -343 -430c0 -257 137 -427 343 -427zM552 -375c-238 0 -407 111 -434 276h138c26 -96 143 -160 304 -160c200 0 333 103 333 269v219h-3c-60 -139 -198 -234 -370 -234
c-271 0 -455 220 -455 546c0 329 184 548 458 548c172 0 311 -94 374 -235h2v223h126v-1057c0 -247 -185 -395 -473 -395z" />
    <glyph glyph-name="gacute" unicode="&#x1f5;" horiz-adv-x="1144" 
d="M607 1251h-117l220 301h153zM543 114c208 0 350 174 350 427c0 255 -142 430 -350 430c-206 0 -343 -172 -343 -430c0 -257 137 -427 343 -427zM552 -375c-238 0 -407 111 -434 276h138c26 -96 143 -160 304 -160c200 0 333 103 333 269v219h-3
c-60 -139 -198 -234 -370 -234c-271 0 -455 220 -455 546c0 329 184 548 458 548c172 0 311 -94 374 -235h2v223h126v-1057c0 -247 -185 -395 -473 -395z" />
    <glyph glyph-name="gcaron" unicode="&#x1e7;" horiz-adv-x="1144" 
d="M604 1251h-97l-273 301h127l192 -219h5l192 219h127zM543 114c208 0 350 174 350 427c0 255 -142 430 -350 430c-206 0 -343 -172 -343 -430c0 -257 137 -427 343 -427zM552 -375c-238 0 -407 111 -434 276h138c26 -96 143 -160 304 -160c200 0 333 103 333 269v219h-3
c-60 -139 -198 -234 -370 -234c-271 0 -455 220 -455 546c0 329 184 548 458 548c172 0 311 -94 374 -235h2v223h126v-1057c0 -247 -185 -395 -473 -395z" />
    <glyph glyph-name="gcircumflex" unicode="&#x11d;" horiz-adv-x="1144" 
d="M604 1552l273 -301h-127l-192 220h-5l-192 -220h-127l273 301h97zM543 114c208 0 350 174 350 427c0 255 -142 430 -350 430c-206 0 -343 -172 -343 -430c0 -257 137 -427 343 -427zM552 -375c-238 0 -407 111 -434 276h138c26 -96 143 -160 304 -160
c200 0 333 103 333 269v219h-3c-60 -139 -198 -234 -370 -234c-271 0 -455 220 -455 546c0 329 184 548 458 548c172 0 311 -94 374 -235h2v223h126v-1057c0 -247 -185 -395 -473 -395z" />
    <glyph glyph-name="gbreve" unicode="&#x11f;" horiz-adv-x="1144" 
d="M254 1530h97c0 -115 86 -200 204 -200s204 85 204 200h97c0 -174 -124 -286 -301 -286s-301 112 -301 286zM543 114c208 0 350 174 350 427c0 255 -142 430 -350 430c-206 0 -343 -172 -343 -430c0 -257 137 -427 343 -427zM552 -375c-238 0 -407 111 -434 276h138
c26 -96 143 -160 304 -160c200 0 333 103 333 269v219h-3c-60 -139 -198 -234 -370 -234c-271 0 -455 220 -455 546c0 329 184 548 458 548c172 0 311 -94 374 -235h2v223h126v-1057c0 -247 -185 -395 -473 -395z" />
    <glyph glyph-name="gmacron" unicode="&#x1e21;" horiz-adv-x="1144" 
d="M863 1400v-85h-618v85h618zM543 114c208 0 350 174 350 427c0 255 -142 430 -350 430c-206 0 -343 -172 -343 -430c0 -257 137 -427 343 -427zM552 -375c-238 0 -407 111 -434 276h138c26 -96 143 -160 304 -160c200 0 333 103 333 269v219h-3
c-60 -139 -198 -234 -370 -234c-271 0 -455 220 -455 546c0 329 184 548 458 548c172 0 311 -94 374 -235h2v223h126v-1057c0 -247 -185 -395 -473 -395z" />
    <glyph glyph-name="gdotaccent" unicode="&#x121;" horiz-adv-x="1144" 
d="M556 1259c-57 0 -104 47 -104 104s47 104 104 104s104 -47 104 -104s-47 -104 -104 -104zM543 114c208 0 350 174 350 427c0 255 -142 430 -350 430c-206 0 -343 -172 -343 -430c0 -257 137 -427 343 -427zM552 -375c-238 0 -407 111 -434 276h138
c26 -96 143 -160 304 -160c200 0 333 103 333 269v219h-3c-60 -139 -198 -234 -370 -234c-271 0 -455 220 -455 546c0 329 184 548 458 548c172 0 311 -94 374 -235h2v223h126v-1057c0 -247 -185 -395 -473 -395z" />
    <glyph glyph-name="gcommaaccent" unicode="&#x123;" horiz-adv-x="1144" 
d="M519 -882h-100l95 358h121zM543 114c208 0 350 174 350 427c0 255 -142 430 -350 430c-206 0 -343 -172 -343 -430c0 -257 137 -427 343 -427zM552 -375c-238 0 -407 111 -434 276h138c26 -96 143 -160 304 -160c200 0 333 103 333 269v219h-3
c-60 -139 -198 -234 -370 -234c-271 0 -455 220 -455 546c0 329 184 548 458 548c172 0 311 -94 374 -235h2v223h126v-1057c0 -247 -185 -395 -473 -395z" />
    <glyph glyph-name="h" unicode="h" horiz-adv-x="1118" 
d="M129 0v1506h132v-630h3c60 134 183 213 356 213c236 0 385 -158 385 -399v-690h-132v669c0 188 -106 302 -290 302c-195 0 -322 -138 -322 -343v-628h-132z" />
    <glyph glyph-name="hdieresis" unicode="&#x1e27;" horiz-adv-x="1118" 
d="M129 0v1506h132v-630h3c60 134 183 213 356 213c236 0 385 -158 385 -399v-690h-132v669c0 188 -106 302 -290 302c-195 0 -322 -138 -322 -343v-628h-132zM18 1639c-50 0 -93 42 -93 92c0 51 43 93 93 93c51 0 93 -42 93 -93c0 -50 -42 -92 -93 -92zM374 1639
c-51 0 -93 42 -93 92c0 51 42 93 93 93s93 -42 93 -93c0 -50 -42 -92 -93 -92z" />
    <glyph glyph-name="hcaron" unicode="&#x21f;" horiz-adv-x="1118" 
d="M129 0v1506h132v-630h3c60 134 183 213 356 213c236 0 385 -158 385 -399v-690h-132v669c0 188 -106 302 -290 302c-195 0 -322 -138 -322 -343v-628h-132zM141 1614l-283 295h131l206 -217h2l206 217h131l-283 -295h-110z" />
    <glyph glyph-name="hcircumflex" unicode="&#x125;" horiz-adv-x="1118" 
d="M129 0v1506h132v-630h3c60 134 183 213 356 213c236 0 385 -158 385 -399v-690h-132v669c0 188 -106 302 -290 302c-195 0 -322 -138 -322 -343v-628h-132zM141 1909h110l283 -295h-131l-206 217h-2l-206 -217h-131z" />
    <glyph glyph-name="hdotbelow" unicode="&#x1e25;" horiz-adv-x="1118" 
d="M129 0v1506h132v-630h3c60 134 183 213 356 213c236 0 385 -158 385 -399v-690h-132v669c0 188 -106 302 -290 302c-195 0 -322 -138 -322 -343v-628h-132zM568 -351c-56 0 -102 46 -102 102s46 102 102 102s102 -46 102 -102s-46 -102 -102 -102z" />
    <glyph glyph-name="hdotaccent" unicode="&#x1e23;" horiz-adv-x="1118" 
d="M129 0v1506h132v-630h3c60 134 183 213 356 213c236 0 385 -158 385 -399v-690h-132v669c0 188 -106 302 -290 302c-195 0 -322 -138 -322 -343v-628h-132zM196 1638c-56 0 -102 46 -102 102s46 102 102 102s102 -46 102 -102s-46 -102 -102 -102z" />
    <glyph glyph-name="hbrevebelow" unicode="&#x1e2b;" horiz-adv-x="1118" 
d="M276 -179h94c0 -106 83 -189 198 -189s198 83 198 189h94c0 -162 -120 -272 -292 -272s-292 110 -292 272zM129 0v1506h132v-630h3c60 134 183 213 356 213c236 0 385 -158 385 -399v-690h-132v669c0 188 -106 302 -290 302c-195 0 -322 -138 -322 -343v-628h-132z" />
    <glyph glyph-name="hcedilla" unicode="&#x1e29;" horiz-adv-x="1118" 
d="M261 876h3c60 134 183 213 356 213c236 0 385 -158 385 -399v-690h-132v669c0 188 -106 302 -290 302c-195 0 -322 -138 -322 -343v-628h-12l-54 -141c134 0 208 -54 208 -152c0 -101 -91 -173 -218 -174c-52 0 -100 5 -139 17v80c23 -9 78 -16 122 -16
c84 0 137 35 137 90s-49 82 -155 82h-53v60l62 154h-30v1506h132v-630z" />
    <glyph glyph-name="hbar" unicode="&#x127;" horiz-adv-x="1126" 
d="M268 876h4c59 134 182 213 355 213c236 0 386 -158 386 -399v-690h-133v669c0 188 -106 302 -290 302c-195 0 -322 -138 -322 -343v-628h-132v1272h-122v97h122v137h132v-137h275v-97h-275v-396z" />
    <glyph glyph-name="hlinebelow" unicode="&#x1e96;" horiz-adv-x="1118" 
d="M129 0v1506h132v-630h3c60 134 183 213 356 213c236 0 385 -158 385 -399v-690h-132v669c0 188 -106 302 -290 302c-195 0 -322 -138 -322 -343v-628h-132zM873 -214v-85h-610v85h610z" />
    <glyph glyph-name="i" unicode="i" horiz-adv-x="390" 
d="M129 0v1077h132v-1077h-132zM195 1290c-49 0 -90 41 -90 89c0 50 41 90 90 90s89 -40 89 -90c0 -48 -40 -89 -89 -89z" />
    <glyph glyph-name="idotaccent" horiz-adv-x="390" 
d="M195 1259c-57 0 -104 47 -104 104s47 104 104 104s104 -47 104 -104s-47 -104 -104 -104zM129 0v1077h132v-1077h-132z" />
    <glyph glyph-name="igrave" unicode="&#xec;" horiz-adv-x="390" 
d="M255 1251h-117l-256 301h153zM129 0v1077h132v-1077h-132z" />
    <glyph glyph-name="idblgrave" unicode="&#x209;" horiz-adv-x="390" 
d="M129 0v1077h132v-1077h-132zM107 1251h-108l-252 301h151zM392 1251h-108l-252 301h151z" />
    <glyph glyph-name="iacute" unicode="&#xed;" horiz-adv-x="390" 
d="M246 1251h-117l220 301h153zM129 0v1077h132v-1077h-132z" />
    <glyph glyph-name="icircumflex" unicode="&#xee;" horiz-adv-x="390" 
d="M243 1552l273 -301h-127l-192 220h-5l-192 -220h-127l273 301h97zM129 0v1077h132v-1077h-132z" />
    <glyph glyph-name="icaron" unicode="&#x1d0;" horiz-adv-x="390" 
d="M243 1251h-97l-273 301h127l192 -219h5l192 219h127zM129 0v1077h132v-1077h-132z" />
    <glyph glyph-name="idieresis" unicode="&#xef;" horiz-adv-x="390" 
d="M129 0v1077h132v-1077h-132zM17 1259c-50 0 -93 42 -93 92c0 51 43 93 93 93c51 0 93 -42 93 -93c0 -50 -42 -92 -93 -92zM373 1259c-51 0 -93 42 -93 92c0 51 42 93 93 93s93 -42 93 -93c0 -50 -42 -92 -93 -92z" />
    <glyph glyph-name="idieresisacute" unicode="&#x1e2f;" horiz-adv-x="390" 
d="M132 1565l187 269h148l-217 -269h-118zM17 1259c-50 0 -93 42 -93 92c0 51 43 93 93 93c51 0 93 -42 93 -93c0 -50 -42 -92 -93 -92zM373 1259c-51 0 -93 42 -93 92c0 51 42 93 93 93s93 -42 93 -93c0 -50 -42 -92 -93 -92zM129 0v1077h132v-1077h-132z" />
    <glyph glyph-name="ibreve" unicode="&#x12d;" horiz-adv-x="390" 
d="M129 0v1077h132v-1077h-132zM-107 1530h97c0 -115 86 -200 204 -200s204 85 204 200h97c0 -174 -124 -286 -301 -286s-301 112 -301 286z" />
    <glyph glyph-name="idotbelow" unicode="&#x1ecb;" horiz-adv-x="390" 
d="M129 0v1077h132v-1077h-132zM195 1290c-49 0 -90 41 -90 89c0 50 41 90 90 90s89 -40 89 -90c0 -48 -40 -89 -89 -89zM195 -351c-56 0 -102 46 -102 102s46 102 102 102s102 -46 102 -102s-46 -102 -102 -102z" />
    <glyph glyph-name="iinvertedbreve" unicode="&#x20b;" horiz-adv-x="390" 
d="M129 0v1077h132v-1077h-132zM-106 1251c0 174 124 286 301 286s301 -112 301 -286h-97c0 115 -86 200 -204 200s-204 -85 -204 -200h-97z" />
    <glyph glyph-name="imacron" unicode="&#x12b;" horiz-adv-x="390" 
d="M129 0v1077h132v-1077h-132zM502 1400v-85h-618v85h618z" />
    <glyph glyph-name="itildebelow" unicode="&#x1e2d;" horiz-adv-x="390" 
d="M129 0v1077h132v-1077h-132zM195 1290c-49 0 -90 41 -90 89c0 50 41 90 90 90s89 -40 89 -90c0 -48 -40 -89 -89 -89zM326 -394c-130 0 -170 157 -258 157c-52 0 -78 -55 -78 -144h-91c0 144 59 234 166 234c136 0 177 -157 261 -157c50 0 73 53 73 144h91
c0 -141 -61 -234 -164 -234z" />
    <glyph glyph-name="ihookabove" unicode="&#x1ec9;" horiz-adv-x="390" 
d="M129 0v1077h132v-1077h-132zM80 1433v85c37 18 75 27 124 27c106 0 175 -64 175 -161c0 -76 -57 -145 -141 -177l-50 66c58 21 88 56 88 106c0 46 -40 81 -95 81c-35 0 -64 -8 -101 -27z" />
    <glyph glyph-name="itilde" unicode="&#x129;" horiz-adv-x="390" 
d="M129 0v1077h132v-1077h-132zM329 1257c-130 0 -170 157 -258 157c-52 0 -78 -55 -78 -144h-91c0 144 59 234 166 234c136 0 177 -157 261 -157c50 0 73 53 73 144h91c0 -141 -61 -234 -164 -234z" />
    <glyph glyph-name="iogonek" unicode="&#x12f;" horiz-adv-x="390" 
d="M195 1290c-49 0 -90 41 -90 89c0 50 41 90 90 90s89 -40 89 -90c0 -48 -40 -89 -89 -89zM129 8v1069h132v-1077l-5 -3c-100 -56 -153 -123 -153 -194c0 -63 51 -108 124 -108c27 0 53 3 67 7v-104c-26 -9 -59 -14 -94 -14c-132 0 -226 80 -226 192c0 93 58 178 155 232z
" />
    <glyph glyph-name="j" unicode="j" horiz-adv-x="390" 
d="M261 1077v-1145c0 -210 -98 -299 -308 -299h-31v113h27c129 0 180 51 180 182v1149h132zM195 1290c-49 0 -90 41 -90 89c0 50 41 90 90 90s89 -40 89 -90c0 -48 -40 -89 -89 -89z" />
    <glyph glyph-name="jcircumflex" unicode="&#x135;" horiz-adv-x="388" 
d="M261 1077v-1145c0 -206 -95 -299 -308 -299h-31v113h27c129 0 180 52 180 182v1149h132zM242 1552l273 -301h-127l-192 220h-5l-192 -220h-127l273 301h97z" />
    <glyph glyph-name="k" unicode="k" horiz-adv-x="988" 
d="M262 565l537 512h164l-486 -465l496 -612h-156l-434 531l-122 -111v-420h-132v1506h132v-941h1z" />
    <glyph glyph-name="kacute" unicode="&#x1e31;" horiz-adv-x="988" 
d="M252 1614h-117l252 295h154zM262 565l537 512h164l-486 -465l496 -612h-156l-434 531l-122 -111v-420h-132v1506h132v-941h1z" />
    <glyph glyph-name="kcaron" unicode="&#x1e9;" horiz-adv-x="988" 
d="M262 565l537 512h164l-486 -465l496 -612h-156l-434 531l-122 -111v-420h-132v1506h132v-941h1zM140 1614l-283 295h131l206 -217h2l206 217h131l-283 -295h-110z" />
    <glyph glyph-name="kdotbelow" unicode="&#x1e33;" horiz-adv-x="988" 
d="M526 -351c-56 0 -102 46 -102 102s46 102 102 102s102 -46 102 -102s-46 -102 -102 -102zM262 565l537 512h164l-486 -465l496 -612h-156l-434 531l-122 -111v-420h-132v1506h132v-941h1z" />
    <glyph glyph-name="klinebelow" unicode="&#x1e35;" horiz-adv-x="988" 
d="M262 565l537 512h164l-486 -465l496 -612h-156l-434 531l-122 -111v-420h-132v1506h132v-941h1zM831 -214v-85h-610v85h610z" />
    <glyph glyph-name="kcommaaccent" unicode="&#x137;" horiz-adv-x="988" 
d="M262 565l537 512h164l-486 -465l496 -612h-156l-434 531l-122 -111v-420h-132v1506h132v-941h1zM493 -520h-100l95 358h121z" />
    <glyph glyph-name="l" unicode="l" horiz-adv-x="390" 
d="M129 0v1506h132v-1506h-132z" />
    <glyph glyph-name="lacute" unicode="&#x13a;" horiz-adv-x="390" 
d="M252 1614h-117l252 295h154zM129 0v1506h132v-1506h-132z" />
    <glyph glyph-name="lcircumflexbelow" unicode="&#x1e3d;" horiz-adv-x="390" 
d="M129 0v1506h132v-1506h-132zM140 -158h110l283 -295h-131l-206 217h-2l-206 -217h-131z" />
    <glyph glyph-name="ldotbelow" unicode="&#x1e37;" horiz-adv-x="390" 
d="M195 -351c-56 0 -102 46 -102 102s46 102 102 102s102 -46 102 -102s-46 -102 -102 -102zM129 0v1506h132v-1506h-132z" />
    <glyph glyph-name="ldotbelowmacron" unicode="&#x1e39;" horiz-adv-x="390" 
d="M195 -351c-56 0 -102 46 -102 102s46 102 102 102s102 -46 102 -102s-46 -102 -102 -102zM129 0v1506h132v-1506h-132zM500 1781v-85h-610v85h610z" />
    <glyph glyph-name="llinebelow" unicode="&#x1e3b;" horiz-adv-x="390" 
d="M500 -214v-85h-610v85h610zM129 0v1506h132v-1506h-132z" />
    <glyph glyph-name="lcommaaccent" unicode="&#x13c;" horiz-adv-x="390" 
d="M162 -520h-100l95 358h121zM129 0v1506h132v-1506h-132z" />
    <glyph glyph-name="lcaron" unicode="&#x13e;" horiz-adv-x="498" 
d="M418 1506h109l-24 -444h-85v444zM129 0v1506h132v-1506h-132z" />
    <glyph glyph-name="lslash" unicode="&#x142;" horiz-adv-x="408" 
d="M394 962v-112l-124 -64v-786h-132v719l-124 -64v113l124 63v675h132v-607z" />
    <glyph glyph-name="m" unicode="m" horiz-adv-x="1677" 
d="M119 0v1077h124v-201h4c46 127 161 213 314 213c156 0 270 -90 311 -226h3c51 133 179 226 341 226c210 0 348 -140 348 -358v-731h-133v701c0 168 -93 270 -251 270c-161 0 -273 -124 -273 -298v-673h-132v714c0 154 -101 257 -249 257c-160 0 -275 -129 -275 -314v-657
h-132z" />
    <glyph glyph-name="macute" unicode="&#x1e3f;" horiz-adv-x="1677" 
d="M892 1251h-117l220 301h153zM119 0v1077h124v-201h4c46 127 161 213 314 213c156 0 270 -90 311 -226h3c51 133 179 226 341 226c210 0 348 -140 348 -358v-731h-133v701c0 168 -93 270 -251 270c-161 0 -273 -124 -273 -298v-673h-132v714c0 154 -101 257 -249 257
c-160 0 -275 -129 -275 -314v-657h-132z" />
    <glyph glyph-name="mdotaccent" unicode="&#x1e41;" horiz-adv-x="1677" 
d="M841 1259c-57 0 -104 47 -104 104s47 104 104 104s104 -47 104 -104s-47 -104 -104 -104zM119 0v1077h124v-201h4c46 127 161 213 314 213c156 0 270 -90 311 -226h3c51 133 179 226 341 226c210 0 348 -140 348 -358v-731h-133v701c0 168 -93 270 -251 270
c-161 0 -273 -124 -273 -298v-673h-132v714c0 154 -101 257 -249 257c-160 0 -275 -129 -275 -314v-657h-132z" />
    <glyph glyph-name="mdotbelow" unicode="&#x1e43;" horiz-adv-x="1677" 
d="M841 -351c-56 0 -102 46 -102 102s46 102 102 102s102 -46 102 -102s-46 -102 -102 -102zM119 0v1077h124v-201h4c46 127 161 213 314 213c156 0 270 -90 311 -226h3c51 133 179 226 341 226c210 0 348 -140 348 -358v-731h-133v701c0 168 -93 270 -251 270
c-161 0 -273 -124 -273 -298v-673h-132v714c0 154 -101 257 -249 257c-160 0 -275 -129 -275 -314v-657h-132z" />
    <glyph glyph-name="n" unicode="n" horiz-adv-x="1097" 
d="M119 0v1077h124v-201h4c60 134 181 213 355 213c237 0 382 -152 382 -396v-693h-132v672c0 190 -104 299 -287 299c-192 0 -314 -137 -314 -338v-633h-132z" />
    <glyph glyph-name="ngrave" unicode="&#x1f9;" horiz-adv-x="1097" 
d="M613 1251h-117l-256 301h153zM119 0v1077h124v-201h4c60 134 181 213 355 213c237 0 382 -152 382 -396v-693h-132v672c0 190 -104 299 -287 299c-192 0 -314 -137 -314 -338v-633h-132z" />
    <glyph glyph-name="nacute" unicode="&#x144;" horiz-adv-x="1097" 
d="M604 1251h-117l220 301h153zM119 0v1077h124v-201h4c60 134 181 213 355 213c237 0 382 -152 382 -396v-693h-132v672c0 190 -104 299 -287 299c-192 0 -314 -137 -314 -338v-633h-132z" />
    <glyph glyph-name="ntilde" unicode="&#xf1;" horiz-adv-x="1097" 
d="M686 1257c-130 0 -170 157 -258 157c-52 0 -78 -55 -78 -144h-91c0 144 59 234 166 234c136 0 177 -157 261 -157c50 0 73 53 73 144h91c0 -141 -61 -234 -164 -234zM119 0v1077h124v-201h4c60 134 181 213 355 213c237 0 382 -152 382 -396v-693h-132v672
c0 190 -104 299 -287 299c-192 0 -314 -137 -314 -338v-633h-132z" />
    <glyph glyph-name="ndotbelow" unicode="&#x1e47;" horiz-adv-x="1097" 
d="M553 -351c-56 0 -102 46 -102 102s46 102 102 102s102 -46 102 -102s-46 -102 -102 -102zM119 0v1077h124v-201h4c60 134 181 213 355 213c237 0 382 -152 382 -396v-693h-132v672c0 190 -104 299 -287 299c-192 0 -314 -137 -314 -338v-633h-132z" />
    <glyph glyph-name="ndotaccent" unicode="&#x1e45;" horiz-adv-x="1097" 
d="M553 1259c-57 0 -104 47 -104 104s47 104 104 104s104 -47 104 -104s-47 -104 -104 -104zM119 0v1077h124v-201h4c60 134 181 213 355 213c237 0 382 -152 382 -396v-693h-132v672c0 190 -104 299 -287 299c-192 0 -314 -137 -314 -338v-633h-132z" />
    <glyph glyph-name="ncaron" unicode="&#x148;" horiz-adv-x="1097" 
d="M601 1251h-97l-273 301h127l192 -219h5l192 219h127zM119 0v1077h124v-201h4c60 134 181 213 355 213c237 0 382 -152 382 -396v-693h-132v672c0 190 -104 299 -287 299c-192 0 -314 -137 -314 -338v-633h-132z" />
    <glyph glyph-name="ncircumflexbelow" unicode="&#x1e4b;" horiz-adv-x="1097" 
d="M119 0v1077h124v-201h4c60 134 181 213 355 213c237 0 382 -152 382 -396v-693h-132v672c0 190 -104 299 -287 299c-192 0 -314 -137 -314 -338v-633h-132zM498 -158h110l283 -295h-131l-206 217h-2l-206 -217h-131z" />
    <glyph glyph-name="nlinebelow" unicode="&#x1e49;" horiz-adv-x="1097" 
d="M858 -214v-85h-610v85h610zM119 0v1077h124v-201h4c60 134 181 213 355 213c237 0 382 -152 382 -396v-693h-132v672c0 190 -104 299 -287 299c-192 0 -314 -137 -314 -338v-633h-132z" />
    <glyph glyph-name="ncommaaccent" unicode="&#x146;" horiz-adv-x="1097" 
d="M520 -520h-100l95 358h121zM119 0v1077h124v-201h4c60 134 181 213 355 213c237 0 382 -152 382 -396v-693h-132v672c0 190 -104 299 -287 299c-192 0 -314 -137 -314 -338v-633h-132z" />
    <glyph glyph-name="o" unicode="o" horiz-adv-x="1109" 
d="M554 -12c-296 0 -489 215 -489 551s193 550 489 550s490 -214 490 -550s-194 -551 -490 -551zM554 107c219 0 355 163 355 432s-136 432 -355 432c-218 0 -354 -164 -354 -432c0 -269 136 -432 354 -432z" />
    <glyph glyph-name="odieresis" unicode="&#xf6;" horiz-adv-x="1109" 
d="M376 1259c-50 0 -93 42 -93 92c0 51 43 93 93 93c51 0 93 -42 93 -93c0 -50 -42 -92 -93 -92zM732 1259c-51 0 -93 42 -93 92c0 51 42 93 93 93s93 -42 93 -93c0 -50 -42 -92 -93 -92zM554 -12c-296 0 -489 215 -489 551s193 550 489 550s490 -214 490 -550
s-194 -551 -490 -551zM554 107c219 0 355 163 355 432s-136 432 -355 432c-218 0 -354 -164 -354 -432c0 -269 136 -432 354 -432z" />
    <glyph glyph-name="oslash" unicode="&#xf8;" horiz-adv-x="1109" 
d="M828 837l-467 -675c53 -36 118 -55 193 -55c219 0 355 163 355 432c0 123 -29 224 -81 298zM289 230l472 676c-56 42 -126 65 -207 65c-218 0 -354 -164 -354 -432c0 -130 32 -235 89 -309zM992 1073l-88 -127c89 -95 140 -235 140 -407c0 -336 -194 -551 -490 -551
c-101 0 -191 25 -264 72l-81 -117l-82 55l86 124c-94 96 -148 239 -148 417c0 336 193 550 489 550c108 0 202 -28 278 -81l81 116z" />
    <glyph glyph-name="otilde" unicode="&#xf5;" horiz-adv-x="1109" 
d="M688 1257c-130 0 -170 157 -258 157c-52 0 -78 -55 -78 -144h-91c0 144 59 234 166 234c136 0 177 -157 261 -157c50 0 73 53 73 144h91c0 -141 -61 -234 -164 -234zM554 -12c-296 0 -489 215 -489 551s193 550 489 550s490 -214 490 -550s-194 -551 -490 -551zM554 107
c219 0 355 163 355 432s-136 432 -355 432c-218 0 -354 -164 -354 -432c0 -269 136 -432 354 -432z" />
    <glyph glyph-name="oacute" unicode="&#xf3;" horiz-adv-x="1109" 
d="M605 1251h-117l220 301h153zM554 -12c-296 0 -489 215 -489 551s193 550 489 550s490 -214 490 -550s-194 -551 -490 -551zM554 107c219 0 355 163 355 432s-136 432 -355 432c-218 0 -354 -164 -354 -432c0 -269 136 -432 354 -432z" />
    <glyph glyph-name="ocircumflex" unicode="&#xf4;" horiz-adv-x="1109" 
d="M602 1552l273 -301h-127l-192 220h-5l-192 -220h-127l273 301h97zM554 -12c-296 0 -489 215 -489 551s193 550 489 550s490 -214 490 -550s-194 -551 -490 -551zM554 107c219 0 355 163 355 432s-136 432 -355 432c-218 0 -354 -164 -354 -432c0 -269 136 -432 354 -432z
" />
    <glyph glyph-name="ograve" unicode="&#xf2;" horiz-adv-x="1109" 
d="M614 1251h-117l-256 301h153zM554 -12c-296 0 -489 215 -489 551s193 550 489 550s490 -214 490 -550s-194 -551 -490 -551zM554 107c219 0 355 163 355 432s-136 432 -355 432c-218 0 -354 -164 -354 -432c0 -269 136 -432 354 -432z" />
    <glyph glyph-name="ocircumflexhookabove" unicode="&#x1ed5;" horiz-adv-x="1109" 
d="M646 1721v79c22 13 70 25 111 25c108 0 177 -60 177 -152c0 -77 -45 -138 -124 -166l-55 57c53 21 85 60 85 103c0 44 -39 76 -92 76c-37 0 -73 -8 -102 -22zM619 1520l261 -269h-125l-199 205h-4l-199 -205h-125l261 269h130zM554 -12c-296 0 -489 215 -489 551
s193 550 489 550s490 -214 490 -550s-194 -551 -490 -551zM554 107c219 0 355 163 355 432s-136 432 -355 432c-218 0 -354 -164 -354 -432c0 -269 136 -432 354 -432z" />
    <glyph glyph-name="ocircumflexgrave" unicode="&#x1ed3;" horiz-adv-x="1109" 
d="M619 1520l261 -269h-125l-199 205h-4l-199 -205h-125l261 269h130zM920 1536h-104l-227 298h133zM554 -12c-296 0 -489 215 -489 551s193 550 489 550s490 -214 490 -550s-194 -551 -490 -551zM554 107c219 0 355 163 355 432s-136 432 -355 432
c-218 0 -354 -164 -354 -432c0 -269 136 -432 354 -432z" />
    <glyph glyph-name="odotbelow" unicode="&#x1ecd;" horiz-adv-x="1109" 
d="M554 -351c-56 0 -102 46 -102 102s46 102 102 102s102 -46 102 -102s-46 -102 -102 -102zM554 -12c-296 0 -489 215 -489 551s193 550 489 550s490 -214 490 -550s-194 -551 -490 -551zM554 107c219 0 355 163 355 432s-136 432 -355 432c-218 0 -354 -164 -354 -432
c0 -269 136 -432 354 -432z" />
    <glyph glyph-name="odblgrave" unicode="&#x20d;" horiz-adv-x="1109" 
d="M554 -12c-296 0 -489 215 -489 551s193 550 489 550s490 -214 490 -550s-194 -551 -490 -551zM554 107c219 0 355 163 355 432s-136 432 -355 432c-218 0 -354 -164 -354 -432c0 -269 136 -432 354 -432zM466 1251h-108l-252 301h151zM751 1251h-108l-252 301h151z" />
    <glyph glyph-name="otildeacute" unicode="&#x1e4d;" horiz-adv-x="1109" 
d="M494 1576l159 261h132l-188 -261h-103zM688 1243c-130 0 -170 157 -258 157c-52 0 -78 -55 -78 -144h-91c0 144 59 234 166 234c136 0 177 -157 261 -157c50 0 73 53 73 144h91c0 -141 -61 -234 -164 -234zM554 -12c-296 0 -489 215 -489 551s193 550 489 550
s490 -214 490 -550s-194 -551 -490 -551zM554 107c219 0 355 163 355 432s-136 432 -355 432c-218 0 -354 -164 -354 -432c0 -269 136 -432 354 -432z" />
    <glyph glyph-name="omacronacute" unicode="&#x1e53;" horiz-adv-x="1109" 
d="M554 -12c-296 0 -489 215 -489 551s193 550 489 550s490 -214 490 -550s-194 -551 -490 -551zM554 107c219 0 355 163 355 432s-136 432 -355 432c-218 0 -354 -164 -354 -432c0 -269 136 -432 354 -432zM487 1563l190 274h145l-218 -274h-117zM861 1400v-85h-618v85h618
z" />
    <glyph glyph-name="ocircumflextilde" unicode="&#x1ed7;" horiz-adv-x="1109" 
d="M619 1520l261 -269h-125l-199 205h-4l-199 -205h-125l261 269h130zM679 1603c-127 0 -160 151 -245 151c-51 0 -77 -51 -77 -135h-91c0 138 60 224 164 224c134 0 167 -151 249 -151c49 0 72 50 72 136h91c0 -135 -62 -225 -163 -225zM554 -12c-296 0 -489 215 -489 551
s193 550 489 550s490 -214 490 -550s-194 -551 -490 -551zM554 107c219 0 355 163 355 432s-136 432 -355 432c-218 0 -354 -164 -354 -432c0 -269 136 -432 354 -432z" />
    <glyph glyph-name="odotaccentmacron" unicode="&#x231;" horiz-adv-x="1109" 
d="M554 -12c-296 0 -489 215 -489 551s193 550 489 550s490 -214 490 -550s-194 -551 -490 -551zM554 107c219 0 355 163 355 432s-136 432 -355 432c-218 0 -354 -164 -354 -432c0 -269 136 -432 354 -432zM554 1259c-55 0 -103 45 -103 102c0 56 48 103 103 103
s103 -47 103 -103c0 -57 -48 -102 -103 -102zM861 1719v-85h-618v85h618z" />
    <glyph glyph-name="omacrongrave" unicode="&#x1e51;" horiz-adv-x="1109" 
d="M554 -12c-296 0 -489 215 -489 551s193 550 489 550s490 -214 490 -550s-194 -551 -490 -551zM554 107c219 0 355 163 355 432s-136 432 -355 432c-218 0 -354 -164 -354 -432c0 -269 136 -432 354 -432zM621 1563h-117l-218 274h145zM861 1400v-85h-618v85h618z" />
    <glyph glyph-name="ocaron" unicode="&#x1d2;" horiz-adv-x="1109" 
d="M602 1251h-97l-273 301h127l192 -219h5l192 219h127zM554 -12c-296 0 -489 215 -489 551s193 550 489 550s490 -214 490 -550s-194 -551 -490 -551zM554 107c219 0 355 163 355 432s-136 432 -355 432c-218 0 -354 -164 -354 -432c0 -269 136 -432 354 -432z" />
    <glyph glyph-name="oslashacute" unicode="&#x1ff;" horiz-adv-x="1109" 
d="M861 1552l-256 -301h-117l220 301h153zM828 837l-467 -675c53 -36 118 -55 193 -55c219 0 355 163 355 432c0 123 -29 224 -81 298zM289 230l472 676c-56 42 -126 65 -207 65c-218 0 -354 -164 -354 -432c0 -130 32 -235 89 -309zM992 1073l-88 -127
c89 -95 140 -235 140 -407c0 -336 -194 -551 -490 -551c-101 0 -191 25 -264 72l-81 -117l-82 55l86 124c-94 96 -148 239 -148 417c0 336 193 550 489 550c108 0 202 -28 278 -81l81 116z" />
    <glyph glyph-name="ohungarumlaut" unicode="&#x151;" horiz-adv-x="1109" 
d="M642 1251l209 301h151l-252 -301h-108zM357 1251l209 301h151l-252 -301h-108zM554 -12c-296 0 -489 215 -489 551s193 550 489 550s490 -214 490 -550s-194 -551 -490 -551zM554 107c219 0 355 163 355 432s-136 432 -355 432c-218 0 -354 -164 -354 -432
c0 -269 136 -432 354 -432z" />
    <glyph glyph-name="obreve" unicode="&#x14f;" horiz-adv-x="1109" 
d="M252 1530h97c0 -115 86 -200 204 -200s204 85 204 200h97c0 -174 -124 -286 -301 -286s-301 112 -301 286zM554 -12c-296 0 -489 215 -489 551s193 550 489 550s490 -214 490 -550s-194 -551 -490 -551zM554 107c219 0 355 163 355 432s-136 432 -355 432
c-218 0 -354 -164 -354 -432c0 -269 136 -432 354 -432z" />
    <glyph glyph-name="oinvertedbreve" unicode="&#x20f;" horiz-adv-x="1109" 
d="M554 -12c-296 0 -489 215 -489 551s193 550 489 550s490 -214 490 -550s-194 -551 -490 -551zM554 107c219 0 355 163 355 432s-136 432 -355 432c-218 0 -354 -164 -354 -432c0 -269 136 -432 354 -432zM253 1251c0 174 124 286 301 286s301 -112 301 -286h-97
c0 115 -86 200 -204 200s-204 -85 -204 -200h-97z" />
    <glyph glyph-name="ohookabove" unicode="&#x1ecf;" horiz-adv-x="1109" 
d="M554 -12c-296 0 -489 215 -489 551s193 550 489 550s490 -214 490 -550s-194 -551 -490 -551zM554 107c219 0 355 163 355 432s-136 432 -355 432c-218 0 -354 -164 -354 -432c0 -269 136 -432 354 -432zM439 1433v85c37 18 75 27 124 27c106 0 175 -64 175 -161
c0 -76 -57 -145 -141 -177l-50 66c58 21 88 56 88 106c0 46 -40 81 -95 81c-35 0 -64 -8 -101 -27z" />
    <glyph glyph-name="odieresismacron" unicode="&#x22b;" horiz-adv-x="1109" 
d="M376 1259c-49 0 -89 40 -89 89c0 50 40 89 89 89c50 0 90 -39 90 -89c0 -49 -40 -89 -90 -89zM732 1259c-49 0 -90 40 -90 89c0 50 41 89 90 89c50 0 89 -39 89 -89c0 -49 -39 -89 -89 -89zM861 1719v-85h-618v85h618zM554 -12c-296 0 -489 215 -489 551s193 550 489 550
s490 -214 490 -550s-194 -551 -490 -551zM554 107c219 0 355 163 355 432s-136 432 -355 432c-218 0 -354 -164 -354 -432c0 -269 136 -432 354 -432z" />
    <glyph glyph-name="otildemacron" unicode="&#x22d;" horiz-adv-x="1109" 
d="M690 1243c-130 0 -170 157 -258 157c-52 0 -78 -55 -78 -144h-91c0 144 59 234 166 234c136 0 177 -157 261 -157c50 0 73 53 73 144h91c0 -141 -61 -234 -164 -234zM863 1719v-85h-618v85h618zM554 -12c-296 0 -489 215 -489 551s193 550 489 550s490 -214 490 -550
s-194 -551 -490 -551zM554 107c219 0 355 163 355 432s-136 432 -355 432c-218 0 -354 -164 -354 -432c0 -269 136 -432 354 -432z" />
    <glyph glyph-name="odotaccent" unicode="&#x22f;" horiz-adv-x="1109" 
d="M554 1259c-57 0 -104 47 -104 104s47 104 104 104s104 -47 104 -104s-47 -104 -104 -104zM554 -12c-296 0 -489 215 -489 551s193 550 489 550s490 -214 490 -550s-194 -551 -490 -551zM554 107c219 0 355 163 355 432s-136 432 -355 432c-218 0 -354 -164 -354 -432
c0 -269 136 -432 354 -432z" />
    <glyph glyph-name="ocircumflexdotbelow" unicode="&#x1ed9;" horiz-adv-x="1109" 
d="M602 1552l273 -301h-127l-192 220h-5l-192 -220h-127l273 301h97zM554 -12c-296 0 -489 215 -489 551s193 550 489 550s490 -214 490 -550s-194 -551 -490 -551zM554 107c219 0 355 163 355 432s-136 432 -355 432c-218 0 -354 -164 -354 -432c0 -269 136 -432 354 -432z
M554 -351c-56 0 -102 46 -102 102s46 102 102 102s102 -46 102 -102s-46 -102 -102 -102z" />
    <glyph glyph-name="ocircumflexacute" unicode="&#x1ed1;" horiz-adv-x="1109" 
d="M619 1520l261 -269h-125l-199 205h-4l-199 -205h-125l261 269h130zM737 1536l197 298h134l-227 -298h-104zM554 -12c-296 0 -489 215 -489 551s193 550 489 550s490 -214 490 -550s-194 -551 -490 -551zM554 107c219 0 355 163 355 432s-136 432 -355 432
c-218 0 -354 -164 -354 -432c0 -269 136 -432 354 -432z" />
    <glyph glyph-name="otildedieresis" unicode="&#x1e4f;" horiz-adv-x="1109" 
d="M384 1576c-48 0 -88 40 -88 88c0 49 40 89 88 89c50 0 89 -40 89 -89c0 -48 -39 -88 -89 -88zM724 1576c-49 0 -89 40 -89 88c0 49 40 89 89 89s88 -40 88 -89c0 -48 -39 -88 -88 -88zM688 1243c-130 0 -170 157 -258 157c-52 0 -78 -55 -78 -144h-91
c0 144 59 234 166 234c136 0 177 -157 261 -157c50 0 73 53 73 144h91c0 -141 -61 -234 -164 -234zM554 -12c-296 0 -489 215 -489 551s193 550 489 550s490 -214 490 -550s-194 -551 -490 -551zM554 107c219 0 355 163 355 432s-136 432 -355 432
c-218 0 -354 -164 -354 -432c0 -269 136 -432 354 -432z" />
    <glyph glyph-name="omacron" unicode="&#x14d;" horiz-adv-x="1109" 
d="M861 1400v-85h-618v85h618zM554 -12c-296 0 -489 215 -489 551s193 550 489 550s490 -214 490 -550s-194 -551 -490 -551zM554 107c219 0 355 163 355 432s-136 432 -355 432c-218 0 -354 -164 -354 -432c0 -269 136 -432 354 -432z" />
    <glyph glyph-name="oogonek" unicode="&#x1eb;" horiz-adv-x="1109" 
d="M747 -416c-132 0 -227 80 -227 192c0 84 47 156 129 221v4c-22 -8 -66 -13 -95 -13c-296 0 -489 215 -489 551s193 550 489 550s490 -214 490 -550c0 -220 -88 -398 -237 -504c-105 -72 -158 -149 -158 -232c0 -63 51 -108 124 -108c29 0 54 3 67 7v-104
c-25 -9 -57 -14 -93 -14zM554 107c219 0 355 163 355 432s-136 432 -355 432c-218 0 -354 -164 -354 -432c0 -269 136 -432 354 -432z" />
    <glyph glyph-name="oogonekmacron" unicode="&#x1ed;" horiz-adv-x="1109" 
d="M861 1400v-85h-618v85h618zM747 -416c-132 0 -227 80 -227 192c0 84 47 156 129 221v4c-22 -8 -66 -13 -95 -13c-296 0 -489 215 -489 551s193 550 489 550s490 -214 490 -550c0 -220 -88 -398 -237 -504c-105 -72 -158 -149 -158 -232c0 -63 51 -108 124 -108
c29 0 54 3 67 7v-104c-25 -9 -57 -14 -93 -14zM554 107c219 0 355 163 355 432s-136 432 -355 432c-218 0 -354 -164 -354 -432c0 -269 136 -432 354 -432z" />
    <glyph glyph-name="ohorn" unicode="&#x1a1;" horiz-adv-x="1139" 
d="M554 107c220 0 355 165 355 432s-135 432 -355 432s-354 -165 -354 -432c0 -268 135 -432 354 -432zM1044 539c0 -335 -192 -551 -490 -551c-297 0 -489 216 -489 551c0 334 192 550 489 550c123 0 175 -23 282 -23c87 0 116 25 116 98v133h122v-172
c0 -93 -57 -152 -152 -152h-64v-4c116 -68 186 -229 186 -430z" />
    <glyph glyph-name="ohorndotbelow" unicode="&#x1ee3;" horiz-adv-x="1139" 
d="M554 -351c-56 0 -102 46 -102 102s46 102 102 102s102 -46 102 -102s-46 -102 -102 -102zM554 107c220 0 355 165 355 432s-135 432 -355 432s-354 -165 -354 -432c0 -268 135 -432 354 -432zM1044 539c0 -335 -192 -551 -490 -551c-297 0 -489 216 -489 551
c0 334 192 550 489 550c123 0 175 -23 282 -23c87 0 116 25 116 98v133h122v-172c0 -93 -57 -152 -152 -152h-64v-4c116 -68 186 -229 186 -430z" />
    <glyph glyph-name="ohornhookabove" unicode="&#x1edf;" horiz-adv-x="1139" 
d="M554 107c220 0 355 165 355 432s-135 432 -355 432s-354 -165 -354 -432c0 -268 135 -432 354 -432zM1044 539c0 -335 -192 -551 -490 -551c-297 0 -489 216 -489 551c0 334 192 550 489 550c123 0 175 -23 282 -23c87 0 116 25 116 98v133h122v-172
c0 -93 -57 -152 -152 -152h-64v-4c116 -68 186 -229 186 -430zM439 1433v85c37 18 75 27 124 27c106 0 175 -64 175 -161c0 -76 -57 -145 -141 -177l-50 66c58 21 88 56 88 106c0 46 -40 81 -95 81c-35 0 -64 -8 -101 -27z" />
    <glyph glyph-name="ohorntilde" unicode="&#x1ee1;" horiz-adv-x="1139" 
d="M688 1257c-130 0 -170 157 -258 157c-52 0 -78 -55 -78 -144h-91c0 144 59 234 166 234c136 0 177 -157 261 -157c50 0 73 53 73 144h91c0 -141 -61 -234 -164 -234zM554 107c220 0 355 165 355 432s-135 432 -355 432s-354 -165 -354 -432c0 -268 135 -432 354 -432z
M1044 539c0 -335 -192 -551 -490 -551c-297 0 -489 216 -489 551c0 334 192 550 489 550c123 0 175 -23 282 -23c87 0 116 25 116 98v133h122v-172c0 -93 -57 -152 -152 -152h-64v-4c116 -68 186 -229 186 -430z" />
    <glyph glyph-name="ohorngrave" unicode="&#x1edd;" horiz-adv-x="1139" 
d="M614 1251h-117l-256 301h153zM554 107c220 0 355 165 355 432s-135 432 -355 432s-354 -165 -354 -432c0 -268 135 -432 354 -432zM1044 539c0 -335 -192 -551 -490 -551c-297 0 -489 216 -489 551c0 334 192 550 489 550c123 0 175 -23 282 -23c87 0 116 25 116 98v133
h122v-172c0 -93 -57 -152 -152 -152h-64v-4c116 -68 186 -229 186 -430z" />
    <glyph glyph-name="ohornacute" unicode="&#x1edb;" horiz-adv-x="1139" 
d="M605 1251h-117l220 301h153zM554 107c220 0 355 165 355 432s-135 432 -355 432s-354 -165 -354 -432c0 -268 135 -432 354 -432zM1044 539c0 -335 -192 -551 -490 -551c-297 0 -489 216 -489 551c0 334 192 550 489 550c123 0 175 -23 282 -23c87 0 116 25 116 98v133
h122v-172c0 -93 -57 -152 -152 -152h-64v-4c116 -68 186 -229 186 -430z" />
    <glyph glyph-name="p" unicode="p" horiz-adv-x="1144" 
d="M620 1089c272 0 459 -222 459 -550c0 -329 -186 -551 -457 -551c-173 0 -308 94 -368 234h-3v-579h-132v1434h125v-223h3c57 137 202 235 373 235zM597 107c208 0 347 172 347 431s-139 433 -347 433c-205 0 -347 -177 -347 -432c0 -257 142 -432 347 -432z" />
    <glyph glyph-name="pdotaccent" unicode="&#x1e57;" horiz-adv-x="1144" 
d="M620 1089c272 0 459 -222 459 -550c0 -329 -186 -551 -457 -551c-173 0 -308 94 -368 234h-3v-579h-132v1434h125v-223h3c57 137 202 235 373 235zM597 107c208 0 347 172 347 431s-139 433 -347 433c-205 0 -347 -177 -347 -432c0 -257 142 -432 347 -432zM599 1259
c-57 0 -104 47 -104 104s47 104 104 104s104 -47 104 -104s-47 -104 -104 -104z" />
    <glyph glyph-name="pacute" unicode="&#x1e55;" horiz-adv-x="1144" 
d="M620 1089c272 0 459 -222 459 -550c0 -329 -186 -551 -457 -551c-173 0 -308 94 -368 234h-3v-579h-132v1434h125v-223h3c57 137 202 235 373 235zM597 107c208 0 347 172 347 431s-139 433 -347 433c-205 0 -347 -177 -347 -432c0 -257 142 -432 347 -432zM650 1251
h-117l220 301h153z" />
    <glyph glyph-name="q" unicode="q" horiz-adv-x="1147" 
d="M525 1089c175 0 314 -93 375 -235h3v223h126v-1434h-133v579h-3c-60 -140 -199 -234 -371 -234c-270 0 -457 222 -457 551s187 550 460 550zM545 107c207 0 351 176 351 432c0 255 -144 432 -351 432c-206 0 -345 -173 -345 -433s139 -431 345 -431z" />
    <glyph glyph-name="r" unicode="r" horiz-adv-x="634" 
d="M119 0v1077h124v-191h4c37 128 139 203 273 203c35 0 67 -6 84 -11v-131c-18 8 -56 15 -102 15c-153 0 -251 -120 -251 -294v-668h-132z" />
    <glyph glyph-name="rcaron" unicode="&#x159;" horiz-adv-x="634" 
d="M403 1251h-97l-273 301h127l192 -219h5l192 219h127zM119 0v1077h124v-191h4c37 128 139 203 273 203c35 0 67 -6 84 -11v-131c-18 8 -56 15 -102 15c-153 0 -251 -120 -251 -294v-668h-132z" />
    <glyph glyph-name="rlinebelow" unicode="&#x1e5f;" horiz-adv-x="634" 
d="M119 0v1077h124v-191h4c37 128 139 203 273 203c35 0 67 -6 84 -11v-131c-18 8 -56 15 -102 15c-153 0 -251 -120 -251 -294v-668h-132zM490 -214v-85h-610v85h610z" />
    <glyph glyph-name="rdotbelowmacron" unicode="&#x1e5d;" horiz-adv-x="634" 
d="M185 -351c-56 0 -102 46 -102 102s46 102 102 102s102 -46 102 -102s-46 -102 -102 -102zM119 0v1077h124v-191h4c37 128 139 203 273 203c35 0 67 -6 84 -11v-131c-18 8 -56 15 -102 15c-153 0 -251 -120 -251 -294v-668h-132zM662 1400v-85h-618v85h618z" />
    <glyph glyph-name="rdblgrave" unicode="&#x211;" horiz-adv-x="634" 
d="M119 0v1077h124v-191h4c37 128 139 203 273 203c35 0 67 -6 84 -11v-131c-18 8 -56 15 -102 15c-153 0 -251 -120 -251 -294v-668h-132zM267 1251h-108l-252 301h151zM552 1251h-108l-252 301h151z" />
    <glyph glyph-name="rinvertedbreve" unicode="&#x213;" horiz-adv-x="634" 
d="M119 0v1077h124v-191h4c37 128 139 203 273 203c35 0 67 -6 84 -11v-131c-18 8 -56 15 -102 15c-153 0 -251 -120 -251 -294v-668h-132zM54 1251c0 174 124 286 301 286s301 -112 301 -286h-97c0 115 -86 200 -204 200s-204 -85 -204 -200h-97z" />
    <glyph glyph-name="racute" unicode="&#x155;" horiz-adv-x="634" 
d="M406 1251h-117l220 301h153zM119 0v1077h124v-191h4c37 128 139 203 273 203c35 0 67 -6 84 -11v-131c-18 8 -56 15 -102 15c-153 0 -251 -120 -251 -294v-668h-132z" />
    <glyph glyph-name="rdotbelow" unicode="&#x1e5b;" horiz-adv-x="634" 
d="M185 -351c-56 0 -102 46 -102 102s46 102 102 102s102 -46 102 -102s-46 -102 -102 -102zM119 0v1077h124v-191h4c37 128 139 203 273 203c35 0 67 -6 84 -11v-131c-18 8 -56 15 -102 15c-153 0 -251 -120 -251 -294v-668h-132z" />
    <glyph glyph-name="rdotaccent" unicode="&#x1e59;" horiz-adv-x="634" 
d="M119 0v1077h124v-191h4c37 128 139 203 273 203c35 0 67 -6 84 -11v-131c-18 8 -56 15 -102 15c-153 0 -251 -120 -251 -294v-668h-132zM355 1259c-57 0 -104 47 -104 104s47 104 104 104s104 -47 104 -104s-47 -104 -104 -104z" />
    <glyph glyph-name="rcommaaccent" unicode="&#x157;" horiz-adv-x="634" 
d="M119 0v1077h124v-191h4c37 128 139 203 273 203c35 0 67 -6 84 -11v-131c-18 8 -56 15 -102 15c-153 0 -251 -120 -251 -294v-668h-132zM152 -520h-100l95 358h121z" />
    <glyph glyph-name="s" unicode="s" horiz-adv-x="958" 
d="M97 787c0 178 165 302 387 302c218 0 376 -130 387 -315h-127c-13 122 -112 203 -264 203c-144 0 -252 -74 -252 -183c0 -88 64 -139 201 -173l165 -40c216 -54 298 -132 298 -285c0 -182 -173 -308 -415 -308c-231 0 -397 132 -412 315h134c16 -123 123 -204 286 -204
c161 0 273 74 273 188c0 91 -55 141 -201 177l-182 46c-186 47 -278 135 -278 277z" />
    <glyph glyph-name="scaron" unicode="&#x161;" horiz-adv-x="958" 
d="M532 1251h-97l-273 301h127l192 -219h5l192 219h127zM97 787c0 178 165 302 387 302c218 0 376 -130 387 -315h-127c-13 122 -112 203 -264 203c-144 0 -252 -74 -252 -183c0 -88 64 -139 201 -173l165 -40c216 -54 298 -132 298 -285c0 -182 -173 -308 -415 -308
c-231 0 -397 132 -412 315h134c16 -123 123 -204 286 -204c161 0 273 74 273 188c0 91 -55 141 -201 177l-182 46c-186 47 -278 135 -278 277z" />
    <glyph glyph-name="scedilla" unicode="&#x15f;" horiz-adv-x="958" 
d="M429 621l165 -40c216 -54 298 -132 298 -285c0 -169 -149 -290 -365 -306l-50 -131c134 0 208 -54 208 -152c0 -101 -91 -173 -218 -174c-52 0 -100 5 -139 17v80c23 -9 78 -16 122 -16c84 0 137 35 137 90s-49 82 -155 82h-53v60l58 143c-210 15 -358 142 -372 314h134
c16 -123 123 -204 286 -204c161 0 273 74 273 188c0 91 -55 141 -201 177l-182 46c-186 47 -278 135 -278 277c0 178 165 302 387 302c218 0 376 -130 387 -315h-127c-13 122 -112 203 -264 203c-144 0 -252 -74 -252 -183c0 -88 64 -139 201 -173z" />
    <glyph glyph-name="sdotaccent" unicode="&#x1e61;" horiz-adv-x="958" 
d="M97 787c0 178 165 302 387 302c218 0 376 -130 387 -315h-127c-13 122 -112 203 -264 203c-144 0 -252 -74 -252 -183c0 -88 64 -139 201 -173l165 -40c216 -54 298 -132 298 -285c0 -182 -173 -308 -415 -308c-231 0 -397 132 -412 315h134c16 -123 123 -204 286 -204
c161 0 273 74 273 188c0 91 -55 141 -201 177l-182 46c-186 47 -278 135 -278 277zM484 1259c-57 0 -104 47 -104 104s47 104 104 104s104 -47 104 -104s-47 -104 -104 -104z" />
    <glyph glyph-name="sdotbelow" unicode="&#x1e63;" horiz-adv-x="958" 
d="M478 -351c-56 0 -102 46 -102 102s46 102 102 102s102 -46 102 -102s-46 -102 -102 -102zM97 787c0 178 165 302 387 302c218 0 376 -130 387 -315h-127c-13 122 -112 203 -264 203c-144 0 -252 -74 -252 -183c0 -88 64 -139 201 -173l165 -40c216 -54 298 -132 298 -285
c0 -182 -173 -308 -415 -308c-231 0 -397 132 -412 315h134c16 -123 123 -204 286 -204c161 0 273 74 273 188c0 91 -55 141 -201 177l-182 46c-186 47 -278 135 -278 277z" />
    <glyph glyph-name="scommaaccent" unicode="&#x219;" horiz-adv-x="958" 
d="M97 787c0 178 165 302 387 302c218 0 376 -130 387 -315h-127c-13 122 -112 203 -264 203c-144 0 -252 -74 -252 -183c0 -88 64 -139 201 -173l165 -40c216 -54 298 -132 298 -285c0 -182 -173 -308 -415 -308c-231 0 -397 132 -412 315h134c16 -123 123 -204 286 -204
c161 0 273 74 273 188c0 91 -55 141 -201 177l-182 46c-186 47 -278 135 -278 277zM445 -520h-100l95 358h121z" />
    <glyph glyph-name="sdotbelowdotaccent" unicode="&#x1e69;" horiz-adv-x="958" 
d="M478 -351c-56 0 -102 46 -102 102s46 102 102 102s102 -46 102 -102s-46 -102 -102 -102zM97 787c0 178 165 302 387 302c218 0 376 -130 387 -315h-127c-13 122 -112 203 -264 203c-144 0 -252 -74 -252 -183c0 -88 64 -139 201 -173l165 -40c216 -54 298 -132 298 -285
c0 -182 -173 -308 -415 -308c-231 0 -397 132 -412 315h134c16 -123 123 -204 286 -204c161 0 273 74 273 188c0 91 -55 141 -201 177l-182 46c-186 47 -278 135 -278 277zM484 1259c-57 0 -104 47 -104 104s47 104 104 104s104 -47 104 -104s-47 -104 -104 -104z" />
    <glyph glyph-name="scarondotaccent" unicode="&#x1e67;" horiz-adv-x="958" 
d="M97 787c0 178 165 302 387 302c218 0 376 -130 387 -315h-127c-13 122 -112 203 -264 203c-144 0 -252 -74 -252 -183c0 -88 64 -139 201 -173l165 -40c216 -54 298 -132 298 -285c0 -182 -173 -308 -415 -308c-231 0 -397 132 -412 315h134c16 -123 123 -204 286 -204
c161 0 273 74 273 188c0 91 -55 141 -201 177l-182 46c-186 47 -278 135 -278 277zM549 1251h-130l-261 269h125l199 -205h4l199 205h125zM484 1601c-55 0 -103 46 -103 103c0 55 48 102 103 102s103 -47 103 -102c0 -57 -48 -103 -103 -103z" />
    <glyph glyph-name="scircumflex" unicode="&#x15d;" horiz-adv-x="958" 
d="M532 1552l273 -301h-127l-192 220h-5l-192 -220h-127l273 301h97zM97 787c0 178 165 302 387 302c218 0 376 -130 387 -315h-127c-13 122 -112 203 -264 203c-144 0 -252 -74 -252 -183c0 -88 64 -139 201 -173l165 -40c216 -54 298 -132 298 -285
c0 -182 -173 -308 -415 -308c-231 0 -397 132 -412 315h134c16 -123 123 -204 286 -204c161 0 273 74 273 188c0 91 -55 141 -201 177l-182 46c-186 47 -278 135 -278 277z" />
    <glyph glyph-name="sacutedotaccent" unicode="&#x1e65;" horiz-adv-x="958" 
d="M97 787c0 178 165 302 387 302c218 0 376 -130 387 -315h-127c-13 122 -112 203 -264 203c-144 0 -252 -74 -252 -183c0 -88 64 -139 201 -173l165 -40c216 -54 298 -132 298 -285c0 -182 -173 -308 -415 -308c-231 0 -397 132 -412 315h134c16 -123 123 -204 286 -204
c161 0 273 74 273 188c0 91 -55 141 -201 177l-182 46c-186 47 -278 135 -278 277zM556 1251h-117l220 301h153zM261 1287c-57 0 -104 47 -104 104s47 104 104 104s104 -47 104 -104s-47 -104 -104 -104z" />
    <glyph glyph-name="sacute" unicode="&#x15b;" horiz-adv-x="958" 
d="M97 787c0 178 165 302 387 302c218 0 376 -130 387 -315h-127c-13 122 -112 203 -264 203c-144 0 -252 -74 -252 -183c0 -88 64 -139 201 -173l165 -40c216 -54 298 -132 298 -285c0 -182 -173 -308 -415 -308c-231 0 -397 132 -412 315h134c16 -123 123 -204 286 -204
c161 0 273 74 273 188c0 91 -55 141 -201 177l-182 46c-186 47 -278 135 -278 277zM535 1251h-117l220 301h153z" />
    <glyph glyph-name="t" unicode="t" horiz-adv-x="598" 
d="M177 1335h132v-258h213v-111h-213v-696c0 -112 44 -160 144 -160c14 0 66 3 74 4v-113c-14 -4 -72 -7 -100 -7c-178 0 -250 77 -250 271v701h-154v111h154v258z" />
    <glyph glyph-name="tcircumflexbelow" unicode="&#x1e71;" horiz-adv-x="598" 
d="M177 1335h132v-258h213v-111h-213v-696c0 -112 44 -160 144 -160c14 0 66 3 74 4v-113c-14 -4 -72 -7 -100 -7c-178 0 -250 77 -250 271v701h-154v111h154v258zM307 -158h110l283 -295h-131l-206 217h-2l-206 -217h-131z" />
    <glyph glyph-name="tdotbelow" unicode="&#x1e6d;" horiz-adv-x="598" 
d="M362 -351c-56 0 -102 46 -102 102s46 102 102 102s102 -46 102 -102s-46 -102 -102 -102zM177 1335h132v-258h213v-111h-213v-696c0 -112 44 -160 144 -160c14 0 66 3 74 4v-113c-14 -4 -72 -7 -100 -7c-178 0 -250 77 -250 271v701h-154v111h154v258z" />
    <glyph glyph-name="tcommaaccent" unicode="&#x21b;" horiz-adv-x="598" 
d="M329 -520h-100l95 358h121zM177 1335h132v-258h213v-111h-213v-696c0 -112 44 -160 144 -160c14 0 66 3 74 4v-113c-14 -4 -72 -7 -100 -7c-178 0 -250 77 -250 271v701h-154v111h154v258z" />
    <glyph glyph-name="tdotaccent" unicode="&#x1e6b;" horiz-adv-x="598" 
d="M243 1507c-57 0 -104 47 -104 104s47 104 104 104s104 -47 104 -104s-47 -104 -104 -104zM177 1335h132v-258h213v-111h-213v-696c0 -112 44 -160 144 -160c14 0 66 3 74 4v-113c-14 -4 -72 -7 -100 -7c-178 0 -250 77 -250 271v701h-154v111h154v258z" />
    <glyph glyph-name="tcedilla" unicode="&#x163;" horiz-adv-x="598" 
d="M413 -6l-52 -135c134 0 208 -54 208 -152c0 -101 -91 -173 -218 -174c-52 0 -100 5 -139 17v80c23 -9 78 -16 122 -16c84 0 137 35 137 90s-49 82 -155 82h-53v60l64 159c-105 27 -150 107 -150 260v701h-154v111h154v258h132v-258h213v-111h-213v-696
c0 -112 44 -160 144 -160c14 0 66 3 74 4v-113c-14 -4 -72 -7 -100 -7h-14z" />
    <glyph glyph-name="tlinebelow" unicode="&#x1e6f;" horiz-adv-x="598" 
d="M667 -214v-85h-610v85h610zM177 1335h132v-258h213v-111h-213v-696c0 -112 44 -160 144 -160c14 0 66 3 74 4v-113c-14 -4 -72 -7 -100 -7c-178 0 -250 77 -250 271v701h-154v111h154v258z" />
    <glyph glyph-name="tcaron" unicode="&#x165;" horiz-adv-x="694" 
d="M457 1677h109l-24 -444h-85v444zM177 1335h132v-258h213v-111h-213v-696c0 -112 44 -160 144 -160c14 0 66 3 74 4v-113c-14 -4 -72 -7 -100 -7c-178 0 -250 77 -250 271v701h-154v111h154v258z" />
    <glyph glyph-name="tbar" unicode="&#x167;" horiz-adv-x="600" 
d="M309 539v-269c0 -112 44 -160 144 -160c14 0 66 3 74 4v-113c-14 -4 -72 -7 -100 -7c-178 0 -250 77 -250 271v274h-154v111h154v316h-154v111h154v258h132v-258h213v-111h-213v-316h217v-111h-217z" />
    <glyph glyph-name="tdieresis" unicode="&#x1e97;" horiz-adv-x="598" 
d="M177 1335h132v-258h213v-111h-213v-696c0 -112 44 -160 144 -160c14 0 66 3 74 4v-113c-14 -4 -72 -7 -100 -7c-178 0 -250 77 -250 271v701h-154v111h154v258zM65 1507c-50 0 -93 42 -93 92c0 51 43 93 93 93c51 0 93 -42 93 -93c0 -50 -42 -92 -93 -92zM421 1507
c-51 0 -93 42 -93 92c0 51 42 93 93 93s93 -42 93 -93c0 -50 -42 -92 -93 -92z" />
    <glyph glyph-name="u" unicode="u" horiz-adv-x="1097" 
d="M979 1077v-1077h-125v202h-3c-59 -132 -188 -214 -358 -214c-235 0 -380 152 -380 395v694h132v-672c0 -192 103 -298 285 -298c188 0 316 133 316 337v633h133z" />
    <glyph glyph-name="ugrave" unicode="&#xf9;" horiz-adv-x="1097" 
d="M606 1251h-117l-256 301h153zM979 1077v-1077h-125v202h-3c-59 -132 -188 -214 -358 -214c-235 0 -380 152 -380 395v694h132v-672c0 -192 103 -298 285 -298c188 0 316 133 316 337v633h133z" />
    <glyph glyph-name="udblgrave" unicode="&#x215;" horiz-adv-x="1097" 
d="M979 1077v-1077h-125v202h-3c-59 -132 -188 -214 -358 -214c-235 0 -380 152 -380 395v694h132v-672c0 -192 103 -298 285 -298c188 0 316 133 316 337v633h133zM458 1251h-108l-252 301h151zM743 1251h-108l-252 301h151z" />
    <glyph glyph-name="uacute" unicode="&#xfa;" horiz-adv-x="1097" 
d="M597 1251h-117l220 301h153zM979 1077v-1077h-125v202h-3c-59 -132 -188 -214 -358 -214c-235 0 -380 152 -380 395v694h132v-672c0 -192 103 -298 285 -298c188 0 316 133 316 337v633h133z" />
    <glyph glyph-name="uhungarumlaut" unicode="&#x171;" horiz-adv-x="1097" 
d="M634 1251l209 301h151l-252 -301h-108zM349 1251l209 301h151l-252 -301h-108zM979 1077v-1077h-125v202h-3c-59 -132 -188 -214 -358 -214c-235 0 -380 152 -380 395v694h132v-672c0 -192 103 -298 285 -298c188 0 316 133 316 337v633h133z" />
    <glyph glyph-name="ucircumflex" unicode="&#xfb;" horiz-adv-x="1097" 
d="M594 1552l273 -301h-127l-192 220h-5l-192 -220h-127l273 301h97zM979 1077v-1077h-125v202h-3c-59 -132 -188 -214 -358 -214c-235 0 -380 152 -380 395v694h132v-672c0 -192 103 -298 285 -298c188 0 316 133 316 337v633h133z" />
    <glyph glyph-name="ucaron" unicode="&#x1d4;" horiz-adv-x="1097" 
d="M594 1251h-97l-273 301h127l192 -219h5l192 219h127zM979 1077v-1077h-125v202h-3c-59 -132 -188 -214 -358 -214c-235 0 -380 152 -380 395v694h132v-672c0 -192 103 -298 285 -298c188 0 316 133 316 337v633h133z" />
    <glyph glyph-name="ucircumflexbelow" unicode="&#x1e77;" horiz-adv-x="1097" 
d="M979 1077v-1077h-125v202h-3c-59 -132 -188 -214 -358 -214c-235 0 -380 152 -380 395v694h132v-672c0 -192 103 -298 285 -298c188 0 316 133 316 337v633h133zM498 -158h110l283 -295h-131l-206 217h-2l-206 -217h-131z" />
    <glyph glyph-name="udieresis" unicode="&#xfc;" horiz-adv-x="1097" 
d="M979 1077v-1077h-125v202h-3c-59 -132 -188 -214 -358 -214c-235 0 -380 152 -380 395v694h132v-672c0 -192 103 -298 285 -298c188 0 316 133 316 337v633h133zM368 1259c-50 0 -93 42 -93 92c0 51 43 93 93 93c51 0 93 -42 93 -93c0 -50 -42 -92 -93 -92zM724 1259
c-51 0 -93 42 -93 92c0 51 42 93 93 93s93 -42 93 -93c0 -50 -42 -92 -93 -92z" />
    <glyph glyph-name="udieresisgrave" unicode="&#x1dc;" horiz-adv-x="1097" 
d="M609 1565h-118l-217 269h148zM368 1259c-50 0 -93 42 -93 92c0 51 43 93 93 93c51 0 93 -42 93 -93c0 -50 -42 -92 -93 -92zM724 1259c-51 0 -93 42 -93 92c0 51 42 93 93 93s93 -42 93 -93c0 -50 -42 -92 -93 -92zM979 1077v-1077h-125v202h-3
c-59 -132 -188 -214 -358 -214c-235 0 -380 152 -380 395v694h132v-672c0 -192 103 -298 285 -298c188 0 316 133 316 337v633h133z" />
    <glyph glyph-name="udieresisacute" unicode="&#x1d8;" horiz-adv-x="1097" 
d="M483 1565l187 269h148l-217 -269h-118zM368 1259c-50 0 -93 42 -93 92c0 51 43 93 93 93c51 0 93 -42 93 -93c0 -50 -42 -92 -93 -92zM724 1259c-51 0 -93 42 -93 92c0 51 42 93 93 93s93 -42 93 -93c0 -50 -42 -92 -93 -92zM979 1077v-1077h-125v202h-3
c-59 -132 -188 -214 -358 -214c-235 0 -380 152 -380 395v694h132v-672c0 -192 103 -298 285 -298c188 0 316 133 316 337v633h133z" />
    <glyph glyph-name="udieresismacron" unicode="&#x1d6;" horiz-adv-x="1097" 
d="M979 1077v-1077h-125v202h-3c-59 -132 -188 -214 -358 -214c-235 0 -380 152 -380 395v694h132v-672c0 -192 103 -298 285 -298c188 0 316 133 316 337v633h133zM368 1259c-49 0 -89 40 -89 89c0 50 40 89 89 89c50 0 90 -39 90 -89c0 -49 -40 -89 -90 -89zM724 1259
c-49 0 -90 40 -90 89c0 50 41 89 90 89c50 0 89 -39 89 -89c0 -49 -39 -89 -89 -89zM853 1719v-85h-618v85h618z" />
    <glyph glyph-name="udieresiscaron" unicode="&#x1da;" horiz-adv-x="1097" 
d="M368 1259c-50 0 -93 42 -93 92c0 51 43 93 93 93c51 0 93 -42 93 -93c0 -50 -42 -92 -93 -92zM724 1259c-51 0 -93 42 -93 92c0 51 42 93 93 93s93 -42 93 -93c0 -50 -42 -92 -93 -92zM611 1565h-130l-261 269h125l199 -205h4l199 205h125zM979 1077v-1077h-125v202h-3
c-59 -132 -188 -214 -358 -214c-235 0 -380 152 -380 395v694h132v-672c0 -192 103 -298 285 -298c188 0 316 133 316 337v633h133z" />
    <glyph glyph-name="udieresisbelow" unicode="&#x1e73;" horiz-adv-x="1097" 
d="M979 1077v-1077h-125v202h-3c-59 -132 -188 -214 -358 -214c-235 0 -380 152 -380 395v694h132v-672c0 -192 103 -298 285 -298c188 0 316 133 316 337v633h133zM375 -339c-50 0 -93 42 -93 92c0 51 43 93 93 93c51 0 93 -42 93 -93c0 -50 -42 -92 -93 -92zM731 -339
c-51 0 -93 42 -93 92c0 51 42 93 93 93s93 -42 93 -93c0 -50 -42 -92 -93 -92z" />
    <glyph glyph-name="utildebelow" unicode="&#x1e75;" horiz-adv-x="1097" 
d="M684 -394c-130 0 -170 157 -258 157c-52 0 -78 -55 -78 -144h-91c0 144 59 234 166 234c136 0 177 -157 261 -157c50 0 73 53 73 144h91c0 -141 -61 -234 -164 -234zM979 1077v-1077h-125v202h-3c-59 -132 -188 -214 -358 -214c-235 0 -380 152 -380 395v694h132v-672
c0 -192 103 -298 285 -298c188 0 316 133 316 337v633h133z" />
    <glyph glyph-name="uhookabove" unicode="&#x1ee7;" horiz-adv-x="1097" 
d="M979 1077v-1077h-125v202h-3c-59 -132 -188 -214 -358 -214c-235 0 -380 152 -380 395v694h132v-672c0 -192 103 -298 285 -298c188 0 316 133 316 337v633h133zM431 1433v85c37 18 75 27 124 27c106 0 175 -64 175 -161c0 -76 -57 -145 -141 -177l-50 66
c58 21 88 56 88 106c0 46 -40 81 -95 81c-35 0 -64 -8 -101 -27z" />
    <glyph glyph-name="ubreve" unicode="&#x16d;" horiz-adv-x="1097" 
d="M979 1077v-1077h-125v202h-3c-59 -132 -188 -214 -358 -214c-235 0 -380 152 -380 395v694h132v-672c0 -192 103 -298 285 -298c188 0 316 133 316 337v633h133zM244 1530h97c0 -115 86 -200 204 -200s204 85 204 200h97c0 -174 -124 -286 -301 -286s-301 112 -301 286z
" />
    <glyph glyph-name="uinvertedbreve" unicode="&#x217;" horiz-adv-x="1097" 
d="M979 1077v-1077h-125v202h-3c-59 -132 -188 -214 -358 -214c-235 0 -380 152 -380 395v694h132v-672c0 -192 103 -298 285 -298c188 0 316 133 316 337v633h133zM245 1251c0 174 124 286 301 286s301 -112 301 -286h-97c0 115 -86 200 -204 200s-204 -85 -204 -200h-97z
" />
    <glyph glyph-name="utildeacute" unicode="&#x1e79;" horiz-adv-x="1097" 
d="M979 1077v-1077h-125v202h-3c-59 -132 -188 -214 -358 -214c-235 0 -380 152 -380 395v694h132v-672c0 -192 103 -298 285 -298c188 0 316 133 316 337v633h133zM486 1576l159 261h132l-188 -261h-103zM680 1243c-130 0 -170 157 -258 157c-52 0 -78 -55 -78 -144h-91
c0 144 59 234 166 234c136 0 177 -157 261 -157c50 0 73 53 73 144h91c0 -141 -61 -234 -164 -234z" />
    <glyph glyph-name="udotbelow" unicode="&#x1ee5;" horiz-adv-x="1097" 
d="M553 -351c-56 0 -102 46 -102 102s46 102 102 102s102 -46 102 -102s-46 -102 -102 -102zM979 1077v-1077h-125v202h-3c-59 -132 -188 -214 -358 -214c-235 0 -380 152 -380 395v694h132v-672c0 -192 103 -298 285 -298c188 0 316 133 316 337v633h133z" />
    <glyph glyph-name="utilde" unicode="&#x169;" horiz-adv-x="1097" 
d="M979 1077v-1077h-125v202h-3c-59 -132 -188 -214 -358 -214c-235 0 -380 152 -380 395v694h132v-672c0 -192 103 -298 285 -298c188 0 316 133 316 337v633h133zM680 1257c-130 0 -170 157 -258 157c-52 0 -78 -55 -78 -144h-91c0 144 59 234 166 234
c136 0 177 -157 261 -157c50 0 73 53 73 144h91c0 -141 -61 -234 -164 -234z" />
    <glyph glyph-name="umacron" unicode="&#x16b;" horiz-adv-x="1097" 
d="M979 1077v-1077h-125v202h-3c-59 -132 -188 -214 -358 -214c-235 0 -380 152 -380 395v694h132v-672c0 -192 103 -298 285 -298c188 0 316 133 316 337v633h133zM853 1400v-85h-618v85h618z" />
    <glyph glyph-name="umacrondieresis" unicode="&#x1e7b;" horiz-adv-x="1097" 
d="M376 1565c-49 0 -89 40 -89 89c0 50 40 89 89 89c50 0 90 -39 90 -89c0 -49 -40 -89 -90 -89zM716 1565c-50 0 -90 40 -90 89c0 50 40 89 90 89c49 0 89 -39 89 -89c0 -49 -40 -89 -89 -89zM853 1400v-85h-618v85h618zM979 1077v-1077h-125v202h-3
c-59 -132 -188 -214 -358 -214c-235 0 -380 152 -380 395v694h132v-672c0 -192 103 -298 285 -298c188 0 316 133 316 337v633h133z" />
    <glyph glyph-name="uring" unicode="&#x16f;" horiz-adv-x="1097" 
d="M979 1077v-1077h-125v202h-3c-59 -132 -188 -214 -358 -214c-235 0 -380 152 -380 395v694h132v-672c0 -192 103 -298 285 -298c188 0 316 133 316 337v633h133zM546 1206c-103 0 -187 85 -187 188s84 188 187 188s188 -85 188 -188s-85 -188 -188 -188zM546 1274
c67 0 120 54 120 120s-53 120 -120 120c-66 0 -119 -54 -119 -120s53 -120 119 -120z" />
    <glyph glyph-name="uogonek" unicode="&#x173;" horiz-adv-x="1097" 
d="M973 -402c-25 -9 -57 -14 -93 -14c-132 0 -227 80 -227 192c0 101 77 192 201 238v188h-3c-59 -132 -188 -214 -358 -214c-235 0 -380 152 -380 395v694h132v-672c0 -192 103 -298 285 -298c188 0 316 133 316 337v633h133v-1077l-11 -4c-119 -50 -186 -118 -186 -193
c0 -63 51 -108 124 -108c28 0 54 3 67 7v-104z" />
    <glyph glyph-name="uhorn" unicode="&#x1b0;" horiz-adv-x="1200" 
d="M851 202c-60 -134 -190 -214 -358 -214c-233 0 -380 150 -380 395v694h132v-672c0 -194 105 -298 285 -298c186 0 316 131 316 337v633h138c69 0 101 31 101 94v143h122v-167c0 -106 -70 -170 -189 -170h-39v-977h-125v202h-3z" />
    <glyph glyph-name="uhorngrave" unicode="&#x1eeb;" horiz-adv-x="1200" 
d="M606 1251h-117l-256 301h153zM851 202c-60 -134 -190 -214 -358 -214c-233 0 -380 150 -380 395v694h132v-672c0 -194 105 -298 285 -298c186 0 316 131 316 337v633h138c69 0 101 31 101 94v143h122v-167c0 -106 -70 -170 -189 -170h-39v-977h-125v202h-3z" />
    <glyph glyph-name="uhornacute" unicode="&#x1ee9;" horiz-adv-x="1200" 
d="M597 1251h-117l220 301h153zM851 202c-60 -134 -190 -214 -358 -214c-233 0 -380 150 -380 395v694h132v-672c0 -194 105 -298 285 -298c186 0 316 131 316 337v633h138c69 0 101 31 101 94v143h122v-167c0 -106 -70 -170 -189 -170h-39v-977h-125v202h-3z" />
    <glyph glyph-name="uhorndotbelow" unicode="&#x1ef1;" horiz-adv-x="1200" 
d="M553 -351c-56 0 -102 46 -102 102s46 102 102 102s102 -46 102 -102s-46 -102 -102 -102zM851 202c-60 -134 -190 -214 -358 -214c-233 0 -380 150 -380 395v694h132v-672c0 -194 105 -298 285 -298c186 0 316 131 316 337v633h138c69 0 101 31 101 94v143h122v-167
c0 -106 -70 -170 -189 -170h-39v-977h-125v202h-3z" />
    <glyph glyph-name="uhornhookabove" unicode="&#x1eed;" horiz-adv-x="1200" 
d="M431 1433v85c37 18 75 27 124 27c106 0 175 -64 175 -161c0 -76 -57 -145 -141 -177l-50 66c58 21 88 56 88 106c0 46 -40 81 -95 81c-35 0 -64 -8 -101 -27zM851 202c-60 -134 -190 -214 -358 -214c-233 0 -380 150 -380 395v694h132v-672c0 -194 105 -298 285 -298
c186 0 316 131 316 337v633h138c69 0 101 31 101 94v143h122v-167c0 -106 -70 -170 -189 -170h-39v-977h-125v202h-3z" />
    <glyph glyph-name="uhorntilde" unicode="&#x1eef;" horiz-adv-x="1200" 
d="M680 1257c-130 0 -170 157 -258 157c-52 0 -78 -55 -78 -144h-91c0 144 59 234 166 234c136 0 177 -157 261 -157c50 0 73 53 73 144h91c0 -141 -61 -234 -164 -234zM851 202c-60 -134 -190 -214 -358 -214c-233 0 -380 150 -380 395v694h132v-672
c0 -194 105 -298 285 -298c186 0 316 131 316 337v633h138c69 0 101 31 101 94v143h122v-167c0 -106 -70 -170 -189 -170h-39v-977h-125v202h-3z" />
    <glyph glyph-name="v" unicode="v" horiz-adv-x="977" 
d="M960 1077l-401 -1077h-140l-402 1077h139l331 -936h3l332 936h138z" />
    <glyph glyph-name="vtilde" unicode="&#x1e7d;" horiz-adv-x="977" 
d="M622 1257c-130 0 -170 157 -258 157c-52 0 -78 -55 -78 -144h-91c0 144 59 234 166 234c136 0 177 -157 261 -157c50 0 73 53 73 144h91c0 -141 -61 -234 -164 -234zM960 1077l-401 -1077h-140l-402 1077h139l331 -936h3l332 936h138z" />
    <glyph glyph-name="vdotbelow" unicode="&#x1e7f;" horiz-adv-x="977" 
d="M489 -351c-56 0 -102 46 -102 102s46 102 102 102s102 -46 102 -102s-46 -102 -102 -102zM960 1077l-401 -1077h-140l-402 1077h139l331 -936h3l332 936h138z" />
    <glyph glyph-name="w" unicode="w" horiz-adv-x="1477" 
d="M1456 1077l-307 -1077h-139l-270 897h-3l-270 -897h-139l-307 1077h133l244 -927h3l270 927h134l271 -927h3l244 927h133z" />
    <glyph glyph-name="wgrave" unicode="&#x1e81;" horiz-adv-x="1477" 
d="M798 1251h-117l-256 301h153zM1456 1077l-307 -1077h-139l-270 897h-3l-270 -897h-139l-307 1077h133l244 -927h3l270 927h134l271 -927h3l244 927h133z" />
    <glyph glyph-name="wacute" unicode="&#x1e83;" horiz-adv-x="1477" 
d="M789 1251h-117l220 301h153zM1456 1077l-307 -1077h-139l-270 897h-3l-270 -897h-139l-307 1077h133l244 -927h3l270 927h134l271 -927h3l244 927h133z" />
    <glyph glyph-name="wdotaccent" unicode="&#x1e87;" horiz-adv-x="1477" 
d="M738 1259c-57 0 -104 47 -104 104s47 104 104 104s104 -47 104 -104s-47 -104 -104 -104zM1456 1077l-307 -1077h-139l-270 897h-3l-270 -897h-139l-307 1077h133l244 -927h3l270 927h134l271 -927h3l244 927h133z" />
    <glyph glyph-name="wdotbelow" unicode="&#x1e89;" horiz-adv-x="1477" 
d="M738 -351c-56 0 -102 46 -102 102s46 102 102 102s102 -46 102 -102s-46 -102 -102 -102zM1456 1077l-307 -1077h-139l-270 897h-3l-270 -897h-139l-307 1077h133l244 -927h3l270 927h134l271 -927h3l244 927h133z" />
    <glyph glyph-name="wdieresis" unicode="&#x1e85;" horiz-adv-x="1477" 
d="M560 1259c-50 0 -93 42 -93 92c0 51 43 93 93 93c51 0 93 -42 93 -93c0 -50 -42 -92 -93 -92zM916 1259c-51 0 -93 42 -93 92c0 51 42 93 93 93s93 -42 93 -93c0 -50 -42 -92 -93 -92zM1456 1077l-307 -1077h-139l-270 897h-3l-270 -897h-139l-307 1077h133l244 -927h3
l270 927h134l271 -927h3l244 927h133z" />
    <glyph glyph-name="wcircumflex" unicode="&#x175;" horiz-adv-x="1477" 
d="M786 1552l273 -301h-127l-192 220h-5l-192 -220h-127l273 301h97zM1456 1077l-307 -1077h-139l-270 897h-3l-270 -897h-139l-307 1077h133l244 -927h3l270 927h134l271 -927h3l244 927h133z" />
    <glyph glyph-name="wring" unicode="&#x1e98;" horiz-adv-x="1477" 
d="M1456 1077l-307 -1077h-139l-270 897h-3l-270 -897h-139l-307 1077h133l244 -927h3l270 927h134l271 -927h3l244 927h133zM738 1206c-103 0 -187 85 -187 188s84 188 187 188s188 -85 188 -188s-85 -188 -188 -188zM738 1274c67 0 120 54 120 120s-53 120 -120 120
c-66 0 -119 -54 -119 -120s53 -120 119 -120z" />
    <glyph glyph-name="x" unicode="x" horiz-adv-x="950" 
d="M476 444h-4l-298 -444h-150l380 542l-376 535h150l299 -434h3l296 434h150l-377 -530l374 -547h-150z" />
    <glyph glyph-name="xdotaccent" unicode="&#x1e8b;" horiz-adv-x="950" 
d="M476 444h-4l-298 -444h-150l380 542l-376 535h150l299 -434h3l296 434h150l-377 -530l374 -547h-150zM476 1259c-57 0 -104 47 -104 104s47 104 104 104s104 -47 104 -104s-47 -104 -104 -104z" />
    <glyph glyph-name="xdieresis" unicode="&#x1e8d;" horiz-adv-x="950" 
d="M476 444h-4l-298 -444h-150l380 542l-376 535h150l299 -434h3l296 434h150l-377 -530l374 -547h-150zM298 1259c-50 0 -93 42 -93 92c0 51 43 93 93 93c51 0 93 -42 93 -93c0 -50 -42 -92 -93 -92zM654 1259c-51 0 -93 42 -93 92c0 51 42 93 93 93s93 -42 93 -93
c0 -50 -42 -92 -93 -92z" />
    <glyph glyph-name="y" unicode="y" horiz-adv-x="980" 
d="M197 -381c-21 0 -50 4 -66 7v114c16 -4 43 -7 64 -7c99 0 151 49 201 187l26 73l-405 1084h142l330 -943h3l331 943h140l-423 -1136c-94 -252 -169 -322 -343 -322z" />
    <glyph glyph-name="ygrave" unicode="&#x1ef3;" horiz-adv-x="980" 
d="M197 -381c-21 0 -50 4 -66 7v114c16 -4 43 -7 64 -7c99 0 151 49 201 187l26 73l-405 1084h142l330 -943h3l331 943h140l-423 -1136c-94 -252 -169 -322 -343 -322zM551 1251h-117l-256 301h153z" />
    <glyph glyph-name="yacute" unicode="&#xfd;" horiz-adv-x="980" 
d="M197 -381c-21 0 -50 4 -66 7v114c16 -4 43 -7 64 -7c99 0 151 49 201 187l26 73l-405 1084h142l330 -943h3l331 943h140l-423 -1136c-94 -252 -169 -322 -343 -322zM542 1251h-117l220 301h153z" />
    <glyph glyph-name="ydotaccent" unicode="&#x1e8f;" horiz-adv-x="980" 
d="M197 -381c-21 0 -50 4 -66 7v114c16 -4 43 -7 64 -7c99 0 151 49 201 187l26 73l-405 1084h142l330 -943h3l331 943h140l-423 -1136c-94 -252 -169 -322 -343 -322zM491 1259c-57 0 -104 47 -104 104s47 104 104 104s104 -47 104 -104s-47 -104 -104 -104z" />
    <glyph glyph-name="ydotbelow" unicode="&#x1ef5;" horiz-adv-x="980" 
d="M197 -381c-21 0 -50 4 -66 7v114c16 -4 43 -7 64 -7c99 0 151 49 201 187l26 73l-405 1084h142l330 -943h3l331 943h140l-423 -1136c-94 -252 -169 -322 -343 -322zM779 -351c-56 0 -102 46 -102 102s46 102 102 102s102 -46 102 -102s-46 -102 -102 -102z" />
    <glyph glyph-name="ydieresis" unicode="&#xff;" horiz-adv-x="980" 
d="M197 -381c-21 0 -50 4 -66 7v114c16 -4 43 -7 64 -7c99 0 151 49 201 187l26 73l-405 1084h142l330 -943h3l331 943h140l-423 -1136c-94 -252 -169 -322 -343 -322zM313 1259c-50 0 -93 42 -93 92c0 51 43 93 93 93c51 0 93 -42 93 -93c0 -50 -42 -92 -93 -92zM669 1259
c-51 0 -93 42 -93 92c0 51 42 93 93 93s93 -42 93 -93c0 -50 -42 -92 -93 -92z" />
    <glyph glyph-name="ytilde" unicode="&#x1ef9;" horiz-adv-x="980" 
d="M197 -381c-21 0 -50 4 -66 7v114c16 -4 43 -7 64 -7c99 0 151 49 201 187l26 73l-405 1084h142l330 -943h3l331 943h140l-423 -1136c-94 -252 -169 -322 -343 -322zM624 1257c-130 0 -170 157 -258 157c-52 0 -78 -55 -78 -144h-91c0 144 59 234 166 234
c136 0 177 -157 261 -157c50 0 73 53 73 144h91c0 -141 -61 -234 -164 -234z" />
    <glyph glyph-name="ycircumflex" unicode="&#x177;" horiz-adv-x="980" 
d="M197 -381c-21 0 -50 4 -66 7v114c16 -4 43 -7 64 -7c99 0 151 49 201 187l26 73l-405 1084h142l330 -943h3l331 943h140l-423 -1136c-94 -252 -169 -322 -343 -322zM539 1552l273 -301h-127l-192 220h-5l-192 -220h-127l273 301h97z" />
    <glyph glyph-name="ymacron" unicode="&#x233;" horiz-adv-x="980" 
d="M197 -381c-21 0 -50 4 -66 7v114c16 -4 43 -7 64 -7c99 0 151 49 201 187l26 73l-405 1084h142l330 -943h3l331 943h140l-423 -1136c-94 -252 -169 -322 -343 -322zM798 1400v-85h-618v85h618z" />
    <glyph glyph-name="yhookabove" unicode="&#x1ef7;" horiz-adv-x="980" 
d="M197 -381c-21 0 -50 4 -66 7v114c16 -4 43 -7 64 -7c99 0 151 49 201 187l26 73l-405 1084h142l330 -943h3l331 943h140l-423 -1136c-94 -252 -169 -322 -343 -322zM376 1433v85c37 18 75 27 124 27c106 0 175 -64 175 -161c0 -76 -57 -145 -141 -177l-50 66
c58 21 88 56 88 106c0 46 -40 81 -95 81c-35 0 -64 -8 -101 -27z" />
    <glyph glyph-name="yring" unicode="&#x1e99;" horiz-adv-x="980" 
d="M197 -381c-21 0 -50 4 -66 7v114c16 -4 43 -7 64 -7c99 0 151 49 201 187l26 73l-405 1084h142l330 -943h3l331 943h140l-423 -1136c-94 -252 -169 -322 -343 -322zM491 1206c-103 0 -187 85 -187 188s84 188 187 188s188 -85 188 -188s-85 -188 -188 -188zM491 1274
c67 0 120 54 120 120s-53 120 -120 120c-66 0 -119 -54 -119 -120s53 -120 119 -120z" />
    <glyph glyph-name="z" unicode="z" horiz-adv-x="963" 
d="M83 0v100l645 864v2h-645v111h796v-101l-644 -862v-3h646v-111h-798z" />
    <glyph glyph-name="zacute" unicode="&#x17a;" horiz-adv-x="963" 
d="M533 1251h-117l220 301h153zM83 0v100l645 864v2h-645v111h796v-101l-644 -862v-3h646v-111h-798z" />
    <glyph glyph-name="zcaron" unicode="&#x17e;" horiz-adv-x="963" 
d="M530 1251h-97l-273 301h127l192 -219h5l192 219h127zM83 0v100l645 864v2h-645v111h796v-101l-644 -862v-3h646v-111h-798z" />
    <glyph glyph-name="zcircumflex" unicode="&#x1e91;" horiz-adv-x="963" 
d="M530 1552l273 -301h-127l-192 220h-5l-192 -220h-127l273 301h97zM83 0v100l645 864v2h-645v111h796v-101l-644 -862v-3h646v-111h-798z" />
    <glyph glyph-name="zlinebelow" unicode="&#x1e95;" horiz-adv-x="963" 
d="M787 -214v-85h-610v85h610zM83 0v100l645 864v2h-645v111h796v-101l-644 -862v-3h646v-111h-798z" />
    </font>
</defs>
</svg>
